{"accessors":[{"bufferView":0,"byteOffset":0,"componentType":5126,"count":102,"max":[2.5,0.0,5.0],"min":[-2.5,-5.20000076293945,0.0],"normalized":false,"type":"VEC3"},{"bufferView":1,"byteOffset":0,"componentType":5126,"count":102,"max":[1.0,1.0,0.0000763009302318096,1.0],"min":[-1.0,-1.0,-0.0000962179619818926,-1.0],"normalized":false,"type":"VEC4"},{"bufferView":2,"byteOffset":0,"componentType":5126,"count":102,"max":[1.0,1.0,1.0],"min":[-1.0,-1.0,-1.0],"normalized":false,"type":"VEC3"},{"bufferView":3,"byteOffset":0,"componentType":5126,"count":102,"max":[3.99971699714661,0.999925971031189],"min":[0.0000740000032237731,-2.99971699714661],"normalized":false,"type":"VEC2"},{"bufferView":4,"byteOffset":0,"componentType":5123,"count":222,"max":[101.0],"min":[0.0],"normalized":false,"type":"SCALAR"},{"bufferView":5,"byteOffset":0,"componentType":5126,"count":12,"max":[3.99999809265137,-5.19999980926514,0.0],"min":[-3.99999809265137,-10.4700012207031,0.0],"normalized":false,"type":"VEC3"},{"bufferView":6,"byteOffset":0,"componentType":5126,"count":12,"max":[1.0,0.0,-0.0000152590218931437,1.0],"min":[-1.0,0.0,-0.0000457784626632929,-1.0],"normalized":false,"type":"VEC4"},{"bufferView":7,"byteOffset":0,"componentType":5126,"count":12,"max":[-0.0000152592547237873,-0.0000152592547237873,1.0],"min":[-0.0000152592547237873,-0.0000152592547237873,1.0],"normalized":false,"type":"VEC3"},{"bufferView":8,"byteOffset":0,"componentType":5126,"count":12,"max":[0.379483997821808,0.999956011772156],"min":[0.000044000000343658,0.500043988227844],"normalized":false,"type":"VEC2"},{"bufferView":9,"byteOffset":0,"componentType":5123,"count":24,"max":[11.0],"min":[0.0],"normalized":false,"type":"SCALAR"},{"bufferView":10,"byteOffset":0,"componentType":5126,"count":72,"max":[4.0,-5.20000028610229,4.0],"min":[-4.0,-10.4700002670288,0.0],"normalized":false,"type":"VEC3"},{"bufferView":11,"byteOffset":0,"componentType":5126,"count":72,"max":[1.0,1.0,0.0000736713409423828,1.0],"min":[-1.0,-0.0000304562272503972,-0.0000305798603221774,-1.0],"normalized":false,"type":"VEC4"},{"bufferView":12,"byteOffset":0,"componentType":5126,"count":72,"max":[1.0,1.0,0.0000636577606201172],"min":[-1.0,-1.0,-1.0],"normalized":false,"type":"VEC3"},{"bufferView":13,"byteOffset":0,"componentType":5126,"count":72,"max":[0.800000011920929,0.949999988079071],"min":[-0.634006261825562,-0.0000144958494274761],"normalized":false,"type":"VEC2"},{"bufferView":14,"byteOffset":0,"componentType":5123,"count":108,"max":[71.0],"min":[0.0],"normalized":false,"type":"SCALAR"},{"bufferView":15,"byteOffset":0,"componentType":5126,"count":8,"max":[4.0,-5.40000009536743,4.0],"min":[-4.0,-10.1700000762939,4.0],"normalized":false,"type":"VEC3"},{"bufferView":16,"byteOffset":0,"componentType":5126,"count":8,"max":[-0.0000000298023223876953,0.999999940395355,0.0000304562272503972,1.0],"min":[-0.0000000298023223876953,0.999999940395355,0.0000304562272503972,-1.0],"normalized":false,"type":"VEC4"},{"bufferView":17,"byteOffset":0,"componentType":5126,"count":8,"max":[0.0000305798603221774,0.0000304562272503972,-1.0],"min":[0.0000305798603221774,0.0000304562272503972,-1.0],"normalized":false,"type":"VEC3"},{"bufferView":18,"byteOffset":0,"componentType":5126,"count":8,"max":[1.99981498718262,0.999909996986389],"min":[0.000152573775267228,-0.00257856282405555],"normalized":false,"type":"VEC2"},{"bufferView":19,"byteOffset":0,"componentType":5123,"count":12,"max":[7.0],"min":[0.0],"normalized":false,"type":"SCALAR"},{"bufferView":20,"byteOffset":0,"componentType":5126,"count":3600,"max":[2.49999809265137,-0.475001007318497,4.52500009536743],"min":[-2.49999809265137,-4.52500104904175,0.474999994039536],"normalized":false,"type":"VEC3"},{"bufferView":21,"byteOffset":0,"componentType":5126,"count":3600,"max":[0.958404779434204,0.0000644532556179911,0.695623457431793,1.0],"min":[-0.958427667617798,-0.945962965488434,-0.202629193663597,-1.0],"normalized":false,"type":"VEC4"},{"bufferView":22,"byteOffset":0,"componentType":5126,"count":3600,"max":[0.804213464260101,1.0,1.0],"min":[-0.804228544235229,-1.0,-1.0],"normalized":false,"type":"VEC3"},{"bufferView":23,"byteOffset":0,"componentType":5126,"count":3600,"max":[0.822829008102417,0.823588967323303],"min":[0.174807995557785,0.182439982891083],"normalized":false,"type":"VEC2"},{"bufferView":24,"byteOffset":0,"componentType":5123,"count":12960,"max":[3599.0],"min":[0.0],"normalized":false,"type":"SCALAR"},{"bufferView":25,"byteOffset":0,"componentType":5126,"count":720,"max":[2.49000000953674,-0.487499713897705,4.51250028610229],"min":[-2.49000000953674,-4.51249980926514,0.487500011920929],"normalized":false,"type":"VEC3"},{"bufferView":26,"byteOffset":0,"componentType":5126,"count":720,"max":[0.00011366605758667,-0.923829078674316,-0.38259956240654,1.0],"min":[-0.000116720795631409,-0.9239142537117,-0.382805228233337,-1.0],"normalized":false,"type":"VEC4"},{"bufferView":27,"byteOffset":0,"componentType":5126,"count":720,"max":[1.0,-0.0000286996364593506,0.0000573694705963135],"min":[-1.0,-0.000123441219329834,-0.0000549405813217163],"normalized":false,"type":"VEC3"},{"bufferView":28,"byteOffset":0,"componentType":5126,"count":720,"max":[0.9998779296875,0.999893188476563],"min":[0.0000915541313588619,0.0000915541313588619],"normalized":false,"type":"VEC2"},{"bufferView":29,"byteOffset":0,"componentType":5123,"count":1620,"max":[719.0],"min":[0.0],"normalized":false,"type":"SCALAR"}],"asset":{"generator":"Godot Engine v4.4.1.stable.official@49a5bc7b616bd04689a2c89e89bda41f50241464","version":"2.0"},"bufferViews":[{"buffer":0,"byteLength":1224,"byteOffset":0,"byteStride":12,"target":34962},{"buffer":0,"byteLength":1632,"byteOffset":1224,"byteStride":16,"target":34962},{"buffer":0,"byteLength":1224,"byteOffset":2856,"byteStride":12,"target":34962},{"buffer":0,"byteLength":816,"byteOffset":4080,"byteStride":8,"target":34962},{"buffer":0,"byteLength":444,"byteOffset":4896,"target":34963},{"buffer":0,"byteLength":144,"byteOffset":5340,"byteStride":12,"target":34962},{"buffer":0,"byteLength":192,"byteOffset":5484,"byteStride":16,"target":34962},{"buffer":0,"byteLength":144,"byteOffset":5676,"byteStride":12,"target":34962},{"buffer":0,"byteLength":96,"byteOffset":5820,"byteStride":8,"target":34962},{"buffer":0,"byteLength":48,"byteOffset":5916,"target":34963},{"buffer":0,"byteLength":864,"byteOffset":5964,"byteStride":12,"target":34962},{"buffer":0,"byteLength":1152,"byteOffset":6828,"byteStride":16,"target":34962},{"buffer":0,"byteLength":864,"byteOffset":7980,"byteStride":12,"target":34962},{"buffer":0,"byteLength":576,"byteOffset":8844,"byteStride":8,"target":34962},{"buffer":0,"byteLength":216,"byteOffset":9420,"target":34963},{"buffer":0,"byteLength":96,"byteOffset":9636,"byteStride":12,"target":34962},{"buffer":0,"byteLength":128,"byteOffset":9732,"byteStride":16,"target":34962},{"buffer":0,"byteLength":96,"byteOffset":9860,"byteStride":12,"target":34962},{"buffer":0,"byteLength":64,"byteOffset":9956,"byteStride":8,"target":34962},{"buffer":0,"byteLength":24,"byteOffset":10020,"target":34963},{"buffer":0,"byteLength":43200,"byteOffset":10044,"byteStride":12,"target":34962},{"buffer":0,"byteLength":57600,"byteOffset":53244,"byteStride":16,"target":34962},{"buffer":0,"byteLength":43200,"byteOffset":110844,"byteStride":12,"target":34962},{"buffer":0,"byteLength":28800,"byteOffset":154044,"byteStride":8,"target":34962},{"buffer":0,"byteLength":25920,"byteOffset":182844,"target":34963},{"buffer":0,"byteLength":8640,"byteOffset":208764,"byteStride":12,"target":34962},{"buffer":0,"byteLength":11520,"byteOffset":217404,"byteStride":16,"target":34962},{"buffer":0,"byteLength":8640,"byteOffset":228924,"byteStride":12,"target":34962},{"buffer":0,"byteLength":5760,"byteOffset":237564,"byteStride":8,"target":34962},{"buffer":0,"byteLength":3240,"byteOffset":243324,"target":34963}],"buffers":[{"byteLength":246564,"uri":"HC_cont1_0960.bin"}],"extensions":{"KHR_lights_punctual":{"lights":[{"color":[1.0,0.907504975795746,0.823529005050659],"intensity":2.19911003112793,"range":5.67409992218018,"type":"point"},{"color":[1.0,0.0,0.0],"range":7.56547021865845,"type":"point"}]}},"extensionsRequired":["KHR_texture_transform"],"extensionsUsed":["GODOT_single_root","KHR_lights_punctual","KHR_texture_transform"],"images":[{"uri":"textures%2FWall_Plating_albedo000.png"},{"uri":"textures%2FWall_Plating_normal000.png"},{"uri":"textures%2FFloor_Base_albedo000.png"},{"uri":"textures%2FFloor_Base_normal000.png"},{"uri":"textures%2FWall_Base_albedo000.png"},{"uri":"textures%2FWall_Base_normal000.png"}],"materials":[{"extensions":{},"name":"Wall_Plating","normalTexture":{"index":1,"scale":1.0},"pbrMetallicRoughness":{"baseColorFactor":[0.603827297687531,0.603827297687531,0.603827297687531,1.0],"baseColorTexture":{"index":0},"metallicFactor":0.0,"roughnessFactor":1.0}},{"extensions":{},"name":"Floor_Base","normalTexture":{"index":3,"scale":0.200000002980232},"pbrMetallicRoughness":{"baseColorFactor":[1.0,1.0,1.0,1.0],"baseColorTexture":{"extensions":{"KHR_texture_transform":{"offset":[0.0,-8.0],"scale":[9.0,9.0]}},"index":2},"metallicFactor":0.0,"roughnessFactor":1.0}},{"extensions":{},"name":"Wall_Base","normalTexture":{"index":5,"scale":0.5},"pbrMetallicRoughness":{"baseColorFactor":[0.499904364347458,0.47141021490097,0.436739146709442,1.0],"baseColorTexture":{"extensions":{"KHR_texture_transform":{"offset":[0.0,-1.0],"scale":[2.0,2.0]}},"index":4},"metallicFactor":0.0,"roughnessFactor":1.0}},{"emissiveFactor":[0.0,0.0,0.0],"extensions":{},"name":"Lamp Red (Instance)","pbrMetallicRoughness":{"baseColorFactor":[1.0,0.0,0.0,1.0],"metallicFactor":0.0,"roughnessFactor":0.495000004768372}},{"emissiveFactor":[0.0,0.0,0.0],"extensions":{},"name":"Lamp Red","pbrMetallicRoughness":{"baseColorFactor":[1.0,0.0,0.0,1.0],"metallicFactor":0.0,"roughnessFactor":0.495000004768372}}],"meshes":[{"extras":{"targetNames":[]},"primitives":[{"attributes":{"NORMAL":2,"POSITION":0,"TANGENT":1,"TEXCOORD_0":3},"indices":4,"material":0,"mode":4},{"attributes":{"NORMAL":7,"POSITION":5,"TANGENT":6,"TEXCOORD_0":8},"indices":9,"material":1,"mode":4},{"attributes":{"NORMAL":12,"POSITION":10,"TANGENT":11,"TEXCOORD_0":13},"indices":14,"material":2,"mode":4},{"attributes":{"NORMAL":17,"POSITION":15,"TANGENT":16,"TEXCOORD_0":18},"indices":19,"material":1,"mode":4}]},{"extras":{"targetNames":[]},"primitives":[{"attributes":{"NORMAL":22,"POSITION":20,"TANGENT":21,"TEXCOORD_0":23},"indices":24,"material":3,"mode":4},{"attributes":{"NORMAL":27,"POSITION":25,"TANGENT":26,"TEXCOORD_0":28},"indices":29,"material":4,"mode":4}]}],"nodes":[{"children":[1,2,3,4],"name":"SCPSL096Room2"},{"extensions":{"KHR_lights_punctual":{"light":0}},"name":"Point light","rotation":[0.0,0.707105696201324,0.0,0.707107841968536],"translation":[9.48101043701172,3.66167998313904,0.00502783991396427]},{"extensions":{"KHR_lights_punctual":{"light":1}},"name":"Point light2","rotation":[0.0,-0.707105934619904,0.0,0.707107603549957],"translation":[0.790987014770508,3.66167998313904,0.00999785959720612]},{"mesh":0,"name":"Cube","rotation":[-0.500000774860382,0.499999284744263,0.499999284744263,0.500000715255737],"scale":[1.0,0.999850988388062,1.0]},{"mesh":1,"name":"Cube_001","rotation":[-0.500000774860382,0.499999284744263,0.499999284744263,0.500000715255737]}],"samplers":[{"magFilter":9729,"minFilter":9987,"wrapS":10497,"wrapT":10497}],"scene":0,"scenes":[{"nodes":[0]}],"textures":[{"sampler":0,"source":0},{"sampler":0,"source":1},{"sampler":0,"source":2},{"sampler":0,"source":3},{"sampler":0,"source":4},{"sampler":0,"source":5}]}