{"accessors":[{"bufferView":0,"byteOffset":0,"componentType":5126,"count":904,"max":[4.0,4.0,5.30000019073486],"min":[-4.0,-10.2700004577637,0.0],"normalized":false,"type":"VEC3"},{"bufferView":1,"byteOffset":0,"componentType":5126,"count":904,"max":[1.0,1.0,1.0,1.0],"min":[-1.0,-1.0,-0.487891912460327,-1.0],"normalized":false,"type":"VEC4"},{"bufferView":2,"byteOffset":0,"componentType":5126,"count":904,"max":[1.0,1.0,1.0],"min":[-1.0,-1.0,-1.0],"normalized":false,"type":"VEC3"},{"bufferView":3,"byteOffset":0,"componentType":5126,"count":904,"max":[1.0,1.98663997650146],"min":[0.0,0.0],"normalized":false,"type":"VEC2"},{"bufferView":4,"byteOffset":0,"componentType":5123,"count":3084,"max":[903.0],"min":[0.0],"normalized":false,"type":"SCALAR"},{"bufferView":5,"byteOffset":0,"componentType":5126,"count":24,"max":[4.0,1.89999961853027,5.30000019073486],"min":[-4.0,-10.1700000762939,5.30000019073486],"normalized":false,"type":"VEC3"},{"bufferView":6,"byteOffset":0,"componentType":5126,"count":24,"max":[1.0,1.0,0.0,1.0],"min":[-1.0,-1.0,-0.0000305198045680299,-1.0],"normalized":false,"type":"VEC4"},{"bufferView":7,"byteOffset":0,"componentType":5126,"count":24,"max":[0.0000610385177424178,0.0,1.0],"min":[-0.0000610410788794979,-0.0000305196081171744,-1.0],"normalized":false,"type":"VEC3"},{"bufferView":8,"byteOffset":0,"componentType":5126,"count":24,"max":[1.0,1.0],"min":[0.0,0.0],"normalized":false,"type":"VEC2"},{"bufferView":9,"byteOffset":0,"componentType":5123,"count":36,"max":[23.0],"min":[0.0],"normalized":false,"type":"SCALAR"},{"bufferView":10,"byteOffset":0,"componentType":5126,"count":32,"max":[4.0,4.0,3.97499990463257],"min":[-4.0,-10.1700000762939,0.0],"normalized":false,"type":"VEC3"},{"bufferView":11,"byteOffset":0,"componentType":5126,"count":32,"max":[0.966500520706177,0.966503024101257,0.832092523574829,1.0],"min":[-0.966503024101257,-0.966514766216278,-1.0,-1.0],"normalized":false,"type":"VEC4"},{"bufferView":12,"byteOffset":0,"componentType":5126,"count":32,"max":[0.832060098648071,0.832066595554352,0.966503024101257],"min":[-0.832092583179474,-1.0,-0.966498374938965],"normalized":false,"type":"VEC3"},{"bufferView":13,"byteOffset":0,"componentType":5126,"count":32,"max":[1.0,1.05859398841858],"min":[0.0,0.0],"normalized":false,"type":"VEC2"},{"bufferView":14,"byteOffset":0,"componentType":5123,"count":48,"max":[31.0],"min":[0.0],"normalized":false,"type":"SCALAR"},{"bufferView":15,"byteOffset":0,"componentType":5126,"count":24,"max":[4.0,2.0,0.00999999977648258],"min":[-4.0,-10.1700000762939,0.00999999977648258],"normalized":false,"type":"VEC3"},{"bufferView":16,"byteOffset":0,"componentType":5126,"count":24,"max":[1.0,0.999999940395355,0.000143810699228197,1.0],"min":[-1.0,-0.999999940395355,-0.0000305185094475746,-1.0],"normalized":false,"type":"VEC4"},{"bufferView":17,"byteOffset":0,"componentType":5126,"count":24,"max":[0.000030580791644752,0.0000304562272503972,1.0],"min":[-0.000143810699228197,-0.0000305185094475746,-1.0],"normalized":false,"type":"VEC3"},{"bufferView":18,"byteOffset":0,"componentType":5126,"count":24,"max":[1.0,1.0],"min":[0.0,0.0],"normalized":false,"type":"VEC2"},{"bufferView":19,"byteOffset":0,"componentType":5123,"count":36,"max":[23.0],"min":[0.0],"normalized":false,"type":"SCALAR"},{"bufferView":20,"byteOffset":0,"componentType":5126,"count":64,"max":[4.0,3.5,0.0],"min":[-4.0,-10.4700002670288,0.0],"normalized":false,"type":"VEC3"},{"bufferView":21,"byteOffset":0,"componentType":5126,"count":64,"max":[1.0,1.0,0.0000763009302318096,1.0],"min":[-1.0,-1.0,-0.0000457784626632929,-1.0],"normalized":false,"type":"VEC4"},{"bufferView":22,"byteOffset":0,"componentType":5126,"count":64,"max":[0.0,0.0,1.0],"min":[-0.0000152592547237873,-0.0000152592547237873,-1.0],"normalized":false,"type":"VEC3"},{"bufferView":23,"byteOffset":0,"componentType":5126,"count":64,"max":[0.955110013484955,1.0],"min":[0.0,0.0],"normalized":false,"type":"VEC2"},{"bufferView":24,"byteOffset":0,"componentType":5123,"count":108,"max":[63.0],"min":[0.0],"normalized":false,"type":"SCALAR"},{"bufferView":25,"byteOffset":0,"componentType":5126,"count":2310,"max":[4.0,3.5,7.37723922729492],"min":[-4.0,-10.4700002670288,0.0],"normalized":false,"type":"VEC3"},{"bufferView":26,"byteOffset":0,"componentType":5126,"count":2310,"max":[1.0,1.0,1.0,1.0],"min":[-1.0,-1.0,-0.861879408359528,-1.0],"normalized":false,"type":"VEC4"},{"bufferView":27,"byteOffset":0,"componentType":5126,"count":2310,"max":[1.0,1.0,1.0],"min":[-1.0,-1.0,-1.0],"normalized":false,"type":"VEC3"},{"bufferView":28,"byteOffset":0,"componentType":5126,"count":2310,"max":[1.17818701267242,1.23869502544403],"min":[-0.280299007892609,-0.261304974555969],"normalized":false,"type":"VEC2"},{"bufferView":29,"byteOffset":0,"componentType":5123,"count":8160,"max":[2309.0],"min":[0.0],"normalized":false,"type":"SCALAR"},{"bufferView":30,"byteOffset":0,"componentType":5126,"count":2352,"max":[3.88892793655396,3.44819498062134,3.45000195503235],"min":[-3.88892793655396,-8.1140022277832,1.55000197887421],"normalized":false,"type":"VEC3"},{"bufferView":31,"byteOffset":0,"componentType":5126,"count":2352,"max":[1.0,1.0,1.0,1.0],"min":[-1.0,-1.0,-1.0,-1.0],"normalized":false,"type":"VEC4"},{"bufferView":32,"byteOffset":0,"componentType":5126,"count":2352,"max":[1.0,1.0,1.0],"min":[-1.0,-1.0,-1.0],"normalized":false,"type":"VEC3"},{"bufferView":33,"byteOffset":0,"componentType":5126,"count":2352,"max":[0.625,1.0],"min":[0.375,0.0],"normalized":false,"type":"VEC2"},{"bufferView":34,"byteOffset":0,"componentType":5123,"count":11232,"max":[2351.0],"min":[0.0],"normalized":false,"type":"SCALAR"}],"asset":{"generator":"Godot Engine v4.4.1.stable.official@49a5bc7b616bd04689a2c89e89bda41f50241464","version":"2.0"},"bufferViews":[{"buffer":0,"byteLength":10848,"byteOffset":0,"byteStride":12,"target":34962},{"buffer":0,"byteLength":14464,"byteOffset":10848,"byteStride":16,"target":34962},{"buffer":0,"byteLength":10848,"byteOffset":25312,"byteStride":12,"target":34962},{"buffer":0,"byteLength":7232,"byteOffset":36160,"byteStride":8,"target":34962},{"buffer":0,"byteLength":6168,"byteOffset":43392,"target":34963},{"buffer":0,"byteLength":288,"byteOffset":49560,"byteStride":12,"target":34962},{"buffer":0,"byteLength":384,"byteOffset":49848,"byteStride":16,"target":34962},{"buffer":0,"byteLength":288,"byteOffset":50232,"byteStride":12,"target":34962},{"buffer":0,"byteLength":192,"byteOffset":50520,"byteStride":8,"target":34962},{"buffer":0,"byteLength":72,"byteOffset":50712,"target":34963},{"buffer":0,"byteLength":384,"byteOffset":50784,"byteStride":12,"target":34962},{"buffer":0,"byteLength":512,"byteOffset":51168,"byteStride":16,"target":34962},{"buffer":0,"byteLength":384,"byteOffset":51680,"byteStride":12,"target":34962},{"buffer":0,"byteLength":256,"byteOffset":52064,"byteStride":8,"target":34962},{"buffer":0,"byteLength":96,"byteOffset":52320,"target":34963},{"buffer":0,"byteLength":288,"byteOffset":52416,"byteStride":12,"target":34962},{"buffer":0,"byteLength":384,"byteOffset":52704,"byteStride":16,"target":34962},{"buffer":0,"byteLength":288,"byteOffset":53088,"byteStride":12,"target":34962},{"buffer":0,"byteLength":192,"byteOffset":53376,"byteStride":8,"target":34962},{"buffer":0,"byteLength":72,"byteOffset":53568,"target":34963},{"buffer":0,"byteLength":768,"byteOffset":53640,"byteStride":12,"target":34962},{"buffer":0,"byteLength":1024,"byteOffset":54408,"byteStride":16,"target":34962},{"buffer":0,"byteLength":768,"byteOffset":55432,"byteStride":12,"target":34962},{"buffer":0,"byteLength":512,"byteOffset":56200,"byteStride":8,"target":34962},{"buffer":0,"byteLength":216,"byteOffset":56712,"target":34963},{"buffer":0,"byteLength":27720,"byteOffset":56928,"byteStride":12,"target":34962},{"buffer":0,"byteLength":36960,"byteOffset":84648,"byteStride":16,"target":34962},{"buffer":0,"byteLength":27720,"byteOffset":121608,"byteStride":12,"target":34962},{"buffer":0,"byteLength":18480,"byteOffset":149328,"byteStride":8,"target":34962},{"buffer":0,"byteLength":16320,"byteOffset":167808,"target":34963},{"buffer":0,"byteLength":28224,"byteOffset":184128,"byteStride":12,"target":34962},{"buffer":0,"byteLength":37632,"byteOffset":212352,"byteStride":16,"target":34962},{"buffer":0,"byteLength":28224,"byteOffset":249984,"byteStride":12,"target":34962},{"buffer":0,"byteLength":18816,"byteOffset":278208,"byteStride":8,"target":34962},{"buffer":0,"byteLength":22464,"byteOffset":297024,"target":34963}],"buffers":[{"byteLength":319488,"uri":"HC_room10.bin"}],"extensions":{"KHR_lights_punctual":{"lights":[{"color":[1.0,0.88679301738739,0.787735998630524],"intensity":2.67035007476807,"range":6.40000009536743,"type":"point"},{"color":[1.0,0.88679301738739,0.787735998630524],"intensity":2.67035007476807,"range":6.40000009536743,"type":"point"}]}},"extensionsRequired":["KHR_texture_transform"],"extensionsUsed":["GODOT_single_root","KHR_lights_punctual","KHR_texture_transform"],"images":[{"uri":"textures%2FWall_Base_albedo000.png"},{"uri":"textures%2FWall_Base_normal000.png"},{"uri":"textures%2FFloor_Base_albedo000.png"},{"uri":"textures%2FFloor_Base_normal000.png"},{"uri":"textures%2F_normal000.png"},{"uri":"textures%2FMetal_Pipe_albedo000.png"},{"uri":"textures%2FMetal_Pipe_normal000.png"}],"materials":[{"extensions":{},"name":"Wall_Base","normalTexture":{"index":1,"scale":0.5},"pbrMetallicRoughness":{"baseColorFactor":[0.499904364347458,0.47141021490097,0.436739146709442,1.0],"baseColorTexture":{"extensions":{"KHR_texture_transform":{"offset":[0.0,-1.0],"scale":[2.0,2.0]}},"index":0},"metallicFactor":0.0,"roughnessFactor":1.0}},{"extensions":{},"name":"Floor_Base","normalTexture":{"index":3,"scale":0.200000002980232},"pbrMetallicRoughness":{"baseColorFactor":[1.0,1.0,1.0,1.0],"baseColorTexture":{"extensions":{"KHR_texture_transform":{"offset":[0.0,-8.0],"scale":[9.0,9.0]}},"index":2},"metallicFactor":0.0,"roughnessFactor":1.0}},{"extensions":{},"normalTexture":{"index":4,"scale":1.0},"pbrMetallicRoughness":{"baseColorFactor":[0.461720705032349,0.153621762990952,0.0639719367027283,1.0],"metallicFactor":0.0,"roughnessFactor":1.0}},{"extensions":{},"name":"Metal_Pipe","normalTexture":{"index":6,"scale":0.0500000007450581},"pbrMetallicRoughness":{"baseColorFactor":[0.603827297687531,0.603827297687531,0.603827297687531,1.0],"baseColorTexture":{"index":5},"metallicFactor":0.578999996185303,"roughnessFactor":0.351999998092651}}],"meshes":[{"extras":{"targetNames":[]},"primitives":[{"attributes":{"NORMAL":2,"POSITION":0,"TANGENT":1,"TEXCOORD_0":3},"indices":4,"material":0,"mode":4},{"attributes":{"NORMAL":7,"POSITION":5,"TANGENT":6,"TEXCOORD_0":8},"indices":9,"material":1,"mode":4},{"attributes":{"NORMAL":12,"POSITION":10,"TANGENT":11,"TEXCOORD_0":13},"indices":14,"material":2,"mode":4},{"attributes":{"NORMAL":17,"POSITION":15,"TANGENT":16,"TEXCOORD_0":18},"indices":19,"material":2,"mode":4},{"attributes":{"NORMAL":22,"POSITION":20,"TANGENT":21,"TEXCOORD_0":23},"indices":24,"material":1,"mode":4},{"attributes":{"NORMAL":27,"POSITION":25,"TANGENT":26,"TEXCOORD_0":28},"indices":29,"material":0,"mode":4},{"attributes":{"NORMAL":32,"POSITION":30,"TANGENT":31,"TEXCOORD_0":33},"indices":34,"material":3,"mode":4}]}],"nodes":[{"children":[1,2,3],"name":"GFX2"},{"extensions":{"KHR_lights_punctual":{"light":0}},"name":"Point light HCZ Regular","rotation":[-0.499999731779099,-0.500000238418579,-0.49999988079071,0.500000178813934],"translation":[6.21645021438599,4.60001993179321,-0.000000337452007670436]},{"extensions":{"KHR_lights_punctual":{"light":1}},"name":"Point light HCZ Regular2","rotation":[0.000000347143270573724,-0.707106947898865,0.000000399024031594308,0.707106590270996],"translation":[-2.82756996154785,4.91400003433228,0.000000556875988877437]},{"mesh":0,"name":"3room_HCZ","rotation":[-0.5,0.5,0.5,0.5],"translation":[-0.0145410001277924,0.0,0.0]}],"samplers":[{"magFilter":9729,"minFilter":9987,"wrapS":10497,"wrapT":10497}],"scene":0,"scenes":[{"nodes":[0]}],"textures":[{"sampler":0,"source":0},{"sampler":0,"source":1},{"sampler":0,"source":2},{"sampler":0,"source":3},{"sampler":0,"source":4},{"sampler":0,"source":5},{"sampler":0,"source":6}]}