{"accessors":[{"bufferView":0,"byteOffset":0,"componentType":5126,"count":936,"max":[4.0,10.2700004577637,8.29999923706055],"min":[-4.0,-10.2700004577637,0.0],"normalized":false,"type":"VEC3"},{"bufferView":1,"byteOffset":0,"componentType":5126,"count":936,"max":[1.0,1.0,1.0,1.0],"min":[-1.0,-1.0,-0.487891912460327,-1.0],"normalized":false,"type":"VEC4"},{"bufferView":2,"byteOffset":0,"componentType":5126,"count":936,"max":[1.0,1.0,0.966503024101257],"min":[-1.0,-1.0,-1.0],"normalized":false,"type":"VEC3"},{"bufferView":3,"byteOffset":0,"componentType":5126,"count":936,"max":[1.0,1.0],"min":[0.0,0.0],"normalized":false,"type":"VEC2"},{"bufferView":4,"byteOffset":0,"componentType":5123,"count":3264,"max":[935.0],"min":[0.0],"normalized":false,"type":"SCALAR"},{"bufferView":5,"byteOffset":0,"componentType":5126,"count":16,"max":[1.89999997615814,10.1700000762939,8.30000019073486],"min":[-1.89999997615814,-10.1700000762939,8.30000019073486],"normalized":false,"type":"VEC3"},{"bufferView":6,"byteOffset":0,"componentType":5126,"count":16,"max":[1.0,-0.00000000000133398608999358,-0.0000000874227765734759,1.0],"min":[-1.0,-0.00000000000133398608999358,-0.0000305180437862873,-1.0],"normalized":false,"type":"VEC4"},{"bufferView":7,"byteOffset":0,"componentType":5126,"count":16,"max":[0.0000000874227765734759,-0.0000000874227765734759,-1.0],"min":[-0.0000305180437862873,-0.0000305180437862873,-1.0],"normalized":false,"type":"VEC3"},{"bufferView":8,"byteOffset":0,"componentType":5126,"count":16,"max":[1.0,2.0],"min":[-0.0000152587890625,-0.000030517578125],"normalized":false,"type":"VEC2"},{"bufferView":9,"byteOffset":0,"componentType":5123,"count":24,"max":[15.0],"min":[0.0],"normalized":false,"type":"SCALAR"},{"bufferView":10,"byteOffset":0,"componentType":5126,"count":16,"max":[2.5,10.1700000762939,0.75],"min":[-2.5,-10.1700000762939,0.0],"normalized":false,"type":"VEC3"},{"bufferView":11,"byteOffset":0,"componentType":5126,"count":16,"max":[0.966521859169006,0.0000126968789118109,0.832089960575104,1.0],"min":[-0.999997794628143,-0.0000194129115698161,0.00210920022800565,-1.0],"normalized":false,"type":"VEC4"},{"bufferView":12,"byteOffset":0,"componentType":5126,"count":16,"max":[0.832020938396454,-0.000000510843676693185,0.966521859169006],"min":[-0.832089960575104,-0.0000364609550160822,-0.999997794628143],"normalized":false,"type":"VEC3"},{"bufferView":13,"byteOffset":0,"componentType":5126,"count":16,"max":[1.0,1.0],"min":[0.0,0.0],"normalized":false,"type":"VEC2"},{"bufferView":14,"byteOffset":0,"componentType":5123,"count":24,"max":[15.0],"min":[0.0],"normalized":false,"type":"SCALAR"},{"bufferView":15,"byteOffset":0,"componentType":5126,"count":24,"max":[2.0,10.1700000762939,0.00999999977648258],"min":[-2.0,-10.1700000762939,0.00999999977648258],"normalized":false,"type":"VEC3"},{"bufferView":16,"byteOffset":0,"componentType":5126,"count":24,"max":[1.0,0.000000087888466282493,0.000143810699228197,1.0],"min":[-1.0,0.000000000731470217729679,-0.0000305185094475746,-1.0],"normalized":false,"type":"VEC4"},{"bufferView":17,"byteOffset":0,"componentType":5126,"count":24,"max":[-0.0000305185094475746,0.0,1.0],"min":[-0.000143810699228197,-0.0000305185094475746,1.0],"normalized":false,"type":"VEC3"},{"bufferView":18,"byteOffset":0,"componentType":5126,"count":24,"max":[1.0,0.399993896484375],"min":[-0.0000152587890625,-0.800000011920929],"normalized":false,"type":"VEC2"},{"bufferView":19,"byteOffset":0,"componentType":5123,"count":48,"max":[23.0],"min":[0.0],"normalized":false,"type":"SCALAR"},{"bufferView":20,"byteOffset":0,"componentType":5126,"count":48,"max":[3.0,10.4700002670288,0.0],"min":[-3.0,-10.4700002670288,0.0],"normalized":false,"type":"VEC3"},{"bufferView":21,"byteOffset":0,"componentType":5126,"count":48,"max":[1.0,1.0,0.0000763009302318096,1.0],"min":[-1.0,-1.0,-0.000057003057008842,-1.0],"normalized":false,"type":"VEC4"},{"bufferView":22,"byteOffset":0,"componentType":5126,"count":48,"max":[-0.0000152592547237873,-0.0000152592547237873,1.0],"min":[-0.0000152592547237873,-0.0000152592547237873,1.0],"normalized":false,"type":"VEC3"},{"bufferView":23,"byteOffset":0,"componentType":5126,"count":48,"max":[0.382043987512589,1.0],"min":[0.0,-0.112321019172668],"normalized":false,"type":"VEC2"},{"bufferView":24,"byteOffset":0,"componentType":5123,"count":72,"max":[47.0],"min":[0.0],"normalized":false,"type":"SCALAR"},{"bufferView":25,"byteOffset":0,"componentType":5126,"count":1996,"max":[3.5,10.4700002670288,8.34999942779541],"min":[-3.5,-10.4700002670288,0.0],"normalized":false,"type":"VEC3"},{"bufferView":26,"byteOffset":0,"componentType":5126,"count":1996,"max":[1.0,1.0,0.861859619617462,1.0],"min":[-1.0,-1.0,-0.861879408359528,-1.0],"normalized":false,"type":"VEC4"},{"bufferView":27,"byteOffset":0,"componentType":5126,"count":1996,"max":[1.0,1.0,1.0],"min":[-1.0,-1.0,-1.0],"normalized":false,"type":"VEC3"},{"bufferView":28,"byteOffset":0,"componentType":5126,"count":1996,"max":[0.523127973079681,0.875],"min":[-0.0624990016222,-0.418750047683716],"normalized":false,"type":"VEC2"},{"bufferView":29,"byteOffset":0,"componentType":5123,"count":5424,"max":[1995.0],"min":[0.0],"normalized":false,"type":"SCALAR"},{"bufferView":30,"byteOffset":0,"componentType":5126,"count":1568,"max":[3.44819402694702,8.1140022277832,6.45000219345093],"min":[-3.44819402694702,-8.1140022277832,1.55000197887421],"normalized":false,"type":"VEC3"},{"bufferView":31,"byteOffset":0,"componentType":5126,"count":1568,"max":[1.0,0.102076597511768,1.0,1.0],"min":[-1.0,-0.102038532495499,-1.0,-1.0],"normalized":false,"type":"VEC4"},{"bufferView":32,"byteOffset":0,"componentType":5126,"count":1568,"max":[1.0,0.422793179750443,1.0],"min":[-1.0,-0.422789633274078,-1.0],"normalized":false,"type":"VEC3"},{"bufferView":33,"byteOffset":0,"componentType":5126,"count":1568,"max":[0.625,1.0],"min":[0.375,0.0],"normalized":false,"type":"VEC2"},{"bufferView":34,"byteOffset":0,"componentType":5123,"count":7488,"max":[1567.0],"min":[0.0],"normalized":false,"type":"SCALAR"}],"asset":{"generator":"Godot Engine v4.4.1.stable.official@49a5bc7b616bd04689a2c89e89bda41f50241464","version":"2.0"},"bufferViews":[{"buffer":0,"byteLength":11232,"byteOffset":0,"byteStride":12,"target":34962},{"buffer":0,"byteLength":14976,"byteOffset":11232,"byteStride":16,"target":34962},{"buffer":0,"byteLength":11232,"byteOffset":26208,"byteStride":12,"target":34962},{"buffer":0,"byteLength":7488,"byteOffset":37440,"byteStride":8,"target":34962},{"buffer":0,"byteLength":6528,"byteOffset":44928,"target":34963},{"buffer":0,"byteLength":192,"byteOffset":51456,"byteStride":12,"target":34962},{"buffer":0,"byteLength":256,"byteOffset":51648,"byteStride":16,"target":34962},{"buffer":0,"byteLength":192,"byteOffset":51904,"byteStride":12,"target":34962},{"buffer":0,"byteLength":128,"byteOffset":52096,"byteStride":8,"target":34962},{"buffer":0,"byteLength":48,"byteOffset":52224,"target":34963},{"buffer":0,"byteLength":192,"byteOffset":52272,"byteStride":12,"target":34962},{"buffer":0,"byteLength":256,"byteOffset":52464,"byteStride":16,"target":34962},{"buffer":0,"byteLength":192,"byteOffset":52720,"byteStride":12,"target":34962},{"buffer":0,"byteLength":128,"byteOffset":52912,"byteStride":8,"target":34962},{"buffer":0,"byteLength":48,"byteOffset":53040,"target":34963},{"buffer":0,"byteLength":288,"byteOffset":53088,"byteStride":12,"target":34962},{"buffer":0,"byteLength":384,"byteOffset":53376,"byteStride":16,"target":34962},{"buffer":0,"byteLength":288,"byteOffset":53760,"byteStride":12,"target":34962},{"buffer":0,"byteLength":192,"byteOffset":54048,"byteStride":8,"target":34962},{"buffer":0,"byteLength":96,"byteOffset":54240,"target":34963},{"buffer":0,"byteLength":576,"byteOffset":54336,"byteStride":12,"target":34962},{"buffer":0,"byteLength":768,"byteOffset":54912,"byteStride":16,"target":34962},{"buffer":0,"byteLength":576,"byteOffset":55680,"byteStride":12,"target":34962},{"buffer":0,"byteLength":384,"byteOffset":56256,"byteStride":8,"target":34962},{"buffer":0,"byteLength":144,"byteOffset":56640,"target":34963},{"buffer":0,"byteLength":23952,"byteOffset":56784,"byteStride":12,"target":34962},{"buffer":0,"byteLength":31936,"byteOffset":80736,"byteStride":16,"target":34962},{"buffer":0,"byteLength":23952,"byteOffset":112672,"byteStride":12,"target":34962},{"buffer":0,"byteLength":15968,"byteOffset":136624,"byteStride":8,"target":34962},{"buffer":0,"byteLength":10848,"byteOffset":152592,"target":34963},{"buffer":0,"byteLength":18816,"byteOffset":163440,"byteStride":12,"target":34962},{"buffer":0,"byteLength":25088,"byteOffset":182256,"byteStride":16,"target":34962},{"buffer":0,"byteLength":18816,"byteOffset":207344,"byteStride":12,"target":34962},{"buffer":0,"byteLength":12544,"byteOffset":226160,"byteStride":8,"target":34962},{"buffer":0,"byteLength":14976,"byteOffset":238704,"target":34963}],"buffers":[{"byteLength":253680,"uri":"HC_room2_alt0.bin"}],"extensions":{"KHR_lights_punctual":{"lights":[{"color":[1.0,0.907504975795746,0.823529005050659],"intensity":1.57079994678497,"range":9.96605014801025,"type":"point"},{"color":[1.0,0.907504975795746,0.823529005050659],"intensity":1.57079994678497,"range":9.96605014801025,"type":"point"}]}},"extensionsRequired":["KHR_texture_transform"],"extensionsUsed":["GODOT_single_root","KHR_lights_punctual","KHR_texture_transform"],"images":[{"uri":"textures%2FWall_Base_albedo000.png"},{"uri":"textures%2FWall_Base_normal000.png"},{"uri":"textures%2FFloor_Base_albedo000.png"},{"uri":"textures%2FFloor_Base_normal000.png"},{"uri":"textures%2F_normal000.png"},{"uri":"textures%2FMetal_Pipe_albedo000.png"},{"uri":"textures%2FMetal_Pipe_normal000.png"}],"materials":[{"extensions":{},"name":"Wall_Base","normalTexture":{"index":1,"scale":0.5},"pbrMetallicRoughness":{"baseColorFactor":[0.499904364347458,0.47141021490097,0.436739146709442,1.0],"baseColorTexture":{"extensions":{"KHR_texture_transform":{"offset":[0.0,-1.0],"scale":[2.0,2.0]}},"index":0},"metallicFactor":0.0,"roughnessFactor":1.0}},{"extensions":{},"name":"Floor_Base","normalTexture":{"index":3,"scale":0.200000002980232},"pbrMetallicRoughness":{"baseColorFactor":[1.0,1.0,1.0,1.0],"baseColorTexture":{"extensions":{"KHR_texture_transform":{"offset":[0.0,-8.0],"scale":[9.0,9.0]}},"index":2},"metallicFactor":0.0,"roughnessFactor":1.0}},{"extensions":{},"normalTexture":{"index":4,"scale":1.0},"pbrMetallicRoughness":{"baseColorFactor":[0.461720705032349,0.153621762990952,0.0639719367027283,1.0],"metallicFactor":0.0,"roughnessFactor":1.0}},{"extensions":{},"name":"Metal_Pipe","normalTexture":{"index":6,"scale":0.0500000007450581},"pbrMetallicRoughness":{"baseColorFactor":[0.603827297687531,0.603827297687531,0.603827297687531,1.0],"baseColorTexture":{"index":5},"metallicFactor":0.578999996185303,"roughnessFactor":0.351999998092651}}],"meshes":[{"extras":{"targetNames":[]},"primitives":[{"attributes":{"NORMAL":2,"POSITION":0,"TANGENT":1,"TEXCOORD_0":3},"indices":4,"material":0,"mode":4},{"attributes":{"NORMAL":7,"POSITION":5,"TANGENT":6,"TEXCOORD_0":8},"indices":9,"material":1,"mode":4},{"attributes":{"NORMAL":12,"POSITION":10,"TANGENT":11,"TEXCOORD_0":13},"indices":14,"material":2,"mode":4},{"attributes":{"NORMAL":17,"POSITION":15,"TANGENT":16,"TEXCOORD_0":18},"indices":19,"material":2,"mode":4},{"attributes":{"NORMAL":22,"POSITION":20,"TANGENT":21,"TEXCOORD_0":23},"indices":24,"material":1,"mode":4},{"attributes":{"NORMAL":27,"POSITION":25,"TANGENT":26,"TEXCOORD_0":28},"indices":29,"material":0,"mode":4},{"attributes":{"NORMAL":32,"POSITION":30,"TANGENT":31,"TEXCOORD_0":33},"indices":34,"material":3,"mode":4}]}],"nodes":[{"children":[1,2,3],"name":"Map_HC_TeslaA2"},{"mesh":0,"name":"Tesla (1)","rotation":[0.5,0.5,0.5,-0.5]},{"extensions":{"KHR_lights_punctual":{"light":0}},"name":"Point light","rotation":[0.00000101663920304418,0.707106351852417,0.707107186317444,-0.000000866520167619456],"translation":[5.07522010803223,6.58067989349365,-0.0000000353558000654175]},{"extensions":{"KHR_lights_punctual":{"light":1}},"name":"Point light2","rotation":[0.00000101663920304418,0.707106351852417,0.707107186317444,-0.000000866520167619456],"translation":[-5.11035013198853,6.58070993423462,0.0000262321991613135]}],"samplers":[{"magFilter":9729,"minFilter":9987,"wrapS":10497,"wrapT":10497}],"scene":0,"scenes":[{"nodes":[0]}],"textures":[{"sampler":0,"source":0},{"sampler":0,"source":1},{"sampler":0,"source":2},{"sampler":0,"source":3},{"sampler":0,"source":4},{"sampler":0,"source":5},{"sampler":0,"source":6}]}