{
	"asset":{
		"generator":"Khronos glTF Blender I/O v4.4.55",
		"version":"2.0"
	},
	"extensionsUsed":[
		"KHR_materials_specular",
		"KHR_materials_ior"
	],
	"scene":0,
	"scenes":[
		{
			"name":"Scene",
			"nodes":[
				0
			]
		}
	],
	"nodes":[
		{
			"mesh":0,
			"name":"Room4_HCZ"
		}
	],
	"materials":[
		{
			"doubleSided":true,
			"name":"Floor_Base.006",
			"normalTexture":{
				"index":0,
				"scale":0.20000000298023224
			},
			"pbrMetallicRoughness":{
				"baseColorTexture":{
					"index":1
				},
				"metallicFactor":0,
				"roughnessFactor":0.5
			}
		},
		{
			"doubleSided":true,
			"extensions":{
				"KHR_materials_specular":{
					"specularColorFactor":[
						1.159999966621399,
						1.159999966621399,
						1.159999966621399
					]
				},
				"KHR_materials_ior":{
					"ior":1.4500000476837158
				}
			},
			"name":"Metal_Base.006",
			"normalTexture":{
				"index":2,
				"scale":0.05000000074505806
			},
			"pbrMetallicRoughness":{
				"baseColorTexture":{
					"index":3
				},
				"metallicFactor":0,
				"roughnessFactor":0.5
			}
		},
		{
			"doubleSided":true,
			"extensions":{
				"KHR_materials_specular":{
					"specularFactor":0.843999981880188
				},
				"KHR_materials_ior":{
					"ior":1.4500000476837158
				}
			},
			"name":"Spline_Base.004",
			"normalTexture":{
				"index":4,
				"scale":0.30000001192092896
			},
			"pbrMetallicRoughness":{
				"baseColorTexture":{
					"index":5
				},
				"metallicFactor":0.15538389980793,
				"roughnessFactor":0.5527864098548889
			}
		},
		{
			"doubleSided":true,
			"extensions":{
				"KHR_materials_specular":{
					"specularFactor":0.7400000095367432
				},
				"KHR_materials_ior":{
					"ior":1.4500000476837158
				}
			},
			"name":"Metal_Plating.006",
			"normalTexture":{
				"index":6,
				"scale":0.5
			},
			"pbrMetallicRoughness":{
				"baseColorFactor":[
					0.27260032296180725,
					0.051950737833976746,
					0.015605289489030838,
					1
				],
				"metallicFactor":0,
				"roughnessFactor":0.5
			}
		},
		{
			"doubleSided":true,
			"extensions":{
				"KHR_materials_specular":{
					"specularFactor":0.6000000238418579
				},
				"KHR_materials_ior":{
					"ior":1.4500000476837158
				}
			},
			"name":"Wall_Base.006",
			"normalTexture":{
				"index":7,
				"scale":0.20000000298023224
			},
			"pbrMetallicRoughness":{
				"baseColorTexture":{
					"index":8
				},
				"metallicFactor":0,
				"roughnessFactor":0.5
			}
		},
		{
			"doubleSided":true,
			"extensions":{
				"KHR_materials_specular":{
					"specularColorFactor":[
						1.2960000038146973,
						1.2960000038146973,
						1.2960000038146973
					]
				},
				"KHR_materials_ior":{
					"ior":1.4500000476837158
				}
			},
			"name":"Metal_Pipe.004",
			"normalTexture":{
				"index":9,
				"scale":0.05000000074505806
			},
			"pbrMetallicRoughness":{
				"baseColorTexture":{
					"index":10
				},
				"metallicFactor":0,
				"roughnessFactor":0.5
			}
		}
	],
	"meshes":[
		{
			"name":"Scene",
			"primitives":[
				{
					"attributes":{
						"POSITION":0,
						"NORMAL":1,
						"TEXCOORD_0":2
					},
					"indices":3,
					"material":0
				},
				{
					"attributes":{
						"POSITION":4,
						"NORMAL":5,
						"TEXCOORD_0":6
					},
					"indices":7,
					"material":1
				},
				{
					"attributes":{
						"POSITION":8,
						"NORMAL":9,
						"TEXCOORD_0":10
					},
					"indices":11,
					"material":0
				},
				{
					"attributes":{
						"POSITION":12,
						"NORMAL":13,
						"TEXCOORD_0":14
					},
					"indices":15,
					"material":2
				},
				{
					"attributes":{
						"POSITION":16,
						"NORMAL":17,
						"TEXCOORD_0":18
					},
					"indices":19,
					"material":3
				},
				{
					"attributes":{
						"POSITION":20,
						"NORMAL":21,
						"TEXCOORD_0":22
					},
					"indices":23,
					"material":4
				},
				{
					"attributes":{
						"POSITION":24,
						"NORMAL":25,
						"TEXCOORD_0":26
					},
					"indices":27,
					"material":5
				}
			]
		}
	],
	"textures":[
		{
			"sampler":0,
			"source":0
		},
		{
			"sampler":0,
			"source":1
		},
		{
			"sampler":0,
			"source":2
		},
		{
			"sampler":0,
			"source":3
		},
		{
			"sampler":0,
			"source":4
		},
		{
			"sampler":0,
			"source":5
		},
		{
			"sampler":0,
			"source":0
		},
		{
			"sampler":0,
			"source":6
		},
		{
			"sampler":0,
			"source":7
		},
		{
			"sampler":0,
			"source":8
		},
		{
			"sampler":0,
			"source":9
		}
	],
	"images":[
		{
			"mimeType":"image/png",
			"name":"Tile_HCZCGround_Normal",
			"uri":"Tile_HCZCGround_Normal.png"
		},
		{
			"mimeType":"image/png",
			"name":"Tile_HCZGround_Albedo",
			"uri":"Tile_HCZGround_Albedo.png"
		},
		{
			"mimeType":"image/png",
			"name":"Tile_HCZConcrete_Double_Normal",
			"uri":"Tile_HCZConcrete_Double_Normal.png"
		},
		{
			"mimeType":"image/png",
			"name":"Tile_HCZConcrete_Double_Albedo",
			"uri":"Tile_HCZConcrete_Double_Albedo.png"
		},
		{
			"mimeType":"image/png",
			"name":"Tile_VentGrating_Normal",
			"uri":"Tile_VentGrating_Normal.png"
		},
		{
			"mimeType":"image/png",
			"name":"Tile_VentGrating_Albedo",
			"uri":"Tile_VentGrating_Albedo.png"
		},
		{
			"mimeType":"image/png",
			"name":"Wall_Normal",
			"uri":"Wall_Normal.png"
		},
		{
			"mimeType":"image/png",
			"name":"Wall_Albedo",
			"uri":"Wall_Albedo.png"
		},
		{
			"mimeType":"image/png",
			"name":"Pipes_Normal",
			"uri":"Pipes_Normal.png"
		},
		{
			"mimeType":"image/png",
			"name":"Pipes_Albedo",
			"uri":"Pipes_Albedo.png"
		}
	],
	"accessors":[
		{
			"bufferView":0,
			"componentType":5126,
			"count":60,
			"max":[
				10.469999313354492,
				0,
				10.469999313354492
			],
			"min":[
				-10.469999313354492,
				0,
				-10.469999313354492
			],
			"type":"VEC3"
		},
		{
			"bufferView":1,
			"componentType":5126,
			"count":60,
			"type":"VEC3"
		},
		{
			"bufferView":2,
			"componentType":5126,
			"count":60,
			"type":"VEC2"
		},
		{
			"bufferView":3,
			"componentType":5123,
			"count":132,
			"type":"SCALAR"
		},
		{
			"bufferView":4,
			"componentType":5126,
			"count":1136,
			"max":[
				10.269999504089355,
				5.299999713897705,
				10.269999504089355
			],
			"min":[
				-10.269999504089355,
				0,
				-10.269999504089355
			],
			"type":"VEC3"
		},
		{
			"bufferView":5,
			"componentType":5126,
			"count":1136,
			"type":"VEC3"
		},
		{
			"bufferView":6,
			"componentType":5126,
			"count":1136,
			"type":"VEC2"
		},
		{
			"bufferView":7,
			"componentType":5123,
			"count":3984,
			"type":"SCALAR"
		},
		{
			"bufferView":8,
			"componentType":5126,
			"count":24,
			"max":[
				10.170000076293945,
				5.299999713897705,
				10.170000076293945
			],
			"min":[
				-10.170000076293945,
				5.299999713897705,
				-10.170000076293945
			],
			"type":"VEC3"
		},
		{
			"bufferView":9,
			"componentType":5126,
			"count":24,
			"type":"VEC3"
		},
		{
			"bufferView":10,
			"componentType":5126,
			"count":24,
			"type":"VEC2"
		},
		{
			"bufferView":11,
			"componentType":5123,
			"count":48,
			"type":"SCALAR"
		},
		{
			"bufferView":12,
			"componentType":5126,
			"count":32,
			"max":[
				10.170000076293945,
				0.75,
				10.170000076293945
			],
			"min":[
				-10.170000076293945,
				0,
				-10.170000076293945
			],
			"type":"VEC3"
		},
		{
			"bufferView":13,
			"componentType":5126,
			"count":32,
			"type":"VEC3"
		},
		{
			"bufferView":14,
			"componentType":5126,
			"count":32,
			"type":"VEC2"
		},
		{
			"bufferView":15,
			"componentType":5123,
			"count":48,
			"type":"SCALAR"
		},
		{
			"bufferView":16,
			"componentType":5126,
			"count":32,
			"max":[
				10.170000076293945,
				0.009999999776482582,
				10.170000076293945
			],
			"min":[
				-10.170000076293945,
				0.009999999776482582,
				-10.170000076293945
			],
			"type":"VEC3"
		},
		{
			"bufferView":17,
			"componentType":5126,
			"count":32,
			"type":"VEC3"
		},
		{
			"bufferView":18,
			"componentType":5126,
			"count":32,
			"type":"VEC2"
		},
		{
			"bufferView":19,
			"componentType":5123,
			"count":48,
			"type":"SCALAR"
		},
		{
			"bufferView":20,
			"componentType":5126,
			"count":2957,
			"max":[
				10.469999313354492,
				7.299999713897705,
				10.469999313354492
			],
			"min":[
				-10.469999313354492,
				0,
				-10.469999313354492
			],
			"type":"VEC3"
		},
		{
			"bufferView":21,
			"componentType":5126,
			"count":2957,
			"type":"VEC3"
		},
		{
			"bufferView":22,
			"componentType":5126,
			"count":2957,
			"type":"VEC2"
		},
		{
			"bufferView":23,
			"componentType":5123,
			"count":10872,
			"type":"SCALAR"
		},
		{
			"bufferView":24,
			"componentType":5126,
			"count":2688,
			"max":[
				8.114002227783203,
				3.4500017166137695,
				8.114002227783203
			],
			"min":[
				-8.114002227783203,
				1.5500019788742065,
				-8.114002227783203
			],
			"type":"VEC3"
		},
		{
			"bufferView":25,
			"componentType":5126,
			"count":2688,
			"type":"VEC3"
		},
		{
			"bufferView":26,
			"componentType":5126,
			"count":2688,
			"type":"VEC2"
		},
		{
			"bufferView":27,
			"componentType":5123,
			"count":14976,
			"type":"SCALAR"
		}
	],
	"bufferViews":[
		{
			"buffer":0,
			"byteLength":720,
			"byteOffset":0,
			"target":34962
		},
		{
			"buffer":0,
			"byteLength":720,
			"byteOffset":720,
			"target":34962
		},
		{
			"buffer":0,
			"byteLength":480,
			"byteOffset":1440,
			"target":34962
		},
		{
			"buffer":0,
			"byteLength":264,
			"byteOffset":1920,
			"target":34963
		},
		{
			"buffer":0,
			"byteLength":13632,
			"byteOffset":2184,
			"target":34962
		},
		{
			"buffer":0,
			"byteLength":13632,
			"byteOffset":15816,
			"target":34962
		},
		{
			"buffer":0,
			"byteLength":9088,
			"byteOffset":29448,
			"target":34962
		},
		{
			"buffer":0,
			"byteLength":7968,
			"byteOffset":38536,
			"target":34963
		},
		{
			"buffer":0,
			"byteLength":288,
			"byteOffset":46504,
			"target":34962
		},
		{
			"buffer":0,
			"byteLength":288,
			"byteOffset":46792,
			"target":34962
		},
		{
			"buffer":0,
			"byteLength":192,
			"byteOffset":47080,
			"target":34962
		},
		{
			"buffer":0,
			"byteLength":96,
			"byteOffset":47272,
			"target":34963
		},
		{
			"buffer":0,
			"byteLength":384,
			"byteOffset":47368,
			"target":34962
		},
		{
			"buffer":0,
			"byteLength":384,
			"byteOffset":47752,
			"target":34962
		},
		{
			"buffer":0,
			"byteLength":256,
			"byteOffset":48136,
			"target":34962
		},
		{
			"buffer":0,
			"byteLength":96,
			"byteOffset":48392,
			"target":34963
		},
		{
			"buffer":0,
			"byteLength":384,
			"byteOffset":48488,
			"target":34962
		},
		{
			"buffer":0,
			"byteLength":384,
			"byteOffset":48872,
			"target":34962
		},
		{
			"buffer":0,
			"byteLength":256,
			"byteOffset":49256,
			"target":34962
		},
		{
			"buffer":0,
			"byteLength":96,
			"byteOffset":49512,
			"target":34963
		},
		{
			"buffer":0,
			"byteLength":35484,
			"byteOffset":49608,
			"target":34962
		},
		{
			"buffer":0,
			"byteLength":35484,
			"byteOffset":85092,
			"target":34962
		},
		{
			"buffer":0,
			"byteLength":23656,
			"byteOffset":120576,
			"target":34962
		},
		{
			"buffer":0,
			"byteLength":21744,
			"byteOffset":144232,
			"target":34963
		},
		{
			"buffer":0,
			"byteLength":32256,
			"byteOffset":165976,
			"target":34962
		},
		{
			"buffer":0,
			"byteLength":32256,
			"byteOffset":198232,
			"target":34962
		},
		{
			"buffer":0,
			"byteLength":21504,
			"byteOffset":230488,
			"target":34962
		},
		{
			"buffer":0,
			"byteLength":29952,
			"byteOffset":251992,
			"target":34963
		}
	],
	"samplers":[
		{
			"magFilter":9729,
			"minFilter":9987
		}
	],
	"buffers":[
		{
			"byteLength":281944,
			"uri":"HC_room4.bin"
		}
	]
}
