{
	"asset":{
		"generator":"Khronos glTF Blender I/O v4.4.55",
		"version":"2.0"
	},
	"extensionsUsed":[
		"KHR_materials_specular",
		"KHR_materials_ior"
	],
	"scene":0,
	"scenes":[
		{
			"name":"Scene",
			"nodes":[
				0
			]
		}
	],
	"nodes":[
		{
			"mesh":0,
			"name":"Tunnel.001",
			"scale":[
				0.009999999776482582,
				0.009999999776482582,
				0.009999999776482582
			]
		}
	],
	"materials":[
		{
			"doubleSided":true,
			"extensions":{
				"KHR_materials_specular":{
					"specularColorFactor":[
						1.159999966621399,
						1.159999966621399,
						1.159999966621399
					]
				},
				"KHR_materials_ior":{
					"ior":1.4500000476837158
				}
			},
			"name":"Metal_Base.006",
			"normalTexture":{
				"index":0,
				"scale":0.05000000074505806
			},
			"pbrMetallicRoughness":{
				"baseColorTexture":{
					"index":1
				},
				"metallicFactor":0,
				"roughnessFactor":0.5
			}
		},
		{
			"doubleSided":true,
			"name":"Floor_Base.006",
			"normalTexture":{
				"index":2,
				"scale":0.20000000298023224
			},
			"pbrMetallicRoughness":{
				"baseColorTexture":{
					"index":3
				},
				"metallicFactor":0,
				"roughnessFactor":0.5
			}
		},
		{
			"doubleSided":true,
			"extensions":{
				"KHR_materials_specular":{
					"specularFactor":0.843999981880188
				},
				"KHR_materials_ior":{
					"ior":1.4500000476837158
				}
			},
			"name":"Spline_Base.004",
			"normalTexture":{
				"index":4,
				"scale":0.30000001192092896
			},
			"pbrMetallicRoughness":{
				"baseColorTexture":{
					"index":5
				},
				"metallicFactor":0.15538389980793,
				"roughnessFactor":0.5527864098548889
			}
		},
		{
			"doubleSided":true,
			"extensions":{
				"KHR_materials_specular":{
					"specularFactor":0.7400000095367432
				},
				"KHR_materials_ior":{
					"ior":1.4500000476837158
				}
			},
			"name":"Metal_Plating.006",
			"normalTexture":{
				"index":6,
				"scale":0.5
			},
			"pbrMetallicRoughness":{
				"baseColorFactor":[
					0.27260032296180725,
					0.051950737833976746,
					0.015605289489030838,
					1
				],
				"metallicFactor":0,
				"roughnessFactor":0.5
			}
		},
		{
			"doubleSided":true,
			"extensions":{
				"KHR_materials_specular":{
					"specularFactor":0.6000000238418579
				},
				"KHR_materials_ior":{
					"ior":1.4500000476837158
				}
			},
			"name":"Wall_Base.006",
			"normalTexture":{
				"index":7,
				"scale":0.20000000298023224
			},
			"pbrMetallicRoughness":{
				"baseColorTexture":{
					"index":8
				},
				"metallicFactor":0,
				"roughnessFactor":0.5
			}
		},
		{
			"doubleSided":true,
			"extensions":{
				"KHR_materials_specular":{
					"specularColorFactor":[
						1.2960000038146973,
						1.2960000038146973,
						1.2960000038146973
					]
				},
				"KHR_materials_ior":{
					"ior":1.4500000476837158
				}
			},
			"name":"Metal_Pipe.004",
			"normalTexture":{
				"index":9,
				"scale":0.05000000074505806
			},
			"pbrMetallicRoughness":{
				"baseColorTexture":{
					"index":10
				},
				"metallicFactor":0,
				"roughnessFactor":0.5
			}
		}
	],
	"meshes":[
		{
			"name":"Scene.1854",
			"primitives":[
				{
					"attributes":{
						"POSITION":0,
						"NORMAL":1,
						"TEXCOORD_0":2
					},
					"indices":3,
					"material":0
				},
				{
					"attributes":{
						"POSITION":4,
						"NORMAL":5,
						"TEXCOORD_0":6
					},
					"indices":7,
					"material":1
				},
				{
					"attributes":{
						"POSITION":8,
						"NORMAL":9,
						"TEXCOORD_0":10
					},
					"indices":11,
					"material":2
				},
				{
					"attributes":{
						"POSITION":12,
						"NORMAL":13,
						"TEXCOORD_0":14
					},
					"indices":15,
					"material":3
				},
				{
					"attributes":{
						"POSITION":16,
						"NORMAL":17,
						"TEXCOORD_0":18
					},
					"indices":19,
					"material":1
				},
				{
					"attributes":{
						"POSITION":20,
						"NORMAL":21,
						"TEXCOORD_0":22
					},
					"indices":23,
					"material":4
				},
				{
					"attributes":{
						"POSITION":24,
						"NORMAL":25,
						"TEXCOORD_0":26
					},
					"indices":27,
					"material":5
				}
			]
		}
	],
	"textures":[
		{
			"sampler":0,
			"source":0
		},
		{
			"sampler":0,
			"source":1
		},
		{
			"sampler":0,
			"source":2
		},
		{
			"sampler":0,
			"source":3
		},
		{
			"sampler":0,
			"source":4
		},
		{
			"sampler":0,
			"source":5
		},
		{
			"sampler":0,
			"source":2
		},
		{
			"sampler":0,
			"source":6
		},
		{
			"sampler":0,
			"source":7
		},
		{
			"sampler":0,
			"source":8
		},
		{
			"sampler":0,
			"source":9
		}
	],
	"images":[
		{
			"mimeType":"image/png",
			"name":"Tile_HCZConcrete_Double_Normal",
			"uri":"Tile_HCZConcrete_Double_Normal.png"
		},
		{
			"mimeType":"image/png",
			"name":"Tile_HCZConcrete_Double_Albedo",
			"uri":"Tile_HCZConcrete_Double_Albedo.png"
		},
		{
			"mimeType":"image/png",
			"name":"Tile_HCZCGround_Normal",
			"uri":"Tile_HCZCGround_Normal.png"
		},
		{
			"mimeType":"image/png",
			"name":"Tile_HCZGround_Albedo",
			"uri":"Tile_HCZGround_Albedo.png"
		},
		{
			"mimeType":"image/png",
			"name":"Tile_VentGrating_Normal",
			"uri":"Tile_VentGrating_Normal.png"
		},
		{
			"mimeType":"image/png",
			"name":"Tile_VentGrating_Albedo",
			"uri":"Tile_VentGrating_Albedo.png"
		},
		{
			"mimeType":"image/png",
			"name":"Wall_Normal",
			"uri":"Wall_Normal.png"
		},
		{
			"mimeType":"image/png",
			"name":"Wall_Albedo",
			"uri":"Wall_Albedo.png"
		},
		{
			"mimeType":"image/png",
			"name":"Pipes_Normal",
			"uri":"Pipes_Normal.png"
		},
		{
			"mimeType":"image/png",
			"name":"Pipes_Albedo",
			"uri":"Pipes_Albedo.png"
		}
	],
	"accessors":[
		{
			"bufferView":0,
			"componentType":5126,
			"count":922,
			"max":[
				400,
				530,
				1027
			],
			"min":[
				-400.0000915527344,
				0,
				-1027
			],
			"type":"VEC3"
		},
		{
			"bufferView":1,
			"componentType":5126,
			"count":922,
			"type":"VEC3"
		},
		{
			"bufferView":2,
			"componentType":5126,
			"count":922,
			"type":"VEC2"
		},
		{
			"bufferView":3,
			"componentType":5123,
			"count":3114,
			"type":"SCALAR"
		},
		{
			"bufferView":4,
			"componentType":5126,
			"count":9,
			"max":[
				190,
				530,
				1017
			],
			"min":[
				-190.00010681152344,
				530,
				-1017
			],
			"type":"VEC3"
		},
		{
			"bufferView":5,
			"componentType":5126,
			"count":9,
			"type":"VEC3"
		},
		{
			"bufferView":6,
			"componentType":5126,
			"count":9,
			"type":"VEC2"
		},
		{
			"bufferView":7,
			"componentType":5123,
			"count":24,
			"type":"SCALAR"
		},
		{
			"bufferView":8,
			"componentType":5126,
			"count":28,
			"max":[
				250,
				75,
				1017
			],
			"min":[
				-250.00009155273438,
				0,
				-1017
			],
			"type":"VEC3"
		},
		{
			"bufferView":9,
			"componentType":5126,
			"count":28,
			"type":"VEC3"
		},
		{
			"bufferView":10,
			"componentType":5126,
			"count":28,
			"type":"VEC2"
		},
		{
			"bufferView":11,
			"componentType":5123,
			"count":48,
			"type":"SCALAR"
		},
		{
			"bufferView":12,
			"componentType":5126,
			"count":12,
			"max":[
				200,
				1,
				1017
			],
			"min":[
				-200.00009155273438,
				1,
				-1017
			],
			"type":"VEC3"
		},
		{
			"bufferView":13,
			"componentType":5126,
			"count":12,
			"type":"VEC3"
		},
		{
			"bufferView":14,
			"componentType":5126,
			"count":12,
			"type":"VEC2"
		},
		{
			"bufferView":15,
			"componentType":5123,
			"count":24,
			"type":"SCALAR"
		},
		{
			"bufferView":16,
			"componentType":5126,
			"count":26,
			"max":[
				200,
				0,
				1047
			],
			"min":[
				-200.00009155273438,
				0,
				-1047
			],
			"type":"VEC3"
		},
		{
			"bufferView":17,
			"componentType":5126,
			"count":26,
			"type":"VEC3"
		},
		{
			"bufferView":18,
			"componentType":5126,
			"count":26,
			"type":"VEC2"
		},
		{
			"bufferView":19,
			"componentType":5123,
			"count":48,
			"type":"SCALAR"
		},
		{
			"bufferView":20,
			"componentType":5126,
			"count":2169,
			"max":[
				350,
				575,
				1047
			],
			"min":[
				-350.0000915527344,
				0,
				-1047
			],
			"type":"VEC3"
		},
		{
			"bufferView":21,
			"componentType":5126,
			"count":2169,
			"type":"VEC3"
		},
		{
			"bufferView":22,
			"componentType":5126,
			"count":2169,
			"type":"VEC2"
		},
		{
			"bufferView":23,
			"componentType":5123,
			"count":8028,
			"type":"SCALAR"
		},
		{
			"bufferView":24,
			"componentType":5126,
			"count":2064,
			"max":[
				344.81939697265625,
				345.00018310546875,
				811.4002075195312
			],
			"min":[
				-344.8194885253906,
				155.0001983642578,
				-811.4002075195312
			],
			"type":"VEC3"
		},
		{
			"bufferView":25,
			"componentType":5126,
			"count":2064,
			"type":"VEC3"
		},
		{
			"bufferView":26,
			"componentType":5126,
			"count":2064,
			"type":"VEC2"
		},
		{
			"bufferView":27,
			"componentType":5123,
			"count":11520,
			"type":"SCALAR"
		}
	],
	"bufferViews":[
		{
			"buffer":0,
			"byteLength":11064,
			"byteOffset":0,
			"target":34962
		},
		{
			"buffer":0,
			"byteLength":11064,
			"byteOffset":11064,
			"target":34962
		},
		{
			"buffer":0,
			"byteLength":7376,
			"byteOffset":22128,
			"target":34962
		},
		{
			"buffer":0,
			"byteLength":6228,
			"byteOffset":29504,
			"target":34963
		},
		{
			"buffer":0,
			"byteLength":108,
			"byteOffset":35732,
			"target":34962
		},
		{
			"buffer":0,
			"byteLength":108,
			"byteOffset":35840,
			"target":34962
		},
		{
			"buffer":0,
			"byteLength":72,
			"byteOffset":35948,
			"target":34962
		},
		{
			"buffer":0,
			"byteLength":48,
			"byteOffset":36020,
			"target":34963
		},
		{
			"buffer":0,
			"byteLength":336,
			"byteOffset":36068,
			"target":34962
		},
		{
			"buffer":0,
			"byteLength":336,
			"byteOffset":36404,
			"target":34962
		},
		{
			"buffer":0,
			"byteLength":224,
			"byteOffset":36740,
			"target":34962
		},
		{
			"buffer":0,
			"byteLength":96,
			"byteOffset":36964,
			"target":34963
		},
		{
			"buffer":0,
			"byteLength":144,
			"byteOffset":37060,
			"target":34962
		},
		{
			"buffer":0,
			"byteLength":144,
			"byteOffset":37204,
			"target":34962
		},
		{
			"buffer":0,
			"byteLength":96,
			"byteOffset":37348,
			"target":34962
		},
		{
			"buffer":0,
			"byteLength":48,
			"byteOffset":37444,
			"target":34963
		},
		{
			"buffer":0,
			"byteLength":312,
			"byteOffset":37492,
			"target":34962
		},
		{
			"buffer":0,
			"byteLength":312,
			"byteOffset":37804,
			"target":34962
		},
		{
			"buffer":0,
			"byteLength":208,
			"byteOffset":38116,
			"target":34962
		},
		{
			"buffer":0,
			"byteLength":96,
			"byteOffset":38324,
			"target":34963
		},
		{
			"buffer":0,
			"byteLength":26028,
			"byteOffset":38420,
			"target":34962
		},
		{
			"buffer":0,
			"byteLength":26028,
			"byteOffset":64448,
			"target":34962
		},
		{
			"buffer":0,
			"byteLength":17352,
			"byteOffset":90476,
			"target":34962
		},
		{
			"buffer":0,
			"byteLength":16056,
			"byteOffset":107828,
			"target":34963
		},
		{
			"buffer":0,
			"byteLength":24768,
			"byteOffset":123884,
			"target":34962
		},
		{
			"buffer":0,
			"byteLength":24768,
			"byteOffset":148652,
			"target":34962
		},
		{
			"buffer":0,
			"byteLength":16512,
			"byteOffset":173420,
			"target":34962
		},
		{
			"buffer":0,
			"byteLength":23040,
			"byteOffset":189932,
			"target":34963
		}
	],
	"samplers":[
		{
			"magFilter":9729,
			"minFilter":9987
		}
	],
	"buffers":[
		{
			"byteLength":212972,
			"uri":"HC_room2.bin"
		}
	]
}
