{"accessors":[{"bufferView":0,"byteOffset":0,"componentType":5126,"count":960,"max":[4.0,10.2700004577637,5.30000019073486],"min":[-4.00000095367432,-10.2700004577637,0.0],"normalized":false,"type":"VEC3"},{"bufferView":1,"byteOffset":0,"componentType":5126,"count":960,"max":[1.0,1.0,1.0,1.0],"min":[-1.0,-1.0,-0.487891912460327,-1.0],"normalized":false,"type":"VEC4"},{"bufferView":2,"byteOffset":0,"componentType":5126,"count":960,"max":[1.0,1.0,0.966503024101257],"min":[-1.0,-1.0,-1.0],"normalized":false,"type":"VEC3"},{"bufferView":3,"byteOffset":0,"componentType":5126,"count":960,"max":[1.0,1.0],"min":[0.0,0.0],"normalized":false,"type":"VEC2"},{"bufferView":4,"byteOffset":0,"componentType":5123,"count":3312,"max":[959.0],"min":[0.0],"normalized":false,"type":"SCALAR"},{"bufferView":5,"byteOffset":0,"componentType":5126,"count":16,"max":[1.89999997615814,10.1700000762939,5.30000019073486],"min":[-1.89999997615814,-10.1700000762939,5.30000019073486],"normalized":false,"type":"VEC3"},{"bufferView":6,"byteOffset":0,"componentType":5126,"count":16,"max":[1.0,-0.00000000000133398608999358,-0.0000000874227765734759,1.0],"min":[-1.0,-0.00000000000133398608999358,-0.0000305180437862873,-1.0],"normalized":false,"type":"VEC4"},{"bufferView":7,"byteOffset":0,"componentType":5126,"count":16,"max":[0.0000000874227765734759,-0.0000000874227765734759,-1.0],"min":[-0.0000305180437862873,-0.0000305180437862873,-1.0],"normalized":false,"type":"VEC3"},{"bufferView":8,"byteOffset":0,"componentType":5126,"count":16,"max":[1.0,2.0],"min":[-0.0000152587890625,-0.000030517578125],"normalized":false,"type":"VEC2"},{"bufferView":9,"byteOffset":0,"componentType":5123,"count":24,"max":[15.0],"min":[0.0],"normalized":false,"type":"SCALAR"},{"bufferView":10,"byteOffset":0,"componentType":5126,"count":32,"max":[2.5,10.1700000762939,0.75],"min":[-2.5,-10.1700000762939,0.0],"normalized":false,"type":"VEC3"},{"bufferView":11,"byteOffset":0,"componentType":5126,"count":32,"max":[0.966521859169006,0.0000126968789118109,0.832089960575104,1.0],"min":[-0.999997794628143,-0.0000194129115698161,0.00210920022800565,-1.0],"normalized":false,"type":"VEC4"},{"bufferView":12,"byteOffset":0,"componentType":5126,"count":32,"max":[0.832020938396454,-0.000000510843676693185,0.966521859169006],"min":[-0.832089960575104,-0.0000364609550160822,-0.999997794628143],"normalized":false,"type":"VEC3"},{"bufferView":13,"byteOffset":0,"componentType":5126,"count":32,"max":[1.0,1.0],"min":[0.0,0.0],"normalized":false,"type":"VEC2"},{"bufferView":14,"byteOffset":0,"componentType":5123,"count":48,"max":[31.0],"min":[0.0],"normalized":false,"type":"SCALAR"},{"bufferView":15,"byteOffset":0,"componentType":5126,"count":16,"max":[2.0,10.1700000762939,0.00999999977648258],"min":[-2.0,-10.1700000762939,0.00999999977648258],"normalized":false,"type":"VEC3"},{"bufferView":16,"byteOffset":0,"componentType":5126,"count":16,"max":[1.0,0.000000087888466282493,0.000143810699228197,1.0],"min":[-1.0,0.000000000731470217729679,-0.0000305185094475746,-1.0],"normalized":false,"type":"VEC4"},{"bufferView":17,"byteOffset":0,"componentType":5126,"count":16,"max":[-0.0000305185094475746,0.0,1.0],"min":[-0.000143810699228197,-0.0000305185094475746,1.0],"normalized":false,"type":"VEC3"},{"bufferView":18,"byteOffset":0,"componentType":5126,"count":16,"max":[1.0,1.0],"min":[-0.0000152587890625,-0.800015270709991],"normalized":false,"type":"VEC2"},{"bufferView":19,"byteOffset":0,"componentType":5123,"count":24,"max":[15.0],"min":[0.0],"normalized":false,"type":"SCALAR"},{"bufferView":20,"byteOffset":0,"componentType":5126,"count":32,"max":[2.0,10.4700002670288,0.0],"min":[-2.00000095367432,-10.4700002670288,0.0],"normalized":false,"type":"VEC3"},{"bufferView":21,"byteOffset":0,"componentType":5126,"count":32,"max":[1.0,1.0,0.0000763009302318096,1.0],"min":[-0.0000152601860463619,-1.0,-0.0000457784626632929,-1.0],"normalized":false,"type":"VEC4"},{"bufferView":22,"byteOffset":0,"componentType":5126,"count":32,"max":[-0.0000152592547237873,-0.0000152592547237873,1.0],"min":[-0.0000152592547237873,-0.0000152592547237873,1.0],"normalized":false,"type":"VEC3"},{"bufferView":23,"byteOffset":0,"componentType":5126,"count":32,"max":[0.573065996170044,1.0],"min":[0.0,-0.799999952316284],"normalized":false,"type":"VEC2"},{"bufferView":24,"byteOffset":0,"componentType":5123,"count":48,"max":[31.0],"min":[0.0],"normalized":false,"type":"SCALAR"},{"bufferView":25,"byteOffset":0,"componentType":5126,"count":2208,"max":[3.5,10.4700002670288,5.75],"min":[-3.50000095367432,-10.4700002670288,0.0],"normalized":false,"type":"VEC3"},{"bufferView":26,"byteOffset":0,"componentType":5126,"count":2208,"max":[1.0,1.0,1.0,1.0],"min":[-1.0,-1.0,-0.861879408359528,-1.0],"normalized":false,"type":"VEC4"},{"bufferView":27,"byteOffset":0,"componentType":5126,"count":2208,"max":[1.0,1.0,1.0],"min":[-1.0,-1.0,-1.0],"normalized":false,"type":"VEC3"},{"bufferView":28,"byteOffset":0,"componentType":5126,"count":2208,"max":[1.17818701267242,1.23869502544403],"min":[-0.280299007892609,-0.261304974555969],"normalized":false,"type":"VEC2"},{"bufferView":29,"byteOffset":0,"componentType":5123,"count":8028,"max":[2207.0],"min":[0.0],"normalized":false,"type":"SCALAR"},{"bufferView":30,"byteOffset":0,"componentType":5126,"count":2464,"max":[3.44819402694702,8.1140022277832,3.45000195503235],"min":[-3.44819498062134,-8.1140022277832,1.55000197887421],"normalized":false,"type":"VEC3"},{"bufferView":31,"byteOffset":0,"componentType":5126,"count":2464,"max":[1.0,0.102076597511768,1.0,1.0],"min":[-1.0,-0.102038532495499,-1.0,-1.0],"normalized":false,"type":"VEC4"},{"bufferView":32,"byteOffset":0,"componentType":5126,"count":2464,"max":[1.0,0.422793179750443,1.0],"min":[-1.0,-0.422789633274078,-1.0],"normalized":false,"type":"VEC3"},{"bufferView":33,"byteOffset":0,"componentType":5126,"count":2464,"max":[0.625,1.0],"min":[0.375,0.0],"normalized":false,"type":"VEC2"},{"bufferView":34,"byteOffset":0,"componentType":5123,"count":11520,"max":[2463.0],"min":[0.0],"normalized":false,"type":"SCALAR"}],"asset":{"generator":"Godot Engine v4.4.1.stable.official@49a5bc7b616bd04689a2c89e89bda41f50241464","version":"2.0"},"bufferViews":[{"buffer":0,"byteLength":11520,"byteOffset":0,"byteStride":12,"target":34962},{"buffer":0,"byteLength":15360,"byteOffset":11520,"byteStride":16,"target":34962},{"buffer":0,"byteLength":11520,"byteOffset":26880,"byteStride":12,"target":34962},{"buffer":0,"byteLength":7680,"byteOffset":38400,"byteStride":8,"target":34962},{"buffer":0,"byteLength":6624,"byteOffset":46080,"target":34963},{"buffer":0,"byteLength":192,"byteOffset":52704,"byteStride":12,"target":34962},{"buffer":0,"byteLength":256,"byteOffset":52896,"byteStride":16,"target":34962},{"buffer":0,"byteLength":192,"byteOffset":53152,"byteStride":12,"target":34962},{"buffer":0,"byteLength":128,"byteOffset":53344,"byteStride":8,"target":34962},{"buffer":0,"byteLength":48,"byteOffset":53472,"target":34963},{"buffer":0,"byteLength":384,"byteOffset":53520,"byteStride":12,"target":34962},{"buffer":0,"byteLength":512,"byteOffset":53904,"byteStride":16,"target":34962},{"buffer":0,"byteLength":384,"byteOffset":54416,"byteStride":12,"target":34962},{"buffer":0,"byteLength":256,"byteOffset":54800,"byteStride":8,"target":34962},{"buffer":0,"byteLength":96,"byteOffset":55056,"target":34963},{"buffer":0,"byteLength":192,"byteOffset":55152,"byteStride":12,"target":34962},{"buffer":0,"byteLength":256,"byteOffset":55344,"byteStride":16,"target":34962},{"buffer":0,"byteLength":192,"byteOffset":55600,"byteStride":12,"target":34962},{"buffer":0,"byteLength":128,"byteOffset":55792,"byteStride":8,"target":34962},{"buffer":0,"byteLength":48,"byteOffset":55920,"target":34963},{"buffer":0,"byteLength":384,"byteOffset":55968,"byteStride":12,"target":34962},{"buffer":0,"byteLength":512,"byteOffset":56352,"byteStride":16,"target":34962},{"buffer":0,"byteLength":384,"byteOffset":56864,"byteStride":12,"target":34962},{"buffer":0,"byteLength":256,"byteOffset":57248,"byteStride":8,"target":34962},{"buffer":0,"byteLength":96,"byteOffset":57504,"target":34963},{"buffer":0,"byteLength":26496,"byteOffset":57600,"byteStride":12,"target":34962},{"buffer":0,"byteLength":35328,"byteOffset":84096,"byteStride":16,"target":34962},{"buffer":0,"byteLength":26496,"byteOffset":119424,"byteStride":12,"target":34962},{"buffer":0,"byteLength":17664,"byteOffset":145920,"byteStride":8,"target":34962},{"buffer":0,"byteLength":16056,"byteOffset":163584,"target":34963},{"buffer":0,"byteLength":29568,"byteOffset":179640,"byteStride":12,"target":34962},{"buffer":0,"byteLength":39424,"byteOffset":209208,"byteStride":16,"target":34962},{"buffer":0,"byteLength":29568,"byteOffset":248632,"byteStride":12,"target":34962},{"buffer":0,"byteLength":19712,"byteOffset":278200,"byteStride":8,"target":34962},{"buffer":0,"byteLength":23040,"byteOffset":297912,"target":34963}],"buffers":[{"byteLength":320952,"uri":"HC_room20.bin"}],"extensions":{"KHR_lights_punctual":{"lights":[{"color":[1.0,0.88679301738739,0.787735998630524],"intensity":2.67035007476807,"range":6.40000009536743,"type":"point"},{"color":[1.0,0.88679301738739,0.787735998630524],"intensity":2.67035007476807,"range":6.40000009536743,"type":"point"}]}},"extensionsRequired":["KHR_texture_transform"],"extensionsUsed":["GODOT_single_root","KHR_lights_punctual","KHR_texture_transform"],"images":[{"uri":"textures%2FWall_Base_albedo000.png"},{"uri":"textures%2FWall_Base_normal000.png"},{"uri":"textures%2FFloor_Base_albedo000.png"},{"uri":"textures%2FFloor_Base_normal000.png"},{"uri":"textures%2F_normal000.png"},{"uri":"textures%2FMetal_Pipe_albedo000.png"},{"uri":"textures%2FMetal_Pipe_normal000.png"}],"materials":[{"extensions":{},"name":"Wall_Base","normalTexture":{"index":1,"scale":0.5},"pbrMetallicRoughness":{"baseColorFactor":[0.499904364347458,0.47141021490097,0.436739146709442,1.0],"baseColorTexture":{"extensions":{"KHR_texture_transform":{"offset":[0.0,-1.0],"scale":[2.0,2.0]}},"index":0},"metallicFactor":0.0,"roughnessFactor":1.0}},{"extensions":{},"name":"Floor_Base","normalTexture":{"index":3,"scale":0.200000002980232},"pbrMetallicRoughness":{"baseColorFactor":[1.0,1.0,1.0,1.0],"baseColorTexture":{"extensions":{"KHR_texture_transform":{"offset":[0.0,-8.0],"scale":[9.0,9.0]}},"index":2},"metallicFactor":0.0,"roughnessFactor":1.0}},{"extensions":{},"normalTexture":{"index":4,"scale":1.0},"pbrMetallicRoughness":{"baseColorFactor":[0.461720705032349,0.153621762990952,0.0639719367027283,1.0],"metallicFactor":0.0,"roughnessFactor":1.0}},{"extensions":{},"name":"Metal_Pipe","normalTexture":{"index":6,"scale":0.0500000007450581},"pbrMetallicRoughness":{"baseColorFactor":[0.603827297687531,0.603827297687531,0.603827297687531,1.0],"baseColorTexture":{"index":5},"metallicFactor":0.578999996185303,"roughnessFactor":0.351999998092651}}],"meshes":[{"extras":{"targetNames":[]},"primitives":[{"attributes":{"NORMAL":2,"POSITION":0,"TANGENT":1,"TEXCOORD_0":3},"indices":4,"material":0,"mode":4},{"attributes":{"NORMAL":7,"POSITION":5,"TANGENT":6,"TEXCOORD_0":8},"indices":9,"material":1,"mode":4},{"attributes":{"NORMAL":12,"POSITION":10,"TANGENT":11,"TEXCOORD_0":13},"indices":14,"material":2,"mode":4},{"attributes":{"NORMAL":17,"POSITION":15,"TANGENT":16,"TEXCOORD_0":18},"indices":19,"material":2,"mode":4},{"attributes":{"NORMAL":22,"POSITION":20,"TANGENT":21,"TEXCOORD_0":23},"indices":24,"material":1,"mode":4},{"attributes":{"NORMAL":27,"POSITION":25,"TANGENT":26,"TEXCOORD_0":28},"indices":29,"material":0,"mode":4},{"attributes":{"NORMAL":32,"POSITION":30,"TANGENT":31,"TEXCOORD_0":33},"indices":34,"material":3,"mode":4}]}],"nodes":[{"children":[1,2,3],"name":"Tunnel2"},{"mesh":0,"name":"Tunnel","rotation":[0.5,0.5,0.5,-0.5]},{"extensions":{"KHR_lights_punctual":{"light":0}},"name":"Point light HCZ Regular","rotation":[0.499998986721039,0.500001311302185,0.500000834465027,-0.499998807907104],"translation":[4.01605987548828,4.58198022842407,0.000000652853998417413]},{"extensions":{"KHR_lights_punctual":{"light":1}},"name":"Point light HCZ Regular2","rotation":[0.499998986721039,0.500001311302185,0.500000834465027,-0.499998867511749],"translation":[-4.01605987548828,4.58198022842407,0.000000280064000435232]}],"samplers":[{"magFilter":9729,"minFilter":9987,"wrapS":10497,"wrapT":10497}],"scene":0,"scenes":[{"nodes":[0]}],"textures":[{"sampler":0,"source":0},{"sampler":0,"source":1},{"sampler":0,"source":2},{"sampler":0,"source":3},{"sampler":0,"source":4},{"sampler":0,"source":5},{"sampler":0,"source":6}]}