{"accessors":[{"bufferView":0,"byteOffset":0,"componentType":5126,"count":904,"max":[10.2699785232544,3.99996018409729,5.30010318756104],"min":[-10.2699785232544,-10.2699785232544,0.00015976197028067],"normalized":false,"type":"VEC3"},{"bufferView":1,"byteOffset":0,"componentType":5126,"count":904,"max":[0.999992430210114,0.999992609024048,0.999984622001648,1.0],"min":[-0.999992489814758,-0.999992489814758,-0.483210355043411,-1.0],"normalized":false,"type":"VEC4"},{"bufferView":2,"byteOffset":0,"componentType":5126,"count":904,"max":[0.999992430210114,0.999992311000824,0.966965794563293],"min":[-0.999992489814758,-0.999992489814758,-0.999984622001648],"normalized":false,"type":"VEC3"},{"bufferView":3,"byteOffset":0,"componentType":5126,"count":904,"max":[1.00000524520874,1.98663997650146],"min":[-0.000179204143933021,-0.00000524520874023438],"normalized":false,"type":"VEC2"},{"bufferView":4,"byteOffset":0,"componentType":5123,"count":3084,"max":[903.0],"min":[0.0],"normalized":false,"type":"SCALAR"},{"bufferView":5,"byteOffset":0,"componentType":5126,"count":24,"max":[10.1699676513672,1.90004897117615,5.30010318756104],"min":[-10.1699676513672,-10.1699676513672,5.30010318756104],"normalized":false,"type":"VEC3"},{"bufferView":6,"byteOffset":0,"componentType":5126,"count":24,"max":[0.999992430210114,0.999992609024048,0.0000460766277683433,1.0],"min":[-0.999992489814758,-0.999992489814758,-0.0000765362419770099,-1.0],"normalized":false,"type":"VEC4"},{"bufferView":7,"byteOffset":0,"componentType":5126,"count":24,"max":[-0.0039369473233819,0.00390613055787981,-0.999984622001648],"min":[-0.0039369473233819,0.00390613055787981,-0.999984622001648],"normalized":false,"type":"VEC3"},{"bufferView":8,"byteOffset":0,"componentType":5126,"count":24,"max":[1.00000524520874,1.00017917156219],"min":[-0.000179204143933021,-0.00000524520874023438],"normalized":false,"type":"VEC2"},{"bufferView":9,"byteOffset":0,"componentType":5123,"count":36,"max":[23.0],"min":[0.0],"normalized":false,"type":"SCALAR"},{"bufferView":10,"byteOffset":0,"componentType":5126,"count":32,"max":[10.1699676513672,3.99996018409729,3.97503733634949],"min":[-10.1699676513672,-10.1699676513672,0.00015976197028067],"normalized":false,"type":"VEC3"},{"bufferView":11,"byteOffset":0,"componentType":5126,"count":32,"max":[0.968613684177399,0.968616127967834,0.833278656005859,1.0],"min":[-0.968607366085052,-0.968627393245697,-0.999984741210938,-1.0],"normalized":false,"type":"VEC4"},{"bufferView":12,"byteOffset":0,"componentType":5126,"count":32,"max":[0.835274159908295,0.835293531417847,0.966965794563293],"min":[-0.835306406021118,-0.999992489814758,-0.0000459562434116378],"normalized":false,"type":"VEC3"},{"bufferView":13,"byteOffset":0,"componentType":5126,"count":32,"max":[1.00000524520874,1.05836772918701],"min":[-0.000179204143933021,-0.00000524520874023438],"normalized":false,"type":"VEC2"},{"bufferView":14,"byteOffset":0,"componentType":5123,"count":48,"max":[31.0],"min":[0.0],"normalized":false,"type":"SCALAR"},{"bufferView":15,"byteOffset":0,"componentType":5126,"count":24,"max":[10.1699676513672,2.00006008148193,0.010065003298223],"min":[-10.1699676513672,-10.1699676513672,0.010065003298223],"normalized":false,"type":"VEC3"},{"bufferView":16,"byteOffset":0,"componentType":5126,"count":24,"max":[0.999992311000824,0.999992609024048,0.0000460766277683433,1.0],"min":[-0.999992489814758,-0.999992489814758,-0.0000459548391518183,-1.0],"normalized":false,"type":"VEC4"},{"bufferView":17,"byteOffset":0,"componentType":5126,"count":24,"max":[-0.00392150832340121,0.00392144825309515,0.999984622001648],"min":[-0.00392150832340121,0.00392144825309515,0.999984622001648],"normalized":false,"type":"VEC3"},{"bufferView":18,"byteOffset":0,"componentType":5126,"count":24,"max":[1.00000524520874,1.00017917156219],"min":[-0.000179204143933021,-0.00000524520874023438],"normalized":false,"type":"VEC2"},{"bufferView":19,"byteOffset":0,"componentType":5123,"count":36,"max":[23.0],"min":[0.0],"normalized":false,"type":"SCALAR"},{"bufferView":20,"byteOffset":0,"componentType":5126,"count":60,"max":[10.4700002670288,3.4999053478241,0.00015976197028067],"min":[-10.4700002670288,-10.4700002670288,0.00015976197028067],"normalized":false,"type":"VEC3"},{"bufferView":21,"byteOffset":0,"componentType":5126,"count":60,"max":[0.999992430210114,0.999992609024048,0.0000460766277683433,1.0],"min":[-0.999992489814758,-0.999992489814758,-0.0000765362419770099,-1.0],"normalized":false,"type":"VEC4"},{"bufferView":22,"byteOffset":0,"componentType":5126,"count":60,"max":[-0.00392150832340121,0.00392144825309515,0.999984622001648],"min":[-0.00392150832340121,0.00392144825309515,0.999984622001648],"normalized":false,"type":"VEC3"},{"bufferView":23,"byteOffset":0,"componentType":5126,"count":60,"max":[0.954991519451141,1.00017917156219],"min":[-0.000179204143933021,-0.00000524520874023438],"normalized":false,"type":"VEC2"},{"bufferView":24,"byteOffset":0,"componentType":5123,"count":108,"max":[59.0],"min":[0.0],"normalized":false,"type":"SCALAR"},{"bufferView":25,"byteOffset":0,"componentType":5126,"count":2244,"max":[10.4700002670288,3.4999053478241,7.37732839584351],"min":[-10.4700002670288,-10.4700002670288,0.00015976197028067],"normalized":false,"type":"VEC3"},{"bufferView":26,"byteOffset":0,"componentType":5126,"count":2244,"max":[0.999992430210114,0.999992609024048,0.999984622001648,1.0],"min":[-0.999992549419403,-0.999992489814758,-0.862614929676056,-1.0],"normalized":false,"type":"VEC4"},{"bufferView":27,"byteOffset":0,"componentType":5126,"count":2244,"max":[0.999992430210114,0.999992311000824,0.999984622001648],"min":[-0.999992489814758,-0.999992489814758,-0.999984622001648],"normalized":false,"type":"VEC3"},{"bufferView":28,"byteOffset":0,"componentType":5126,"count":2244,"max":[1.17841362953186,1.23842287063599],"min":[-0.280143022537231,-0.26130485534668],"normalized":false,"type":"VEC2"},{"bufferView":29,"byteOffset":0,"componentType":5123,"count":8160,"max":[2243.0],"min":[0.0],"normalized":false,"type":"SCALAR"},{"bufferView":30,"byteOffset":0,"componentType":5126,"count":2352,"max":[8.11415004730225,3.44814252853394,3.45005965232849],"min":[-8.11415004730225,-8.11415004730225,1.54985082149506],"normalized":false,"type":"VEC3"},{"bufferView":31,"byteOffset":0,"componentType":5126,"count":2352,"max":[0.999992430210114,0.999992609024048,0.999984741210938,1.0],"min":[-0.999992489814758,-0.999992489814758,-0.999984860420227,-1.0],"normalized":false,"type":"VEC4"},{"bufferView":32,"byteOffset":0,"componentType":5126,"count":2352,"max":[0.999992430210114,0.999992311000824,0.999984622001648],"min":[-0.999992489814758,-0.999992489814758,-0.999984622001648],"normalized":false,"type":"VEC3"},{"bufferView":33,"byteOffset":0,"componentType":5126,"count":2352,"max":[0.625073313713074,1.00017917156219],"min":[0.374752730131149,-0.00000524520874023438],"normalized":false,"type":"VEC2"},{"bufferView":34,"byteOffset":0,"componentType":5123,"count":11232,"max":[2351.0],"min":[0.0],"normalized":false,"type":"SCALAR"}],"asset":{"generator":"Godot Engine v4.4.1.stable.official@49a5bc7b616bd04689a2c89e89bda41f50241464","version":"2.0"},"bufferViews":[{"buffer":0,"byteLength":10848,"byteOffset":0,"byteStride":12,"target":34962},{"buffer":0,"byteLength":14464,"byteOffset":10848,"byteStride":16,"target":34962},{"buffer":0,"byteLength":10848,"byteOffset":25312,"byteStride":12,"target":34962},{"buffer":0,"byteLength":7232,"byteOffset":36160,"byteStride":8,"target":34962},{"buffer":0,"byteLength":6168,"byteOffset":43392,"target":34963},{"buffer":0,"byteLength":288,"byteOffset":49560,"byteStride":12,"target":34962},{"buffer":0,"byteLength":384,"byteOffset":49848,"byteStride":16,"target":34962},{"buffer":0,"byteLength":288,"byteOffset":50232,"byteStride":12,"target":34962},{"buffer":0,"byteLength":192,"byteOffset":50520,"byteStride":8,"target":34962},{"buffer":0,"byteLength":72,"byteOffset":50712,"target":34963},{"buffer":0,"byteLength":384,"byteOffset":50784,"byteStride":12,"target":34962},{"buffer":0,"byteLength":512,"byteOffset":51168,"byteStride":16,"target":34962},{"buffer":0,"byteLength":384,"byteOffset":51680,"byteStride":12,"target":34962},{"buffer":0,"byteLength":256,"byteOffset":52064,"byteStride":8,"target":34962},{"buffer":0,"byteLength":96,"byteOffset":52320,"target":34963},{"buffer":0,"byteLength":288,"byteOffset":52416,"byteStride":12,"target":34962},{"buffer":0,"byteLength":384,"byteOffset":52704,"byteStride":16,"target":34962},{"buffer":0,"byteLength":288,"byteOffset":53088,"byteStride":12,"target":34962},{"buffer":0,"byteLength":192,"byteOffset":53376,"byteStride":8,"target":34962},{"buffer":0,"byteLength":72,"byteOffset":53568,"target":34963},{"buffer":0,"byteLength":720,"byteOffset":53640,"byteStride":12,"target":34962},{"buffer":0,"byteLength":960,"byteOffset":54360,"byteStride":16,"target":34962},{"buffer":0,"byteLength":720,"byteOffset":55320,"byteStride":12,"target":34962},{"buffer":0,"byteLength":480,"byteOffset":56040,"byteStride":8,"target":34962},{"buffer":0,"byteLength":216,"byteOffset":56520,"target":34963},{"buffer":0,"byteLength":26928,"byteOffset":56736,"byteStride":12,"target":34962},{"buffer":0,"byteLength":35904,"byteOffset":83664,"byteStride":16,"target":34962},{"buffer":0,"byteLength":26928,"byteOffset":119568,"byteStride":12,"target":34962},{"buffer":0,"byteLength":17952,"byteOffset":146496,"byteStride":8,"target":34962},{"buffer":0,"byteLength":16320,"byteOffset":164448,"target":34963},{"buffer":0,"byteLength":28224,"byteOffset":180768,"byteStride":12,"target":34962},{"buffer":0,"byteLength":37632,"byteOffset":208992,"byteStride":16,"target":34962},{"buffer":0,"byteLength":28224,"byteOffset":246624,"byteStride":12,"target":34962},{"buffer":0,"byteLength":18816,"byteOffset":274848,"byteStride":8,"target":34962},{"buffer":0,"byteLength":22464,"byteOffset":293664,"target":34963}],"buffers":[{"byteLength":316128,"uri":"HC_room30.bin"}],"extensions":{"KHR_lights_punctual":{"lights":[{"color":[1.0,0.88679301738739,0.787735998630524],"intensity":2.67035007476807,"range":6.40000009536743,"type":"point"},{"color":[1.0,0.88679301738739,0.787735998630524],"intensity":2.67035007476807,"range":6.40000009536743,"type":"point"},{"color":[1.0,0.88679301738739,0.787735998630524],"intensity":2.67035007476807,"range":6.40000009536743,"type":"point"}]}},"extensionsRequired":["KHR_texture_transform"],"extensionsUsed":["GODOT_single_root","KHR_lights_punctual","KHR_texture_transform"],"images":[{"uri":"textures%2FWall_Base_albedo000.png"},{"uri":"textures%2FWall_Base_normal000.png"},{"uri":"textures%2FFloor_Base_albedo000.png"},{"uri":"textures%2FFloor_Base_normal000.png"},{"uri":"textures%2F_normal000.png"},{"uri":"textures%2FMetal_Pipe_albedo000.png"},{"uri":"textures%2FMetal_Pipe_normal000.png"}],"materials":[{"extensions":{},"name":"Wall_Base","normalTexture":{"index":1,"scale":0.5},"pbrMetallicRoughness":{"baseColorFactor":[0.499904364347458,0.47141021490097,0.436739146709442,1.0],"baseColorTexture":{"extensions":{"KHR_texture_transform":{"offset":[0.0,-1.0],"scale":[2.0,2.0]}},"index":0},"metallicFactor":0.0,"roughnessFactor":1.0}},{"extensions":{},"name":"Floor_Base","normalTexture":{"index":3,"scale":0.200000002980232},"pbrMetallicRoughness":{"baseColorFactor":[1.0,1.0,1.0,1.0],"baseColorTexture":{"extensions":{"KHR_texture_transform":{"offset":[0.0,-8.0],"scale":[9.0,9.0]}},"index":2},"metallicFactor":0.0,"roughnessFactor":1.0}},{"extensions":{},"normalTexture":{"index":4,"scale":1.0},"pbrMetallicRoughness":{"baseColorFactor":[0.461720705032349,0.153621762990952,0.0639719367027283,1.0],"metallicFactor":0.0,"roughnessFactor":1.0}},{"extensions":{},"name":"Metal_Pipe","normalTexture":{"index":6,"scale":0.0500000007450581},"pbrMetallicRoughness":{"baseColorFactor":[0.603827297687531,0.603827297687531,0.603827297687531,1.0],"baseColorTexture":{"index":5},"metallicFactor":0.578999996185303,"roughnessFactor":0.351999998092651}}],"meshes":[{"extras":{"targetNames":[]},"primitives":[{"attributes":{"NORMAL":2,"POSITION":0,"TANGENT":1,"TEXCOORD_0":3},"indices":4,"material":0,"mode":4},{"attributes":{"NORMAL":7,"POSITION":5,"TANGENT":6,"TEXCOORD_0":8},"indices":9,"material":1,"mode":4},{"attributes":{"NORMAL":12,"POSITION":10,"TANGENT":11,"TEXCOORD_0":13},"indices":14,"material":2,"mode":4},{"attributes":{"NORMAL":17,"POSITION":15,"TANGENT":16,"TEXCOORD_0":18},"indices":19,"material":2,"mode":4},{"attributes":{"NORMAL":22,"POSITION":20,"TANGENT":21,"TEXCOORD_0":23},"indices":24,"material":1,"mode":4},{"attributes":{"NORMAL":27,"POSITION":25,"TANGENT":26,"TEXCOORD_0":28},"indices":29,"material":0,"mode":4},{"attributes":{"NORMAL":32,"POSITION":30,"TANGENT":31,"TEXCOORD_0":33},"indices":34,"material":3,"mode":4}]}],"nodes":[{"children":[1,2,3,4],"name":"Map_HC_Nuke2"},{"mesh":0,"name":"Nuke","rotation":[-0.499999761581421,0.500000178813934,0.500000238418579,0.499999761581421]},{"extensions":{"KHR_lights_punctual":{"light":0}},"name":"Point light HCZ Regular","rotation":[-0.707106649875641,0.0000000316101349540077,-0.000000169288767892795,0.70710688829422],"translation":[0.115992002189159,4.79451990127563,-6.117919921875]},{"extensions":{"KHR_lights_punctual":{"light":1}},"name":"Point light HCZ Regular2","rotation":[-0.707106649875641,0.0000000316101349540077,-0.000000169288767892795,0.70710688829422],"translation":[0.116033002734184,4.79451990127563,6.11010980606079]},{"extensions":{"KHR_lights_punctual":{"light":2}},"name":"Point light HCZ Regular3","rotation":[-0.500000476837158,-0.499999225139618,-0.499999344348907,0.500000953674316],"translation":[6.21042013168335,4.79451990127563,0.00609774980694056]}],"samplers":[{"magFilter":9729,"minFilter":9987,"wrapS":10497,"wrapT":10497}],"scene":0,"scenes":[{"nodes":[0]}],"textures":[{"sampler":0,"source":0},{"sampler":0,"source":1},{"sampler":0,"source":2},{"sampler":0,"source":3},{"sampler":0,"source":4},{"sampler":0,"source":5},{"sampler":0,"source":6}]}