{
	"asset":{
		"generator":"Khronos glTF Blender I/O v4.5.47",
		"version":"2.0"
	},
	"extensionsUsed":[
		"KHR_materials_specular",
		"KHR_materials_ior"
	],
	"scene":0,
	"scenes":[
		{
			"name":"Scene",
			"nodes":[
				0
			]
		}
	],
	"nodes":[
		{
			"mesh":0,
			"name":"_3room_HCZ.001"
		}
	],
	"materials":[
		{
			"doubleSided":true,
			"name":"Floor_Base.006",
			"normalTexture":{
				"index":0,
				"scale":0.20000000298023224
			},
			"pbrMetallicRoughness":{
				"baseColorTexture":{
					"index":1
				},
				"metallicFactor":0,
				"roughnessFactor":0.5
			}
		},
		{
			"doubleSided":true,
			"extensions":{
				"KHR_materials_specular":{
					"specularColorFactor":[
						1.159999966621399,
						1.159999966621399,
						1.159999966621399
					]
				},
				"KHR_materials_ior":{
					"ior":1.4500000476837158
				}
			},
			"name":"Metal_Base.006",
			"normalTexture":{
				"index":2,
				"scale":0.05000000074505806
			},
			"pbrMetallicRoughness":{
				"baseColorTexture":{
					"index":3
				},
				"metallicFactor":0,
				"roughnessFactor":0.5
			}
		},
		{
			"doubleSided":true,
			"name":"Floor_Concrete_2.001",
			"normalTexture":{
				"index":4
			},
			"pbrMetallicRoughness":{
				"baseColorTexture":{
					"index":5
				},
				"metallicFactor":0,
				"roughnessFactor":0.5
			}
		},
		{
			"doubleSided":true,
			"extensions":{
				"KHR_materials_specular":{
					"specularFactor":0.6000000238418579
				},
				"KHR_materials_ior":{
					"ior":1.4500000476837158
				}
			},
			"name":"Wall_Base.006",
			"normalTexture":{
				"index":6,
				"scale":0.20000000298023224
			},
			"pbrMetallicRoughness":{
				"baseColorTexture":{
					"index":7
				},
				"metallicFactor":0,
				"roughnessFactor":0.5
			}
		},
		{
			"doubleSided":true,
			"name":"Wall_Plating_2.001",
			"normalTexture":{
				"index":8
			},
			"pbrMetallicRoughness":{
				"baseColorTexture":{
					"index":9
				},
				"metallicFactor":0,
				"roughnessFactor":0.5
			}
		}
	],
	"meshes":[
		{
			"name":"Scene.2572",
			"primitives":[
				{
					"attributes":{
						"POSITION":0,
						"NORMAL":1,
						"TEXCOORD_0":2
					},
					"indices":3,
					"material":0
				},
				{
					"attributes":{
						"POSITION":4,
						"NORMAL":5,
						"TEXCOORD_0":6
					},
					"indices":7,
					"material":1
				},
				{
					"attributes":{
						"POSITION":8,
						"NORMAL":9,
						"TEXCOORD_0":10
					},
					"indices":11,
					"material":2
				},
				{
					"attributes":{
						"POSITION":12,
						"NORMAL":13,
						"TEXCOORD_0":14
					},
					"indices":15,
					"material":3
				},
				{
					"attributes":{
						"POSITION":16,
						"NORMAL":17,
						"TEXCOORD_0":18
					},
					"indices":19,
					"material":4
				}
			]
		}
	],
	"textures":[
		{
			"sampler":0,
			"source":0
		},
		{
			"sampler":0,
			"source":1
		},
		{
			"sampler":0,
			"source":2
		},
		{
			"sampler":0,
			"source":3
		},
		{
			"sampler":0,
			"source":4
		},
		{
			"sampler":0,
			"source":5
		},
		{
			"sampler":0,
			"source":4
		},
		{
			"sampler":0,
			"source":5
		},
		{
			"sampler":0,
			"source":2
		},
		{
			"sampler":0,
			"source":3
		}
	],
	"images":[
		{
			"mimeType":"image/png",
			"name":"Tile_HCZCGround_Normal",
			"uri":"Tile_HCZCGround_Normal.png"
		},
		{
			"mimeType":"image/png",
			"name":"Tile_HCZGround_Albedo",
			"uri":"Tile_HCZGround_Albedo.png"
		},
		{
			"mimeType":"image/png",
			"name":"Pipes_Normal",
			"uri":"Pipes_Normal.png"
		},
		{
			"mimeType":"image/png",
			"name":"Pipes_Albedo",
			"uri":"Pipes_Albedo.png"
		},
		{
			"mimeType":"image/png",
			"name":"Wall_Normal",
			"uri":"Wall_Normal.png"
		},
		{
			"mimeType":"image/png",
			"name":"Wall_Albedo",
			"uri":"Wall_Albedo.png"
		}
	],
	"accessors":[
		{
			"bufferView":0,
			"componentType":5126,
			"count":716,
			"max":[
				10.469998359680176,
				-0.00015880828141234815,
				9.999979972839355
			],
			"min":[
				-10.470001220703125,
				-8.170065879821777,
				-9.999981880187988
			],
			"type":"VEC3"
		},
		{
			"bufferView":1,
			"componentType":5126,
			"count":716,
			"type":"VEC3"
		},
		{
			"bufferView":2,
			"componentType":5126,
			"count":716,
			"type":"VEC2"
		},
		{
			"bufferView":3,
			"componentType":5123,
			"count":1188,
			"type":"SCALAR"
		},
		{
			"bufferView":4,
			"componentType":5126,
			"count":336,
			"max":[
				6.126709938049316,
				1.1999731063842773,
				-1.3642083406448364
			],
			"min":[
				-6.134061336517334,
				-0.00015880828141234815,
				-1.4837102890014648
			],
			"type":"VEC3"
		},
		{
			"bufferView":5,
			"componentType":5126,
			"count":336,
			"type":"VEC3"
		},
		{
			"bufferView":6,
			"componentType":5126,
			"count":336,
			"type":"VEC2"
		},
		{
			"bufferView":7,
			"componentType":5123,
			"count":924,
			"type":"SCALAR"
		},
		{
			"bufferView":8,
			"componentType":5126,
			"count":800,
			"max":[
				10.169965744018555,
				3.9999611377716064,
				9.999979972839355
			],
			"min":[
				-10.169968605041504,
				-9.999979972839355,
				-10.03512954711914
			],
			"type":"VEC3"
		},
		{
			"bufferView":9,
			"componentType":5126,
			"count":800,
			"type":"VEC3"
		},
		{
			"bufferView":10,
			"componentType":5126,
			"count":800,
			"type":"VEC2"
		},
		{
			"bufferView":11,
			"componentType":5123,
			"count":2019,
			"type":"SCALAR"
		},
		{
			"bufferView":12,
			"componentType":5126,
			"count":428,
			"max":[
				10.469998359680176,
				5.749993801116943,
				9.999979972839355
			],
			"min":[
				-10.470001220703125,
				-8.000079154968262,
				-9.999981880187988
			],
			"type":"VEC3"
		},
		{
			"bufferView":13,
			"componentType":5126,
			"count":428,
			"type":"VEC3"
		},
		{
			"bufferView":14,
			"componentType":5126,
			"count":428,
			"type":"VEC2"
		},
		{
			"bufferView":15,
			"componentType":5123,
			"count":906,
			"type":"SCALAR"
		},
		{
			"bufferView":16,
			"componentType":5126,
			"count":745,
			"max":[
				10.169965744018555,
				5.749993801116943,
				9.999979972839355
			],
			"min":[
				-10.169968605041504,
				-8.000079154968262,
				-9.999981880187988
			],
			"type":"VEC3"
		},
		{
			"bufferView":17,
			"componentType":5126,
			"count":745,
			"type":"VEC3"
		},
		{
			"bufferView":18,
			"componentType":5126,
			"count":745,
			"type":"VEC2"
		},
		{
			"bufferView":19,
			"componentType":5123,
			"count":1770,
			"type":"SCALAR"
		}
	],
	"bufferViews":[
		{
			"buffer":0,
			"byteLength":8592,
			"byteOffset":0,
			"target":34962
		},
		{
			"buffer":0,
			"byteLength":8592,
			"byteOffset":8592,
			"target":34962
		},
		{
			"buffer":0,
			"byteLength":5728,
			"byteOffset":17184,
			"target":34962
		},
		{
			"buffer":0,
			"byteLength":2376,
			"byteOffset":22912,
			"target":34963
		},
		{
			"buffer":0,
			"byteLength":4032,
			"byteOffset":25288,
			"target":34962
		},
		{
			"buffer":0,
			"byteLength":4032,
			"byteOffset":29320,
			"target":34962
		},
		{
			"buffer":0,
			"byteLength":2688,
			"byteOffset":33352,
			"target":34962
		},
		{
			"buffer":0,
			"byteLength":1848,
			"byteOffset":36040,
			"target":34963
		},
		{
			"buffer":0,
			"byteLength":9600,
			"byteOffset":37888,
			"target":34962
		},
		{
			"buffer":0,
			"byteLength":9600,
			"byteOffset":47488,
			"target":34962
		},
		{
			"buffer":0,
			"byteLength":6400,
			"byteOffset":57088,
			"target":34962
		},
		{
			"buffer":0,
			"byteLength":4038,
			"byteOffset":63488,
			"target":34963
		},
		{
			"buffer":0,
			"byteLength":5136,
			"byteOffset":67528,
			"target":34962
		},
		{
			"buffer":0,
			"byteLength":5136,
			"byteOffset":72664,
			"target":34962
		},
		{
			"buffer":0,
			"byteLength":3424,
			"byteOffset":77800,
			"target":34962
		},
		{
			"buffer":0,
			"byteLength":1812,
			"byteOffset":81224,
			"target":34963
		},
		{
			"buffer":0,
			"byteLength":8940,
			"byteOffset":83036,
			"target":34962
		},
		{
			"buffer":0,
			"byteLength":8940,
			"byteOffset":91976,
			"target":34962
		},
		{
			"buffer":0,
			"byteLength":5960,
			"byteOffset":100916,
			"target":34962
		},
		{
			"buffer":0,
			"byteLength":3540,
			"byteOffset":106876,
			"target":34963
		}
	],
	"samplers":[
		{
			"magFilter":9729,
			"minFilter":9987
		}
	],
	"buffers":[
		{
			"byteLength":110416,
			"uri":"HC_room2_servers.bin"
		}
	]
}
