{"accessors":[{"bufferView":0,"byteOffset":0,"componentType":5126,"count":102,"max":[10.3611335754395,5.80000019073486,0.0],"min":[-10.3611335754395,-10.4700002670288,0.0],"normalized":false,"type":"VEC3"},{"bufferView":1,"byteOffset":0,"componentType":5126,"count":102,"max":[1.0,0.0,0.0000763009302318096,1.0],"min":[-1.0,-1.0,-0.0000457798596471548,-1.0],"normalized":false,"type":"VEC4"},{"bufferView":2,"byteOffset":0,"componentType":5126,"count":102,"max":[-0.0000152592547237873,-0.0000152592547237873,1.0],"min":[-0.0000152592547237873,-0.0000152592547237873,1.0],"normalized":false,"type":"VEC3"},{"bufferView":3,"byteOffset":0,"componentType":5126,"count":102,"max":[1.24981200695038,2.13361692428589],"min":[-0.1441880017519,-1.3199999332428],"normalized":false,"type":"VEC2"},{"bufferView":4,"byteOffset":0,"componentType":5123,"count":168,"max":[101.0],"min":[0.0],"normalized":false,"type":"SCALAR"},{"bufferView":5,"byteOffset":0,"componentType":5126,"count":4000,"max":[10.3611335754395,5.80000019073486,8.29999923706055],"min":[-10.3611335754395,-10.4700002670288,-12.3400001525879],"normalized":false,"type":"VEC3"},{"bufferView":6,"byteOffset":0,"componentType":5126,"count":4000,"max":[1.0,1.0,0.750990867614746,1.0],"min":[-1.0,-0.832030773162842,-0.751019358634949,-1.0],"normalized":false,"type":"VEC4"},{"bufferView":7,"byteOffset":0,"componentType":5126,"count":4000,"max":[1.0,1.0,1.0],"min":[-1.0,-1.0,-1.0],"normalized":false,"type":"VEC3"},{"bufferView":8,"byteOffset":0,"componentType":5126,"count":4000,"max":[2.26574897766113,2.12562394142151],"min":[-0.678860008716583,-0.136876940727234],"normalized":false,"type":"VEC2"},{"bufferView":9,"byteOffset":0,"componentType":5123,"count":11298,"max":[3999.0],"min":[0.0],"normalized":false,"type":"SCALAR"},{"bufferView":10,"byteOffset":0,"componentType":5126,"count":486,"max":[10.1700000762939,5.80000019073486,8.39999961853027],"min":[-10.1700000762939,-10.1700000762939,-12.3000001907349],"normalized":false,"type":"VEC3"},{"bufferView":11,"byteOffset":0,"componentType":5126,"count":486,"max":[1.0,1.0,0.702705442905426,1.0],"min":[-1.0,-0.70710676908493,-0.832017719745636,-1.0],"normalized":false,"type":"VEC4"},{"bufferView":12,"byteOffset":0,"componentType":5126,"count":486,"max":[1.0,1.0,1.0],"min":[-1.0,-1.0,-1.0],"normalized":false,"type":"VEC3"},{"bufferView":13,"byteOffset":0,"componentType":5126,"count":486,"max":[3.40000009536743,6.65000009536743],"min":[-4.5,-5.5],"normalized":false,"type":"VEC2"},{"bufferView":14,"byteOffset":0,"componentType":5123,"count":1248,"max":[485.0],"min":[0.0],"normalized":false,"type":"SCALAR"},{"bufferView":15,"byteOffset":0,"componentType":5126,"count":5610,"max":[10.1831359863281,3.55687689781189,8.29999923706055],"min":[-10.1831359863281,-10.1700010299683,-12.3400001525879],"normalized":false,"type":"VEC3"},{"bufferView":16,"byteOffset":0,"componentType":5126,"count":5610,"max":[1.0,1.0,1.0,1.0],"min":[-1.0,-0.928918302059174,-0.781738460063934,-1.0],"normalized":false,"type":"VEC4"},{"bufferView":17,"byteOffset":0,"componentType":5126,"count":5610,"max":[1.0,1.0,1.0],"min":[-1.0,-1.0,-1.0],"normalized":false,"type":"VEC3"},{"bufferView":18,"byteOffset":0,"componentType":5126,"count":5610,"max":[3.0,3.59900498390198],"min":[-2.58500003814697,-2.02500009536743],"normalized":false,"type":"VEC2"},{"bufferView":19,"byteOffset":0,"componentType":5123,"count":17862,"max":[5609.0],"min":[0.0],"normalized":false,"type":"SCALAR"},{"bufferView":20,"byteOffset":0,"componentType":5126,"count":68,"max":[10.1831359863281,4.10687589645386,6.32000017166138],"min":[-10.1831359863281,-10.1700000762939,-12.3400001525879],"normalized":false,"type":"VEC3"},{"bufferView":21,"byteOffset":0,"componentType":5126,"count":68,"max":[0.869683563709259,0.869683563709259,0.832060039043427,1.0],"min":[-0.869725584983826,-0.894500851631165,-0.44722992181778,-1.0],"normalized":false,"type":"VEC4"},{"bufferView":22,"byteOffset":0,"componentType":5126,"count":68,"max":[0.869687438011169,0.869697570800781,0.89444762468338],"min":[-0.869697570800781,-0.832092583179474,-0.0000208837846003007],"normalized":false,"type":"VEC3"},{"bufferView":23,"byteOffset":0,"componentType":5126,"count":68,"max":[1.0,1.0],"min":[0.0,0.0],"normalized":false,"type":"VEC2"},{"bufferView":24,"byteOffset":0,"componentType":5123,"count":108,"max":[67.0],"min":[0.0],"normalized":false,"type":"SCALAR"},{"bufferView":25,"byteOffset":0,"componentType":5126,"count":3136,"max":[9.68345737457275,5.00507116317749,6.45000219345093],"min":[-9.68345737457275,-9.68346786499023,-10.2840023040771],"normalized":false,"type":"VEC3"},{"bufferView":26,"byteOffset":0,"componentType":5126,"count":3136,"max":[0.965944290161133,1.0,1.0,1.0],"min":[-0.965946793556213,-0.965943336486816,-1.0,-1.0],"normalized":false,"type":"VEC4"},{"bufferView":27,"byteOffset":0,"componentType":5126,"count":3136,"max":[0.965934991836548,1.0,1.0],"min":[-0.965937495231628,-1.0,-1.0],"normalized":false,"type":"VEC3"},{"bufferView":28,"byteOffset":0,"componentType":5126,"count":3136,"max":[0.625,1.0],"min":[0.375,0.0],"normalized":false,"type":"VEC2"},{"bufferView":29,"byteOffset":0,"componentType":5123,"count":14976,"max":[3135.0],"min":[0.0],"normalized":false,"type":"SCALAR"},{"bufferView":30,"byteOffset":0,"componentType":5126,"count":8,"max":[10.1832008361816,3.55690002441406,-12.3000001907349],"min":[-10.1830997467041,-10.1700000762939,-12.3000001907349],"normalized":false,"type":"VEC3"},{"bufferView":31,"byteOffset":0,"componentType":5126,"count":8,"max":[1.0,0.000000087888466282493,0.000047936900955392,1.0],"min":[-1.0,0.000000000731470217729679,-0.0000305185094475746,-1.0],"normalized":false,"type":"VEC4"},{"bufferView":32,"byteOffset":0,"componentType":5126,"count":8,"max":[-0.0000305185094475746,0.0,1.0],"min":[-0.000047936900955392,-0.0000305185094475746,1.0],"normalized":false,"type":"VEC3"},{"bufferView":33,"byteOffset":0,"componentType":5126,"count":8,"max":[4.54518985748291,6.3011999130249],"min":[0.471822947263718,0.810449242591858],"normalized":false,"type":"VEC2"},{"bufferView":34,"byteOffset":0,"componentType":5123,"count":12,"max":[7.0],"min":[0.0],"normalized":false,"type":"SCALAR"}],"asset":{"generator":"Godot Engine v4.4.1.stable.official@49a5bc7b616bd04689a2c89e89bda41f50241464","version":"2.0"},"bufferViews":[{"buffer":0,"byteLength":1224,"byteOffset":0,"byteStride":12,"target":34962},{"buffer":0,"byteLength":1632,"byteOffset":1224,"byteStride":16,"target":34962},{"buffer":0,"byteLength":1224,"byteOffset":2856,"byteStride":12,"target":34962},{"buffer":0,"byteLength":816,"byteOffset":4080,"byteStride":8,"target":34962},{"buffer":0,"byteLength":336,"byteOffset":4896,"target":34963},{"buffer":0,"byteLength":48000,"byteOffset":5232,"byteStride":12,"target":34962},{"buffer":0,"byteLength":64000,"byteOffset":53232,"byteStride":16,"target":34962},{"buffer":0,"byteLength":48000,"byteOffset":117232,"byteStride":12,"target":34962},{"buffer":0,"byteLength":32000,"byteOffset":165232,"byteStride":8,"target":34962},{"buffer":0,"byteLength":22596,"byteOffset":197232,"target":34963},{"buffer":0,"byteLength":5832,"byteOffset":219828,"byteStride":12,"target":34962},{"buffer":0,"byteLength":7776,"byteOffset":225660,"byteStride":16,"target":34962},{"buffer":0,"byteLength":5832,"byteOffset":233436,"byteStride":12,"target":34962},{"buffer":0,"byteLength":3888,"byteOffset":239268,"byteStride":8,"target":34962},{"buffer":0,"byteLength":2496,"byteOffset":243156,"target":34963},{"buffer":0,"byteLength":67320,"byteOffset":245652,"byteStride":12,"target":34962},{"buffer":0,"byteLength":89760,"byteOffset":312972,"byteStride":16,"target":34962},{"buffer":0,"byteLength":67320,"byteOffset":402732,"byteStride":12,"target":34962},{"buffer":0,"byteLength":44880,"byteOffset":470052,"byteStride":8,"target":34962},{"buffer":0,"byteLength":35724,"byteOffset":514932,"target":34963},{"buffer":0,"byteLength":816,"byteOffset":550656,"byteStride":12,"target":34962},{"buffer":0,"byteLength":1088,"byteOffset":551472,"byteStride":16,"target":34962},{"buffer":0,"byteLength":816,"byteOffset":552560,"byteStride":12,"target":34962},{"buffer":0,"byteLength":544,"byteOffset":553376,"byteStride":8,"target":34962},{"buffer":0,"byteLength":216,"byteOffset":553920,"target":34963},{"buffer":0,"byteLength":37632,"byteOffset":554136,"byteStride":12,"target":34962},{"buffer":0,"byteLength":50176,"byteOffset":591768,"byteStride":16,"target":34962},{"buffer":0,"byteLength":37632,"byteOffset":641944,"byteStride":12,"target":34962},{"buffer":0,"byteLength":25088,"byteOffset":679576,"byteStride":8,"target":34962},{"buffer":0,"byteLength":29952,"byteOffset":704664,"target":34963},{"buffer":0,"byteLength":96,"byteOffset":734616,"byteStride":12,"target":34962},{"buffer":0,"byteLength":128,"byteOffset":734712,"byteStride":16,"target":34962},{"buffer":0,"byteLength":96,"byteOffset":734840,"byteStride":12,"target":34962},{"buffer":0,"byteLength":64,"byteOffset":734936,"byteStride":8,"target":34962},{"buffer":0,"byteLength":24,"byteOffset":735000,"target":34963}],"buffers":[{"byteLength":735024,"uri":"HC_room3_alt0.bin"}],"extensions":{"KHR_lights_punctual":{"lights":[{"color":[1.0,0.907504975795746,0.823529005050659],"intensity":1.88496005535126,"range":10.8681001663208,"type":"point"},{"color":[1.0,0.570755004882813,0.570755004882813],"intensity":2.76460003852844,"range":6.69981002807617,"type":"point"},{"color":[1.0,0.907504975795746,0.823529005050659],"intensity":1.88496005535126,"range":10.8681001663208,"type":"point"},{"color":[1.0,0.907504975795746,0.823529005050659],"intensity":1.88496005535126,"range":10.8681001663208,"type":"point"},{"color":[1.0,0.570755004882813,0.570755004882813],"intensity":2.76460003852844,"range":9.21000003814697,"type":"point"}]}},"extensionsRequired":["KHR_texture_transform"],"extensionsUsed":["GODOT_single_root","KHR_lights_punctual","KHR_texture_transform"],"images":[{"uri":"textures%2FFloor_Base_albedo000.png"},{"uri":"textures%2FFloor_Base_normal000.png"},{"uri":"textures%2FWall_Base_albedo000.png"},{"uri":"textures%2FWall_Base_normal000.png"},{"uri":"textures%2FMetal_Pipe_albedo000.png"},{"uri":"textures%2FMetal_Pipe_normal000.png"},{"uri":"textures%2F_normal000.png"}],"materials":[{"extensions":{},"name":"Floor_Base","normalTexture":{"index":1,"scale":0.200000002980232},"pbrMetallicRoughness":{"baseColorFactor":[1.0,1.0,1.0,1.0],"baseColorTexture":{"extensions":{"KHR_texture_transform":{"offset":[0.0,-8.0],"scale":[9.0,9.0]}},"index":0},"metallicFactor":0.0,"roughnessFactor":1.0}},{"extensions":{},"name":"Wall_Base","normalTexture":{"index":3,"scale":0.5},"pbrMetallicRoughness":{"baseColorFactor":[0.499904364347458,0.47141021490097,0.436739146709442,1.0],"baseColorTexture":{"extensions":{"KHR_texture_transform":{"offset":[0.0,-1.0],"scale":[2.0,2.0]}},"index":2},"metallicFactor":0.0,"roughnessFactor":1.0}},{"extensions":{},"name":"Metal_Pipe","normalTexture":{"index":5,"scale":0.0500000007450581},"pbrMetallicRoughness":{"baseColorFactor":[0.603827297687531,0.603827297687531,0.603827297687531,1.0],"baseColorTexture":{"index":4},"metallicFactor":0.578999996185303,"roughnessFactor":0.351999998092651}},{"extensions":{},"normalTexture":{"index":6,"scale":1.0},"pbrMetallicRoughness":{"baseColorFactor":[0.461720705032349,0.153621762990952,0.0639719367027283,1.0],"metallicFactor":0.0,"roughnessFactor":1.0}}],"meshes":[{"extras":{"targetNames":[]},"primitives":[{"attributes":{"NORMAL":2,"POSITION":0,"TANGENT":1,"TEXCOORD_0":3},"indices":4,"material":0,"mode":4},{"attributes":{"NORMAL":7,"POSITION":5,"TANGENT":6,"TEXCOORD_0":8},"indices":9,"material":1,"mode":4},{"attributes":{"NORMAL":12,"POSITION":10,"TANGENT":11,"TEXCOORD_0":13},"indices":14,"material":0,"mode":4},{"attributes":{"NORMAL":17,"POSITION":15,"TANGENT":16,"TEXCOORD_0":18},"indices":19,"material":2,"mode":4},{"attributes":{"NORMAL":22,"POSITION":20,"TANGENT":21,"TEXCOORD_0":23},"indices":24,"material":3,"mode":4},{"attributes":{"NORMAL":27,"POSITION":25,"TANGENT":26,"TEXCOORD_0":28},"indices":29,"material":2,"mode":4},{"attributes":{"NORMAL":32,"POSITION":30,"TANGENT":31,"TEXCOORD_0":33},"indices":34,"material":0,"mode":4}]}],"nodes":[{"children":[1,2,3,4,5,6],"name":"TCross3"},{"mesh":0,"name":"TCross","rotation":[-0.500000238418579,0.499999761581421,0.499999761581421,0.500000238418579],"translation":[-0.0780000016093254,0.0,-0.0000000709771015294791]},{"extensions":{"KHR_lights_punctual":{"light":0}},"name":"Point light","translation":[-0.45999601483345,4.5520601272583,-4.18799018859863]},{"extensions":{"KHR_lights_punctual":{"light":1}},"name":"Point light2","rotation":[0.707106709480286,0.707106828689575,-0.0000027419725938671,0.00000494484311275301],"translation":[-0.295807987451553,3.666100025177,-0.0831833034753799]},{"extensions":{"KHR_lights_punctual":{"light":2}},"name":"Point light3","rotation":[0.000000482847724470048,1.0,0.00000230967816605698,0.00000379284119844669],"translation":[-0.460009008646011,4.5520601272583,4.19198989868164]},{"extensions":{"KHR_lights_punctual":{"light":3}},"name":"Point light4","rotation":[-0.00000197461463358195,-0.707110702991486,-0.00000129176919472229,0.707102835178375],"translation":[0.85836398601532,4.5520601272583,0.00000545290004083654]},{"extensions":{"KHR_lights_punctual":{"light":4}},"name":"Point light5","rotation":[0.000000447022273419861,1.0,0.00000229477745961049,0.00000555120095668826],"translation":[-3.39610004425049,3.82919001579285,-0.0831872001290321]}],"samplers":[{"magFilter":9729,"minFilter":9987,"wrapS":10497,"wrapT":10497}],"scene":0,"scenes":[{"nodes":[0]}],"textures":[{"sampler":0,"source":0},{"sampler":0,"source":1},{"sampler":0,"source":2},{"sampler":0,"source":3},{"sampler":0,"source":4},{"sampler":0,"source":5},{"sampler":0,"source":6}]}