{"accessors":[{"bufferView":0,"byteOffset":0,"componentType":5126,"count":716,"max":[10.4699993133545,9.99998188018799,-0.000158808295964263],"min":[-10.4700012207031,-9.99997997283936,-8.17006587982178],"normalized":false,"type":"VEC3"},{"bufferView":1,"byteOffset":0,"componentType":5126,"count":716,"max":[0.00390622043050826,0.999992609024048,0.867109060287476,1.0],"min":[-0.999992489814758,0.0038855611346662,-0.867206394672394,-1.0],"normalized":false,"type":"VEC4"},{"bufferView":2,"byteOffset":0,"componentType":5126,"count":716,"max":[0.999992430210114,0.00392144825309515,0.999984622001648],"min":[-0.999992489814758,0.00389090226963162,-0.0000152584407260292],"normalized":false,"type":"VEC3"},{"bufferView":3,"byteOffset":0,"componentType":5126,"count":716,"max":[1.03399693965912,2.59997749328613],"min":[-3.83383893966675,-3.79998302459717],"normalized":false,"type":"VEC2"},{"bufferView":4,"byteOffset":0,"componentType":5123,"count":1188,"max":[715.0],"min":[0.0],"normalized":false,"type":"SCALAR"},{"bufferView":5,"byteOffset":0,"componentType":5126,"count":336,"max":[6.12671041488647,1.48371028900146,1.19997310638428],"min":[-6.13406133651733,1.36420834064484,-0.000158808295964263],"normalized":false,"type":"VEC3"},{"bufferView":6,"byteOffset":0,"componentType":5126,"count":336,"max":[0.999992430210114,0.999992609024048,0.704391181468964,1.0],"min":[-0.999992489814758,-0.999992489814758,-0.704337000846863,-1.0],"normalized":false,"type":"VEC4"},{"bufferView":7,"byteOffset":0,"componentType":5126,"count":336,"max":[0.999992430210114,0.999992311000824,0.999984622001648],"min":[-0.999992489814758,-0.999992489814758,-0.999984622001648],"normalized":false,"type":"VEC3"},{"bufferView":8,"byteOffset":0,"componentType":5126,"count":336,"max":[3.50177049636841,0.750224471092224],"min":[0.436905264854431,-0.250057935714722],"normalized":false,"type":"VEC2"},{"bufferView":9,"byteOffset":0,"componentType":5123,"count":924,"max":[335.0],"min":[0.0],"normalized":false,"type":"SCALAR"},{"bufferView":10,"byteOffset":0,"componentType":5126,"count":800,"max":[10.1699666976929,10.0351295471191,3.99996113777161],"min":[-10.1699686050415,-9.99997997283936,-9.99997997283936],"normalized":false,"type":"VEC3"},{"bufferView":11,"byteOffset":0,"componentType":5126,"count":800,"max":[0.890210092067719,0.999992609024048,0.876274883747101,1.0],"min":[-0.999992549419403,-0.882366240024567,-0.876305341720581,-1.0],"normalized":false,"type":"VEC4"},{"bufferView":12,"byteOffset":0,"componentType":5126,"count":800,"max":[0.999992430210114,0.999992311000824,0.999984622001648],"min":[-0.992152571678162,-0.999992489814758,-0.999984622001648],"normalized":false,"type":"VEC3"},{"bufferView":13,"byteOffset":0,"componentType":5126,"count":800,"max":[2.14015531539917,1.61877739429474],"min":[-1.9102189540863,-1.30635619163513],"normalized":false,"type":"VEC2"},{"bufferView":14,"byteOffset":0,"componentType":5123,"count":2019,"max":[799.0],"min":[0.0],"normalized":false,"type":"SCALAR"},{"bufferView":15,"byteOffset":0,"componentType":5126,"count":430,"max":[10.4699993133545,9.99998188018799,5.74999380111694],"min":[-10.4700012207031,-9.99997997283936,-8.00007915496826],"normalized":false,"type":"VEC3"},{"bufferView":16,"byteOffset":0,"componentType":5126,"count":430,"max":[0.70710676908493,0.999992609024048,0.704391539096832,1.0],"min":[-0.999992489814758,-0.70710676908493,-0.704358875751495,-1.0],"normalized":false,"type":"VEC4"},{"bufferView":17,"byteOffset":0,"componentType":5126,"count":430,"max":[0.999992430210114,0.999992311000824,0.0000215795171243371],"min":[-0.999992489814758,-0.999992489814758,-0.999984622001648],"normalized":false,"type":"VEC3"},{"bufferView":18,"byteOffset":0,"componentType":5126,"count":430,"max":[2.62521529197693,1.87484967708588],"min":[-1.87513208389282,-1.0939884185791],"normalized":false,"type":"VEC2"},{"bufferView":19,"byteOffset":0,"componentType":5123,"count":906,"max":[429.0],"min":[0.0],"normalized":false,"type":"SCALAR"},{"bufferView":20,"byteOffset":0,"componentType":5126,"count":752,"max":[10.1699666976929,9.99998188018799,5.74999380111694],"min":[-10.1699686050415,-9.99997997283936,-8.00007915496826],"normalized":false,"type":"VEC3"},{"bufferView":21,"byteOffset":0,"componentType":5126,"count":752,"max":[0.866635024547577,0.999992609024048,0.83165568113327,1.0],"min":[-0.999992489814758,-0.866658449172974,-0.831663906574249,-1.0],"normalized":false,"type":"VEC4"},{"bufferView":22,"byteOffset":0,"componentType":5126,"count":752,"max":[0.999992430210114,0.999992311000824,0.0000626134424237534],"min":[-0.999992489814758,-0.999992489814758,-0.996598660945892],"normalized":false,"type":"VEC3"},{"bufferView":23,"byteOffset":0,"componentType":5126,"count":752,"max":[10.5850009918213,4.83322334289551],"min":[-9.58500099182129,-5.5752534866333],"normalized":false,"type":"VEC2"},{"bufferView":24,"byteOffset":0,"componentType":5123,"count":1794,"max":[751.0],"min":[0.0],"normalized":false,"type":"SCALAR"}],"asset":{"generator":"Godot Engine v4.4.1.stable.official@49a5bc7b616bd04689a2c89e89bda41f50241464","version":"2.0"},"bufferViews":[{"buffer":0,"byteLength":8592,"byteOffset":0,"byteStride":12,"target":34962},{"buffer":0,"byteLength":11456,"byteOffset":8592,"byteStride":16,"target":34962},{"buffer":0,"byteLength":8592,"byteOffset":20048,"byteStride":12,"target":34962},{"buffer":0,"byteLength":5728,"byteOffset":28640,"byteStride":8,"target":34962},{"buffer":0,"byteLength":2376,"byteOffset":34368,"target":34963},{"buffer":0,"byteLength":4032,"byteOffset":36744,"byteStride":12,"target":34962},{"buffer":0,"byteLength":5376,"byteOffset":40776,"byteStride":16,"target":34962},{"buffer":0,"byteLength":4032,"byteOffset":46152,"byteStride":12,"target":34962},{"buffer":0,"byteLength":2688,"byteOffset":50184,"byteStride":8,"target":34962},{"buffer":0,"byteLength":1848,"byteOffset":52872,"target":34963},{"buffer":0,"byteLength":9600,"byteOffset":54720,"byteStride":12,"target":34962},{"buffer":0,"byteLength":12800,"byteOffset":64320,"byteStride":16,"target":34962},{"buffer":0,"byteLength":9600,"byteOffset":77120,"byteStride":12,"target":34962},{"buffer":0,"byteLength":6400,"byteOffset":86720,"byteStride":8,"target":34962},{"buffer":0,"byteLength":4038,"byteOffset":93120,"target":34963},{"buffer":0,"byteLength":5160,"byteOffset":97160,"byteStride":12,"target":34962},{"buffer":0,"byteLength":6880,"byteOffset":102320,"byteStride":16,"target":34962},{"buffer":0,"byteLength":5160,"byteOffset":109200,"byteStride":12,"target":34962},{"buffer":0,"byteLength":3440,"byteOffset":114360,"byteStride":8,"target":34962},{"buffer":0,"byteLength":1812,"byteOffset":117800,"target":34963},{"buffer":0,"byteLength":9024,"byteOffset":119612,"byteStride":12,"target":34962},{"buffer":0,"byteLength":12032,"byteOffset":128636,"byteStride":16,"target":34962},{"buffer":0,"byteLength":9024,"byteOffset":140668,"byteStride":12,"target":34962},{"buffer":0,"byteLength":6016,"byteOffset":149692,"byteStride":8,"target":34962},{"buffer":0,"byteLength":3588,"byteOffset":155708,"target":34963}],"buffers":[{"byteLength":159296,"uri":"HC_room2_servers0.bin"}],"extensions":{"KHR_lights_punctual":{"lights":[{"color":[1.0,0.907504975795746,0.823529005050659],"intensity":1.88496005535126,"range":10.4170999526978,"type":"point"},{"color":[1.0,0.907504975795746,0.823529005050659],"intensity":1.88496005535126,"range":10.4170999526978,"type":"point"},{"color":[1.0,0.907504975795746,0.823529005050659],"intensity":3.1415901184082,"range":7.30358982086182,"type":"point"},{"color":[1.0,0.907504975795746,0.823529005050659],"intensity":1.88496005535126,"range":8.87487983703613,"type":"point"},{"color":[0.898356020450592,0.97809898853302,0.985293984413147],"intensity":2.10487008094788,"range":5.00484991073608,"type":"point"},{"color":[1.0,0.242647007107735,0.242647007107735],"intensity":2.10487008094788,"range":8.36565971374512,"type":"point"},{"color":[1.0,0.242647007107735,0.242647007107735],"intensity":2.10487008094788,"range":8.36565971374512,"type":"point"},{"color":[1.0,0.242647007107735,0.242647007107735],"intensity":2.10487008094788,"range":8.36565971374512,"type":"point"},{"color":[0.898356020450592,0.97809898853302,0.985293984413147],"intensity":2.10487008094788,"range":5.00484991073608,"type":"point"}]}},"extensionsRequired":["KHR_texture_transform"],"extensionsUsed":["GODOT_single_root","KHR_lights_punctual","KHR_texture_transform"],"images":[{"uri":"textures%2FFloor_Base_albedo000.png"},{"uri":"textures%2FFloor_Base_normal000.png"},{"uri":"textures%2FMetal_Pipe_albedo000.png"},{"uri":"textures%2FMetal_Pipe_normal000.png"},{"uri":"textures%2FWall_Base_albedo000.png"},{"uri":"textures%2FWall_Base_normal000.png"},{"uri":"textures%2FWall_Plating_albedo000.png"},{"uri":"textures%2FWall_Plating_normal000.png"}],"materials":[{"extensions":{},"name":"Floor_Base","normalTexture":{"index":1,"scale":0.200000002980232},"pbrMetallicRoughness":{"baseColorFactor":[1.0,1.0,1.0,1.0],"baseColorTexture":{"extensions":{"KHR_texture_transform":{"offset":[0.0,-8.0],"scale":[9.0,9.0]}},"index":0},"metallicFactor":0.0,"roughnessFactor":1.0}},{"extensions":{},"name":"Metal_Pipe","normalTexture":{"index":3,"scale":0.0500000007450581},"pbrMetallicRoughness":{"baseColorFactor":[0.603827297687531,0.603827297687531,0.603827297687531,1.0],"baseColorTexture":{"index":2},"metallicFactor":0.578999996185303,"roughnessFactor":0.351999998092651}},{"extensions":{},"name":"Wall_Base","normalTexture":{"index":5,"scale":0.5},"pbrMetallicRoughness":{"baseColorFactor":[0.499904364347458,0.47141021490097,0.436739146709442,1.0],"baseColorTexture":{"extensions":{"KHR_texture_transform":{"offset":[0.0,-1.0],"scale":[2.0,2.0]}},"index":4},"metallicFactor":0.0,"roughnessFactor":1.0}},{"extensions":{},"name":"Wall_Plating","normalTexture":{"index":7,"scale":1.0},"pbrMetallicRoughness":{"baseColorFactor":[0.603827297687531,0.603827297687531,0.603827297687531,1.0],"baseColorTexture":{"index":6},"metallicFactor":0.0,"roughnessFactor":1.0}}],"meshes":[{"extras":{"targetNames":[]},"primitives":[{"attributes":{"NORMAL":2,"POSITION":0,"TANGENT":1,"TEXCOORD_0":3},"indices":4,"material":0,"mode":4},{"attributes":{"NORMAL":7,"POSITION":5,"TANGENT":6,"TEXCOORD_0":8},"indices":9,"material":1,"mode":4},{"attributes":{"NORMAL":12,"POSITION":10,"TANGENT":11,"TEXCOORD_0":13},"indices":14,"material":0,"mode":4},{"attributes":{"NORMAL":17,"POSITION":15,"TANGENT":16,"TEXCOORD_0":18},"indices":19,"material":2,"mode":4},{"attributes":{"NORMAL":22,"POSITION":20,"TANGENT":21,"TEXCOORD_0":23},"indices":24,"material":3,"mode":4}]}],"nodes":[{"children":[1,2,3,4,5,6,7,8,9,10],"name":"3room_HCZ2"},{"mesh":0,"name":"3room_HCZ","rotation":[-0.70710676908493,-0.000000170084987871633,-0.000000170084987871633,0.70710676908493]},{"extensions":{"KHR_lights_punctual":{"light":0}},"name":"Point light","rotation":[-0.499999940395355,-0.000000570239194530586,-0.000000327826853663282,0.866025447845459],"translation":[-0.5555499792099,4.60311985015869,3.94090008735657]},{"extensions":{"KHR_lights_punctual":{"light":1}},"name":"Point light2","rotation":[-0.499999940395355,-0.000000570239194530586,-0.000000327826853663282,0.866025447845459],"translation":[7.91918992996216,4.58696985244751,3.93179988861084]},{"extensions":{"KHR_lights_punctual":{"light":2}},"name":"Point light3","rotation":[-0.70710676908493,0.0000000210733439587329,0.0000000210733279715214,0.70710676908493],"translation":[2.61617994308472,-2.46963000297546,4.24245023727417]},{"extensions":{"KHR_lights_punctual":{"light":3}},"name":"Point light4","rotation":[-0.0000000154543204899937,-0.707106709480286,0.0000000154543045027822,0.707106828689575],"translation":[-5.32122993469238,0.466210007667542,-4.03834009170532]},{"extensions":{"KHR_lights_punctual":{"light":4}},"name":"Point light5","rotation":[-0.270598024129868,0.270598143339157,-0.653281509876251,0.653281509876251],"translation":[-7.58056020736694,3.15151000022888,0.986129999160767]},{"extensions":{"KHR_lights_punctual":{"light":5}},"name":"Point light6","rotation":[-0.325433731079102,0.627768158912659,0.32543358206749,0.627768278121948],"translation":[3.63071990013123,-3.74434995651245,-7.95862007141113]},{"extensions":{"KHR_lights_punctual":{"light":6}},"name":"Point light7","rotation":[-0.325433731079102,0.627768158912659,0.325433611869812,0.627768278121948],"translation":[-1.70463001728058,0.314238995313644,-7.95955991744995]},{"extensions":{"KHR_lights_punctual":{"light":7}},"name":"Point light8","rotation":[-0.500000178813934,0.49999988079071,0.499999850988388,0.50000011920929],"translation":[-8.03738021850586,3.27779006958008,-7.95960998535156]},{"extensions":{"KHR_lights_punctual":{"light":8}},"name":"Point light9","rotation":[-0.270598024129868,0.270598143339157,-0.653281509876251,0.653281509876251],"translation":[-7.58459997177124,1.26670002937317,0.982089996337891]}],"samplers":[{"magFilter":9729,"minFilter":9987,"wrapS":10497,"wrapT":10497}],"scene":0,"scenes":[{"nodes":[0]}],"textures":[{"sampler":0,"source":0},{"sampler":0,"source":1},{"sampler":0,"source":2},{"sampler":0,"source":3},{"sampler":0,"source":4},{"sampler":0,"source":5},{"sampler":0,"source":6},{"sampler":0,"source":7}]}