{"accessors":[{"bufferView":0,"byteOffset":0,"componentType":5126,"count":76,"max":[4.30304098129272,4.39752388000488,0.0],"min":[-10.4176502227783,-10.4176502227783,0.0],"normalized":false,"type":"VEC3"},{"bufferView":1,"byteOffset":0,"componentType":5126,"count":76,"max":[1.0,1.0,0.0000763009302318096,1.0],"min":[-1.0,-1.0,-0.0000457784626632929,-1.0],"normalized":false,"type":"VEC4"},{"bufferView":2,"byteOffset":0,"componentType":5126,"count":76,"max":[-0.0000152592547237873,-0.0000152592547237873,1.0],"min":[-0.0000152592547237873,-0.0000152592547237873,1.0],"normalized":false,"type":"VEC3"},{"bufferView":3,"byteOffset":0,"componentType":5126,"count":76,"max":[0.955110013484955,1.0],"min":[0.0,0.0],"normalized":false,"type":"VEC2"},{"bufferView":4,"byteOffset":0,"componentType":5123,"count":132,"max":[75.0],"min":[0.0],"normalized":false,"type":"SCALAR"},{"bufferView":5,"byteOffset":0,"componentType":5126,"count":1152,"max":[4.2972240447998,4.38182258605957,5.27350044250488],"min":[-10.2186508178711,-10.2186508178711,0.0],"normalized":false,"type":"VEC3"},{"bufferView":6,"byteOffset":0,"componentType":5126,"count":1152,"max":[1.0,1.0,1.0,1.0],"min":[-1.0,-1.0,-0.487891912460327,-1.0],"normalized":false,"type":"VEC4"},{"bufferView":7,"byteOffset":0,"componentType":5126,"count":1152,"max":[1.0,1.0,0.966503024101257],"min":[-1.0,-1.0,-1.0],"normalized":false,"type":"VEC3"},{"bufferView":8,"byteOffset":0,"componentType":5126,"count":1152,"max":[1.0,1.0],"min":[0.0,0.0],"normalized":false,"type":"VEC2"},{"bufferView":9,"byteOffset":0,"componentType":5123,"count":3984,"max":[1151.0],"min":[0.0],"normalized":false,"type":"SCALAR"},{"bufferView":10,"byteOffset":0,"componentType":5126,"count":32,"max":[4.2943000793457,4.37390041351318,5.27349996566772],"min":[-10.1191997528076,-10.1191997528076,5.27349996566772],"normalized":false,"type":"VEC3"},{"bufferView":11,"byteOffset":0,"componentType":5126,"count":32,"max":[1.0,0.999999940395355,0.0000304571603919612,1.0],"min":[-1.0,-0.999999940395355,-0.0000305180437862873,-1.0],"normalized":false,"type":"VEC4"},{"bufferView":12,"byteOffset":0,"componentType":5126,"count":32,"max":[0.000030580791644752,0.0000304562272503972,-1.0],"min":[-0.0000305180437862873,-0.0000305180437862873,-1.0],"normalized":false,"type":"VEC3"},{"bufferView":13,"byteOffset":0,"componentType":5126,"count":32,"max":[1.0,1.0],"min":[0.0,0.0],"normalized":false,"type":"VEC2"},{"bufferView":14,"byteOffset":0,"componentType":5123,"count":48,"max":[31.0],"min":[0.0],"normalized":false,"type":"SCALAR"},{"bufferView":15,"byteOffset":0,"componentType":5126,"count":32,"max":[4.29431676864624,4.37397241592407,0.746250033378601],"min":[-10.1191501617432,-10.1191501617432,0.0],"normalized":false,"type":"VEC3"},{"bufferView":16,"byteOffset":0,"componentType":5126,"count":32,"max":[0.966500520706177,0.966503024101257,0.832092523574829,1.0],"min":[-0.966512262821198,-0.966514766216278,0.256611049175262,-1.0],"normalized":false,"type":"VEC4"},{"bufferView":17,"byteOffset":0,"componentType":5126,"count":32,"max":[0.832060098648071,0.832060098648071,0.966503024101257],"min":[-0.832092583179474,-0.832092583179474,0.554636657238007],"normalized":false,"type":"VEC3"},{"bufferView":18,"byteOffset":0,"componentType":5126,"count":32,"max":[1.0,1.0],"min":[0.0,0.0],"normalized":false,"type":"VEC2"},{"bufferView":19,"byteOffset":0,"componentType":5123,"count":48,"max":[31.0],"min":[0.0],"normalized":false,"type":"SCALAR"},{"bufferView":20,"byteOffset":0,"componentType":5126,"count":32,"max":[4.2943000793457,4.37390041351318,0.0099499998614192],"min":[-10.1191997528076,-10.1191997528076,0.0099499998614192],"normalized":false,"type":"VEC3"},{"bufferView":21,"byteOffset":0,"componentType":5126,"count":32,"max":[1.0,1.0,0.000143810699228197,1.0],"min":[-1.0,-1.0,-0.0000305196081171744,-1.0],"normalized":false,"type":"VEC4"},{"bufferView":22,"byteOffset":0,"componentType":5126,"count":32,"max":[0.000000000365616870112717,0.0,1.0],"min":[-0.000143810699228197,-0.0000305196081171744,1.0],"normalized":false,"type":"VEC3"},{"bufferView":23,"byteOffset":0,"componentType":5126,"count":32,"max":[1.0,1.0],"min":[0.0,0.0],"normalized":false,"type":"VEC2"},{"bufferView":24,"byteOffset":0,"componentType":5123,"count":48,"max":[31.0],"min":[0.0],"normalized":false,"type":"SCALAR"},{"bufferView":25,"byteOffset":0,"componentType":5126,"count":2984,"max":[4.30304098129272,4.39752388000488,7.26350021362305],"min":[-10.4176502227783,-10.4176502227783,0.0],"normalized":false,"type":"VEC3"},{"bufferView":26,"byteOffset":0,"componentType":5126,"count":2984,"max":[1.0,1.0,1.0,1.0],"min":[-1.0,-1.0,-0.861879408359528,-1.0],"normalized":false,"type":"VEC4"},{"bufferView":27,"byteOffset":0,"componentType":5126,"count":2984,"max":[1.0,1.0,1.0],"min":[-1.0,-1.0,-1.0],"normalized":false,"type":"VEC3"},{"bufferView":28,"byteOffset":0,"componentType":5126,"count":2984,"max":[1.17818701267242,1.23869502544403],"min":[-0.280299007892609,-0.261304974555969],"normalized":false,"type":"VEC2"},{"bufferView":29,"byteOffset":0,"componentType":5123,"count":10872,"max":[2983.0],"min":[0.0],"normalized":false,"type":"SCALAR"},{"bufferView":30,"byteOffset":0,"componentType":5126,"count":3136,"max":[4.23452806472778,4.21257019042969,3.43275189399719],"min":[-8.07343196868896,-8.07343196868896,1.54225194454193],"normalized":false,"type":"VEC3"},{"bufferView":31,"byteOffset":0,"componentType":5126,"count":3136,"max":[1.0,1.0,1.0,1.0],"min":[-1.0,-1.0,-1.0,-1.0],"normalized":false,"type":"VEC4"},{"bufferView":32,"byteOffset":0,"componentType":5126,"count":3136,"max":[1.0,1.0,1.0],"min":[-1.0,-1.0,-1.0],"normalized":false,"type":"VEC3"},{"bufferView":33,"byteOffset":0,"componentType":5126,"count":3136,"max":[0.625,1.0],"min":[0.375,0.0],"normalized":false,"type":"VEC2"},{"bufferView":34,"byteOffset":0,"componentType":5123,"count":14976,"max":[3135.0],"min":[0.0],"normalized":false,"type":"SCALAR"},{"bufferView":35,"byteOffset":0,"componentType":5126,"count":24,"max":[0.5,0.5,0.5],"min":[-0.5,-0.5,-0.5],"normalized":false,"type":"VEC3"},{"bufferView":36,"byteOffset":0,"componentType":5126,"count":24,"max":[0.0001220703125,0.0000305817193293478,0.999999940395355,-1.0],"min":[-1.0,-0.0000304562272503972,-0.999999940395355,-1.0],"normalized":false,"type":"VEC4"},{"bufferView":37,"byteOffset":0,"componentType":5126,"count":24,"max":[1.0,1.0,1.0],"min":[-1.0,-1.0,-1.0],"normalized":false,"type":"VEC3"},{"bufferView":38,"byteOffset":0,"componentType":5126,"count":24,"max":[1.0,1.0],"min":[0.0,0.0],"normalized":false,"type":"VEC2"},{"bufferView":39,"byteOffset":0,"componentType":5126,"count":24,"max":[0.996643006801605,0.99594110250473],"min":[0.00404364103451371,0.347158014774323],"normalized":false,"type":"VEC2"},{"bufferView":40,"byteOffset":0,"componentType":5123,"count":36,"max":[23.0],"min":[0.0],"normalized":false,"type":"SCALAR"},{"bufferView":41,"byteOffset":0,"componentType":5126,"count":24,"max":[0.5,0.5,0.5],"min":[-0.5,-0.5,-0.5],"normalized":false,"type":"VEC3"},{"bufferView":42,"byteOffset":0,"componentType":5126,"count":24,"max":[0.0001220703125,0.0000305817193293478,0.999999940395355,-1.0],"min":[-1.0,-0.0000304562272503972,-0.999999940395355,-1.0],"normalized":false,"type":"VEC4"},{"bufferView":43,"byteOffset":0,"componentType":5126,"count":24,"max":[1.0,1.0,1.0],"min":[-1.0,-1.0,-1.0],"normalized":false,"type":"VEC3"},{"bufferView":44,"byteOffset":0,"componentType":5126,"count":24,"max":[1.0,1.0],"min":[0.0,0.0],"normalized":false,"type":"VEC2"},{"bufferView":45,"byteOffset":0,"componentType":5126,"count":24,"max":[0.996643006801605,0.99594110250473],"min":[0.00404364103451371,0.347158014774323],"normalized":false,"type":"VEC2"},{"bufferView":46,"byteOffset":0,"componentType":5123,"count":36,"max":[23.0],"min":[0.0],"normalized":false,"type":"SCALAR"}],"asset":{"generator":"Godot Engine v4.4.1.stable.official@49a5bc7b616bd04689a2c89e89bda41f50241464","version":"2.0"},"bufferViews":[{"buffer":0,"byteLength":912,"byteOffset":0,"byteStride":12,"target":34962},{"buffer":0,"byteLength":1216,"byteOffset":912,"byteStride":16,"target":34962},{"buffer":0,"byteLength":912,"byteOffset":2128,"byteStride":12,"target":34962},{"buffer":0,"byteLength":608,"byteOffset":3040,"byteStride":8,"target":34962},{"buffer":0,"byteLength":264,"byteOffset":3648,"target":34963},{"buffer":0,"byteLength":13824,"byteOffset":3912,"byteStride":12,"target":34962},{"buffer":0,"byteLength":18432,"byteOffset":17736,"byteStride":16,"target":34962},{"buffer":0,"byteLength":13824,"byteOffset":36168,"byteStride":12,"target":34962},{"buffer":0,"byteLength":9216,"byteOffset":49992,"byteStride":8,"target":34962},{"buffer":0,"byteLength":7968,"byteOffset":59208,"target":34963},{"buffer":0,"byteLength":384,"byteOffset":67176,"byteStride":12,"target":34962},{"buffer":0,"byteLength":512,"byteOffset":67560,"byteStride":16,"target":34962},{"buffer":0,"byteLength":384,"byteOffset":68072,"byteStride":12,"target":34962},{"buffer":0,"byteLength":256,"byteOffset":68456,"byteStride":8,"target":34962},{"buffer":0,"byteLength":96,"byteOffset":68712,"target":34963},{"buffer":0,"byteLength":384,"byteOffset":68808,"byteStride":12,"target":34962},{"buffer":0,"byteLength":512,"byteOffset":69192,"byteStride":16,"target":34962},{"buffer":0,"byteLength":384,"byteOffset":69704,"byteStride":12,"target":34962},{"buffer":0,"byteLength":256,"byteOffset":70088,"byteStride":8,"target":34962},{"buffer":0,"byteLength":96,"byteOffset":70344,"target":34963},{"buffer":0,"byteLength":384,"byteOffset":70440,"byteStride":12,"target":34962},{"buffer":0,"byteLength":512,"byteOffset":70824,"byteStride":16,"target":34962},{"buffer":0,"byteLength":384,"byteOffset":71336,"byteStride":12,"target":34962},{"buffer":0,"byteLength":256,"byteOffset":71720,"byteStride":8,"target":34962},{"buffer":0,"byteLength":96,"byteOffset":71976,"target":34963},{"buffer":0,"byteLength":35808,"byteOffset":72072,"byteStride":12,"target":34962},{"buffer":0,"byteLength":47744,"byteOffset":107880,"byteStride":16,"target":34962},{"buffer":0,"byteLength":35808,"byteOffset":155624,"byteStride":12,"target":34962},{"buffer":0,"byteLength":23872,"byteOffset":191432,"byteStride":8,"target":34962},{"buffer":0,"byteLength":21744,"byteOffset":215304,"target":34963},{"buffer":0,"byteLength":37632,"byteOffset":237048,"byteStride":12,"target":34962},{"buffer":0,"byteLength":50176,"byteOffset":274680,"byteStride":16,"target":34962},{"buffer":0,"byteLength":37632,"byteOffset":324856,"byteStride":12,"target":34962},{"buffer":0,"byteLength":25088,"byteOffset":362488,"byteStride":8,"target":34962},{"buffer":0,"byteLength":29952,"byteOffset":387576,"target":34963},{"buffer":0,"byteLength":288,"byteOffset":417528,"byteStride":12,"target":34962},{"buffer":0,"byteLength":384,"byteOffset":417816,"byteStride":16,"target":34962},{"buffer":0,"byteLength":288,"byteOffset":418200,"byteStride":12,"target":34962},{"buffer":0,"byteLength":192,"byteOffset":418488,"byteStride":8,"target":34962},{"buffer":0,"byteLength":192,"byteOffset":418680,"byteStride":8,"target":34962},{"buffer":0,"byteLength":72,"byteOffset":418872,"target":34963},{"buffer":0,"byteLength":288,"byteOffset":418944,"byteStride":12,"target":34962},{"buffer":0,"byteLength":384,"byteOffset":419232,"byteStride":16,"target":34962},{"buffer":0,"byteLength":288,"byteOffset":419616,"byteStride":12,"target":34962},{"buffer":0,"byteLength":192,"byteOffset":419904,"byteStride":8,"target":34962},{"buffer":0,"byteLength":192,"byteOffset":420096,"byteStride":8,"target":34962},{"buffer":0,"byteLength":72,"byteOffset":420288,"target":34963}],"buffers":[{"byteLength":420360,"uri":"HC_room2C0.bin"}],"extensions":{"KHR_lights_punctual":{"lights":[{"color":[1.0,0.88679301738739,0.787735998630524],"intensity":2.67035007476807,"range":6.40000009536743,"type":"point"},{"color":[1.0,0.88679301738739,0.787735998630524],"intensity":2.67035007476807,"range":6.40000009536743,"type":"point"}]}},"extensionsRequired":["KHR_texture_transform"],"extensionsUsed":["GODOT_single_root","KHR_lights_punctual","KHR_texture_transform"],"images":[{"uri":"textures%2FFloor_Base_albedo000.png"},{"uri":"textures%2FFloor_Base_normal000.png"},{"uri":"textures%2FWall_Base_albedo000.png"},{"uri":"textures%2FWall_Base_normal000.png"},{"uri":"textures%2F_normal000.png"},{"uri":"textures%2FMetal_Pipe_albedo000.png"},{"uri":"textures%2FMetal_Pipe_normal000.png"},{"uri":"textures%2FWall_Base%20%28Instance%29_orm000.png"},{"uri":"textures%2FWall_Base%20%28Instance%29_orm002.png"}],"materials":[{"extensions":{},"name":"Floor_Base","normalTexture":{"index":1,"scale":0.200000002980232},"pbrMetallicRoughness":{"baseColorFactor":[1.0,1.0,1.0,1.0],"baseColorTexture":{"extensions":{"KHR_texture_transform":{"offset":[0.0,-8.0],"scale":[9.0,9.0]}},"index":0},"metallicFactor":0.0,"roughnessFactor":1.0}},{"extensions":{},"name":"Wall_Base","normalTexture":{"index":3,"scale":0.5},"pbrMetallicRoughness":{"baseColorFactor":[0.499904364347458,0.47141021490097,0.436739146709442,1.0],"baseColorTexture":{"extensions":{"KHR_texture_transform":{"offset":[0.0,-1.0],"scale":[2.0,2.0]}},"index":2},"metallicFactor":0.0,"roughnessFactor":1.0}},{"extensions":{},"normalTexture":{"index":4,"scale":1.0},"pbrMetallicRoughness":{"baseColorFactor":[0.461720705032349,0.153621762990952,0.0639719367027283,1.0],"metallicFactor":0.0,"roughnessFactor":1.0}},{"extensions":{},"name":"Metal_Pipe","normalTexture":{"index":6,"scale":0.0500000007450581},"pbrMetallicRoughness":{"baseColorFactor":[0.603827297687531,0.603827297687531,0.603827297687531,1.0],"baseColorTexture":{"index":5},"metallicFactor":0.578999996185303,"roughnessFactor":0.351999998092651}},{"extensions":{},"name":"Wall_Base (Instance)","pbrMetallicRoughness":{"baseColorFactor":[0.499904364347458,0.47141021490097,0.436739146709442,1.0],"metallicFactor":1.0,"metallicRoughnessTexture":{"extensions":{"KHR_texture_transform":{"offset":[0.0,-1.0],"scale":[2.0,2.0]}},"index":7},"roughnessFactor":0.46000000834465}},{"extensions":{},"name":"Wall_Base (Instance)2","pbrMetallicRoughness":{"baseColorFactor":[0.499904364347458,0.47141021490097,0.436739146709442,1.0],"metallicFactor":1.0,"metallicRoughnessTexture":{"extensions":{"KHR_texture_transform":{"offset":[0.0,-1.0],"scale":[2.0,2.0]}},"index":8},"roughnessFactor":0.46000000834465}}],"meshes":[{"extras":{"targetNames":[]},"primitives":[{"attributes":{"NORMAL":2,"POSITION":0,"TANGENT":1,"TEXCOORD_0":3},"indices":4,"material":0,"mode":4},{"attributes":{"NORMAL":7,"POSITION":5,"TANGENT":6,"TEXCOORD_0":8},"indices":9,"material":1,"mode":4},{"attributes":{"NORMAL":12,"POSITION":10,"TANGENT":11,"TEXCOORD_0":13},"indices":14,"material":0,"mode":4},{"attributes":{"NORMAL":17,"POSITION":15,"TANGENT":16,"TEXCOORD_0":18},"indices":19,"material":2,"mode":4},{"attributes":{"NORMAL":22,"POSITION":20,"TANGENT":21,"TEXCOORD_0":23},"indices":24,"material":2,"mode":4},{"attributes":{"NORMAL":27,"POSITION":25,"TANGENT":26,"TEXCOORD_0":28},"indices":29,"material":1,"mode":4},{"attributes":{"NORMAL":32,"POSITION":30,"TANGENT":31,"TEXCOORD_0":33},"indices":34,"material":3,"mode":4}]},{"extras":{"targetNames":[]},"primitives":[{"attributes":{"NORMAL":37,"POSITION":35,"TANGENT":36,"TEXCOORD_0":38,"TEXCOORD_1":39},"indices":40,"material":4,"mode":4}]},{"extras":{"targetNames":[]},"primitives":[{"attributes":{"NORMAL":43,"POSITION":41,"TANGENT":42,"TEXCOORD_0":44,"TEXCOORD_1":45},"indices":46,"material":5,"mode":4}]}],"nodes":[{"children":[1,2,3,4,5],"name":"Room4_Curve2"},{"mesh":0,"name":"Room4_Curve","rotation":[-0.500000298023224,-0.499999731779099,-0.499999761581421,0.500000238418579]},{"extensions":{"KHR_lights_punctual":{"light":0}},"name":"Point light HCZ Regular","rotation":[-0.49999988079071,-0.50000011920929,-0.49999988079071,0.50000011920929],"translation":[-5.94299983978271,4.79441022872925,0.00000838105006550904]},{"extensions":{"KHR_lights_punctual":{"light":1}},"name":"Point light HCZ Regular2","rotation":[0.00000129917509639199,0.70710676908493,0.70710676908493,-0.00000119872913728614],"translation":[0.0509955994784832,4.79044008255005,-6.14200019836426]},{"mesh":1,"name":"Cube","rotation":[-0.500000298023224,-0.499999731779099,-0.499999761581421,0.500000238418579],"scale":[7.61233997344971,0.83645099401474,8.34403991699219],"translation":[3.96000003814697,3.16899991035461,0.039995901286602]},{"mesh":2,"name":"Cube (1)","rotation":[0.000000210733190897372,0.70710676908493,0.70710676908493,-0.000000179824567680953],"scale":[7.61233997344971,0.836449980735779,8.34405994415283],"translation":[0.0600042007863522,3.16899991035461,3.96000003814697]}],"samplers":[{"magFilter":9729,"minFilter":9987,"wrapS":10497,"wrapT":10497}],"scene":0,"scenes":[{"nodes":[0]}],"textures":[{"sampler":0,"source":0},{"sampler":0,"source":1},{"sampler":0,"source":2},{"sampler":0,"source":3},{"sampler":0,"source":4},{"sampler":0,"source":5},{"sampler":0,"source":6},{"sampler":0,"source":7},{"sampler":0,"source":8}]}