{
	"asset":{
		"generator":"Khronos glTF Blender I/O v4.4.55",
		"version":"2.0"
	},
	"extensionsUsed":[
		"KHR_materials_specular",
		"KHR_materials_ior"
	],
	"scene":0,
	"scenes":[
		{
			"name":"Scene",
			"nodes":[
				0
			]
		}
	],
	"nodes":[
		{
			"mesh":0,
			"name":"TCross_1.002"
		}
	],
	"materials":[
		{
			"doubleSided":true,
			"name":"Floor_Base.006",
			"normalTexture":{
				"index":0,
				"scale":0.20000000298023224
			},
			"pbrMetallicRoughness":{
				"baseColorTexture":{
					"index":1
				},
				"metallicFactor":0,
				"roughnessFactor":0.5
			}
		},
		{
			"doubleSided":true,
			"extensions":{
				"KHR_materials_specular":{
					"specularFactor":0.6000000238418579
				},
				"KHR_materials_ior":{
					"ior":1.4500000476837158
				}
			},
			"name":"Wall_Base.006",
			"normalTexture":{
				"index":2,
				"scale":0.20000000298023224
			},
			"pbrMetallicRoughness":{
				"baseColorTexture":{
					"index":3
				},
				"metallicFactor":0,
				"roughnessFactor":0.5
			}
		},
		{
			"doubleSided":true,
			"name":"Material",
			"pbrMetallicRoughness":{
				"baseColorFactor":[
					0.24656739830970764,
					0.24656739830970764,
					0.24656739830970764,
					1
				],
				"metallicFactor":0,
				"roughnessFactor":0.07727274298667908
			}
		},
		{
			"doubleSided":true,
			"extensions":{
				"KHR_materials_specular":{
					"specularFactor":0.843999981880188
				},
				"KHR_materials_ior":{
					"ior":1.4500000476837158
				}
			},
			"name":"Spline_Base.004",
			"normalTexture":{
				"index":4,
				"scale":0.30000001192092896
			},
			"pbrMetallicRoughness":{
				"baseColorTexture":{
					"index":5
				},
				"metallicFactor":0.15538389980793,
				"roughnessFactor":0.5527864098548889
			}
		},
		{
			"doubleSided":true,
			"extensions":{
				"KHR_materials_specular":{
					"specularColorFactor":[
						1.2960000038146973,
						1.2960000038146973,
						1.2960000038146973
					]
				},
				"KHR_materials_ior":{
					"ior":1.4500000476837158
				}
			},
			"name":"Metal_Pipe.004",
			"normalTexture":{
				"index":6,
				"scale":0.05000000074505806
			},
			"pbrMetallicRoughness":{
				"baseColorTexture":{
					"index":7
				},
				"metallicFactor":0,
				"roughnessFactor":0.5
			}
		}
	],
	"meshes":[
		{
			"name":"Scene.1877",
			"primitives":[
				{
					"attributes":{
						"POSITION":0,
						"NORMAL":1,
						"TEXCOORD_0":2
					},
					"indices":3,
					"material":0
				},
				{
					"attributes":{
						"POSITION":4,
						"NORMAL":5,
						"TEXCOORD_0":6
					},
					"indices":7,
					"material":1
				},
				{
					"attributes":{
						"POSITION":8,
						"NORMAL":9,
						"TEXCOORD_0":10
					},
					"indices":11,
					"material":1
				},
				{
					"attributes":{
						"POSITION":12,
						"NORMAL":13,
						"TEXCOORD_0":14
					},
					"indices":15,
					"material":2
				},
				{
					"attributes":{
						"POSITION":16,
						"NORMAL":17,
						"TEXCOORD_0":18
					},
					"indices":19,
					"material":3
				},
				{
					"attributes":{
						"POSITION":20,
						"NORMAL":21,
						"TEXCOORD_0":22
					},
					"indices":23,
					"material":4
				},
				{
					"attributes":{
						"POSITION":24,
						"NORMAL":25,
						"TEXCOORD_0":26
					},
					"indices":27,
					"material":0
				}
			]
		}
	],
	"textures":[
		{
			"sampler":0,
			"source":0
		},
		{
			"sampler":0,
			"source":1
		},
		{
			"sampler":0,
			"source":2
		},
		{
			"sampler":0,
			"source":3
		},
		{
			"sampler":0,
			"source":4
		},
		{
			"sampler":0,
			"source":5
		},
		{
			"sampler":0,
			"source":6
		},
		{
			"sampler":0,
			"source":7
		}
	],
	"images":[
		{
			"mimeType":"image/png",
			"name":"Tile_HCZCGround_Normal",
			"uri":"Tile_HCZCGround_Normal.png"
		},
		{
			"mimeType":"image/png",
			"name":"Tile_HCZGround_Albedo",
			"uri":"Tile_HCZGround_Albedo.png"
		},
		{
			"mimeType":"image/png",
			"name":"Wall_Normal",
			"uri":"Wall_Normal.png"
		},
		{
			"mimeType":"image/png",
			"name":"Wall_Albedo",
			"uri":"Wall_Albedo.png"
		},
		{
			"mimeType":"image/png",
			"name":"Tile_VentGrating_Normal",
			"uri":"Tile_VentGrating_Normal.png"
		},
		{
			"mimeType":"image/png",
			"name":"Tile_VentGrating_Albedo",
			"uri":"Tile_VentGrating_Albedo.png"
		},
		{
			"mimeType":"image/png",
			"name":"Pipes_Normal",
			"uri":"Pipes_Normal.png"
		},
		{
			"mimeType":"image/png",
			"name":"Pipes_Albedo",
			"uri":"Pipes_Albedo.png"
		}
	],
	"accessors":[
		{
			"bufferView":0,
			"componentType":5126,
			"count":86,
			"max":[
				10.361133575439453,
				0,
				10.469999313354492
			],
			"min":[
				-10.361133575439453,
				0,
				-5.799999713897705
			],
			"type":"VEC3"
		},
		{
			"bufferView":1,
			"componentType":5126,
			"count":86,
			"type":"VEC3"
		},
		{
			"bufferView":2,
			"componentType":5126,
			"count":86,
			"type":"VEC2"
		},
		{
			"bufferView":3,
			"componentType":5123,
			"count":168,
			"type":"SCALAR"
		},
		{
			"bufferView":4,
			"componentType":5126,
			"count":3990,
			"max":[
				10.361133575439453,
				8.299999237060547,
				10.469999313354492
			],
			"min":[
				-10.361133575439453,
				-12.34000015258789,
				-5.799999713897705
			],
			"type":"VEC3"
		},
		{
			"bufferView":5,
			"componentType":5126,
			"count":3990,
			"type":"VEC3"
		},
		{
			"bufferView":6,
			"componentType":5126,
			"count":3990,
			"type":"VEC2"
		},
		{
			"bufferView":7,
			"componentType":5123,
			"count":11286,
			"type":"SCALAR"
		},
		{
			"bufferView":8,
			"componentType":5126,
			"count":463,
			"max":[
				10.170000076293945,
				8.399999618530273,
				10.170000076293945
			],
			"min":[
				-10.170000076293945,
				-12.300000190734863,
				-5.799999713897705
			],
			"type":"VEC3"
		},
		{
			"bufferView":9,
			"componentType":5126,
			"count":463,
			"type":"VEC3"
		},
		{
			"bufferView":10,
			"componentType":5126,
			"count":463,
			"type":"VEC2"
		},
		{
			"bufferView":11,
			"componentType":5123,
			"count":1224,
			"type":"SCALAR"
		},
		{
			"bufferView":12,
			"componentType":5126,
			"count":5708,
			"max":[
				10.183135986328125,
				8.299999237060547,
				10.170001029968262
			],
			"min":[
				-10.183135986328125,
				-12.34000015258789,
				-3.5568766593933105
			],
			"type":"VEC3"
		},
		{
			"bufferView":13,
			"componentType":5126,
			"count":5708,
			"type":"VEC3"
		},
		{
			"bufferView":14,
			"componentType":5126,
			"count":5708,
			"type":"VEC2"
		},
		{
			"bufferView":15,
			"componentType":5123,
			"count":17862,
			"type":"SCALAR"
		},
		{
			"bufferView":16,
			"componentType":5126,
			"count":68,
			"max":[
				10.183135986328125,
				6.319999694824219,
				10.170000076293945
			],
			"min":[
				-10.183135986328125,
				-12.34000015258789,
				-4.106875896453857
			],
			"type":"VEC3"
		},
		{
			"bufferView":17,
			"componentType":5126,
			"count":68,
			"type":"VEC3"
		},
		{
			"bufferView":18,
			"componentType":5126,
			"count":68,
			"type":"VEC2"
		},
		{
			"bufferView":19,
			"componentType":5123,
			"count":108,
			"type":"SCALAR"
		},
		{
			"bufferView":20,
			"componentType":5126,
			"count":2688,
			"max":[
				9.683457374572754,
				6.450002193450928,
				9.683467864990234
			],
			"min":[
				-9.683457374572754,
				-10.284002304077148,
				-5.00507116317749
			],
			"type":"VEC3"
		},
		{
			"bufferView":21,
			"componentType":5126,
			"count":2688,
			"type":"VEC3"
		},
		{
			"bufferView":22,
			"componentType":5126,
			"count":2688,
			"type":"VEC2"
		},
		{
			"bufferView":23,
			"componentType":5123,
			"count":14976,
			"type":"SCALAR"
		},
		{
			"bufferView":24,
			"componentType":5126,
			"count":6,
			"max":[
				10.183134078979492,
				-12.29999828338623,
				10.170000076293945
			],
			"min":[
				-10.183134078979492,
				-12.29999828338623,
				-3.5568766593933105
			],
			"type":"VEC3"
		},
		{
			"bufferView":25,
			"componentType":5126,
			"count":6,
			"type":"VEC3"
		},
		{
			"bufferView":26,
			"componentType":5126,
			"count":6,
			"type":"VEC2"
		},
		{
			"bufferView":27,
			"componentType":5123,
			"count":12,
			"type":"SCALAR"
		}
	],
	"bufferViews":[
		{
			"buffer":0,
			"byteLength":1032,
			"byteOffset":0,
			"target":34962
		},
		{
			"buffer":0,
			"byteLength":1032,
			"byteOffset":1032,
			"target":34962
		},
		{
			"buffer":0,
			"byteLength":688,
			"byteOffset":2064,
			"target":34962
		},
		{
			"buffer":0,
			"byteLength":336,
			"byteOffset":2752,
			"target":34963
		},
		{
			"buffer":0,
			"byteLength":47880,
			"byteOffset":3088,
			"target":34962
		},
		{
			"buffer":0,
			"byteLength":47880,
			"byteOffset":50968,
			"target":34962
		},
		{
			"buffer":0,
			"byteLength":31920,
			"byteOffset":98848,
			"target":34962
		},
		{
			"buffer":0,
			"byteLength":22572,
			"byteOffset":130768,
			"target":34963
		},
		{
			"buffer":0,
			"byteLength":5556,
			"byteOffset":153340,
			"target":34962
		},
		{
			"buffer":0,
			"byteLength":5556,
			"byteOffset":158896,
			"target":34962
		},
		{
			"buffer":0,
			"byteLength":3704,
			"byteOffset":164452,
			"target":34962
		},
		{
			"buffer":0,
			"byteLength":2448,
			"byteOffset":168156,
			"target":34963
		},
		{
			"buffer":0,
			"byteLength":68496,
			"byteOffset":170604,
			"target":34962
		},
		{
			"buffer":0,
			"byteLength":68496,
			"byteOffset":239100,
			"target":34962
		},
		{
			"buffer":0,
			"byteLength":45664,
			"byteOffset":307596,
			"target":34962
		},
		{
			"buffer":0,
			"byteLength":35724,
			"byteOffset":353260,
			"target":34963
		},
		{
			"buffer":0,
			"byteLength":816,
			"byteOffset":388984,
			"target":34962
		},
		{
			"buffer":0,
			"byteLength":816,
			"byteOffset":389800,
			"target":34962
		},
		{
			"buffer":0,
			"byteLength":544,
			"byteOffset":390616,
			"target":34962
		},
		{
			"buffer":0,
			"byteLength":216,
			"byteOffset":391160,
			"target":34963
		},
		{
			"buffer":0,
			"byteLength":32256,
			"byteOffset":391376,
			"target":34962
		},
		{
			"buffer":0,
			"byteLength":32256,
			"byteOffset":423632,
			"target":34962
		},
		{
			"buffer":0,
			"byteLength":21504,
			"byteOffset":455888,
			"target":34962
		},
		{
			"buffer":0,
			"byteLength":29952,
			"byteOffset":477392,
			"target":34963
		},
		{
			"buffer":0,
			"byteLength":72,
			"byteOffset":507344,
			"target":34962
		},
		{
			"buffer":0,
			"byteLength":72,
			"byteOffset":507416,
			"target":34962
		},
		{
			"buffer":0,
			"byteLength":48,
			"byteOffset":507488,
			"target":34962
		},
		{
			"buffer":0,
			"byteLength":24,
			"byteOffset":507536,
			"target":34963
		}
	],
	"samplers":[
		{
			"magFilter":9729,
			"minFilter":9987
		}
	],
	"buffers":[
		{
			"byteLength":507560,
			"uri":"HC_room3_pit.bin"
		}
	]
}
