{
    "asset" : {
        "generator" : "Khronos glTF Blender I/O v1.7.33",
        "version" : "2.0"
    },
    "scene" : 0,
    "scenes" : [
        {
            "name" : "Scene",
            "nodes" : [
                0,
                1,
                2,
                3,
                4
            ]
        }
    ],
    "nodes" : [
        {
            "mesh" : 0,
            "name" : "scp131_body_low",
            "rotation" : [
                0.7071068286895752,
                0,
                0,
                0.7071067094802856
            ],
            "scale" : [
                0.009999999776482582,
                0.009999999776482582,
                0.009999999776482582
            ]
        },
        {
            "mesh" : 1,
            "name" : "scp131_eye_focus_low",
            "rotation" : [
                0.7071068286895752,
                0,
                0,
                0.7071067094802856
            ],
            "scale" : [
                0.009999999776482582,
                0.009999999776482582,
                0.009999999776482582
            ]
        },
        {
            "mesh" : 2,
            "name" : "scp131_eye_camera_low",
            "rotation" : [
                0.7071068286895752,
                0,
                0,
                0.7071067094802856
            ],
            "scale" : [
                0.009999999776482582,
                0.009999999776482582,
                0.009999999776482582
            ]
        },
        {
            "mesh" : 3,
            "name" : "scp131_eye_low",
            "rotation" : [
                0.7071068286895752,
                0,
                0,
                0.7071067094802856
            ],
            "scale" : [
                0.009999999776482582,
                0.009999999776482582,
                0.009999999776482582
            ]
        },
        {
            "mesh" : 4,
            "name" : "scp131_wheel_low",
            "rotation" : [
                0.7071068286895752,
                0,
                0,
                0.7071067094802856
            ],
            "scale" : [
                0.009999999776482582,
                0.009999999776482582,
                0.009999999776482582
            ]
        }
    ],
    "materials" : [
        {
            "doubleSided" : true,
            "emissiveFactor" : [
                1,
                1,
                1
            ],
            "emissiveTexture" : {
                "index" : 0
            },
            "name" : "1001",
            "normalTexture" : {
                "index" : 1
            },
            "pbrMetallicRoughness" : {
                "baseColorTexture" : {
                    "index" : 2
                },
                "metallicRoughnessTexture" : {
                    "index" : 3
                }
            }
        }
    ],
    "meshes" : [
        {
            "name" : "scp131_body_low",
            "primitives" : [
                {
                    "attributes" : {
                        "POSITION" : 0,
                        "NORMAL" : 1,
                        "TEXCOORD_0" : 2
                    },
                    "indices" : 3,
                    "material" : 0
                }
            ]
        },
        {
            "name" : "scp131_eye_focus_low",
            "primitives" : [
                {
                    "attributes" : {
                        "POSITION" : 4,
                        "NORMAL" : 5,
                        "TEXCOORD_0" : 6
                    },
                    "indices" : 7,
                    "material" : 0
                }
            ]
        },
        {
            "name" : "scp131_eye_camera_low",
            "primitives" : [
                {
                    "attributes" : {
                        "POSITION" : 8,
                        "NORMAL" : 9,
                        "TEXCOORD_0" : 10
                    },
                    "indices" : 11,
                    "material" : 0
                }
            ]
        },
        {
            "name" : "scp131_eye_low",
            "primitives" : [
                {
                    "attributes" : {
                        "POSITION" : 12,
                        "NORMAL" : 13,
                        "TEXCOORD_0" : 14
                    },
                    "indices" : 15,
                    "material" : 0
                }
            ]
        },
        {
            "name" : "scp131_wheel_low",
            "primitives" : [
                {
                    "attributes" : {
                        "POSITION" : 16,
                        "NORMAL" : 17,
                        "TEXCOORD_0" : 18
                    },
                    "indices" : 19,
                    "material" : 0
                }
            ]
        }
    ],
    "textures" : [
        {
            "sampler" : 0,
            "source" : 0
        },
        {
            "sampler" : 0,
            "source" : 1
        },
        {
            "sampler" : 0,
            "source" : 2
        },
        {
            "sampler" : 0,
            "source" : 3
        }
    ],
    "images" : [
        {
            "mimeType" : "image/png",
            "name" : "1001_Emissive",
            "uri" : "1001_Emissive.png"
        },
        {
            "mimeType" : "image/png",
            "name" : "1001_Normal_OpenGL",
            "uri" : "1001_Normal_OpenGL.png"
        },
        {
            "mimeType" : "image/png",
            "name" : "1001_Base_Color",
            "uri" : "1001_Base_Color.png"
        },
        {
            "mimeType" : "image/png",
            "name" : "1001_Metallic-1001_Roughness",
            "uri" : "1001_Metallic-1001_Roughness.png"
        }
    ],
    "accessors" : [
        {
            "bufferView" : 0,
            "componentType" : 5126,
            "count" : 472,
            "max" : [
                8.185317993164062,
                9.226895332336426,
                0.1896047592163086
            ],
            "min" : [
                -8.185317993164062,
                -7.862154960632324,
                -21.181846618652344
            ],
            "type" : "VEC3"
        },
        {
            "bufferView" : 1,
            "componentType" : 5126,
            "count" : 472,
            "type" : "VEC3"
        },
        {
            "bufferView" : 2,
            "componentType" : 5126,
            "count" : 472,
            "type" : "VEC2"
        },
        {
            "bufferView" : 3,
            "componentType" : 5123,
            "count" : 2478,
            "type" : "SCALAR"
        },
        {
            "bufferView" : 4,
            "componentType" : 5126,
            "count" : 105,
            "max" : [
                2.4082937240600586,
                8.12378978729248,
                -2.6575474739074707
            ],
            "min" : [
                -2.4082441329956055,
                7.562389850616455,
                -6.955657005310059
            ],
            "type" : "VEC3"
        },
        {
            "bufferView" : 5,
            "componentType" : 5126,
            "count" : 105,
            "type" : "VEC3"
        },
        {
            "bufferView" : 6,
            "componentType" : 5126,
            "count" : 105,
            "type" : "VEC2"
        },
        {
            "bufferView" : 7,
            "componentType" : 5123,
            "count" : 522,
            "type" : "SCALAR"
        },
        {
            "bufferView" : 8,
            "componentType" : 5126,
            "count" : 135,
            "max" : [
                0.7411845922470093,
                7.951019763946533,
                -4.474193096160889
            ],
            "min" : [
                -0.7411845922470093,
                6.757220268249512,
                -5.956559181213379
            ],
            "type" : "VEC3"
        },
        {
            "bufferView" : 9,
            "componentType" : 5126,
            "count" : 135,
            "type" : "VEC3"
        },
        {
            "bufferView" : 10,
            "componentType" : 5126,
            "count" : 135,
            "type" : "VEC2"
        },
        {
            "bufferView" : 11,
            "componentType" : 5123,
            "count" : 540,
            "type" : "SCALAR"
        },
        {
            "bufferView" : 12,
            "componentType" : 5126,
            "count" : 568,
            "max" : [
                2.7672901153564453,
                8.077896118164062,
                -2.4480929374694824
            ],
            "min" : [
                -2.7672901153564453,
                3.704791307449341,
                -7.982669830322266
            ],
            "type" : "VEC3"
        },
        {
            "bufferView" : 13,
            "componentType" : 5126,
            "count" : 568,
            "type" : "VEC3"
        },
        {
            "bufferView" : 14,
            "componentType" : 5126,
            "count" : 568,
            "type" : "VEC2"
        },
        {
            "bufferView" : 15,
            "componentType" : 5123,
            "count" : 2052,
            "type" : "SCALAR"
        },
        {
            "bufferView" : 16,
            "componentType" : 5126,
            "count" : 3174,
            "max" : [
                5.430875301361084,
                7.342586994171143,
                2.513019561767578
            ],
            "min" : [
                -5.430875301361084,
                -6.6086907386779785,
                -11.438254356384277
            ],
            "type" : "VEC3"
        },
        {
            "bufferView" : 17,
            "componentType" : 5126,
            "count" : 3174,
            "type" : "VEC3"
        },
        {
            "bufferView" : 18,
            "componentType" : 5126,
            "count" : 3174,
            "type" : "VEC2"
        },
        {
            "bufferView" : 19,
            "componentType" : 5123,
            "count" : 6720,
            "type" : "SCALAR"
        }
    ],
    "bufferViews" : [
        {
            "buffer" : 0,
            "byteLength" : 5664,
            "byteOffset" : 0
        },
        {
            "buffer" : 0,
            "byteLength" : 5664,
            "byteOffset" : 5664
        },
        {
            "buffer" : 0,
            "byteLength" : 3776,
            "byteOffset" : 11328
        },
        {
            "buffer" : 0,
            "byteLength" : 4956,
            "byteOffset" : 15104
        },
        {
            "buffer" : 0,
            "byteLength" : 1260,
            "byteOffset" : 20060
        },
        {
            "buffer" : 0,
            "byteLength" : 1260,
            "byteOffset" : 21320
        },
        {
            "buffer" : 0,
            "byteLength" : 840,
            "byteOffset" : 22580
        },
        {
            "buffer" : 0,
            "byteLength" : 1044,
            "byteOffset" : 23420
        },
        {
            "buffer" : 0,
            "byteLength" : 1620,
            "byteOffset" : 24464
        },
        {
            "buffer" : 0,
            "byteLength" : 1620,
            "byteOffset" : 26084
        },
        {
            "buffer" : 0,
            "byteLength" : 1080,
            "byteOffset" : 27704
        },
        {
            "buffer" : 0,
            "byteLength" : 1080,
            "byteOffset" : 28784
        },
        {
            "buffer" : 0,
            "byteLength" : 6816,
            "byteOffset" : 29864
        },
        {
            "buffer" : 0,
            "byteLength" : 6816,
            "byteOffset" : 36680
        },
        {
            "buffer" : 0,
            "byteLength" : 4544,
            "byteOffset" : 43496
        },
        {
            "buffer" : 0,
            "byteLength" : 4104,
            "byteOffset" : 48040
        },
        {
            "buffer" : 0,
            "byteLength" : 38088,
            "byteOffset" : 52144
        },
        {
            "buffer" : 0,
            "byteLength" : 38088,
            "byteOffset" : 90232
        },
        {
            "buffer" : 0,
            "byteLength" : 25392,
            "byteOffset" : 128320
        },
        {
            "buffer" : 0,
            "byteLength" : 13440,
            "byteOffset" : 153712
        }
    ],
    "samplers" : [
        {
            "magFilter" : 9729,
            "minFilter" : 9987
        }
    ],
    "buffers" : [
        {
            "byteLength" : 167152,
            "uri" : "scp131.bin"
        }
    ]
}
