# Blender v2.83.16 OBJ File: ''
# www.blender.org
mtllib LC_room2_2.mtl
o room2_3
v -0.960000 3.199996 9.920001
v -0.960000 5.439997 9.920001
v 0.960000 5.439997 9.920001
v 0.960000 3.199996 9.920001
v 0.960000 3.199996 10.240001
v -0.960000 3.199996 10.240001
v -0.960000 3.199996 9.920001
v 0.960000 3.199996 9.920001
v 3.200000 -0.000003 9.920000
v 0.960000 -0.000003 9.920000
v 0.960000 5.439997 9.920001
v 3.200000 5.439997 9.920001
v 0.960000 5.439997 10.240002
v 0.960000 5.439997 9.920001
v 0.960000 -0.000003 9.920000
v 0.960000 -0.000003 10.240000
v -0.960000 -0.000003 9.920000
v -3.200000 -0.000003 9.920000
v -3.200000 5.439997 9.920001
v -0.960000 5.439997 9.920001
v -0.960000 5.439997 9.920001
v -0.960000 5.439997 10.240002
v -0.960000 -0.000003 10.240000
v -0.960000 -0.000003 9.920000
v -3.200000 -0.010907 -5.120000
v -4.160000 -0.010907 -5.120000
v -4.160000 5.472729 -5.119998
v -3.200000 5.472729 -5.119998
v -3.200000 5.472727 -1.279998
v -4.160000 5.472727 -1.279998
v -4.160000 -0.010909 -1.280000
v -3.200000 -0.010909 -1.280000
v -3.200000 -0.010907 -5.120000
v -3.200000 5.472729 -5.119998
v -3.200000 5.472727 -1.279998
v -3.200000 -0.010909 -1.280000
v -3.200000 5.472730 -7.679998
v -4.160000 5.472730 -7.679998
v -4.160000 -0.010907 -7.680000
v -3.200000 -0.010907 -7.680000
v -3.200000 -0.010906 -10.240000
v -3.200000 5.472730 -10.239998
v -3.200000 5.472730 -7.679998
v -3.200000 -0.010907 -7.680000
v 3.200000 5.472729 -5.119998
v 4.160000 5.472729 -5.119998
v 4.160000 -0.010907 -5.120000
v 3.200000 -0.010907 -5.120000
v 3.200000 -0.010909 -1.280000
v 4.160000 -0.010909 -1.280000
v 4.160000 5.472727 -1.279998
v 3.200000 5.472727 -1.279998
v 3.200000 -0.010909 -1.280000
v 3.200000 5.472727 -1.279998
v 3.200000 5.472729 -5.119998
v 3.200000 -0.010907 -5.120000
v 3.200000 -0.010907 -7.680000
v 4.160000 -0.010907 -7.680000
v 4.160000 5.472730 -7.679998
v 3.200000 5.472730 -7.679998
v 3.200000 -0.010907 -7.680000
v 3.200000 5.472730 -7.679998
v 3.200000 5.472730 -10.239998
v 3.200000 -0.010906 -10.240000
v -3.200000 -0.010912 7.680000
v -4.160000 -0.010912 7.680000
v -4.160000 5.472724 7.680001
v -3.200000 5.472724 7.680001
v -3.200000 -0.010912 7.680000
v -3.200000 5.472724 7.680001
v -3.200000 5.472723 10.240002
v -3.200000 -0.010912 10.240000
v 3.200000 5.472724 7.680001
v 4.160000 5.472724 7.680001
v 4.160000 -0.010912 7.680000
v 3.200000 -0.010912 7.680000
v 3.200000 -0.010912 10.240000
v 3.200000 5.472723 10.240002
v 3.200000 5.472724 7.680001
v 3.200000 -0.010912 7.680000
v 3.200000 5.472727 1.280002
v 4.160000 5.472727 1.280002
v 4.160000 -0.010910 1.280000
v 3.200000 -0.010910 1.280000
v 3.200000 -0.010911 5.120000
v 4.160000 -0.010911 5.120000
v 4.160000 5.472725 5.120001
v 3.200000 5.472725 5.120001
v 3.200000 -0.010911 5.120000
v 3.200000 5.472725 5.120001
v 3.200000 5.472727 1.280002
v 3.200000 -0.010910 1.280000
v -3.911402 -0.199997 -7.680000
v -3.133459 5.962389 -7.679997
v -3.133459 5.962384 7.680002
v -3.911402 -0.200002 7.680000
v 3.911402 -0.200002 7.680000
v 3.133459 5.962384 7.680002
v 3.133459 5.962389 -7.679997
v 3.911402 -0.199997 -7.680000
v 0.960000 3.200003 -10.239998
v 0.960000 3.200003 -9.919998
v -0.960000 3.200003 -9.919998
v -0.960000 3.200003 -10.239998
v 0.960000 5.440003 -9.919998
v -0.960000 5.440003 -9.919998
v -0.960000 3.200003 -9.919998
v 0.960000 3.200003 -9.919998
v 0.960000 5.440003 -9.919998
v 0.960000 5.440003 -10.239998
v 0.960000 0.000003 -10.240000
v 0.960000 0.000003 -9.920000
v 3.200000 5.440003 -9.919998
v 0.960000 5.440003 -9.919998
v 0.960000 0.000003 -9.920000
v 3.200000 0.000003 -9.920000
v -0.960000 0.000003 -10.240000
v -0.960000 5.440003 -10.239998
v -0.960000 5.440003 -9.919998
v -0.960000 0.000003 -9.920000
v -0.960000 5.440003 -9.919998
v -3.200000 5.440003 -9.919998
v -3.200000 0.000003 -9.920000
v -0.960000 0.000003 -9.920000
v -3.200000 5.472725 5.120001
v -4.160000 5.472725 5.120001
v -4.160000 -0.010911 5.120000
v -3.200000 -0.010911 5.120000
v -3.200000 -0.010910 1.280000
v -4.160000 -0.010910 1.280000
v -4.160000 5.472727 1.280002
v -3.200000 5.472727 1.280002
v -3.200000 -0.010910 1.280000
v -3.200000 5.472727 1.280002
v -3.200000 5.472725 5.120001
v -3.200000 -0.010911 5.120000
v 3.200000 -0.159997 -10.240000
v -3.200000 -0.159997 -10.240000
v -3.200000 0.040003 -10.240000
v 3.200000 0.040003 -10.240000
v 3.200000 0.039997 10.240000
v -3.200000 0.039997 10.240000
v -3.200000 -0.160003 10.240000
v 3.200000 -0.160003 10.240000
v -3.200000 0.040003 -10.240000
v -3.200000 0.039997 10.240000
v 3.200000 0.039997 10.240000
v 3.200000 0.040003 -10.240000
v 3.200000 -0.159997 -10.240000
v 3.200000 0.040003 -10.240000
v 3.200000 0.039997 10.240000
v 3.200000 -0.160003 10.240000
v -3.200000 -0.160003 10.240000
v -3.200000 0.039997 10.240000
v -3.200000 0.040003 -10.240000
v -3.200000 -0.159997 -10.240000
v 3.200000 5.440003 -10.239998
v 3.200000 5.439997 10.240002
v -3.200000 5.439997 10.240002
v -3.200000 5.440003 -10.239998
v 3.200000 0.000002 -7.680000
v 3.200000 -0.000002 7.680000
v 4.159999 -0.000002 7.680000
v 4.160000 0.000002 -7.680000
v -4.159999 -0.319997 -7.680000
v -4.160000 -0.320002 7.680000
v -3.200000 -0.320002 7.680000
v -3.199999 -0.319997 -7.680000
vt 0.375000 1.125000
vt 0.375000 2.000000
vt -0.375000 2.000000
vt -0.375000 1.125000
vt -0.375000 3.875000
vt 0.375000 3.875000
vt 0.375000 3.750000
vt -0.375000 3.750000
vt -1.250000 -0.125000
vt -0.375000 -0.125000
vt -0.375000 2.000000
vt -1.250000 2.000000
vt 4.000000 2.000000
vt 3.875000 2.000000
vt 3.875000 -0.125000
vt 4.000000 -0.125000
vt 0.375000 -0.125000
vt 1.250000 -0.125000
vt 1.250000 2.000000
vt 0.375000 2.000000
vt 3.875000 2.000000
vt 4.000000 2.000000
vt 4.000000 -0.125000
vt 3.875000 -0.125000
vt 1.250000 -0.113636
vt 1.625000 -0.113636
vt 1.625000 2.028409
vt 1.250000 2.028409
vt 1.250000 2.028409
vt 1.625000 2.028409
vt 1.625000 -0.113636
vt 1.250000 -0.113636
vt -2.000000 -0.113636
vt -2.000000 2.028409
vt -0.500000 2.028409
vt -0.500000 -0.113636
vt 1.250000 2.028409
vt 1.625000 2.028409
vt 1.625000 -0.113636
vt 1.250000 -0.113636
vt -4.000000 -0.113636
vt -4.000000 2.028409
vt -3.000000 2.028409
vt -3.000000 -0.113636
vt -1.250000 2.028409
vt -1.625000 2.028409
vt -1.625000 -0.113636
vt -1.250000 -0.113636
vt -1.250000 -0.113636
vt -1.625000 -0.113636
vt -1.625000 2.028409
vt -1.250000 2.028409
vt -0.500000 -0.113636
vt -0.500000 2.028409
vt -2.000000 2.028409
vt -2.000000 -0.113636
vt -1.250000 -0.113636
vt -1.625000 -0.113636
vt -1.625000 2.028409
vt -1.250000 2.028409
vt -3.000000 -0.113636
vt -3.000000 2.028409
vt -4.000000 2.028409
vt -4.000000 -0.113636
vt 1.250000 -0.113636
vt 1.625000 -0.113636
vt 1.625000 2.028409
vt 1.250000 2.028409
vt 3.000000 -0.113636
vt 3.000000 2.028409
vt 4.000000 2.028409
vt 4.000000 -0.113636
vt -1.250000 2.028409
vt -1.625000 2.028409
vt -1.625000 -0.113636
vt -1.250000 -0.113636
vt 4.000000 -0.113636
vt 4.000000 2.028409
vt 3.000000 2.028409
vt 3.000000 -0.113636
vt -1.250000 2.028409
vt -1.625000 2.028409
vt -1.625000 -0.113636
vt -1.250000 -0.113636
vt -1.250000 -0.113636
vt -1.625000 -0.113636
vt -1.625000 2.028409
vt -1.250000 2.028409
vt 2.000000 -0.113636
vt 2.000000 2.028409
vt 0.500000 2.028409
vt 0.500000 -0.113636
vt -3.000000 -0.187500
vt -3.000000 2.219682
vt 3.000000 2.219682
vt 3.000000 -0.187500
vt 3.000000 -0.187500
vt 3.000000 2.219682
vt -3.000000 2.219682
vt -3.000000 -0.187500
vt -0.375000 -4.250000
vt -0.375000 -4.125000
vt 0.375000 -4.125000
vt 0.375000 -4.250000
vt -0.375000 2.000000
vt 0.375000 2.000000
vt 0.375000 1.125000
vt -0.375000 1.125000
vt -3.875000 2.000000
vt -4.000000 2.000000
vt -4.000000 -0.125000
vt -3.875000 -0.125000
vt -1.250000 2.000000
vt -0.375000 2.000000
vt -0.375000 -0.125000
vt -1.250000 -0.125000
vt -4.000000 -0.125000
vt -4.000000 2.000000
vt -3.875000 2.000000
vt -3.875000 -0.125000
vt 0.375000 2.000000
vt 1.250000 2.000000
vt 1.250000 -0.125000
vt 0.375000 -0.125000
vt 1.625000 2.028409
vt 1.250000 2.028409
vt 1.250000 -0.113636
vt 1.625000 -0.113636
vt 1.625000 -0.113636
vt 1.250000 -0.113636
vt 1.250000 2.028409
vt 1.625000 2.028409
vt 2.000000 -0.113636
vt 2.000000 2.028409
vt 0.500000 2.028409
vt 0.500000 -0.113636
vt -0.625000 -0.031250
vt 0.625000 -0.031250
vt 0.625000 0.007813
vt -0.625000 0.007813
vt -0.625000 0.007813
vt 0.625000 0.007813
vt 0.625000 -0.031250
vt -0.625000 -0.031250
vt 0.625000 -2.000000
vt 0.625000 2.000000
vt -0.625000 2.000000
vt -0.625000 -2.000000
vt -2.000000 -0.031250
vt -2.000000 0.007813
vt 2.000000 0.007813
vt 2.000000 -0.031250
vt 2.000000 -0.031250
vt 2.000000 0.007813
vt -2.000000 0.007813
vt -2.000000 -0.031250
vt -0.625000 -2.000000
vt -0.625000 2.000000
vt 0.625000 2.000000
vt 0.625000 -2.000000
vt -3.000000 4.472656
vt 3.000000 4.472656
vt 3.000000 4.847656
vt -3.000000 4.847656
vt -3.000000 -1.640625
vt 3.000000 -1.640625
vt 3.000000 -1.265625
vt -3.000000 -1.265625
vn 0.0000 0.0000 -1.0000
vn 0.0000 -1.0000 0.0000
vn -1.0000 -0.0000 0.0000
vn 1.0000 -0.0000 0.0000
vn 0.0000 -0.0000 1.0000
vn 0.9921 -0.1252 -0.0000
vn -0.9921 -0.1252 -0.0000
vn 0.0000 1.0000 0.0000
usemtl mat0.004
s 1
f 1/1/1 2/2/1 3/3/1
f 1/1/1 3/3/1 4/4/1
f 5/5/2 6/6/2 7/7/2
f 5/5/2 7/7/2 8/8/2
f 9/9/1 10/10/1 11/11/1
f 9/9/1 11/11/1 12/12/1
f 13/13/3 14/14/3 15/15/3
f 13/13/3 15/15/3 16/16/3
f 17/17/1 18/18/1 19/19/1
f 17/17/1 19/19/1 20/20/1
f 21/21/4 22/22/4 23/23/4
f 21/21/4 23/23/4 24/24/4
f 25/25/1 26/26/1 27/27/1
f 25/25/1 27/27/1 28/28/1
f 29/29/5 30/30/5 31/31/5
f 29/29/5 31/31/5 32/32/5
f 33/33/4 34/34/4 35/35/4
f 33/33/4 35/35/4 36/36/4
f 37/37/5 38/38/5 39/39/5
f 37/37/5 39/39/5 40/40/5
f 41/41/4 42/42/4 43/43/4
f 41/41/4 43/43/4 44/44/4
f 45/45/1 46/46/1 47/47/1
f 45/45/1 47/47/1 48/48/1
f 49/49/5 50/50/5 51/51/5
f 49/49/5 51/51/5 52/52/5
f 53/53/3 54/54/3 55/55/3
f 53/53/3 55/55/3 56/56/3
f 57/57/5 58/58/5 59/59/5
f 57/57/5 59/59/5 60/60/5
f 61/61/3 62/62/3 63/63/3
f 61/61/3 63/63/3 64/64/3
f 65/65/1 66/66/1 67/67/1
f 65/65/1 67/67/1 68/68/1
f 69/69/4 70/70/4 71/71/4
f 69/69/4 71/71/4 72/72/4
f 73/73/1 74/74/1 75/75/1
f 73/73/1 75/75/1 76/76/1
f 77/77/3 78/78/3 79/79/3
f 77/77/3 79/79/3 80/80/3
f 81/81/1 82/82/1 83/83/1
f 81/81/1 83/83/1 84/84/1
f 85/85/5 86/86/5 87/87/5
f 85/85/5 87/87/5 88/88/5
f 89/89/3 90/90/3 91/91/3
f 89/89/3 91/91/3 92/92/3
f 93/93/6 94/94/6 95/95/6
f 93/93/6 95/95/6 96/96/6
f 97/97/7 98/98/7 99/99/7
f 97/97/7 99/99/7 100/100/7
f 101/101/2 102/102/2 103/103/2
f 101/101/2 103/103/2 104/104/2
f 105/105/5 106/106/5 107/107/5
f 105/105/5 107/107/5 108/108/5
f 109/109/3 110/110/3 111/111/3
f 109/109/3 111/111/3 112/112/3
f 113/113/5 114/114/5 115/115/5
f 113/113/5 115/115/5 116/116/5
f 117/117/4 118/118/4 119/119/4
f 117/117/4 119/119/4 120/120/4
f 121/121/5 122/122/5 123/123/5
f 121/121/5 123/123/5 124/124/5
f 125/125/5 126/126/5 127/127/5
f 125/125/5 127/127/5 128/128/5
f 129/129/1 130/130/1 131/131/1
f 129/129/1 131/131/1 132/132/1
f 133/133/4 134/134/4 135/135/4
f 133/133/4 135/135/4 136/136/4
usemtl mat1.004
f 137/137/1 138/138/1 139/139/1
f 137/137/1 139/139/1 140/140/1
f 141/141/5 142/142/5 143/143/5
f 141/141/5 143/143/5 144/144/5
f 145/145/8 146/146/8 147/147/8
f 145/145/8 147/147/8 148/148/8
f 149/149/4 150/150/4 151/151/4
f 149/149/4 151/151/4 152/152/4
f 153/153/3 154/154/3 155/155/3
f 153/153/3 155/155/3 156/156/3
f 157/157/2 158/158/2 159/159/2
f 157/157/2 159/159/2 160/160/2
usemtl mat2.004
f 161/161/8 162/162/8 163/163/8
f 161/161/8 163/163/8 164/164/8
f 165/165/8 166/166/8 167/167/8
f 165/165/8 167/167/8 168/168/8
