{
	"asset":{
		"generator":"Khronos glTF Blender I/O v4.4.55",
		"version":"2.0"
	},
	"extensionsUsed":[
		"KHR_materials_specular"
	],
	"scene":0,
	"scenes":[
		{
			"name":"Scene",
			"nodes":[
				0,
				1,
				2
			]
		}
	],
	"nodes":[
		{
			"name":"default"
		},
		{
			"mesh":0,
			"name":"Cube",
			"translation":[
				0,
				0.860662043094635,
				0
			]
		},
		{
			"mesh":1,
			"name":"site19_wall_cb_modern.001",
			"rotation":[
				0,
				0.70710688829422,
				0,
				0.7071066498756409
			],
			"translation":[
				7.681017875671387,
				-1.193738579750061,
				-4.119514465332031
			]
		}
	],
	"materials":[
		{
			"doubleSided":true,
			"name":"Walls",
			"pbrMetallicRoughness":{
				"baseColorFactor":[
					0.800000011920929,
					0.800000011920929,
					0.800000011920929,
					1
				],
				"metallicFactor":0,
				"roughnessFactor":0.5
			}
		},
		{
			"doubleSided":true,
			"name":"Ceiling",
			"pbrMetallicRoughness":{
				"baseColorFactor":[
					0.800000011920929,
					0.800000011920929,
					0.800000011920929,
					1
				],
				"metallicFactor":0,
				"roughnessFactor":0.5
			}
		},
		{
			"doubleSided":true,
			"name":"Floor",
			"pbrMetallicRoughness":{
				"baseColorFactor":[
					0.800000011920929,
					0.800000011920929,
					0.800000011920929,
					1
				],
				"metallicFactor":0,
				"roughnessFactor":0.5
			}
		},
		{
			"doubleSided":true,
			"extensions":{
				"KHR_materials_specular":{
					"specularFactor":0
				}
			},
			"name":"sheetmetal001_2k-png_color.004",
			"normalTexture":{
				"index":0
			},
			"pbrMetallicRoughness":{
				"baseColorTexture":{
					"index":1
				},
				"metallicRoughnessTexture":{
					"index":2
				}
			}
		},
		{
			"doubleSided":true,
			"extensions":{
				"KHR_materials_specular":{
					"specularFactor":0
				}
			},
			"name":"lczwall.004",
			"normalTexture":{
				"index":3
			},
			"pbrMetallicRoughness":{
				"baseColorFactor":[
					0.5575153231620789,
					0.5575153231620789,
					0.5575153231620789,
					1
				],
				"metallicFactor":0,
				"metallicRoughnessTexture":{
					"index":4
				}
			}
		},
		{
			"doubleSided":true,
			"name":"wall_t.004",
			"pbrMetallicRoughness":{
				"baseColorFactor":[
					0,
					0,
					0,
					1
				],
				"metallicFactor":0,
				"roughnessFactor":0.5
			}
		},
		{
			"doubleSided":true,
			"extensions":{
				"KHR_materials_specular":{
					"specularFactor":0
				}
			},
			"name":"sheetmetal001_2k-png_color.005",
			"normalTexture":{
				"index":5
			},
			"pbrMetallicRoughness":{
				"baseColorTexture":{
					"index":6
				},
				"metallicRoughnessTexture":{
					"index":7
				}
			}
		},
		{
			"doubleSided":true,
			"extensions":{
				"KHR_materials_specular":{
					"specularFactor":0
				}
			},
			"name":"lczwall.005",
			"normalTexture":{
				"index":8
			},
			"pbrMetallicRoughness":{
				"baseColorFactor":[
					0.5575153231620789,
					0.5575153231620789,
					0.5575153231620789,
					1
				],
				"metallicFactor":0,
				"metallicRoughnessTexture":{
					"index":9
				}
			}
		},
		{
			"doubleSided":true,
			"name":"wall_t.005",
			"pbrMetallicRoughness":{
				"baseColorFactor":[
					0,
					0,
					0,
					1
				],
				"metallicFactor":0,
				"roughnessFactor":0.5
			}
		},
		{
			"doubleSided":true,
			"extensions":{
				"KHR_materials_specular":{
					"specularFactor":0
				}
			},
			"name":"sheetmetal001_2k-png_color.006",
			"normalTexture":{
				"index":10
			},
			"pbrMetallicRoughness":{
				"baseColorTexture":{
					"index":11
				},
				"metallicRoughnessTexture":{
					"index":12
				}
			}
		},
		{
			"doubleSided":true,
			"extensions":{
				"KHR_materials_specular":{
					"specularFactor":0
				}
			},
			"name":"lczwall.006",
			"normalTexture":{
				"index":13
			},
			"pbrMetallicRoughness":{
				"baseColorFactor":[
					0.5575153231620789,
					0.5575153231620789,
					0.5575153231620789,
					1
				],
				"metallicFactor":0,
				"metallicRoughnessTexture":{
					"index":14
				}
			}
		},
		{
			"doubleSided":true,
			"name":"wall_t.006",
			"pbrMetallicRoughness":{
				"baseColorFactor":[
					0,
					0,
					0,
					1
				],
				"metallicFactor":0,
				"roughnessFactor":0.5
			}
		},
		{
			"doubleSided":true,
			"extensions":{
				"KHR_materials_specular":{
					"specularFactor":0
				}
			},
			"name":"sheetmetal001_2k-png_color.007",
			"normalTexture":{
				"index":15
			},
			"pbrMetallicRoughness":{
				"baseColorTexture":{
					"index":16
				},
				"metallicRoughnessTexture":{
					"index":17
				}
			}
		},
		{
			"doubleSided":true,
			"extensions":{
				"KHR_materials_specular":{
					"specularFactor":0
				}
			},
			"name":"lczwall.007",
			"normalTexture":{
				"index":18
			},
			"pbrMetallicRoughness":{
				"baseColorFactor":[
					0.5575153231620789,
					0.5575153231620789,
					0.5575153231620789,
					1
				],
				"metallicFactor":0,
				"metallicRoughnessTexture":{
					"index":19
				}
			}
		},
		{
			"doubleSided":true,
			"name":"wall_t.007",
			"pbrMetallicRoughness":{
				"baseColorFactor":[
					0,
					0,
					0,
					1
				],
				"metallicFactor":0,
				"roughnessFactor":0.5
			}
		}
	],
	"meshes":[
		{
			"name":"Cube.001",
			"primitives":[
				{
					"attributes":{
						"POSITION":0,
						"NORMAL":1,
						"TEXCOORD_0":2
					},
					"indices":3,
					"material":0
				},
				{
					"attributes":{
						"POSITION":4,
						"NORMAL":5,
						"TEXCOORD_0":6
					},
					"indices":7,
					"material":1
				},
				{
					"attributes":{
						"POSITION":8,
						"NORMAL":9,
						"TEXCOORD_0":10
					},
					"indices":11,
					"material":2
				}
			]
		},
		{
			"name":"site19_wall_cb_modern.005",
			"primitives":[
				{
					"attributes":{
						"POSITION":12,
						"NORMAL":13,
						"TEXCOORD_0":14
					},
					"indices":15,
					"material":3
				},
				{
					"attributes":{
						"POSITION":16,
						"NORMAL":17,
						"TEXCOORD_0":18
					},
					"indices":19,
					"material":4
				},
				{
					"attributes":{
						"POSITION":20,
						"NORMAL":21,
						"TEXCOORD_0":22
					},
					"indices":23,
					"material":5
				},
				{
					"attributes":{
						"POSITION":24,
						"NORMAL":25,
						"TEXCOORD_0":26
					},
					"indices":27,
					"material":6
				},
				{
					"attributes":{
						"POSITION":28,
						"NORMAL":29,
						"TEXCOORD_0":30
					},
					"indices":31,
					"material":7
				},
				{
					"attributes":{
						"POSITION":32,
						"NORMAL":33,
						"TEXCOORD_0":34
					},
					"indices":35,
					"material":8
				},
				{
					"attributes":{
						"POSITION":36,
						"NORMAL":37,
						"TEXCOORD_0":38
					},
					"indices":39,
					"material":9
				},
				{
					"attributes":{
						"POSITION":40,
						"NORMAL":41,
						"TEXCOORD_0":42
					},
					"indices":43,
					"material":10
				},
				{
					"attributes":{
						"POSITION":44,
						"NORMAL":45,
						"TEXCOORD_0":46
					},
					"indices":47,
					"material":11
				},
				{
					"attributes":{
						"POSITION":48,
						"NORMAL":49,
						"TEXCOORD_0":50
					},
					"indices":27,
					"material":12
				},
				{
					"attributes":{
						"POSITION":51,
						"NORMAL":52,
						"TEXCOORD_0":53
					},
					"indices":54,
					"material":13
				},
				{
					"attributes":{
						"POSITION":55,
						"NORMAL":56,
						"TEXCOORD_0":57
					},
					"indices":58,
					"material":14
				}
			]
		}
	],
	"textures":[
		{
			"sampler":0,
			"source":0
		},
		{
			"sampler":0,
			"source":1
		},
		{
			"sampler":0,
			"source":2
		},
		{
			"sampler":0,
			"source":3
		},
		{
			"sampler":0,
			"source":4
		},
		{
			"sampler":0,
			"source":0
		},
		{
			"sampler":0,
			"source":1
		},
		{
			"sampler":0,
			"source":2
		},
		{
			"sampler":0,
			"source":3
		},
		{
			"sampler":0,
			"source":4
		},
		{
			"sampler":0,
			"source":0
		},
		{
			"sampler":0,
			"source":1
		},
		{
			"sampler":0,
			"source":2
		},
		{
			"sampler":0,
			"source":3
		},
		{
			"sampler":0,
			"source":4
		},
		{
			"sampler":0,
			"source":0
		},
		{
			"sampler":0,
			"source":1
		},
		{
			"sampler":0,
			"source":2
		},
		{
			"sampler":0,
			"source":3
		},
		{
			"sampler":0,
			"source":4
		}
	],
	"images":[
		{
			"mimeType":"image/png",
			"name":"SheetMetal001_2K-PNG_NormalGL",
			"uri":"SheetMetal001_2K-PNG_NormalGL.png"
		},
		{
			"mimeType":"image/png",
			"name":"SheetMetal001_2K-PNG_Color",
			"uri":"SheetMetal001_2K-PNG_Color.png"
		},
		{
			"mimeType":"image/png",
			"name":"SheetMetal001_2K-PNG_Metalness-SheetMetal001_2K-PNG_Roughness",
			"uri":"SheetMetal001_2K-PNG_Metalness-SheetMetal001_2K-PNG_Roughness.png"
		},
		{
			"mimeType":"image/png",
			"name":"beige_wall_001_nor_gl_2k",
			"uri":"beige_wall_001_nor_gl_2k.png"
		},
		{
			"mimeType":"image/png",
			"name":"beige_wall_001_rough_2k",
			"uri":"beige_wall_001_rough_2k.png"
		}
	],
	"accessors":[
		{
			"bufferView":0,
			"componentType":5126,
			"count":24,
			"max":[
				10.240440368652344,
				5.1302289962768555,
				10.235640525817871
			],
			"min":[
				-10.237346649169922,
				-2.1302287578582764,
				4.001392841339111
			],
			"type":"VEC3"
		},
		{
			"bufferView":1,
			"componentType":5126,
			"count":24,
			"type":"VEC3"
		},
		{
			"bufferView":2,
			"componentType":5126,
			"count":24,
			"type":"VEC2"
		},
		{
			"bufferView":3,
			"componentType":5123,
			"count":36,
			"type":"SCALAR"
		},
		{
			"bufferView":4,
			"componentType":5126,
			"count":20,
			"max":[
				10.240440368652344,
				5.130503177642822,
				10.235640525817871
			],
			"min":[
				-10.239424705505371,
				5.115445613861084,
				-3.99564528465271
			],
			"type":"VEC3"
		},
		{
			"bufferView":5,
			"componentType":5126,
			"count":20,
			"type":"VEC3"
		},
		{
			"bufferView":6,
			"componentType":5126,
			"count":20,
			"type":"VEC2"
		},
		{
			"bufferView":7,
			"componentType":5123,
			"count":36,
			"type":"SCALAR"
		},
		{
			"bufferView":8,
			"componentType":5126,
			"count":20,
			"max":[
				10.240440368652344,
				-2.115445613861084,
				10.235640525817871
			],
			"min":[
				-10.239425659179688,
				-2.1302287578582764,
				-3.99564528465271
			],
			"type":"VEC3"
		},
		{
			"bufferView":9,
			"componentType":5126,
			"count":20,
			"type":"VEC3"
		},
		{
			"bufferView":10,
			"componentType":5126,
			"count":20,
			"type":"VEC2"
		},
		{
			"bufferView":11,
			"componentType":5123,
			"count":36,
			"type":"SCALAR"
		},
		{
			"bufferView":12,
			"componentType":5126,
			"count":4,
			"max":[
				-0.15999768674373627,
				7.195949077606201,
				0.6399992108345032
			],
			"min":[
				-0.15999893844127655,
				-0.013369321823120117,
				-0.639999270439148
			],
			"type":"VEC3"
		},
		{
			"bufferView":13,
			"componentType":5126,
			"count":4,
			"type":"VEC3"
		},
		{
			"bufferView":14,
			"componentType":5126,
			"count":4,
			"type":"VEC2"
		},
		{
			"bufferView":15,
			"componentType":5123,
			"count":6,
			"type":"SCALAR"
		},
		{
			"bufferView":16,
			"componentType":5126,
			"count":8,
			"max":[
				-0.31999245285987854,
				7.195949077606201,
				2.5599992275238037
			],
			"min":[
				-0.3200005888938904,
				-0.013369560241699219,
				-2.559999704360962
			],
			"type":"VEC3"
		},
		{
			"bufferView":17,
			"componentType":5126,
			"count":8,
			"type":"VEC3"
		},
		{
			"bufferView":18,
			"componentType":5126,
			"count":8,
			"type":"VEC2"
		},
		{
			"bufferView":19,
			"componentType":5123,
			"count":12,
			"type":"SCALAR"
		},
		{
			"bufferView":20,
			"componentType":5126,
			"count":8,
			"max":[
				-0.15999768674373627,
				7.195949077606201,
				0.6399993896484375
			],
			"min":[
				-0.3200005888938904,
				-0.013369321823120117,
				-0.6400002837181091
			],
			"type":"VEC3"
		},
		{
			"bufferView":21,
			"componentType":5126,
			"count":8,
			"type":"VEC3"
		},
		{
			"bufferView":22,
			"componentType":5126,
			"count":8,
			"type":"VEC2"
		},
		{
			"bufferView":23,
			"componentType":5123,
			"count":12,
			"type":"SCALAR"
		},
		{
			"bufferView":24,
			"componentType":5126,
			"count":4,
			"max":[
				-0.15999768674373627,
				7.195949077606201,
				-4.454508304595947
			],
			"min":[
				-0.15999893844127655,
				-0.013369321823120117,
				-5.734507083892822
			],
			"type":"VEC3"
		},
		{
			"bufferView":25,
			"componentType":5126,
			"count":4,
			"type":"VEC3"
		},
		{
			"bufferView":26,
			"componentType":5126,
			"count":4,
			"type":"VEC2"
		},
		{
			"bufferView":27,
			"componentType":5123,
			"count":6,
			"type":"SCALAR"
		},
		{
			"bufferView":28,
			"componentType":5126,
			"count":8,
			"max":[
				-0.31999245285987854,
				7.195949077606201,
				-2.5345089435577393
			],
			"min":[
				-0.3200005888938904,
				-0.013369560241699219,
				-7.654507637023926
			],
			"type":"VEC3"
		},
		{
			"bufferView":29,
			"componentType":5126,
			"count":8,
			"type":"VEC3"
		},
		{
			"bufferView":30,
			"componentType":5126,
			"count":8,
			"type":"VEC2"
		},
		{
			"bufferView":31,
			"componentType":5123,
			"count":12,
			"type":"SCALAR"
		},
		{
			"bufferView":32,
			"componentType":5126,
			"count":8,
			"max":[
				-0.15999768674373627,
				7.195949077606201,
				-4.454508304595947
			],
			"min":[
				-0.3200005888938904,
				-0.013369321823120117,
				-5.734508037567139
			],
			"type":"VEC3"
		},
		{
			"bufferView":33,
			"componentType":5126,
			"count":8,
			"type":"VEC3"
		},
		{
			"bufferView":34,
			"componentType":5126,
			"count":8,
			"type":"VEC2"
		},
		{
			"bufferView":35,
			"componentType":5123,
			"count":12,
			"type":"SCALAR"
		},
		{
			"bufferView":36,
			"componentType":5126,
			"count":4,
			"max":[
				-0.15999768674373627,
				7.195949077606201,
				-9.579598426818848
			],
			"min":[
				-0.15999893844127655,
				-0.013369321823120117,
				-10.859597206115723
			],
			"type":"VEC3"
		},
		{
			"bufferView":37,
			"componentType":5126,
			"count":4,
			"type":"VEC3"
		},
		{
			"bufferView":38,
			"componentType":5126,
			"count":4,
			"type":"VEC2"
		},
		{
			"bufferView":39,
			"componentType":5123,
			"count":6,
			"type":"SCALAR"
		},
		{
			"bufferView":40,
			"componentType":5126,
			"count":8,
			"max":[
				-0.31999245285987854,
				7.195949077606201,
				-7.654507637023926
			],
			"min":[
				-0.3200005888938904,
				-0.013369560241699219,
				-12.776779174804688
			],
			"type":"VEC3"
		},
		{
			"bufferView":41,
			"componentType":5126,
			"count":8,
			"type":"VEC3"
		},
		{
			"bufferView":42,
			"componentType":5126,
			"count":8,
			"type":"VEC2"
		},
		{
			"bufferView":43,
			"componentType":5123,
			"count":12,
			"type":"SCALAR"
		},
		{
			"bufferView":44,
			"componentType":5126,
			"count":8,
			"max":[
				-0.15999768674373627,
				7.195949077606201,
				-9.579598426818848
			],
			"min":[
				-0.3200005888938904,
				-0.013369321823120117,
				-10.859598159790039
			],
			"type":"VEC3"
		},
		{
			"bufferView":45,
			"componentType":5126,
			"count":8,
			"type":"VEC3"
		},
		{
			"bufferView":46,
			"componentType":5126,
			"count":8,
			"type":"VEC2"
		},
		{
			"bufferView":47,
			"componentType":5123,
			"count":12,
			"type":"SCALAR"
		},
		{
			"bufferView":48,
			"componentType":5126,
			"count":4,
			"max":[
				-0.15999768674373627,
				7.195949077606201,
				-14.696778297424316
			],
			"min":[
				-0.15999893844127655,
				-0.013369321823120117,
				-15.976777076721191
			],
			"type":"VEC3"
		},
		{
			"bufferView":49,
			"componentType":5126,
			"count":4,
			"type":"VEC3"
		},
		{
			"bufferView":50,
			"componentType":5126,
			"count":4,
			"type":"VEC2"
		},
		{
			"bufferView":51,
			"componentType":5126,
			"count":8,
			"max":[
				-0.31999245285987854,
				7.195949077606201,
				-12.776778221130371
			],
			"min":[
				-0.3200005888938904,
				-0.013369560241699219,
				-17.896778106689453
			],
			"type":"VEC3"
		},
		{
			"bufferView":52,
			"componentType":5126,
			"count":8,
			"type":"VEC3"
		},
		{
			"bufferView":53,
			"componentType":5126,
			"count":8,
			"type":"VEC2"
		},
		{
			"bufferView":54,
			"componentType":5123,
			"count":12,
			"type":"SCALAR"
		},
		{
			"bufferView":55,
			"componentType":5126,
			"count":8,
			"max":[
				-0.15999768674373627,
				7.195949077606201,
				-14.696778297424316
			],
			"min":[
				-0.3200005888938904,
				-0.013369321823120117,
				-15.976778030395508
			],
			"type":"VEC3"
		},
		{
			"bufferView":56,
			"componentType":5126,
			"count":8,
			"type":"VEC3"
		},
		{
			"bufferView":57,
			"componentType":5126,
			"count":8,
			"type":"VEC2"
		},
		{
			"bufferView":58,
			"componentType":5123,
			"count":12,
			"type":"SCALAR"
		}
	],
	"bufferViews":[
		{
			"buffer":0,
			"byteLength":288,
			"byteOffset":0,
			"target":34962
		},
		{
			"buffer":0,
			"byteLength":288,
			"byteOffset":288,
			"target":34962
		},
		{
			"buffer":0,
			"byteLength":192,
			"byteOffset":576,
			"target":34962
		},
		{
			"buffer":0,
			"byteLength":72,
			"byteOffset":768,
			"target":34963
		},
		{
			"buffer":0,
			"byteLength":240,
			"byteOffset":840,
			"target":34962
		},
		{
			"buffer":0,
			"byteLength":240,
			"byteOffset":1080,
			"target":34962
		},
		{
			"buffer":0,
			"byteLength":160,
			"byteOffset":1320,
			"target":34962
		},
		{
			"buffer":0,
			"byteLength":72,
			"byteOffset":1480,
			"target":34963
		},
		{
			"buffer":0,
			"byteLength":240,
			"byteOffset":1552,
			"target":34962
		},
		{
			"buffer":0,
			"byteLength":240,
			"byteOffset":1792,
			"target":34962
		},
		{
			"buffer":0,
			"byteLength":160,
			"byteOffset":2032,
			"target":34962
		},
		{
			"buffer":0,
			"byteLength":72,
			"byteOffset":2192,
			"target":34963
		},
		{
			"buffer":0,
			"byteLength":48,
			"byteOffset":2264,
			"target":34962
		},
		{
			"buffer":0,
			"byteLength":48,
			"byteOffset":2312,
			"target":34962
		},
		{
			"buffer":0,
			"byteLength":32,
			"byteOffset":2360,
			"target":34962
		},
		{
			"buffer":0,
			"byteLength":12,
			"byteOffset":2392,
			"target":34963
		},
		{
			"buffer":0,
			"byteLength":96,
			"byteOffset":2404,
			"target":34962
		},
		{
			"buffer":0,
			"byteLength":96,
			"byteOffset":2500,
			"target":34962
		},
		{
			"buffer":0,
			"byteLength":64,
			"byteOffset":2596,
			"target":34962
		},
		{
			"buffer":0,
			"byteLength":24,
			"byteOffset":2660,
			"target":34963
		},
		{
			"buffer":0,
			"byteLength":96,
			"byteOffset":2684,
			"target":34962
		},
		{
			"buffer":0,
			"byteLength":96,
			"byteOffset":2780,
			"target":34962
		},
		{
			"buffer":0,
			"byteLength":64,
			"byteOffset":2876,
			"target":34962
		},
		{
			"buffer":0,
			"byteLength":24,
			"byteOffset":2940,
			"target":34963
		},
		{
			"buffer":0,
			"byteLength":48,
			"byteOffset":2964,
			"target":34962
		},
		{
			"buffer":0,
			"byteLength":48,
			"byteOffset":3012,
			"target":34962
		},
		{
			"buffer":0,
			"byteLength":32,
			"byteOffset":3060,
			"target":34962
		},
		{
			"buffer":0,
			"byteLength":12,
			"byteOffset":3092,
			"target":34963
		},
		{
			"buffer":0,
			"byteLength":96,
			"byteOffset":3104,
			"target":34962
		},
		{
			"buffer":0,
			"byteLength":96,
			"byteOffset":3200,
			"target":34962
		},
		{
			"buffer":0,
			"byteLength":64,
			"byteOffset":3296,
			"target":34962
		},
		{
			"buffer":0,
			"byteLength":24,
			"byteOffset":3360,
			"target":34963
		},
		{
			"buffer":0,
			"byteLength":96,
			"byteOffset":3384,
			"target":34962
		},
		{
			"buffer":0,
			"byteLength":96,
			"byteOffset":3480,
			"target":34962
		},
		{
			"buffer":0,
			"byteLength":64,
			"byteOffset":3576,
			"target":34962
		},
		{
			"buffer":0,
			"byteLength":24,
			"byteOffset":3640,
			"target":34963
		},
		{
			"buffer":0,
			"byteLength":48,
			"byteOffset":3664,
			"target":34962
		},
		{
			"buffer":0,
			"byteLength":48,
			"byteOffset":3712,
			"target":34962
		},
		{
			"buffer":0,
			"byteLength":32,
			"byteOffset":3760,
			"target":34962
		},
		{
			"buffer":0,
			"byteLength":12,
			"byteOffset":3792,
			"target":34963
		},
		{
			"buffer":0,
			"byteLength":96,
			"byteOffset":3804,
			"target":34962
		},
		{
			"buffer":0,
			"byteLength":96,
			"byteOffset":3900,
			"target":34962
		},
		{
			"buffer":0,
			"byteLength":64,
			"byteOffset":3996,
			"target":34962
		},
		{
			"buffer":0,
			"byteLength":24,
			"byteOffset":4060,
			"target":34963
		},
		{
			"buffer":0,
			"byteLength":96,
			"byteOffset":4084,
			"target":34962
		},
		{
			"buffer":0,
			"byteLength":96,
			"byteOffset":4180,
			"target":34962
		},
		{
			"buffer":0,
			"byteLength":64,
			"byteOffset":4276,
			"target":34962
		},
		{
			"buffer":0,
			"byteLength":24,
			"byteOffset":4340,
			"target":34963
		},
		{
			"buffer":0,
			"byteLength":48,
			"byteOffset":4364,
			"target":34962
		},
		{
			"buffer":0,
			"byteLength":48,
			"byteOffset":4412,
			"target":34962
		},
		{
			"buffer":0,
			"byteLength":32,
			"byteOffset":4460,
			"target":34962
		},
		{
			"buffer":0,
			"byteLength":96,
			"byteOffset":4492,
			"target":34962
		},
		{
			"buffer":0,
			"byteLength":96,
			"byteOffset":4588,
			"target":34962
		},
		{
			"buffer":0,
			"byteLength":64,
			"byteOffset":4684,
			"target":34962
		},
		{
			"buffer":0,
			"byteLength":24,
			"byteOffset":4748,
			"target":34963
		},
		{
			"buffer":0,
			"byteLength":96,
			"byteOffset":4772,
			"target":34962
		},
		{
			"buffer":0,
			"byteLength":96,
			"byteOffset":4868,
			"target":34962
		},
		{
			"buffer":0,
			"byteLength":64,
			"byteOffset":4964,
			"target":34962
		},
		{
			"buffer":0,
			"byteLength":24,
			"byteOffset":5028,
			"target":34963
		}
	],
	"samplers":[
		{
			"magFilter":9729,
			"minFilter":9987
		}
	],
	"buffers":[
		{
			"byteLength":5052,
			"uri":"room3.bin"
		}
	]
}
