{
	"asset":{
		"generator":"Khronos glTF Blender I/O v4.4.55",
		"version":"2.0"
	},
	"extensionsUsed":[
		"KHR_materials_specular"
	],
	"scene":0,
	"scenes":[
		{
			"name":"Scene",
			"nodes":[
				0,
				1
			]
		}
	],
	"nodes":[
		{
			"mesh":0,
			"name":"Cube",
			"translation":[
				0,
				0.860662043094635,
				0
			]
		},
		{
			"mesh":1,
			"name":"site19_wall_cb_modern.001",
			"rotation":[
				0,
				0.7071068286895752,
				0,
				0.7071067094802856
			],
			"translation":[
				4.801280975341797,
				-1.2411473989486694,
				-5.911781311035156
			]
		}
	],
	"materials":[
		{
			"doubleSided":true,
			"name":"Walls",
			"pbrMetallicRoughness":{
				"baseColorFactor":[
					0.800000011920929,
					0.800000011920929,
					0.800000011920929,
					1
				],
				"metallicFactor":0,
				"roughnessFactor":0.5
			}
		},
		{
			"doubleSided":true,
			"name":"Ceiling",
			"pbrMetallicRoughness":{
				"baseColorFactor":[
					0.800000011920929,
					0.800000011920929,
					0.800000011920929,
					1
				],
				"metallicFactor":0,
				"roughnessFactor":0.5
			}
		},
		{
			"doubleSided":true,
			"name":"Floor",
			"pbrMetallicRoughness":{
				"baseColorFactor":[
					0.800000011920929,
					0.800000011920929,
					0.800000011920929,
					1
				],
				"metallicFactor":0,
				"roughnessFactor":0.5
			}
		},
		{
			"doubleSided":true,
			"extensions":{
				"KHR_materials_specular":{
					"specularFactor":0
				}
			},
			"name":"sheetmetal001_2k-png_color.001",
			"normalTexture":{
				"index":0
			},
			"pbrMetallicRoughness":{
				"baseColorTexture":{
					"index":1
				},
				"metallicRoughnessTexture":{
					"index":2
				}
			}
		},
		{
			"doubleSided":true,
			"extensions":{
				"KHR_materials_specular":{
					"specularFactor":0
				}
			},
			"name":"lczwall.001",
			"normalTexture":{
				"index":3
			},
			"pbrMetallicRoughness":{
				"baseColorFactor":[
					0.5575153231620789,
					0.5575153231620789,
					0.5575153231620789,
					1
				],
				"metallicFactor":0,
				"metallicRoughnessTexture":{
					"index":4
				}
			}
		},
		{
			"doubleSided":true,
			"name":"wall_t.001",
			"pbrMetallicRoughness":{
				"baseColorFactor":[
					0,
					0,
					0,
					1
				],
				"metallicFactor":0,
				"roughnessFactor":0.5
			}
		},
		{
			"doubleSided":true,
			"extensions":{
				"KHR_materials_specular":{
					"specularFactor":0
				}
			},
			"name":"sheetmetal001_2k-png_color.002",
			"normalTexture":{
				"index":5
			},
			"pbrMetallicRoughness":{
				"baseColorTexture":{
					"index":6
				},
				"metallicRoughnessTexture":{
					"index":7
				}
			}
		},
		{
			"doubleSided":true,
			"extensions":{
				"KHR_materials_specular":{
					"specularFactor":0
				}
			},
			"name":"lczwall.002",
			"normalTexture":{
				"index":8
			},
			"pbrMetallicRoughness":{
				"baseColorFactor":[
					0.5575153231620789,
					0.5575153231620789,
					0.5575153231620789,
					1
				],
				"metallicFactor":0,
				"metallicRoughnessTexture":{
					"index":9
				}
			}
		},
		{
			"doubleSided":true,
			"name":"wall_t.002",
			"pbrMetallicRoughness":{
				"baseColorFactor":[
					0,
					0,
					0,
					1
				],
				"metallicFactor":0,
				"roughnessFactor":0.5
			}
		},
		{
			"doubleSided":true,
			"extensions":{
				"KHR_materials_specular":{
					"specularFactor":0
				}
			},
			"name":"sheetmetal001_2k-png_color.003",
			"normalTexture":{
				"index":10
			},
			"pbrMetallicRoughness":{
				"baseColorTexture":{
					"index":11
				},
				"metallicRoughnessTexture":{
					"index":12
				}
			}
		},
		{
			"doubleSided":true,
			"extensions":{
				"KHR_materials_specular":{
					"specularFactor":0
				}
			},
			"name":"lczwall.003",
			"normalTexture":{
				"index":13
			},
			"pbrMetallicRoughness":{
				"baseColorFactor":[
					0.5575153231620789,
					0.5575153231620789,
					0.5575153231620789,
					1
				],
				"metallicFactor":0,
				"metallicRoughnessTexture":{
					"index":14
				}
			}
		},
		{
			"doubleSided":true,
			"name":"wall_t.003",
			"pbrMetallicRoughness":{
				"baseColorFactor":[
					0,
					0,
					0,
					1
				],
				"metallicFactor":0,
				"roughnessFactor":0.5
			}
		},
		{
			"doubleSided":true,
			"extensions":{
				"KHR_materials_specular":{
					"specularFactor":0
				}
			},
			"name":"sheetmetal001_2k-png_color",
			"normalTexture":{
				"index":15
			},
			"pbrMetallicRoughness":{
				"baseColorTexture":{
					"index":16
				},
				"metallicRoughnessTexture":{
					"index":17
				}
			}
		},
		{
			"doubleSided":true,
			"extensions":{
				"KHR_materials_specular":{
					"specularFactor":0
				}
			},
			"name":"lczwall",
			"normalTexture":{
				"index":18
			},
			"pbrMetallicRoughness":{
				"baseColorFactor":[
					0.5575153231620789,
					0.5575153231620789,
					0.5575153231620789,
					1
				],
				"metallicFactor":0,
				"metallicRoughnessTexture":{
					"index":19
				}
			}
		},
		{
			"doubleSided":true,
			"name":"wall_t",
			"pbrMetallicRoughness":{
				"baseColorFactor":[
					0,
					0,
					0,
					1
				],
				"metallicFactor":0,
				"roughnessFactor":0.5
			}
		}
	],
	"meshes":[
		{
			"name":"Cube.001",
			"primitives":[
				{
					"attributes":{
						"POSITION":0,
						"NORMAL":1,
						"TEXCOORD_0":2
					},
					"indices":3,
					"material":0
				},
				{
					"attributes":{
						"POSITION":4,
						"NORMAL":5,
						"TEXCOORD_0":6
					},
					"indices":7,
					"material":1
				},
				{
					"attributes":{
						"POSITION":8,
						"NORMAL":9,
						"TEXCOORD_0":10
					},
					"indices":11,
					"material":2
				}
			]
		},
		{
			"name":"site19_wall_cb_modern.002",
			"primitives":[
				{
					"attributes":{
						"POSITION":12,
						"NORMAL":13,
						"TEXCOORD_0":14
					},
					"indices":15,
					"material":3
				},
				{
					"attributes":{
						"POSITION":16,
						"NORMAL":17,
						"TEXCOORD_0":18
					},
					"indices":19,
					"material":4
				},
				{
					"attributes":{
						"POSITION":20,
						"NORMAL":21,
						"TEXCOORD_0":22
					},
					"indices":23,
					"material":5
				},
				{
					"attributes":{
						"POSITION":24,
						"NORMAL":25,
						"TEXCOORD_0":26
					},
					"indices":15,
					"material":6
				},
				{
					"attributes":{
						"POSITION":27,
						"NORMAL":28,
						"TEXCOORD_0":29
					},
					"indices":30,
					"material":7
				},
				{
					"attributes":{
						"POSITION":31,
						"NORMAL":32,
						"TEXCOORD_0":33
					},
					"indices":34,
					"material":8
				},
				{
					"attributes":{
						"POSITION":35,
						"NORMAL":36,
						"TEXCOORD_0":37
					},
					"indices":15,
					"material":9
				},
				{
					"attributes":{
						"POSITION":38,
						"NORMAL":39,
						"TEXCOORD_0":40
					},
					"indices":41,
					"material":10
				},
				{
					"attributes":{
						"POSITION":42,
						"NORMAL":43,
						"TEXCOORD_0":44
					},
					"indices":23,
					"material":11
				},
				{
					"attributes":{
						"POSITION":45,
						"NORMAL":46,
						"TEXCOORD_0":47
					},
					"indices":15,
					"material":12
				},
				{
					"attributes":{
						"POSITION":48,
						"NORMAL":49,
						"TEXCOORD_0":50
					},
					"indices":51,
					"material":13
				},
				{
					"attributes":{
						"POSITION":52,
						"NORMAL":53,
						"TEXCOORD_0":54
					},
					"indices":23,
					"material":14
				}
			]
		}
	],
	"textures":[
		{
			"sampler":0,
			"source":0
		},
		{
			"sampler":0,
			"source":1
		},
		{
			"sampler":0,
			"source":2
		},
		{
			"sampler":0,
			"source":3
		},
		{
			"sampler":0,
			"source":4
		},
		{
			"sampler":0,
			"source":0
		},
		{
			"sampler":0,
			"source":1
		},
		{
			"sampler":0,
			"source":2
		},
		{
			"sampler":0,
			"source":3
		},
		{
			"sampler":0,
			"source":4
		},
		{
			"sampler":0,
			"source":0
		},
		{
			"sampler":0,
			"source":1
		},
		{
			"sampler":0,
			"source":2
		},
		{
			"sampler":0,
			"source":3
		},
		{
			"sampler":0,
			"source":4
		},
		{
			"sampler":0,
			"source":0
		},
		{
			"sampler":0,
			"source":1
		},
		{
			"sampler":0,
			"source":2
		},
		{
			"sampler":0,
			"source":3
		},
		{
			"sampler":0,
			"source":4
		}
	],
	"images":[
		{
			"mimeType":"image/png",
			"name":"SheetMetal001_2K-PNG_NormalGL",
			"uri":"SheetMetal001_2K-PNG_NormalGL.png"
		},
		{
			"mimeType":"image/png",
			"name":"SheetMetal001_2K-PNG_Color",
			"uri":"SheetMetal001_2K-PNG_Color.png"
		},
		{
			"mimeType":"image/png",
			"name":"SheetMetal001_2K-PNG_Metalness-SheetMetal001_2K-PNG_Roughness",
			"uri":"SheetMetal001_2K-PNG_Metalness-SheetMetal001_2K-PNG_Roughness.png"
		},
		{
			"mimeType":"image/png",
			"name":"beige_wall_001_nor_gl_2k",
			"uri":"beige_wall_001_nor_gl_2k.png"
		},
		{
			"mimeType":"image/png",
			"name":"beige_wall_001_rough_2k",
			"uri":"beige_wall_001_rough_2k.png"
		}
	],
	"accessors":[
		{
			"bufferView":0,
			"componentType":5126,
			"count":30,
			"max":[
				10.240440368652344,
				5.130503177642822,
				10.235640525817871
			],
			"min":[
				-5.564052104949951,
				-2.1302287578582764,
				-5.751225471496582
			],
			"type":"VEC3"
		},
		{
			"bufferView":1,
			"componentType":5126,
			"count":30,
			"type":"VEC3"
		},
		{
			"bufferView":2,
			"componentType":5126,
			"count":30,
			"type":"VEC2"
		},
		{
			"bufferView":3,
			"componentType":5123,
			"count":48,
			"type":"SCALAR"
		},
		{
			"bufferView":4,
			"componentType":5126,
			"count":15,
			"max":[
				10.240440368652344,
				5.130503177642822,
				10.235640525817871
			],
			"min":[
				-5.565672874450684,
				5.1302289962768555,
				-5.751225471496582
			],
			"type":"VEC3"
		},
		{
			"bufferView":5,
			"componentType":5126,
			"count":15,
			"type":"VEC3"
		},
		{
			"bufferView":6,
			"componentType":5126,
			"count":15,
			"type":"VEC2"
		},
		{
			"bufferView":7,
			"componentType":5123,
			"count":42,
			"type":"SCALAR"
		},
		{
			"bufferView":8,
			"componentType":5126,
			"count":30,
			"max":[
				10.240440368652344,
				-2.1250720024108887,
				10.235640525817871
			],
			"min":[
				-5.5659894943237305,
				-2.1302287578582764,
				-5.751225471496582
			],
			"type":"VEC3"
		},
		{
			"bufferView":9,
			"componentType":5126,
			"count":30,
			"type":"VEC3"
		},
		{
			"bufferView":10,
			"componentType":5126,
			"count":30,
			"type":"VEC2"
		},
		{
			"bufferView":11,
			"componentType":5123,
			"count":42,
			"type":"SCALAR"
		},
		{
			"bufferView":12,
			"componentType":5126,
			"count":4,
			"max":[
				-0.15999768674373627,
				7.226630210876465,
				0.6399992108345032
			],
			"min":[
				-0.15999893844127655,
				-0.013369321823120117,
				-0.639999270439148
			],
			"type":"VEC3"
		},
		{
			"bufferView":13,
			"componentType":5126,
			"count":4,
			"type":"VEC3"
		},
		{
			"bufferView":14,
			"componentType":5126,
			"count":4,
			"type":"VEC2"
		},
		{
			"bufferView":15,
			"componentType":5123,
			"count":6,
			"type":"SCALAR"
		},
		{
			"bufferView":16,
			"componentType":5126,
			"count":10,
			"max":[
				-0.31999245285987854,
				7.226630210876465,
				2.5599992275238037
			],
			"min":[
				-0.3200005888938904,
				-0.013369560241699219,
				-3.9886868000030518
			],
			"type":"VEC3"
		},
		{
			"bufferView":17,
			"componentType":5126,
			"count":10,
			"type":"VEC3"
		},
		{
			"bufferView":18,
			"componentType":5126,
			"count":10,
			"type":"VEC2"
		},
		{
			"bufferView":19,
			"componentType":5123,
			"count":18,
			"type":"SCALAR"
		},
		{
			"bufferView":20,
			"componentType":5126,
			"count":8,
			"max":[
				-0.15999768674373627,
				7.226630210876465,
				0.6399993896484375
			],
			"min":[
				-0.3200005888938904,
				-0.013369321823120117,
				-0.6400002837181091
			],
			"type":"VEC3"
		},
		{
			"bufferView":21,
			"componentType":5126,
			"count":8,
			"type":"VEC3"
		},
		{
			"bufferView":22,
			"componentType":5126,
			"count":8,
			"type":"VEC2"
		},
		{
			"bufferView":23,
			"componentType":5123,
			"count":12,
			"type":"SCALAR"
		},
		{
			"bufferView":24,
			"componentType":5126,
			"count":4,
			"max":[
				-3.557037115097046,
				7.226630210876465,
				-10.376689910888672
			],
			"min":[
				-4.837035655975342,
				-0.013369321823120117,
				-10.376690864562988
			],
			"type":"VEC3"
		},
		{
			"bufferView":25,
			"componentType":5126,
			"count":4,
			"type":"VEC3"
		},
		{
			"bufferView":26,
			"componentType":5126,
			"count":4,
			"type":"VEC2"
		},
		{
			"bufferView":27,
			"componentType":5126,
			"count":14,
			"max":[
				-0.31999191641807556,
				7.226630210876465,
				-9.108685493469238
			],
			"min":[
				-8.20205307006836,
				-0.013369560241699219,
				-10.216696739196777
			],
			"type":"VEC3"
		},
		{
			"bufferView":28,
			"componentType":5126,
			"count":14,
			"type":"VEC3"
		},
		{
			"bufferView":29,
			"componentType":5126,
			"count":14,
			"type":"VEC2"
		},
		{
			"bufferView":30,
			"componentType":5123,
			"count":24,
			"type":"SCALAR"
		},
		{
			"bufferView":31,
			"componentType":5126,
			"count":8,
			"max":[
				-3.557036876678467,
				7.226630210876465,
				-10.21668815612793
			],
			"min":[
				-4.837036609649658,
				-0.013369321823120117,
				-10.376690864562988
			],
			"type":"VEC3"
		},
		{
			"bufferView":32,
			"componentType":5126,
			"count":8,
			"type":"VEC3"
		},
		{
			"bufferView":33,
			"componentType":5126,
			"count":8,
			"type":"VEC2"
		},
		{
			"bufferView":34,
			"componentType":5123,
			"count":12,
			"type":"SCALAR"
		},
		{
			"bufferView":35,
			"componentType":5126,
			"count":4,
			"max":[
				-10.122052192687988,
				7.226630210876465,
				-10.376690864562988
			],
			"min":[
				-11.402050971984863,
				-0.013369321823120117,
				-10.376691818237305
			],
			"type":"VEC3"
		},
		{
			"bufferView":36,
			"componentType":5126,
			"count":4,
			"type":"VEC3"
		},
		{
			"bufferView":37,
			"componentType":5126,
			"count":4,
			"type":"VEC2"
		},
		{
			"bufferView":38,
			"componentType":5126,
			"count":8,
			"max":[
				-8.20205307006836,
				7.226630210876465,
				-10.216689109802246
			],
			"min":[
				-13.322052001953125,
				-0.013369560241699219,
				-10.216697692871094
			],
			"type":"VEC3"
		},
		{
			"bufferView":39,
			"componentType":5126,
			"count":8,
			"type":"VEC3"
		},
		{
			"bufferView":40,
			"componentType":5126,
			"count":8,
			"type":"VEC2"
		},
		{
			"bufferView":41,
			"componentType":5123,
			"count":12,
			"type":"SCALAR"
		},
		{
			"bufferView":42,
			"componentType":5126,
			"count":8,
			"max":[
				-10.122052192687988,
				7.226630210876465,
				-10.216689109802246
			],
			"min":[
				-11.40205192565918,
				-0.013369321823120117,
				-10.376691818237305
			],
			"type":"VEC3"
		},
		{
			"bufferView":43,
			"componentType":5126,
			"count":8,
			"type":"VEC3"
		},
		{
			"bufferView":44,
			"componentType":5126,
			"count":8,
			"type":"VEC2"
		},
		{
			"bufferView":45,
			"componentType":5126,
			"count":4,
			"max":[
				-0.15999673306941986,
				7.226630210876465,
				-5.90868616104126
			],
			"min":[
				-0.15999798476696014,
				-0.013369321823120117,
				-7.188684940338135
			],
			"type":"VEC3"
		},
		{
			"bufferView":46,
			"componentType":5126,
			"count":4,
			"type":"VEC3"
		},
		{
			"bufferView":47,
			"componentType":5126,
			"count":4,
			"type":"VEC2"
		},
		{
			"bufferView":48,
			"componentType":5126,
			"count":8,
			"max":[
				-0.31999149918556213,
				7.226630210876465,
				-3.9886863231658936
			],
			"min":[
				-0.319999635219574,
				-0.013369560241699219,
				-9.108685493469238
			],
			"type":"VEC3"
		},
		{
			"bufferView":49,
			"componentType":5126,
			"count":8,
			"type":"VEC3"
		},
		{
			"bufferView":50,
			"componentType":5126,
			"count":8,
			"type":"VEC2"
		},
		{
			"bufferView":51,
			"componentType":5123,
			"count":12,
			"type":"SCALAR"
		},
		{
			"bufferView":52,
			"componentType":5126,
			"count":8,
			"max":[
				-0.15999673306941986,
				7.226630210876465,
				-5.90868616104126
			],
			"min":[
				-0.319999635219574,
				-0.013369321823120117,
				-7.188685894012451
			],
			"type":"VEC3"
		},
		{
			"bufferView":53,
			"componentType":5126,
			"count":8,
			"type":"VEC3"
		},
		{
			"bufferView":54,
			"componentType":5126,
			"count":8,
			"type":"VEC2"
		}
	],
	"bufferViews":[
		{
			"buffer":0,
			"byteLength":360,
			"byteOffset":0,
			"target":34962
		},
		{
			"buffer":0,
			"byteLength":360,
			"byteOffset":360,
			"target":34962
		},
		{
			"buffer":0,
			"byteLength":240,
			"byteOffset":720,
			"target":34962
		},
		{
			"buffer":0,
			"byteLength":96,
			"byteOffset":960,
			"target":34963
		},
		{
			"buffer":0,
			"byteLength":180,
			"byteOffset":1056,
			"target":34962
		},
		{
			"buffer":0,
			"byteLength":180,
			"byteOffset":1236,
			"target":34962
		},
		{
			"buffer":0,
			"byteLength":120,
			"byteOffset":1416,
			"target":34962
		},
		{
			"buffer":0,
			"byteLength":84,
			"byteOffset":1536,
			"target":34963
		},
		{
			"buffer":0,
			"byteLength":360,
			"byteOffset":1620,
			"target":34962
		},
		{
			"buffer":0,
			"byteLength":360,
			"byteOffset":1980,
			"target":34962
		},
		{
			"buffer":0,
			"byteLength":240,
			"byteOffset":2340,
			"target":34962
		},
		{
			"buffer":0,
			"byteLength":84,
			"byteOffset":2580,
			"target":34963
		},
		{
			"buffer":0,
			"byteLength":48,
			"byteOffset":2664,
			"target":34962
		},
		{
			"buffer":0,
			"byteLength":48,
			"byteOffset":2712,
			"target":34962
		},
		{
			"buffer":0,
			"byteLength":32,
			"byteOffset":2760,
			"target":34962
		},
		{
			"buffer":0,
			"byteLength":12,
			"byteOffset":2792,
			"target":34963
		},
		{
			"buffer":0,
			"byteLength":120,
			"byteOffset":2804,
			"target":34962
		},
		{
			"buffer":0,
			"byteLength":120,
			"byteOffset":2924,
			"target":34962
		},
		{
			"buffer":0,
			"byteLength":80,
			"byteOffset":3044,
			"target":34962
		},
		{
			"buffer":0,
			"byteLength":36,
			"byteOffset":3124,
			"target":34963
		},
		{
			"buffer":0,
			"byteLength":96,
			"byteOffset":3160,
			"target":34962
		},
		{
			"buffer":0,
			"byteLength":96,
			"byteOffset":3256,
			"target":34962
		},
		{
			"buffer":0,
			"byteLength":64,
			"byteOffset":3352,
			"target":34962
		},
		{
			"buffer":0,
			"byteLength":24,
			"byteOffset":3416,
			"target":34963
		},
		{
			"buffer":0,
			"byteLength":48,
			"byteOffset":3440,
			"target":34962
		},
		{
			"buffer":0,
			"byteLength":48,
			"byteOffset":3488,
			"target":34962
		},
		{
			"buffer":0,
			"byteLength":32,
			"byteOffset":3536,
			"target":34962
		},
		{
			"buffer":0,
			"byteLength":168,
			"byteOffset":3568,
			"target":34962
		},
		{
			"buffer":0,
			"byteLength":168,
			"byteOffset":3736,
			"target":34962
		},
		{
			"buffer":0,
			"byteLength":112,
			"byteOffset":3904,
			"target":34962
		},
		{
			"buffer":0,
			"byteLength":48,
			"byteOffset":4016,
			"target":34963
		},
		{
			"buffer":0,
			"byteLength":96,
			"byteOffset":4064,
			"target":34962
		},
		{
			"buffer":0,
			"byteLength":96,
			"byteOffset":4160,
			"target":34962
		},
		{
			"buffer":0,
			"byteLength":64,
			"byteOffset":4256,
			"target":34962
		},
		{
			"buffer":0,
			"byteLength":24,
			"byteOffset":4320,
			"target":34963
		},
		{
			"buffer":0,
			"byteLength":48,
			"byteOffset":4344,
			"target":34962
		},
		{
			"buffer":0,
			"byteLength":48,
			"byteOffset":4392,
			"target":34962
		},
		{
			"buffer":0,
			"byteLength":32,
			"byteOffset":4440,
			"target":34962
		},
		{
			"buffer":0,
			"byteLength":96,
			"byteOffset":4472,
			"target":34962
		},
		{
			"buffer":0,
			"byteLength":96,
			"byteOffset":4568,
			"target":34962
		},
		{
			"buffer":0,
			"byteLength":64,
			"byteOffset":4664,
			"target":34962
		},
		{
			"buffer":0,
			"byteLength":24,
			"byteOffset":4728,
			"target":34963
		},
		{
			"buffer":0,
			"byteLength":96,
			"byteOffset":4752,
			"target":34962
		},
		{
			"buffer":0,
			"byteLength":96,
			"byteOffset":4848,
			"target":34962
		},
		{
			"buffer":0,
			"byteLength":64,
			"byteOffset":4944,
			"target":34962
		},
		{
			"buffer":0,
			"byteLength":48,
			"byteOffset":5008,
			"target":34962
		},
		{
			"buffer":0,
			"byteLength":48,
			"byteOffset":5056,
			"target":34962
		},
		{
			"buffer":0,
			"byteLength":32,
			"byteOffset":5104,
			"target":34962
		},
		{
			"buffer":0,
			"byteLength":96,
			"byteOffset":5136,
			"target":34962
		},
		{
			"buffer":0,
			"byteLength":96,
			"byteOffset":5232,
			"target":34962
		},
		{
			"buffer":0,
			"byteLength":64,
			"byteOffset":5328,
			"target":34962
		},
		{
			"buffer":0,
			"byteLength":24,
			"byteOffset":5392,
			"target":34963
		},
		{
			"buffer":0,
			"byteLength":96,
			"byteOffset":5416,
			"target":34962
		},
		{
			"buffer":0,
			"byteLength":96,
			"byteOffset":5512,
			"target":34962
		},
		{
			"buffer":0,
			"byteLength":64,
			"byteOffset":5608,
			"target":34962
		}
	],
	"samplers":[
		{
			"magFilter":9729,
			"minFilter":9987
		}
	],
	"buffers":[
		{
			"byteLength":5672,
			"uri":"room2c_special.bin"
		}
	]
}
