{
	"asset":{
		"generator":"Khronos glTF Blender I/O v4.5.47",
		"version":"2.0"
	},
	"scene":0,
	"scenes":[
		{
			"name":"Scene",
			"nodes":[
				0
			]
		}
	],
	"nodes":[
		{
			"mesh":0,
			"name":"Cylinder"
		}
	],
	"materials":[
		{
			"doubleSided":true,
			"name":"Walls",
			"pbrMetallicRoughness":{
				"baseColorFactor":[
					0.800000011920929,
					0.800000011920929,
					0.800000011920929,
					1
				],
				"metallicFactor":0,
				"roughnessFactor":0.5
			}
		},
		{
			"doubleSided":true,
			"name":"Floor",
			"pbrMetallicRoughness":{
				"baseColorFactor":[
					0.800000011920929,
					0.800000011920929,
					0.800000011920929,
					1
				],
				"metallicFactor":0,
				"roughnessFactor":0.5
			}
		},
		{
			"doubleSided":true,
			"name":"Ceiling",
			"pbrMetallicRoughness":{
				"baseColorFactor":[
					0.800000011920929,
					0.800000011920929,
					0.800000011920929,
					1
				],
				"metallicFactor":0,
				"roughnessFactor":0.5
			}
		},
		{
			"doubleSided":true,
			"name":"Exit",
			"pbrMetallicRoughness":{
				"baseColorFactor":[
					0,
					0,
					0,
					1
				],
				"metallicFactor":0,
				"roughnessFactor":0.5
			}
		}
	],
	"meshes":[
		{
			"name":"Cylinder",
			"primitives":[
				{
					"attributes":{
						"POSITION":0,
						"NORMAL":1,
						"TEXCOORD_0":2
					},
					"indices":3,
					"material":0
				},
				{
					"attributes":{
						"POSITION":4,
						"NORMAL":5,
						"TEXCOORD_0":6
					},
					"indices":7,
					"material":1
				},
				{
					"attributes":{
						"POSITION":8,
						"NORMAL":9,
						"TEXCOORD_0":10
					},
					"indices":11,
					"material":2
				},
				{
					"attributes":{
						"POSITION":12,
						"NORMAL":13,
						"TEXCOORD_0":14
					},
					"indices":15,
					"material":3
				}
			]
		}
	],
	"accessors":[
		{
			"bufferView":0,
			"componentType":5126,
			"count":78,
			"max":[
				9.412485122680664,
				4.445784091949463,
				10.239999771118164
			],
			"min":[
				-9.587514877319336,
				-0.9503347277641296,
				-9.58666706085205
			],
			"type":"VEC3"
		},
		{
			"bufferView":1,
			"componentType":5126,
			"count":78,
			"type":"VEC3"
		},
		{
			"bufferView":2,
			"componentType":5126,
			"count":78,
			"type":"VEC2"
		},
		{
			"bufferView":3,
			"componentType":5123,
			"count":144,
			"type":"SCALAR"
		},
		{
			"bufferView":4,
			"componentType":5126,
			"count":16,
			"max":[
				9.412485122680664,
				-0.9468463659286499,
				10.239999771118164
			],
			"min":[
				-9.587514877319336,
				-0.9503347277641296,
				-9.58666706085205
			],
			"type":"VEC3"
		},
		{
			"bufferView":5,
			"componentType":5126,
			"count":16,
			"type":"VEC3"
		},
		{
			"bufferView":6,
			"componentType":5126,
			"count":16,
			"type":"VEC2"
		},
		{
			"bufferView":7,
			"componentType":5123,
			"count":18,
			"type":"SCALAR"
		},
		{
			"bufferView":8,
			"componentType":5126,
			"count":8,
			"max":[
				9.412485122680664,
				4.445784091949463,
				10.239999771118164
			],
			"min":[
				-9.587514877319336,
				4.444929122924805,
				-9.58666706085205
			],
			"type":"VEC3"
		},
		{
			"bufferView":9,
			"componentType":5126,
			"count":8,
			"type":"VEC3"
		},
		{
			"bufferView":10,
			"componentType":5126,
			"count":8,
			"type":"VEC2"
		},
		{
			"bufferView":11,
			"componentType":5123,
			"count":12,
			"type":"SCALAR"
		},
		{
			"bufferView":12,
			"componentType":5126,
			"count":8,
			"max":[
				5.086952209472656,
				4.445784091949463,
				-9.58666706085205
			],
			"min":[
				-5.261980056762695,
				-0.950334370136261,
				-9.58666706085205
			],
			"type":"VEC3"
		},
		{
			"bufferView":13,
			"componentType":5126,
			"count":8,
			"type":"VEC3"
		},
		{
			"bufferView":14,
			"componentType":5126,
			"count":8,
			"type":"VEC2"
		},
		{
			"bufferView":15,
			"componentType":5123,
			"count":18,
			"type":"SCALAR"
		}
	],
	"bufferViews":[
		{
			"buffer":0,
			"byteLength":936,
			"byteOffset":0,
			"target":34962
		},
		{
			"buffer":0,
			"byteLength":936,
			"byteOffset":936,
			"target":34962
		},
		{
			"buffer":0,
			"byteLength":624,
			"byteOffset":1872,
			"target":34962
		},
		{
			"buffer":0,
			"byteLength":288,
			"byteOffset":2496,
			"target":34963
		},
		{
			"buffer":0,
			"byteLength":192,
			"byteOffset":2784,
			"target":34962
		},
		{
			"buffer":0,
			"byteLength":192,
			"byteOffset":2976,
			"target":34962
		},
		{
			"buffer":0,
			"byteLength":128,
			"byteOffset":3168,
			"target":34962
		},
		{
			"buffer":0,
			"byteLength":36,
			"byteOffset":3296,
			"target":34963
		},
		{
			"buffer":0,
			"byteLength":96,
			"byteOffset":3332,
			"target":34962
		},
		{
			"buffer":0,
			"byteLength":96,
			"byteOffset":3428,
			"target":34962
		},
		{
			"buffer":0,
			"byteLength":64,
			"byteOffset":3524,
			"target":34962
		},
		{
			"buffer":0,
			"byteLength":24,
			"byteOffset":3588,
			"target":34963
		},
		{
			"buffer":0,
			"byteLength":96,
			"byteOffset":3612,
			"target":34962
		},
		{
			"buffer":0,
			"byteLength":96,
			"byteOffset":3708,
			"target":34962
		},
		{
			"buffer":0,
			"byteLength":64,
			"byteOffset":3804,
			"target":34962
		},
		{
			"buffer":0,
			"byteLength":36,
			"byteOffset":3868,
			"target":34963
		}
	],
	"buffers":[
		{
			"byteLength":3904,
			"uri":"mt_exit1.bin"
		}
	]
}
