{
	"asset":{
		"generator":"Khronos glTF Blender I/O v4.5.47",
		"version":"2.0"
	},
	"scene":0,
	"scenes":[
		{
			"name":"Scene",
			"nodes":[
				0
			]
		}
	],
	"nodes":[
		{
			"mesh":0,
			"name":"Cylinder"
		}
	],
	"materials":[
		{
			"doubleSided":true,
			"name":"Walls.001",
			"pbrMetallicRoughness":{
				"baseColorFactor":[
					0.800000011920929,
					0.800000011920929,
					0.800000011920929,
					1
				],
				"metallicFactor":0,
				"roughnessFactor":0.5
			}
		},
		{
			"doubleSided":true,
			"name":"Floor.001",
			"pbrMetallicRoughness":{
				"baseColorFactor":[
					0.800000011920929,
					0.800000011920929,
					0.800000011920929,
					1
				],
				"metallicFactor":0,
				"roughnessFactor":0.5
			}
		},
		{
			"doubleSided":true,
			"name":"Ceiling.001",
			"pbrMetallicRoughness":{
				"baseColorFactor":[
					0.800000011920929,
					0.800000011920929,
					0.800000011920929,
					1
				],
				"metallicFactor":0,
				"roughnessFactor":0.5
			}
		}
	],
	"meshes":[
		{
			"name":"Cylinder",
			"primitives":[
				{
					"attributes":{
						"POSITION":0,
						"NORMAL":1,
						"TEXCOORD_0":2
					},
					"indices":3,
					"material":0
				},
				{
					"attributes":{
						"POSITION":4,
						"NORMAL":5,
						"TEXCOORD_0":6
					},
					"indices":7,
					"material":1
				},
				{
					"attributes":{
						"POSITION":8,
						"NORMAL":9,
						"TEXCOORD_0":10
					},
					"indices":11,
					"material":2
				}
			]
		}
	],
	"accessors":[
		{
			"bufferView":0,
			"componentType":5126,
			"count":72,
			"max":[
				9.798176765441895,
				5.988548278808594,
				10.192734718322754
			],
			"min":[
				-9.90402603149414,
				-1.274357557296753,
				-10.180814743041992
			],
			"type":"VEC3"
		},
		{
			"bufferView":1,
			"componentType":5126,
			"count":72,
			"type":"VEC3"
		},
		{
			"bufferView":2,
			"componentType":5126,
			"count":72,
			"type":"VEC2"
		},
		{
			"bufferView":3,
			"componentType":5123,
			"count":120,
			"type":"SCALAR"
		},
		{
			"bufferView":4,
			"componentType":5126,
			"count":16,
			"max":[
				9.798176765441895,
				-1.2550044059753418,
				10.192734718322754
			],
			"min":[
				-9.90402603149414,
				-1.274357557296753,
				-10.180814743041992
			],
			"type":"VEC3"
		},
		{
			"bufferView":5,
			"componentType":5126,
			"count":16,
			"type":"VEC3"
		},
		{
			"bufferView":6,
			"componentType":5126,
			"count":16,
			"type":"VEC2"
		},
		{
			"bufferView":7,
			"componentType":5123,
			"count":24,
			"type":"SCALAR"
		},
		{
			"bufferView":8,
			"componentType":5126,
			"count":12,
			"max":[
				9.798176765441895,
				5.988548278808594,
				10.192734718322754
			],
			"min":[
				-9.90402603149414,
				4.0238237380981445,
				-10.180814743041992
			],
			"type":"VEC3"
		},
		{
			"bufferView":9,
			"componentType":5126,
			"count":12,
			"type":"VEC3"
		},
		{
			"bufferView":10,
			"componentType":5126,
			"count":12,
			"type":"VEC2"
		},
		{
			"bufferView":11,
			"componentType":5123,
			"count":24,
			"type":"SCALAR"
		}
	],
	"bufferViews":[
		{
			"buffer":0,
			"byteLength":864,
			"byteOffset":0,
			"target":34962
		},
		{
			"buffer":0,
			"byteLength":864,
			"byteOffset":864,
			"target":34962
		},
		{
			"buffer":0,
			"byteLength":576,
			"byteOffset":1728,
			"target":34962
		},
		{
			"buffer":0,
			"byteLength":240,
			"byteOffset":2304,
			"target":34963
		},
		{
			"buffer":0,
			"byteLength":192,
			"byteOffset":2544,
			"target":34962
		},
		{
			"buffer":0,
			"byteLength":192,
			"byteOffset":2736,
			"target":34962
		},
		{
			"buffer":0,
			"byteLength":128,
			"byteOffset":2928,
			"target":34962
		},
		{
			"buffer":0,
			"byteLength":48,
			"byteOffset":3056,
			"target":34963
		},
		{
			"buffer":0,
			"byteLength":144,
			"byteOffset":3104,
			"target":34962
		},
		{
			"buffer":0,
			"byteLength":144,
			"byteOffset":3248,
			"target":34962
		},
		{
			"buffer":0,
			"byteLength":96,
			"byteOffset":3392,
			"target":34962
		},
		{
			"buffer":0,
			"byteLength":48,
			"byteOffset":3488,
			"target":34963
		}
	],
	"buffers":[
		{
			"byteLength":3536,
			"uri":"mt_room2_checkpoint.bin"
		}
	]
}
