{
	"asset":{
		"generator":"Khronos glTF Blender I/O v4.5.47",
		"version":"2.0"
	},
	"scene":0,
	"scenes":[
		{
			"name":"Scene",
			"nodes":[
				0
			]
		}
	],
	"nodes":[
		{
			"mesh":0,
			"name":"Cylinder",
			"translation":[
				0,
				1.2549967765808105,
				0
			]
		}
	],
	"materials":[
		{
			"doubleSided":true,
			"name":"Walls",
			"pbrMetallicRoughness":{
				"baseColorFactor":[
					0.800000011920929,
					0.800000011920929,
					0.800000011920929,
					1
				],
				"metallicFactor":0,
				"roughnessFactor":0.5
			}
		},
		{
			"doubleSided":true,
			"name":"Floor",
			"pbrMetallicRoughness":{
				"baseColorFactor":[
					0.800000011920929,
					0.800000011920929,
					0.800000011920929,
					1
				],
				"metallicFactor":0,
				"roughnessFactor":0.5
			}
		},
		{
			"doubleSided":true,
			"name":"Ceiling",
			"pbrMetallicRoughness":{
				"baseColorFactor":[
					0.800000011920929,
					0.800000011920929,
					0.800000011920929,
					1
				],
				"metallicFactor":0,
				"roughnessFactor":0.5
			}
		}
	],
	"meshes":[
		{
			"name":"Cylinder",
			"primitives":[
				{
					"attributes":{
						"POSITION":0,
						"NORMAL":1,
						"TEXCOORD_0":2
					},
					"indices":3,
					"material":0
				},
				{
					"attributes":{
						"POSITION":4,
						"NORMAL":5,
						"TEXCOORD_0":6
					},
					"indices":7,
					"material":1
				},
				{
					"attributes":{
						"POSITION":8,
						"NORMAL":9,
						"TEXCOORD_0":10
					},
					"indices":11,
					"material":2
				}
			]
		}
	],
	"accessors":[
		{
			"bufferView":0,
			"componentType":5126,
			"count":92,
			"max":[
				10.239999771118164,
				4.057805061340332,
				10.239999771118164
			],
			"min":[
				-3.4133338928222656,
				-1.242318868637085,
				-3.4133336544036865
			],
			"type":"VEC3"
		},
		{
			"bufferView":1,
			"componentType":5126,
			"count":92,
			"type":"VEC3"
		},
		{
			"bufferView":2,
			"componentType":5126,
			"count":92,
			"type":"VEC2"
		},
		{
			"bufferView":3,
			"componentType":5123,
			"count":132,
			"type":"SCALAR"
		},
		{
			"bufferView":4,
			"componentType":5126,
			"count":12,
			"max":[
				10.239999771118164,
				-1.2423179149627686,
				10.239999771118164
			],
			"min":[
				-3.413332939147949,
				-1.242318868637085,
				-3.4133336544036865
			],
			"type":"VEC3"
		},
		{
			"bufferView":5,
			"componentType":5126,
			"count":12,
			"type":"VEC3"
		},
		{
			"bufferView":6,
			"componentType":5126,
			"count":12,
			"type":"VEC2"
		},
		{
			"bufferView":7,
			"componentType":5123,
			"count":30,
			"type":"SCALAR"
		},
		{
			"bufferView":8,
			"componentType":5126,
			"count":12,
			"max":[
				10.239998817443848,
				4.057805061340332,
				10.239999771118164
			],
			"min":[
				-3.4133338928222656,
				4.057804107666016,
				-3.4133334159851074
			],
			"type":"VEC3"
		},
		{
			"bufferView":9,
			"componentType":5126,
			"count":12,
			"type":"VEC3"
		},
		{
			"bufferView":10,
			"componentType":5126,
			"count":12,
			"type":"VEC2"
		},
		{
			"bufferView":11,
			"componentType":5123,
			"count":30,
			"type":"SCALAR"
		}
	],
	"bufferViews":[
		{
			"buffer":0,
			"byteLength":1104,
			"byteOffset":0,
			"target":34962
		},
		{
			"buffer":0,
			"byteLength":1104,
			"byteOffset":1104,
			"target":34962
		},
		{
			"buffer":0,
			"byteLength":736,
			"byteOffset":2208,
			"target":34962
		},
		{
			"buffer":0,
			"byteLength":264,
			"byteOffset":2944,
			"target":34963
		},
		{
			"buffer":0,
			"byteLength":144,
			"byteOffset":3208,
			"target":34962
		},
		{
			"buffer":0,
			"byteLength":144,
			"byteOffset":3352,
			"target":34962
		},
		{
			"buffer":0,
			"byteLength":96,
			"byteOffset":3496,
			"target":34962
		},
		{
			"buffer":0,
			"byteLength":60,
			"byteOffset":3592,
			"target":34963
		},
		{
			"buffer":0,
			"byteLength":144,
			"byteOffset":3652,
			"target":34962
		},
		{
			"buffer":0,
			"byteLength":144,
			"byteOffset":3796,
			"target":34962
		},
		{
			"buffer":0,
			"byteLength":96,
			"byteOffset":3940,
			"target":34962
		},
		{
			"buffer":0,
			"byteLength":60,
			"byteOffset":4036,
			"target":34963
		}
	],
	"buffers":[
		{
			"byteLength":4096,
			"uri":"mt_room2C.bin"
		}
	]
}
