{
	"asset":{
		"generator":"Khronos glTF Blender I/O v4.4.55",
		"version":"2.0"
	},
	"extensionsUsed":[
		"KHR_materials_specular",
		"KHR_materials_ior"
	],
	"scene":0,
	"scenes":[
		{
			"name":"Scene",
			"nodes":[
				2
			]
		}
	],
	"nodes":[
		{
			"mesh":0,
			"name":"Cube.001",
			"rotation":[
				0,
				0.7071065306663513,
				0,
				0.7071070671081543
			],
			"scale":[
				100.00004577636719,
				100,
				100.00004577636719
			],
			"translation":[
				0.03999999910593033,
				3.1689999103546143,
				-3.9599997997283936
			]
		},
		{
			"mesh":1,
			"name":"Cube__1_.001",
			"rotation":[
				0,
				0.7071065306663513,
				0,
				0.7071070671081543
			],
			"scale":[
				100.00004577636719,
				100,
				100.00004577636719
			],
			"translation":[
				3.9599997997283936,
				3.1689999103546143,
				-0.05999999865889549
			]
		},
		{
			"children":[
				0,
				1
			],
			"mesh":2,
			"name":"Room4_Curve.002"
		}
	],
	"materials":[
		{
			"doubleSided":true,
			"extensions":{
				"KHR_materials_specular":{
					"specularFactor":0.6000000238418579
				},
				"KHR_materials_ior":{
					"ior":1.4500000476837158
				}
			},
			"name":"Wall_Base.006",
			"normalTexture":{
				"index":0,
				"scale":0.20000000298023224
			},
			"pbrMetallicRoughness":{
				"baseColorTexture":{
					"index":1
				},
				"metallicFactor":0,
				"roughnessFactor":0.5
			}
		},
		{
			"doubleSided":true,
			"name":"Floor_Base.006",
			"normalTexture":{
				"index":2,
				"scale":0.20000000298023224
			},
			"pbrMetallicRoughness":{
				"baseColorTexture":{
					"index":3
				},
				"metallicFactor":0,
				"roughnessFactor":0.5
			}
		},
		{
			"doubleSided":true,
			"extensions":{
				"KHR_materials_specular":{
					"specularColorFactor":[
						1.159999966621399,
						1.159999966621399,
						1.159999966621399
					]
				},
				"KHR_materials_ior":{
					"ior":1.4500000476837158
				}
			},
			"name":"Metal_Base.006",
			"normalTexture":{
				"index":4,
				"scale":0.05000000074505806
			},
			"pbrMetallicRoughness":{
				"baseColorTexture":{
					"index":5
				},
				"metallicFactor":0,
				"roughnessFactor":0.5
			}
		},
		{
			"doubleSided":true,
			"extensions":{
				"KHR_materials_specular":{
					"specularFactor":0.843999981880188
				},
				"KHR_materials_ior":{
					"ior":1.4500000476837158
				}
			},
			"name":"Spline_Base.004",
			"normalTexture":{
				"index":6,
				"scale":0.30000001192092896
			},
			"pbrMetallicRoughness":{
				"baseColorTexture":{
					"index":7
				},
				"metallicFactor":0.15538389980793,
				"roughnessFactor":0.5527864098548889
			}
		},
		{
			"doubleSided":true,
			"extensions":{
				"KHR_materials_specular":{
					"specularFactor":0.7400000095367432
				},
				"KHR_materials_ior":{
					"ior":1.4500000476837158
				}
			},
			"name":"Metal_Plating.006",
			"normalTexture":{
				"index":8,
				"scale":0.5
			},
			"pbrMetallicRoughness":{
				"baseColorFactor":[
					0.27260032296180725,
					0.051950737833976746,
					0.015605289489030838,
					1
				],
				"metallicFactor":0,
				"roughnessFactor":0.5
			}
		},
		{
			"doubleSided":true,
			"extensions":{
				"KHR_materials_specular":{
					"specularColorFactor":[
						1.2960000038146973,
						1.2960000038146973,
						1.2960000038146973
					]
				},
				"KHR_materials_ior":{
					"ior":1.4500000476837158
				}
			},
			"name":"Metal_Pipe.004",
			"normalTexture":{
				"index":9,
				"scale":0.05000000074505806
			},
			"pbrMetallicRoughness":{
				"baseColorTexture":{
					"index":10
				},
				"metallicFactor":0,
				"roughnessFactor":0.5
			}
		}
	],
	"meshes":[
		{
			"name":"Scene.003",
			"primitives":[
				{
					"attributes":{
						"POSITION":0,
						"NORMAL":1,
						"TEXCOORD_0":2,
						"TEXCOORD_1":3
					},
					"indices":4,
					"material":0
				}
			]
		},
		{
			"name":"Scene.1837",
			"primitives":[
				{
					"attributes":{
						"POSITION":5,
						"NORMAL":6,
						"TEXCOORD_0":7,
						"TEXCOORD_1":8
					},
					"indices":9,
					"material":0
				}
			]
		},
		{
			"name":"Scene.1835",
			"primitives":[
				{
					"attributes":{
						"POSITION":10,
						"NORMAL":11,
						"TEXCOORD_0":12
					},
					"indices":13,
					"material":1
				},
				{
					"attributes":{
						"POSITION":14,
						"NORMAL":15,
						"TEXCOORD_0":16
					},
					"indices":17,
					"material":2
				},
				{
					"attributes":{
						"POSITION":18,
						"NORMAL":19,
						"TEXCOORD_0":20
					},
					"indices":21,
					"material":1
				},
				{
					"attributes":{
						"POSITION":22,
						"NORMAL":23,
						"TEXCOORD_0":24
					},
					"indices":25,
					"material":3
				},
				{
					"attributes":{
						"POSITION":26,
						"NORMAL":27,
						"TEXCOORD_0":28
					},
					"indices":29,
					"material":4
				},
				{
					"attributes":{
						"POSITION":30,
						"NORMAL":31,
						"TEXCOORD_0":32
					},
					"indices":33,
					"material":0
				},
				{
					"attributes":{
						"POSITION":34,
						"NORMAL":35,
						"TEXCOORD_0":36
					},
					"indices":37,
					"material":5
				}
			]
		}
	],
	"textures":[
		{
			"sampler":0,
			"source":0
		},
		{
			"sampler":0,
			"source":1
		},
		{
			"sampler":0,
			"source":2
		},
		{
			"sampler":0,
			"source":3
		},
		{
			"sampler":0,
			"source":4
		},
		{
			"sampler":0,
			"source":5
		},
		{
			"sampler":0,
			"source":6
		},
		{
			"sampler":0,
			"source":7
		},
		{
			"sampler":0,
			"source":2
		},
		{
			"sampler":0,
			"source":8
		},
		{
			"sampler":0,
			"source":9
		}
	],
	"images":[
		{
			"mimeType":"image/png",
			"name":"Wall_Normal",
			"uri":"Wall_Normal.png"
		},
		{
			"mimeType":"image/png",
			"name":"Wall_Albedo",
			"uri":"Wall_Albedo.png"
		},
		{
			"mimeType":"image/png",
			"name":"Tile_HCZCGround_Normal",
			"uri":"Tile_HCZCGround_Normal.png"
		},
		{
			"mimeType":"image/png",
			"name":"Tile_HCZGround_Albedo",
			"uri":"Tile_HCZGround_Albedo.png"
		},
		{
			"mimeType":"image/png",
			"name":"Tile_HCZConcrete_Double_Normal",
			"uri":"Tile_HCZConcrete_Double_Normal.png"
		},
		{
			"mimeType":"image/png",
			"name":"Tile_HCZConcrete_Double_Albedo",
			"uri":"Tile_HCZConcrete_Double_Albedo.png"
		},
		{
			"mimeType":"image/png",
			"name":"Tile_VentGrating_Normal",
			"uri":"Tile_VentGrating_Normal.png"
		},
		{
			"mimeType":"image/png",
			"name":"Tile_VentGrating_Albedo",
			"uri":"Tile_VentGrating_Albedo.png"
		},
		{
			"mimeType":"image/png",
			"name":"Pipes_Normal",
			"uri":"Pipes_Normal.png"
		},
		{
			"mimeType":"image/png",
			"name":"Pipes_Albedo",
			"uri":"Pipes_Albedo.png"
		}
	],
	"accessors":[
		{
			"bufferView":0,
			"componentType":5126,
			"count":24,
			"max":[
				0.004182278644293547,
				0.04172021895647049,
				0.0380617156624794
			],
			"min":[
				-0.004182278644293547,
				-0.04172021895647049,
				-0.0380617156624794
			],
			"type":"VEC3"
		},
		{
			"bufferView":1,
			"componentType":5126,
			"count":24,
			"type":"VEC3"
		},
		{
			"bufferView":2,
			"componentType":5126,
			"count":24,
			"type":"VEC2"
		},
		{
			"bufferView":3,
			"componentType":5126,
			"count":24,
			"type":"VEC2"
		},
		{
			"bufferView":4,
			"componentType":5123,
			"count":36,
			"type":"SCALAR"
		},
		{
			"bufferView":5,
			"componentType":5126,
			"count":24,
			"max":[
				0.03806169703602791,
				0.04172029346227646,
				0.004182265140116215
			],
			"min":[
				-0.03806169703602791,
				-0.04172029346227646,
				-0.004182265140116215
			],
			"type":"VEC3"
		},
		{
			"bufferView":6,
			"componentType":5126,
			"count":24,
			"type":"VEC3"
		},
		{
			"bufferView":7,
			"componentType":5126,
			"count":24,
			"type":"VEC2"
		},
		{
			"bufferView":8,
			"componentType":5126,
			"count":24,
			"type":"VEC2"
		},
		{
			"bufferView":9,
			"componentType":5123,
			"count":36,
			"type":"SCALAR"
		},
		{
			"bufferView":10,
			"componentType":5126,
			"count":60,
			"max":[
				4.303040981292725,
				0,
				10.41765022277832
			],
			"min":[
				-10.41765022277832,
				0,
				-4.397523880004883
			],
			"type":"VEC3"
		},
		{
			"bufferView":11,
			"componentType":5126,
			"count":60,
			"type":"VEC3"
		},
		{
			"bufferView":12,
			"componentType":5126,
			"count":60,
			"type":"VEC2"
		},
		{
			"bufferView":13,
			"componentType":5123,
			"count":132,
			"type":"SCALAR"
		},
		{
			"bufferView":14,
			"componentType":5126,
			"count":1152,
			"max":[
				4.297224044799805,
				5.273500442504883,
				10.218650817871094
			],
			"min":[
				-10.218650817871094,
				0,
				-4.38182258605957
			],
			"type":"VEC3"
		},
		{
			"bufferView":15,
			"componentType":5126,
			"count":1152,
			"type":"VEC3"
		},
		{
			"bufferView":16,
			"componentType":5126,
			"count":1152,
			"type":"VEC2"
		},
		{
			"bufferView":17,
			"componentType":5123,
			"count":3984,
			"type":"SCALAR"
		},
		{
			"bufferView":18,
			"componentType":5126,
			"count":24,
			"max":[
				4.29431676864624,
				5.273500442504883,
				10.119150161743164
			],
			"min":[
				-10.119150161743164,
				5.273500442504883,
				-4.373972415924072
			],
			"type":"VEC3"
		},
		{
			"bufferView":19,
			"componentType":5126,
			"count":24,
			"type":"VEC3"
		},
		{
			"bufferView":20,
			"componentType":5126,
			"count":24,
			"type":"VEC2"
		},
		{
			"bufferView":21,
			"componentType":5123,
			"count":48,
			"type":"SCALAR"
		},
		{
			"bufferView":22,
			"componentType":5126,
			"count":37,
			"max":[
				4.29431676864624,
				0.7462499737739563,
				10.119150161743164
			],
			"min":[
				-10.119150161743164,
				0,
				-4.373972415924072
			],
			"type":"VEC3"
		},
		{
			"bufferView":23,
			"componentType":5126,
			"count":37,
			"type":"VEC3"
		},
		{
			"bufferView":24,
			"componentType":5126,
			"count":37,
			"type":"VEC2"
		},
		{
			"bufferView":25,
			"componentType":5123,
			"count":48,
			"type":"SCALAR"
		},
		{
			"bufferView":26,
			"componentType":5126,
			"count":32,
			"max":[
				4.29431676864624,
				0.009949999861419201,
				10.119150161743164
			],
			"min":[
				-10.119150161743164,
				0.009949999861419201,
				-4.373972415924072
			],
			"type":"VEC3"
		},
		{
			"bufferView":27,
			"componentType":5126,
			"count":32,
			"type":"VEC3"
		},
		{
			"bufferView":28,
			"componentType":5126,
			"count":32,
			"type":"VEC2"
		},
		{
			"bufferView":29,
			"componentType":5123,
			"count":48,
			"type":"SCALAR"
		},
		{
			"bufferView":30,
			"componentType":5126,
			"count":2978,
			"max":[
				4.303040981292725,
				7.263500213623047,
				10.41765022277832
			],
			"min":[
				-10.41765022277832,
				0,
				-4.397523880004883
			],
			"type":"VEC3"
		},
		{
			"bufferView":31,
			"componentType":5126,
			"count":2978,
			"type":"VEC3"
		},
		{
			"bufferView":32,
			"componentType":5126,
			"count":2978,
			"type":"VEC2"
		},
		{
			"bufferView":33,
			"componentType":5123,
			"count":10872,
			"type":"SCALAR"
		},
		{
			"bufferView":34,
			"componentType":5126,
			"count":2688,
			"max":[
				4.234528064727783,
				3.4327516555786133,
				8.073431968688965
			],
			"min":[
				-8.073431968688965,
				1.5422518253326416,
				-4.2125701904296875
			],
			"type":"VEC3"
		},
		{
			"bufferView":35,
			"componentType":5126,
			"count":2688,
			"type":"VEC3"
		},
		{
			"bufferView":36,
			"componentType":5126,
			"count":2688,
			"type":"VEC2"
		},
		{
			"bufferView":37,
			"componentType":5123,
			"count":14976,
			"type":"SCALAR"
		}
	],
	"bufferViews":[
		{
			"buffer":0,
			"byteLength":288,
			"byteOffset":0,
			"target":34962
		},
		{
			"buffer":0,
			"byteLength":288,
			"byteOffset":288,
			"target":34962
		},
		{
			"buffer":0,
			"byteLength":192,
			"byteOffset":576,
			"target":34962
		},
		{
			"buffer":0,
			"byteLength":192,
			"byteOffset":768,
			"target":34962
		},
		{
			"buffer":0,
			"byteLength":72,
			"byteOffset":960,
			"target":34963
		},
		{
			"buffer":0,
			"byteLength":288,
			"byteOffset":1032,
			"target":34962
		},
		{
			"buffer":0,
			"byteLength":288,
			"byteOffset":1320,
			"target":34962
		},
		{
			"buffer":0,
			"byteLength":192,
			"byteOffset":1608,
			"target":34962
		},
		{
			"buffer":0,
			"byteLength":192,
			"byteOffset":1800,
			"target":34962
		},
		{
			"buffer":0,
			"byteLength":72,
			"byteOffset":1992,
			"target":34963
		},
		{
			"buffer":0,
			"byteLength":720,
			"byteOffset":2064,
			"target":34962
		},
		{
			"buffer":0,
			"byteLength":720,
			"byteOffset":2784,
			"target":34962
		},
		{
			"buffer":0,
			"byteLength":480,
			"byteOffset":3504,
			"target":34962
		},
		{
			"buffer":0,
			"byteLength":264,
			"byteOffset":3984,
			"target":34963
		},
		{
			"buffer":0,
			"byteLength":13824,
			"byteOffset":4248,
			"target":34962
		},
		{
			"buffer":0,
			"byteLength":13824,
			"byteOffset":18072,
			"target":34962
		},
		{
			"buffer":0,
			"byteLength":9216,
			"byteOffset":31896,
			"target":34962
		},
		{
			"buffer":0,
			"byteLength":7968,
			"byteOffset":41112,
			"target":34963
		},
		{
			"buffer":0,
			"byteLength":288,
			"byteOffset":49080,
			"target":34962
		},
		{
			"buffer":0,
			"byteLength":288,
			"byteOffset":49368,
			"target":34962
		},
		{
			"buffer":0,
			"byteLength":192,
			"byteOffset":49656,
			"target":34962
		},
		{
			"buffer":0,
			"byteLength":96,
			"byteOffset":49848,
			"target":34963
		},
		{
			"buffer":0,
			"byteLength":444,
			"byteOffset":49944,
			"target":34962
		},
		{
			"buffer":0,
			"byteLength":444,
			"byteOffset":50388,
			"target":34962
		},
		{
			"buffer":0,
			"byteLength":296,
			"byteOffset":50832,
			"target":34962
		},
		{
			"buffer":0,
			"byteLength":96,
			"byteOffset":51128,
			"target":34963
		},
		{
			"buffer":0,
			"byteLength":384,
			"byteOffset":51224,
			"target":34962
		},
		{
			"buffer":0,
			"byteLength":384,
			"byteOffset":51608,
			"target":34962
		},
		{
			"buffer":0,
			"byteLength":256,
			"byteOffset":51992,
			"target":34962
		},
		{
			"buffer":0,
			"byteLength":96,
			"byteOffset":52248,
			"target":34963
		},
		{
			"buffer":0,
			"byteLength":35736,
			"byteOffset":52344,
			"target":34962
		},
		{
			"buffer":0,
			"byteLength":35736,
			"byteOffset":88080,
			"target":34962
		},
		{
			"buffer":0,
			"byteLength":23824,
			"byteOffset":123816,
			"target":34962
		},
		{
			"buffer":0,
			"byteLength":21744,
			"byteOffset":147640,
			"target":34963
		},
		{
			"buffer":0,
			"byteLength":32256,
			"byteOffset":169384,
			"target":34962
		},
		{
			"buffer":0,
			"byteLength":32256,
			"byteOffset":201640,
			"target":34962
		},
		{
			"buffer":0,
			"byteLength":21504,
			"byteOffset":233896,
			"target":34962
		},
		{
			"buffer":0,
			"byteLength":29952,
			"byteOffset":255400,
			"target":34963
		}
	],
	"samplers":[
		{
			"magFilter":9729,
			"minFilter":9987
		}
	],
	"buffers":[
		{
			"byteLength":285352,
			"uri":"HC_room2C.bin"
		}
	]
}
