{
	"asset":{
		"generator":"Khronos glTF Blender I/O v4.4.55",
		"version":"2.0"
	},
	"extensionsUsed":[
		"KHR_materials_specular",
		"KHR_materials_ior"
	],
	"scene":0,
	"scenes":[
		{
			"name":"Scene",
			"nodes":[
				0
			]
		}
	],
	"nodes":[
		{
			"mesh":0,
			"name":"_3room_HCZ.002",
			"scale":[
				0.009999999776482582,
				0.009999999776482582,
				0.009999999776482582
			]
		}
	],
	"materials":[
		{
			"doubleSided":true,
			"extensions":{
				"KHR_materials_specular":{
					"specularColorFactor":[
						1.159999966621399,
						1.159999966621399,
						1.159999966621399
					]
				},
				"KHR_materials_ior":{
					"ior":1.4500000476837158
				}
			},
			"name":"Metal_Base.006",
			"normalTexture":{
				"index":0,
				"scale":0.05000000074505806
			},
			"pbrMetallicRoughness":{
				"baseColorTexture":{
					"index":1
				},
				"metallicFactor":0,
				"roughnessFactor":0.5
			}
		},
		{
			"doubleSided":true,
			"name":"Floor_Base.006",
			"normalTexture":{
				"index":2,
				"scale":0.20000000298023224
			},
			"pbrMetallicRoughness":{
				"baseColorTexture":{
					"index":3
				},
				"metallicFactor":0,
				"roughnessFactor":0.5
			}
		},
		{
			"doubleSided":true,
			"extensions":{
				"KHR_materials_specular":{
					"specularFactor":0.843999981880188
				},
				"KHR_materials_ior":{
					"ior":1.4500000476837158
				}
			},
			"name":"Spline_Base.004",
			"normalTexture":{
				"index":4,
				"scale":0.30000001192092896
			},
			"pbrMetallicRoughness":{
				"baseColorTexture":{
					"index":5
				},
				"metallicFactor":0.15538389980793,
				"roughnessFactor":0.5527864098548889
			}
		},
		{
			"doubleSided":true,
			"extensions":{
				"KHR_materials_specular":{
					"specularFactor":0.7400000095367432
				},
				"KHR_materials_ior":{
					"ior":1.4500000476837158
				}
			},
			"name":"Metal_Plating.006",
			"normalTexture":{
				"index":6,
				"scale":0.5
			},
			"pbrMetallicRoughness":{
				"baseColorFactor":[
					0.27260032296180725,
					0.051950737833976746,
					0.015605289489030838,
					1
				],
				"metallicFactor":0,
				"roughnessFactor":0.5
			}
		},
		{
			"doubleSided":true,
			"extensions":{
				"KHR_materials_specular":{
					"specularFactor":0.6000000238418579
				},
				"KHR_materials_ior":{
					"ior":1.4500000476837158
				}
			},
			"name":"Wall_Base.006",
			"normalTexture":{
				"index":7,
				"scale":0.20000000298023224
			},
			"pbrMetallicRoughness":{
				"baseColorTexture":{
					"index":8
				},
				"metallicFactor":0,
				"roughnessFactor":0.5
			}
		},
		{
			"doubleSided":true,
			"extensions":{
				"KHR_materials_specular":{
					"specularColorFactor":[
						1.2960000038146973,
						1.2960000038146973,
						1.2960000038146973
					]
				},
				"KHR_materials_ior":{
					"ior":1.4500000476837158
				}
			},
			"name":"Metal_Pipe.004",
			"normalTexture":{
				"index":9,
				"scale":0.05000000074505806
			},
			"pbrMetallicRoughness":{
				"baseColorTexture":{
					"index":10
				},
				"metallicFactor":0,
				"roughnessFactor":0.5
			}
		}
	],
	"meshes":[
		{
			"name":"Scene.232",
			"primitives":[
				{
					"attributes":{
						"POSITION":0,
						"NORMAL":1,
						"TEXCOORD_0":2
					},
					"indices":3,
					"material":0
				},
				{
					"attributes":{
						"POSITION":4,
						"NORMAL":5,
						"TEXCOORD_0":6
					},
					"indices":7,
					"material":1
				},
				{
					"attributes":{
						"POSITION":8,
						"NORMAL":9,
						"TEXCOORD_0":10
					},
					"indices":11,
					"material":2
				},
				{
					"attributes":{
						"POSITION":12,
						"NORMAL":13,
						"TEXCOORD_0":14
					},
					"indices":15,
					"material":3
				},
				{
					"attributes":{
						"POSITION":16,
						"NORMAL":17,
						"TEXCOORD_0":18
					},
					"indices":19,
					"material":1
				},
				{
					"attributes":{
						"POSITION":20,
						"NORMAL":21,
						"TEXCOORD_0":22
					},
					"indices":23,
					"material":4
				},
				{
					"attributes":{
						"POSITION":24,
						"NORMAL":25,
						"TEXCOORD_0":26
					},
					"indices":27,
					"material":5
				}
			]
		}
	],
	"textures":[
		{
			"sampler":0,
			"source":0
		},
		{
			"sampler":0,
			"source":1
		},
		{
			"sampler":0,
			"source":2
		},
		{
			"sampler":0,
			"source":3
		},
		{
			"sampler":0,
			"source":4
		},
		{
			"sampler":0,
			"source":5
		},
		{
			"sampler":0,
			"source":2
		},
		{
			"sampler":0,
			"source":6
		},
		{
			"sampler":0,
			"source":7
		},
		{
			"sampler":0,
			"source":8
		},
		{
			"sampler":0,
			"source":9
		}
	],
	"images":[
		{
			"mimeType":"image/png",
			"name":"Tile_HCZConcrete_Double_Normal",
			"uri":"Tile_HCZConcrete_Double_Normal.png"
		},
		{
			"mimeType":"image/png",
			"name":"Tile_HCZConcrete_Double_Albedo",
			"uri":"Tile_HCZConcrete_Double_Albedo.png"
		},
		{
			"mimeType":"image/png",
			"name":"Tile_HCZCGround_Normal",
			"uri":"Tile_HCZCGround_Normal.png"
		},
		{
			"mimeType":"image/png",
			"name":"Tile_HCZGround_Albedo",
			"uri":"Tile_HCZGround_Albedo.png"
		},
		{
			"mimeType":"image/png",
			"name":"Tile_VentGrating_Normal",
			"uri":"Tile_VentGrating_Normal.png"
		},
		{
			"mimeType":"image/png",
			"name":"Tile_VentGrating_Albedo",
			"uri":"Tile_VentGrating_Albedo.png"
		},
		{
			"mimeType":"image/png",
			"name":"Wall_Normal",
			"uri":"Wall_Normal.png"
		},
		{
			"mimeType":"image/png",
			"name":"Wall_Albedo",
			"uri":"Wall_Albedo.png"
		},
		{
			"mimeType":"image/png",
			"name":"Pipes_Normal",
			"uri":"Pipes_Normal.png"
		},
		{
			"mimeType":"image/png",
			"name":"Pipes_Albedo",
			"uri":"Pipes_Albedo.png"
		}
	],
	"accessors":[
		{
			"bufferView":0,
			"componentType":5126,
			"count":902,
			"max":[
				400,
				530,
				1027
			],
			"min":[
				-400,
				0,
				-400
			],
			"type":"VEC3"
		},
		{
			"bufferView":1,
			"componentType":5126,
			"count":902,
			"type":"VEC3"
		},
		{
			"bufferView":2,
			"componentType":5126,
			"count":902,
			"type":"VEC2"
		},
		{
			"bufferView":3,
			"componentType":5123,
			"count":3084,
			"type":"SCALAR"
		},
		{
			"bufferView":4,
			"componentType":5126,
			"count":18,
			"max":[
				400,
				530,
				1017
			],
			"min":[
				-400,
				530,
				-190
			],
			"type":"VEC3"
		},
		{
			"bufferView":5,
			"componentType":5126,
			"count":18,
			"type":"VEC3"
		},
		{
			"bufferView":6,
			"componentType":5126,
			"count":18,
			"type":"VEC2"
		},
		{
			"bufferView":7,
			"componentType":5123,
			"count":36,
			"type":"SCALAR"
		},
		{
			"bufferView":8,
			"componentType":5126,
			"count":34,
			"max":[
				400,
				397.5,
				1017
			],
			"min":[
				-400,
				0,
				-400
			],
			"type":"VEC3"
		},
		{
			"bufferView":9,
			"componentType":5126,
			"count":34,
			"type":"VEC3"
		},
		{
			"bufferView":10,
			"componentType":5126,
			"count":34,
			"type":"VEC2"
		},
		{
			"bufferView":11,
			"componentType":5123,
			"count":48,
			"type":"SCALAR"
		},
		{
			"bufferView":12,
			"componentType":5126,
			"count":24,
			"max":[
				400,
				1,
				1017
			],
			"min":[
				-400,
				1,
				-200
			],
			"type":"VEC3"
		},
		{
			"bufferView":13,
			"componentType":5126,
			"count":24,
			"type":"VEC3"
		},
		{
			"bufferView":14,
			"componentType":5126,
			"count":24,
			"type":"VEC2"
		},
		{
			"bufferView":15,
			"componentType":5123,
			"count":36,
			"type":"SCALAR"
		},
		{
			"bufferView":16,
			"componentType":5126,
			"count":52,
			"max":[
				400,
				0,
				1047
			],
			"min":[
				-400,
				0,
				-350
			],
			"type":"VEC3"
		},
		{
			"bufferView":17,
			"componentType":5126,
			"count":52,
			"type":"VEC3"
		},
		{
			"bufferView":18,
			"componentType":5126,
			"count":52,
			"type":"VEC2"
		},
		{
			"bufferView":19,
			"componentType":5123,
			"count":108,
			"type":"SCALAR"
		},
		{
			"bufferView":20,
			"componentType":5126,
			"count":2231,
			"max":[
				400,
				737.7239379882812,
				1047
			],
			"min":[
				-400,
				0,
				-350
			],
			"type":"VEC3"
		},
		{
			"bufferView":21,
			"componentType":5126,
			"count":2231,
			"type":"VEC3"
		},
		{
			"bufferView":22,
			"componentType":5126,
			"count":2231,
			"type":"VEC2"
		},
		{
			"bufferView":23,
			"componentType":5123,
			"count":8160,
			"type":"SCALAR"
		},
		{
			"bufferView":24,
			"componentType":5126,
			"count":2016,
			"max":[
				388.8927917480469,
				345.00018310546875,
				811.4002075195312
			],
			"min":[
				-388.8927917480469,
				155.0001983642578,
				-344.8194885253906
			],
			"type":"VEC3"
		},
		{
			"bufferView":25,
			"componentType":5126,
			"count":2016,
			"type":"VEC3"
		},
		{
			"bufferView":26,
			"componentType":5126,
			"count":2016,
			"type":"VEC2"
		},
		{
			"bufferView":27,
			"componentType":5123,
			"count":11232,
			"type":"SCALAR"
		}
	],
	"bufferViews":[
		{
			"buffer":0,
			"byteLength":10824,
			"byteOffset":0,
			"target":34962
		},
		{
			"buffer":0,
			"byteLength":10824,
			"byteOffset":10824,
			"target":34962
		},
		{
			"buffer":0,
			"byteLength":7216,
			"byteOffset":21648,
			"target":34962
		},
		{
			"buffer":0,
			"byteLength":6168,
			"byteOffset":28864,
			"target":34963
		},
		{
			"buffer":0,
			"byteLength":216,
			"byteOffset":35032,
			"target":34962
		},
		{
			"buffer":0,
			"byteLength":216,
			"byteOffset":35248,
			"target":34962
		},
		{
			"buffer":0,
			"byteLength":144,
			"byteOffset":35464,
			"target":34962
		},
		{
			"buffer":0,
			"byteLength":72,
			"byteOffset":35608,
			"target":34963
		},
		{
			"buffer":0,
			"byteLength":408,
			"byteOffset":35680,
			"target":34962
		},
		{
			"buffer":0,
			"byteLength":408,
			"byteOffset":36088,
			"target":34962
		},
		{
			"buffer":0,
			"byteLength":272,
			"byteOffset":36496,
			"target":34962
		},
		{
			"buffer":0,
			"byteLength":96,
			"byteOffset":36768,
			"target":34963
		},
		{
			"buffer":0,
			"byteLength":288,
			"byteOffset":36864,
			"target":34962
		},
		{
			"buffer":0,
			"byteLength":288,
			"byteOffset":37152,
			"target":34962
		},
		{
			"buffer":0,
			"byteLength":192,
			"byteOffset":37440,
			"target":34962
		},
		{
			"buffer":0,
			"byteLength":72,
			"byteOffset":37632,
			"target":34963
		},
		{
			"buffer":0,
			"byteLength":624,
			"byteOffset":37704,
			"target":34962
		},
		{
			"buffer":0,
			"byteLength":624,
			"byteOffset":38328,
			"target":34962
		},
		{
			"buffer":0,
			"byteLength":416,
			"byteOffset":38952,
			"target":34962
		},
		{
			"buffer":0,
			"byteLength":216,
			"byteOffset":39368,
			"target":34963
		},
		{
			"buffer":0,
			"byteLength":26772,
			"byteOffset":39584,
			"target":34962
		},
		{
			"buffer":0,
			"byteLength":26772,
			"byteOffset":66356,
			"target":34962
		},
		{
			"buffer":0,
			"byteLength":17848,
			"byteOffset":93128,
			"target":34962
		},
		{
			"buffer":0,
			"byteLength":16320,
			"byteOffset":110976,
			"target":34963
		},
		{
			"buffer":0,
			"byteLength":24192,
			"byteOffset":127296,
			"target":34962
		},
		{
			"buffer":0,
			"byteLength":24192,
			"byteOffset":151488,
			"target":34962
		},
		{
			"buffer":0,
			"byteLength":16128,
			"byteOffset":175680,
			"target":34962
		},
		{
			"buffer":0,
			"byteLength":22464,
			"byteOffset":191808,
			"target":34963
		}
	],
	"samplers":[
		{
			"magFilter":9729,
			"minFilter":9987
		}
	],
	"buffers":[
		{
			"byteLength":214272,
			"uri":"HC_room1_endroom.bin"
		}
	]
}
