{
	"asset":{
		"generator":"Khronos glTF Blender I/O v3.6.27",
		"version":"2.0"
	},
	"scene":0,
	"scenes":[
		{
			"name":"Scene",
			"nodes":[
				0
			]
		}
	],
	"nodes":[
		{
			"mesh":0,
			"name":"SprayCan",
			"rotation":[
				0.70710688829422,
				0,
				0,
				0.7071066498756409
			],
			"translation":[
				-0.00170090701431036,
				0.02273724414408207,
				0.0011538948165252805
			]
		}
	],
	"materials":[
		{
			"doubleSided":true,
			"name":"SprayPaint",
			"normalTexture":{
				"index":0
			},
			"pbrMetallicRoughness":{
				"baseColorTexture":{
					"index":1
				},
				"metallicRoughnessTexture":{
					"index":2
				}
			}
		}
	],
	"meshes":[
		{
			"name":"Cylinder.029",
			"primitives":[
				{
					"attributes":{
						"POSITION":0,
						"NORMAL":1,
						"TEXCOORD_0":2
					},
					"indices":3,
					"material":0
				}
			]
		}
	],
	"textures":[
		{
			"sampler":0,
			"source":0
		},
		{
			"sampler":0,
			"source":1
		},
		{
			"sampler":0,
			"source":2
		}
	],
	"images":[
		{
			"mimeType":"image/png",
			"name":"Paint1_SprayPaint_Normal",
			"uri":"Paint1_SprayPaint_Normal.png"
		},
		{
			"mimeType":"image/png",
			"name":"Paint1_SprayPaint_AlbedoTransparency",
			"uri":"Paint1_SprayPaint_AlbedoTransparency.png"
		},
		{
			"mimeType":"image/png",
			"name":"Paint1_SprayPaint_MetallicSmoothness",
			"uri":"Paint1_SprayPaint_MetallicSmoothness.png"
		}
	],
	"accessors":[
		{
			"bufferView":0,
			"componentType":5126,
			"count":3289,
			"max":[
				0.14546102285385132,
				0.14360453188419342,
				0.4775829613208771
			],
			"min":[
				-0.14305640757083893,
				-0.145911306142807,
				-0.46141648292541504
			],
			"type":"VEC3"
		},
		{
			"bufferView":1,
			"componentType":5126,
			"count":3289,
			"type":"VEC3"
		},
		{
			"bufferView":2,
			"componentType":5126,
			"count":3289,
			"type":"VEC2"
		},
		{
			"bufferView":3,
			"componentType":5123,
			"count":10722,
			"type":"SCALAR"
		}
	],
	"bufferViews":[
		{
			"buffer":0,
			"byteLength":39468,
			"byteOffset":0,
			"target":34962
		},
		{
			"buffer":0,
			"byteLength":39468,
			"byteOffset":39468,
			"target":34962
		},
		{
			"buffer":0,
			"byteLength":26312,
			"byteOffset":78936,
			"target":34962
		},
		{
			"buffer":0,
			"byteLength":21444,
			"byteOffset":105248,
			"target":34963
		}
	],
	"samplers":[
		{
			"magFilter":9729,
			"minFilter":9987
		}
	],
	"buffers":[
		{
			"byteLength":126692,
			"uri":"SprayPaint.bin"
		}
	]
}
