{
	"asset":{
		"generator":"Khronos glTF Blender I/O v4.4.55",
		"version":"2.0"
	},
	"scene":0,
	"scenes":[
		{
			"name":"Scene",
			"nodes":[
				0
			]
		}
	],
	"nodes":[
		{
			"mesh":0,
			"name":"Cube",
			"translation":[
				0,
				0.860662043094635,
				0
			]
		}
	],
	"materials":[
		{
			"doubleSided":true,
			"name":"Walls",
			"pbrMetallicRoughness":{
				"baseColorFactor":[
					0.800000011920929,
					0.800000011920929,
					0.800000011920929,
					1
				],
				"metallicFactor":0,
				"roughnessFactor":0.5
			}
		},
		{
			"doubleSided":true,
			"name":"Metal",
			"pbrMetallicRoughness":{
				"baseColorFactor":[
					0,
					0,
					0,
					1
				],
				"metallicFactor":0,
				"roughnessFactor":0.10629922151565552
			}
		},
		{
			"doubleSided":true,
			"name":"Floor",
			"pbrMetallicRoughness":{
				"baseColorFactor":[
					0.800000011920929,
					0.800000011920929,
					0.800000011920929,
					1
				],
				"metallicFactor":0,
				"roughnessFactor":0.5
			}
		},
		{
			"doubleSided":true,
			"name":"Ceiling",
			"pbrMetallicRoughness":{
				"baseColorFactor":[
					0.800000011920929,
					0.800000011920929,
					0.800000011920929,
					1
				],
				"metallicFactor":0,
				"roughnessFactor":0.5
			}
		}
	],
	"meshes":[
		{
			"name":"Cube.001",
			"primitives":[
				{
					"attributes":{
						"POSITION":0,
						"NORMAL":1,
						"TEXCOORD_0":2
					},
					"indices":3,
					"material":0
				},
				{
					"attributes":{
						"POSITION":4,
						"NORMAL":5,
						"TEXCOORD_0":6
					},
					"indices":7,
					"material":1
				},
				{
					"attributes":{
						"POSITION":8,
						"NORMAL":9,
						"TEXCOORD_0":10
					},
					"indices":11,
					"material":2
				},
				{
					"attributes":{
						"POSITION":12,
						"NORMAL":13,
						"TEXCOORD_0":14
					},
					"indices":15,
					"material":3
				}
			]
		}
	],
	"accessors":[
		{
			"bufferView":0,
			"componentType":5126,
			"count":38,
			"max":[
				12.251540184020996,
				12.130228996276855,
				10.235640525817871
			],
			"min":[
				-18.86572265625,
				3.1302287578582764,
				-20.778308868408203
			],
			"type":"VEC3"
		},
		{
			"bufferView":1,
			"componentType":5126,
			"count":38,
			"type":"VEC3"
		},
		{
			"bufferView":2,
			"componentType":5126,
			"count":38,
			"type":"VEC2"
		},
		{
			"bufferView":3,
			"componentType":5123,
			"count":72,
			"type":"SCALAR"
		},
		{
			"bufferView":4,
			"componentType":5126,
			"count":99,
			"max":[
				12.251540184020996,
				12.100085258483887,
				10.235640525817871
			],
			"min":[
				-18.86572265625,
				-2.1302287578582764,
				-20.778308868408203
			],
			"type":"VEC3"
		},
		{
			"bufferView":5,
			"componentType":5126,
			"count":99,
			"type":"VEC3"
		},
		{
			"bufferView":6,
			"componentType":5126,
			"count":99,
			"type":"VEC2"
		},
		{
			"bufferView":7,
			"componentType":5123,
			"count":186,
			"type":"SCALAR"
		},
		{
			"bufferView":8,
			"componentType":5126,
			"count":23,
			"max":[
				12.251540184020996,
				3.1302287578582764,
				10.235640525817871
			],
			"min":[
				-18.86572265625,
				-2.1302287578582764,
				-20.778308868408203
			],
			"type":"VEC3"
		},
		{
			"bufferView":9,
			"componentType":5126,
			"count":23,
			"type":"VEC3"
		},
		{
			"bufferView":10,
			"componentType":5126,
			"count":23,
			"type":"VEC2"
		},
		{
			"bufferView":11,
			"componentType":5123,
			"count":51,
			"type":"SCALAR"
		},
		{
			"bufferView":12,
			"componentType":5126,
			"count":32,
			"max":[
				12.251540184020996,
				12.130228996276855,
				10.235640525817871
			],
			"min":[
				-18.86572265625,
				6.5828633308410645,
				-20.778308868408203
			],
			"type":"VEC3"
		},
		{
			"bufferView":13,
			"componentType":5126,
			"count":32,
			"type":"VEC3"
		},
		{
			"bufferView":14,
			"componentType":5126,
			"count":32,
			"type":"VEC2"
		},
		{
			"bufferView":15,
			"componentType":5123,
			"count":48,
			"type":"SCALAR"
		}
	],
	"bufferViews":[
		{
			"buffer":0,
			"byteLength":456,
			"byteOffset":0,
			"target":34962
		},
		{
			"buffer":0,
			"byteLength":456,
			"byteOffset":456,
			"target":34962
		},
		{
			"buffer":0,
			"byteLength":304,
			"byteOffset":912,
			"target":34962
		},
		{
			"buffer":0,
			"byteLength":144,
			"byteOffset":1216,
			"target":34963
		},
		{
			"buffer":0,
			"byteLength":1188,
			"byteOffset":1360,
			"target":34962
		},
		{
			"buffer":0,
			"byteLength":1188,
			"byteOffset":2548,
			"target":34962
		},
		{
			"buffer":0,
			"byteLength":792,
			"byteOffset":3736,
			"target":34962
		},
		{
			"buffer":0,
			"byteLength":372,
			"byteOffset":4528,
			"target":34963
		},
		{
			"buffer":0,
			"byteLength":276,
			"byteOffset":4900,
			"target":34962
		},
		{
			"buffer":0,
			"byteLength":276,
			"byteOffset":5176,
			"target":34962
		},
		{
			"buffer":0,
			"byteLength":184,
			"byteOffset":5452,
			"target":34962
		},
		{
			"buffer":0,
			"byteLength":102,
			"byteOffset":5636,
			"target":34963
		},
		{
			"buffer":0,
			"byteLength":384,
			"byteOffset":5740,
			"target":34962
		},
		{
			"buffer":0,
			"byteLength":384,
			"byteOffset":6124,
			"target":34962
		},
		{
			"buffer":0,
			"byteLength":256,
			"byteOffset":6508,
			"target":34962
		},
		{
			"buffer":0,
			"byteLength":96,
			"byteOffset":6764,
			"target":34963
		}
	],
	"buffers":[
		{
			"byteLength":6860,
			"uri":"cont1_914.bin"
		}
	]
}
