{
	"asset":{
		"generator":"Khronos glTF Blender I/O v4.4.55",
		"version":"2.0"
	},
	"scene":0,
	"scenes":[
		{
			"name":"Scene",
			"nodes":[
				0
			]
		}
	],
	"nodes":[
		{
			"mesh":0,
			"name":"Cube",
			"translation":[
				0,
				0.860662043094635,
				0
			]
		}
	],
	"materials":[
		{
			"doubleSided":true,
			"name":"Walls",
			"pbrMetallicRoughness":{
				"baseColorFactor":[
					0.800000011920929,
					0.800000011920929,
					0.800000011920929,
					1
				],
				"metallicFactor":0,
				"roughnessFactor":0.5
			}
		},
		{
			"doubleSided":true,
			"name":"Ceiling",
			"pbrMetallicRoughness":{
				"baseColorFactor":[
					0.800000011920929,
					0.800000011920929,
					0.800000011920929,
					1
				],
				"metallicFactor":0,
				"roughnessFactor":0.5
			}
		},
		{
			"doubleSided":true,
			"name":"Floor",
			"pbrMetallicRoughness":{
				"baseColorFactor":[
					0.800000011920929,
					0.800000011920929,
					0.800000011920929,
					1
				],
				"metallicFactor":0,
				"roughnessFactor":0.5
			}
		},
		{
			"doubleSided":true,
			"name":"Concrete",
			"pbrMetallicRoughness":{
				"baseColorFactor":[
					0.800000011920929,
					0.800000011920929,
					0.800000011920929,
					1
				],
				"metallicFactor":0,
				"roughnessFactor":0.5
			}
		}
	],
	"meshes":[
		{
			"name":"Cube.001",
			"primitives":[
				{
					"attributes":{
						"POSITION":0,
						"NORMAL":1,
						"TEXCOORD_0":2
					},
					"indices":3,
					"material":0
				},
				{
					"attributes":{
						"POSITION":4,
						"NORMAL":5,
						"TEXCOORD_0":6
					},
					"indices":7,
					"material":1
				},
				{
					"attributes":{
						"POSITION":8,
						"NORMAL":9,
						"TEXCOORD_0":10
					},
					"indices":11,
					"material":2
				},
				{
					"attributes":{
						"POSITION":12,
						"NORMAL":13,
						"TEXCOORD_0":14
					},
					"indices":15,
					"material":3
				}
			]
		}
	],
	"accessors":[
		{
			"bufferView":0,
			"componentType":5126,
			"count":53,
			"max":[
				15.086166381835938,
				10.814663887023926,
				10.310352325439453
			],
			"min":[
				-14.605216979980469,
				-22.185335159301758,
				-22.689647674560547
			],
			"type":"VEC3"
		},
		{
			"bufferView":1,
			"componentType":5126,
			"count":53,
			"type":"VEC3"
		},
		{
			"bufferView":2,
			"componentType":5126,
			"count":53,
			"type":"VEC2"
		},
		{
			"bufferView":3,
			"componentType":5123,
			"count":81,
			"type":"SCALAR"
		},
		{
			"bufferView":4,
			"componentType":5126,
			"count":4,
			"max":[
				15.086166381835938,
				10.814663887023926,
				10.310352325439453
			],
			"min":[
				-14.57457447052002,
				10.814663887023926,
				-22.689647674560547
			],
			"type":"VEC3"
		},
		{
			"bufferView":5,
			"componentType":5126,
			"count":4,
			"type":"VEC3"
		},
		{
			"bufferView":6,
			"componentType":5126,
			"count":4,
			"type":"VEC2"
		},
		{
			"bufferView":7,
			"componentType":5123,
			"count":6,
			"type":"SCALAR"
		},
		{
			"bufferView":8,
			"componentType":5126,
			"count":16,
			"max":[
				15.081526756286621,
				-2.1353354454040527,
				10.228649139404297
			],
			"min":[
				-14.605216979980469,
				-2.135335922241211,
				-23.62181282043457
			],
			"type":"VEC3"
		},
		{
			"bufferView":9,
			"componentType":5126,
			"count":16,
			"type":"VEC3"
		},
		{
			"bufferView":10,
			"componentType":5126,
			"count":16,
			"type":"VEC2"
		},
		{
			"bufferView":11,
			"componentType":5123,
			"count":42,
			"type":"SCALAR"
		},
		{
			"bufferView":12,
			"componentType":5126,
			"count":205,
			"max":[
				26.487537384033203,
				10.814663887023926,
				10.310352325439453
			],
			"min":[
				-14.605216979980469,
				-30.13533592224121,
				-22.689647674560547
			],
			"type":"VEC3"
		},
		{
			"bufferView":13,
			"componentType":5126,
			"count":205,
			"type":"VEC3"
		},
		{
			"bufferView":14,
			"componentType":5126,
			"count":205,
			"type":"VEC2"
		},
		{
			"bufferView":15,
			"componentType":5123,
			"count":369,
			"type":"SCALAR"
		}
	],
	"bufferViews":[
		{
			"buffer":0,
			"byteLength":636,
			"byteOffset":0,
			"target":34962
		},
		{
			"buffer":0,
			"byteLength":636,
			"byteOffset":636,
			"target":34962
		},
		{
			"buffer":0,
			"byteLength":424,
			"byteOffset":1272,
			"target":34962
		},
		{
			"buffer":0,
			"byteLength":162,
			"byteOffset":1696,
			"target":34963
		},
		{
			"buffer":0,
			"byteLength":48,
			"byteOffset":1860,
			"target":34962
		},
		{
			"buffer":0,
			"byteLength":48,
			"byteOffset":1908,
			"target":34962
		},
		{
			"buffer":0,
			"byteLength":32,
			"byteOffset":1956,
			"target":34962
		},
		{
			"buffer":0,
			"byteLength":12,
			"byteOffset":1988,
			"target":34963
		},
		{
			"buffer":0,
			"byteLength":192,
			"byteOffset":2000,
			"target":34962
		},
		{
			"buffer":0,
			"byteLength":192,
			"byteOffset":2192,
			"target":34962
		},
		{
			"buffer":0,
			"byteLength":128,
			"byteOffset":2384,
			"target":34962
		},
		{
			"buffer":0,
			"byteLength":84,
			"byteOffset":2512,
			"target":34963
		},
		{
			"buffer":0,
			"byteLength":2460,
			"byteOffset":2596,
			"target":34962
		},
		{
			"buffer":0,
			"byteLength":2460,
			"byteOffset":5056,
			"target":34962
		},
		{
			"buffer":0,
			"byteLength":1640,
			"byteOffset":7516,
			"target":34962
		},
		{
			"buffer":0,
			"byteLength":738,
			"byteOffset":9156,
			"target":34963
		}
	],
	"buffers":[
		{
			"byteLength":9896,
			"uri":"cont1_812.bin"
		}
	]
}
