{
	"asset":{
		"generator":"Khronos glTF Blender I/O v4.4.55",
		"version":"2.0"
	},
	"scene":0,
	"scenes":[
		{
			"name":"Scene",
			"nodes":[
				0
			]
		}
	],
	"nodes":[
		{
			"mesh":0,
			"name":"Cube",
			"translation":[
				0,
				0.860662043094635,
				0
			]
		}
	],
	"materials":[
		{
			"doubleSided":true,
			"name":"Walls",
			"pbrMetallicRoughness":{
				"baseColorFactor":[
					0.800000011920929,
					0.800000011920929,
					0.800000011920929,
					1
				],
				"metallicFactor":0,
				"roughnessFactor":0.5
			}
		},
		{
			"doubleSided":true,
			"name":"Floor",
			"pbrMetallicRoughness":{
				"baseColorFactor":[
					0.800000011920929,
					0.800000011920929,
					0.800000011920929,
					1
				],
				"metallicFactor":0,
				"roughnessFactor":0.5
			}
		},
		{
			"doubleSided":true,
			"name":"Ceiling",
			"pbrMetallicRoughness":{
				"baseColorFactor":[
					0.800000011920929,
					0.800000011920929,
					0.800000011920929,
					1
				],
				"metallicFactor":0,
				"roughnessFactor":0.5
			}
		},
		{
			"doubleSided":true,
			"name":"Firecool",
			"pbrMetallicRoughness":{
				"baseColorFactor":[
					0.800000011920929,
					0.800000011920929,
					0.800000011920929,
					1
				],
				"metallicFactor":0,
				"roughnessFactor":0.5
			}
		}
	],
	"meshes":[
		{
			"name":"Cube.001",
			"primitives":[
				{
					"attributes":{
						"POSITION":0,
						"NORMAL":1,
						"TEXCOORD_0":2
					},
					"indices":3,
					"material":0
				},
				{
					"attributes":{
						"POSITION":4,
						"NORMAL":5,
						"TEXCOORD_0":6
					},
					"indices":7,
					"material":1
				},
				{
					"attributes":{
						"POSITION":8,
						"NORMAL":9,
						"TEXCOORD_0":10
					},
					"indices":11,
					"material":2
				},
				{
					"attributes":{
						"POSITION":12,
						"NORMAL":13,
						"TEXCOORD_0":14
					},
					"indices":15,
					"material":3
				}
			]
		}
	],
	"accessors":[
		{
			"bufferView":0,
			"componentType":5126,
			"count":139,
			"max":[
				11.307816505432129,
				13.520517349243164,
				10.24095630645752
			],
			"min":[
				-8.66105842590332,
				-2.1313047409057617,
				-9.59759521484375
			],
			"type":"VEC3"
		},
		{
			"bufferView":1,
			"componentType":5126,
			"count":139,
			"type":"VEC3"
		},
		{
			"bufferView":2,
			"componentType":5126,
			"count":139,
			"type":"VEC2"
		},
		{
			"bufferView":3,
			"componentType":5123,
			"count":249,
			"type":"SCALAR"
		},
		{
			"bufferView":4,
			"componentType":5126,
			"count":18,
			"max":[
				11.307816505432129,
				-2.115445613861084,
				10.24095630645752
			],
			"min":[
				-8.660304069519043,
				-2.1313047409057617,
				-9.585713386535645
			],
			"type":"VEC3"
		},
		{
			"bufferView":5,
			"componentType":5126,
			"count":18,
			"type":"VEC3"
		},
		{
			"bufferView":6,
			"componentType":5126,
			"count":18,
			"type":"VEC2"
		},
		{
			"bufferView":7,
			"componentType":5123,
			"count":30,
			"type":"SCALAR"
		},
		{
			"bufferView":8,
			"componentType":5126,
			"count":21,
			"max":[
				11.307816505432129,
				13.520517349243164,
				10.240955352783203
			],
			"min":[
				-8.66105842590332,
				5.122837066650391,
				-9.59759521484375
			],
			"type":"VEC3"
		},
		{
			"bufferView":9,
			"componentType":5126,
			"count":21,
			"type":"VEC3"
		},
		{
			"bufferView":10,
			"componentType":5126,
			"count":21,
			"type":"VEC2"
		},
		{
			"bufferView":11,
			"componentType":5123,
			"count":39,
			"type":"SCALAR"
		},
		{
			"bufferView":12,
			"componentType":5126,
			"count":80,
			"max":[
				11.307801246643066,
				13.520517349243164,
				10.235623359680176
			],
			"min":[
				-5.431649208068848,
				-2.1295857429504395,
				-9.59759521484375
			],
			"type":"VEC3"
		},
		{
			"bufferView":13,
			"componentType":5126,
			"count":80,
			"type":"VEC3"
		},
		{
			"bufferView":14,
			"componentType":5126,
			"count":80,
			"type":"VEC2"
		},
		{
			"bufferView":15,
			"componentType":5123,
			"count":132,
			"type":"SCALAR"
		}
	],
	"bufferViews":[
		{
			"buffer":0,
			"byteLength":1668,
			"byteOffset":0,
			"target":34962
		},
		{
			"buffer":0,
			"byteLength":1668,
			"byteOffset":1668,
			"target":34962
		},
		{
			"buffer":0,
			"byteLength":1112,
			"byteOffset":3336,
			"target":34962
		},
		{
			"buffer":0,
			"byteLength":498,
			"byteOffset":4448,
			"target":34963
		},
		{
			"buffer":0,
			"byteLength":216,
			"byteOffset":4948,
			"target":34962
		},
		{
			"buffer":0,
			"byteLength":216,
			"byteOffset":5164,
			"target":34962
		},
		{
			"buffer":0,
			"byteLength":144,
			"byteOffset":5380,
			"target":34962
		},
		{
			"buffer":0,
			"byteLength":60,
			"byteOffset":5524,
			"target":34963
		},
		{
			"buffer":0,
			"byteLength":252,
			"byteOffset":5584,
			"target":34962
		},
		{
			"buffer":0,
			"byteLength":252,
			"byteOffset":5836,
			"target":34962
		},
		{
			"buffer":0,
			"byteLength":168,
			"byteOffset":6088,
			"target":34962
		},
		{
			"buffer":0,
			"byteLength":78,
			"byteOffset":6256,
			"target":34963
		},
		{
			"buffer":0,
			"byteLength":960,
			"byteOffset":6336,
			"target":34962
		},
		{
			"buffer":0,
			"byteLength":960,
			"byteOffset":7296,
			"target":34962
		},
		{
			"buffer":0,
			"byteLength":640,
			"byteOffset":8256,
			"target":34962
		},
		{
			"buffer":0,
			"byteLength":264,
			"byteOffset":8896,
			"target":34963
		}
	],
	"buffers":[
		{
			"byteLength":9160,
			"uri":"cont1_266_v2.bin"
		}
	]
}
