{
	"asset":{
		"generator":"Khronos glTF Blender I/O v4.4.55",
		"version":"2.0"
	},
	"scene":0,
	"scenes":[
		{
			"name":"Scene",
			"nodes":[
				0,
				1
			]
		}
	],
	"nodes":[
		{
			"mesh":0,
			"name":"Cube",
			"translation":[
				0,
				0.860662043094635,
				0
			]
		},
		{
			"mesh":1,
			"name":"Cube.001",
			"translation":[
				0.7905378341674805,
				-0.25857263803482056,
				0
			]
		}
	],
	"materials":[
		{
			"doubleSided":true,
			"name":"Walls",
			"pbrMetallicRoughness":{
				"baseColorFactor":[
					0.800000011920929,
					0.800000011920929,
					0.800000011920929,
					1
				],
				"metallicFactor":0,
				"roughnessFactor":0.5
			}
		},
		{
			"doubleSided":true,
			"name":"Floor",
			"pbrMetallicRoughness":{
				"baseColorFactor":[
					0.800000011920929,
					0.800000011920929,
					0.800000011920929,
					1
				],
				"metallicFactor":0,
				"roughnessFactor":0.5
			}
		},
		{
			"doubleSided":true,
			"name":"Ceiling",
			"pbrMetallicRoughness":{
				"baseColorFactor":[
					0.800000011920929,
					0.800000011920929,
					0.800000011920929,
					1
				],
				"metallicFactor":0,
				"roughnessFactor":0.5
			}
		},
		{
			"doubleSided":true,
			"name":"Material",
			"pbrMetallicRoughness":{
				"baseColorFactor":[
					0,
					0,
					0,
					1
				],
				"metallicFactor":0,
				"roughnessFactor":0.5
			}
		}
	],
	"meshes":[
		{
			"name":"Cube.001",
			"primitives":[
				{
					"attributes":{
						"POSITION":0,
						"NORMAL":1,
						"TEXCOORD_0":2
					},
					"indices":3,
					"material":0
				},
				{
					"attributes":{
						"POSITION":4,
						"NORMAL":5,
						"TEXCOORD_0":6
					},
					"indices":7,
					"material":1
				},
				{
					"attributes":{
						"POSITION":8,
						"NORMAL":9,
						"TEXCOORD_0":10
					},
					"indices":11,
					"material":2
				}
			]
		},
		{
			"name":"Cube",
			"primitives":[
				{
					"attributes":{
						"POSITION":12,
						"NORMAL":13,
						"TEXCOORD_0":14
					},
					"indices":15,
					"material":3
				}
			]
		}
	],
	"accessors":[
		{
			"bufferView":0,
			"componentType":5126,
			"count":44,
			"max":[
				10.007447242736816,
				7.130502700805664,
				10.24095630645752
			],
			"min":[
				-8.66105842590332,
				-2.1302287578582764,
				-7.022310733795166
			],
			"type":"VEC3"
		},
		{
			"bufferView":1,
			"componentType":5126,
			"count":44,
			"type":"VEC3"
		},
		{
			"bufferView":2,
			"componentType":5126,
			"count":44,
			"type":"VEC2"
		},
		{
			"bufferView":3,
			"componentType":5123,
			"count":66,
			"type":"SCALAR"
		},
		{
			"bufferView":4,
			"componentType":5126,
			"count":6,
			"max":[
				10.007447242736816,
				-2.115445613861084,
				10.24095630645752
			],
			"min":[
				-8.660304069519043,
				-2.1302287578582764,
				-7.021469593048096
			],
			"type":"VEC3"
		},
		{
			"bufferView":5,
			"componentType":5126,
			"count":6,
			"type":"VEC3"
		},
		{
			"bufferView":6,
			"componentType":5126,
			"count":6,
			"type":"VEC2"
		},
		{
			"bufferView":7,
			"componentType":5123,
			"count":12,
			"type":"SCALAR"
		},
		{
			"bufferView":8,
			"componentType":5126,
			"count":6,
			"max":[
				10.006691932678223,
				7.130502700805664,
				10.240114212036133
			],
			"min":[
				-8.66105842590332,
				7.115445137023926,
				-7.022310733795166
			],
			"type":"VEC3"
		},
		{
			"bufferView":9,
			"componentType":5126,
			"count":6,
			"type":"VEC3"
		},
		{
			"bufferView":10,
			"componentType":5126,
			"count":6,
			"type":"VEC2"
		},
		{
			"bufferView":11,
			"componentType":5123,
			"count":12,
			"type":"SCALAR"
		},
		{
			"bufferView":12,
			"componentType":5126,
			"count":184,
			"max":[
				5,
				2,
				5
			],
			"min":[
				-5,
				-1,
				-5
			],
			"type":"VEC3"
		},
		{
			"bufferView":13,
			"componentType":5126,
			"count":184,
			"type":"VEC3"
		},
		{
			"bufferView":14,
			"componentType":5126,
			"count":184,
			"type":"VEC2"
		},
		{
			"bufferView":15,
			"componentType":5123,
			"count":468,
			"type":"SCALAR"
		}
	],
	"bufferViews":[
		{
			"buffer":0,
			"byteLength":528,
			"byteOffset":0,
			"target":34962
		},
		{
			"buffer":0,
			"byteLength":528,
			"byteOffset":528,
			"target":34962
		},
		{
			"buffer":0,
			"byteLength":352,
			"byteOffset":1056,
			"target":34962
		},
		{
			"buffer":0,
			"byteLength":132,
			"byteOffset":1408,
			"target":34963
		},
		{
			"buffer":0,
			"byteLength":72,
			"byteOffset":1540,
			"target":34962
		},
		{
			"buffer":0,
			"byteLength":72,
			"byteOffset":1612,
			"target":34962
		},
		{
			"buffer":0,
			"byteLength":48,
			"byteOffset":1684,
			"target":34962
		},
		{
			"buffer":0,
			"byteLength":24,
			"byteOffset":1732,
			"target":34963
		},
		{
			"buffer":0,
			"byteLength":72,
			"byteOffset":1756,
			"target":34962
		},
		{
			"buffer":0,
			"byteLength":72,
			"byteOffset":1828,
			"target":34962
		},
		{
			"buffer":0,
			"byteLength":48,
			"byteOffset":1900,
			"target":34962
		},
		{
			"buffer":0,
			"byteLength":24,
			"byteOffset":1948,
			"target":34963
		},
		{
			"buffer":0,
			"byteLength":2208,
			"byteOffset":1972,
			"target":34962
		},
		{
			"buffer":0,
			"byteLength":2208,
			"byteOffset":4180,
			"target":34962
		},
		{
			"buffer":0,
			"byteLength":1472,
			"byteOffset":6388,
			"target":34962
		},
		{
			"buffer":0,
			"byteLength":936,
			"byteOffset":7860,
			"target":34963
		}
	],
	"buffers":[
		{
			"byteLength":8796,
			"uri":"cont1_162.bin"
		}
	]
}
