# Blender v3.0.0 OBJ File: ''
# www.blender.org
mtllib floor.mtl
o floor
v -9.999360 -0.009767 9.999359
v 9.999364 -0.009767 9.999359
v 9.999364 -0.000002 9.999359
v -9.999360 -0.000002 9.999359
v -9.999360 0.000002 -9.999359
v 9.999364 0.000002 -9.999359
v 9.999364 -0.009763 -9.999359
v -9.999360 -0.009763 -9.999359
v -9.999360 -0.009767 9.999359
v -9.999360 -0.009763 -9.999359
v 9.999364 -0.009763 -9.999359
v 9.999364 -0.009767 9.999359
v 9.999364 -0.000002 9.999359
v 9.999364 0.000002 -9.999359
v -9.999360 0.000002 -9.999359
v -9.999360 -0.000002 9.999359
v -9.999360 -0.009767 9.999359
v -9.999360 -0.000002 9.999359
v -9.999360 0.000002 -9.999359
v -9.999360 -0.009763 -9.999359
v 9.999364 -0.009763 -9.999359
v 9.999364 0.000002 -9.999359
v 9.999364 -0.000002 9.999359
v 9.999364 -0.009767 9.999359
vn 0.0000 0.0000 1.0000
vn 0.0000 0.0000 -1.0000
vn 0.0000 -1.0000 -0.0000
vn 0.0000 1.0000 0.0000
vn -1.0000 0.0000 0.0000
vn 1.0000 0.0000 0.0000
usemtl Default_OBJ
s 1
f 1//1 2//1 3//1 4//1
f 5//2 6//2 7//2 8//2
f 9//3 10//3 11//3 12//3
f 13//4 14//4 15//4 16//4
f 17//5 18//5 19//5 20//5
f 21//6 22//6 23//6 24//6
