# Blender v3.0.0 OBJ File: ''
# www.blender.org
mtllib room4_nofloor.mtl
o room4_templatewofloor
v 0.937440 0.000002 -9.686880
v 1.015560 0.000002 -9.686880
v 1.015560 3.202922 -9.686879
v 0.937440 3.202922 -9.686879
v 0.937440 0.000002 -9.686880
v 0.937440 0.000002 -9.999359
v 1.015560 0.000002 -9.999359
v 1.015560 0.000002 -9.686880
v 1.015560 0.000002 -9.686880
v 1.015560 0.000002 -9.999359
v 1.015560 3.202922 -9.999358
v 1.015560 3.202922 -9.686879
v 0.937440 3.202922 -9.999358
v 0.937440 3.202922 -9.686879
v 1.015560 3.202922 -9.686879
v 1.015560 3.202922 -9.999358
v 0.937440 0.000002 -9.686880
v 0.937440 3.202922 -9.686879
v 0.937440 3.202922 -9.999358
v 0.937440 0.000002 -9.999359
v 0.937440 3.202922 -9.999358
v 1.015560 3.202922 -9.999358
v 1.015560 0.000002 -9.999359
v 0.937440 0.000002 -9.999359
v -0.937441 0.000002 -9.686880
v -0.937441 3.202922 -9.686879
v -1.015560 3.202922 -9.686879
v -1.015560 0.000002 -9.686880
v -1.015560 0.000002 -9.686880
v -1.015560 0.000002 -9.999359
v -0.937441 0.000002 -9.999359
v -0.937441 0.000002 -9.686880
v -1.015560 0.000002 -9.686880
v -1.015560 3.202922 -9.686879
v -1.015560 3.202922 -9.999358
v -1.015560 0.000002 -9.999359
v -0.937441 3.202922 -9.686879
v -0.937441 3.202922 -9.999358
v -1.015560 3.202922 -9.999358
v -1.015560 3.202922 -9.686879
v -0.937441 3.202922 -9.999358
v -0.937441 3.202922 -9.686879
v -0.937441 0.000002 -9.686880
v -0.937441 0.000002 -9.999359
v -1.015560 3.202922 -9.999358
v -0.937441 3.202922 -9.999358
v -0.937441 0.000002 -9.999359
v -1.015560 0.000002 -9.999359
v 0.937440 3.124801 -9.686879
v 0.937440 3.202922 -9.686879
v -0.937440 3.202922 -9.686879
v -0.937440 3.124801 -9.686879
v -0.937440 3.202922 -9.999358
v -0.937440 3.202922 -9.686879
v 0.937440 3.202922 -9.686879
v 0.937440 3.202922 -9.999358
v -0.937440 3.202922 -9.686879
v -0.937440 3.202922 -9.999358
v -0.937440 3.124801 -9.999358
v -0.937440 3.124801 -9.686879
v 0.937440 3.202922 -9.999358
v 0.937440 3.202922 -9.686879
v 0.937440 3.124801 -9.686879
v 0.937440 3.124801 -9.999358
v -0.937440 3.124801 -9.686879
v -0.937440 3.124801 -9.999358
v 0.937440 3.124801 -9.999358
v 0.937440 3.124801 -9.686879
v -0.937440 3.202922 -9.999358
v 0.937440 3.202922 -9.999358
v 0.937440 3.124801 -9.999358
v -0.937440 3.124801 -9.999358
v 0.937440 -0.000002 9.999359
v 1.015560 -0.000002 9.999359
v 1.015560 3.202918 9.999360
v 0.937440 3.202918 9.999360
v 0.937440 -0.000002 9.999359
v 0.937440 -0.000002 9.686880
v 1.015560 -0.000002 9.686880
v 1.015560 -0.000002 9.999359
v 1.015560 -0.000002 9.999359
v 1.015560 -0.000002 9.686880
v 1.015560 3.202918 9.686881
v 1.015560 3.202918 9.999360
v 0.937440 3.202918 9.686881
v 0.937440 3.202918 9.999360
v 1.015560 3.202918 9.999360
v 1.015560 3.202918 9.686881
v 0.937440 -0.000002 9.999359
v 0.937440 3.202918 9.999360
v 0.937440 3.202918 9.686881
v 0.937440 -0.000002 9.686880
v 0.937440 3.202918 9.686881
v 1.015560 3.202918 9.686881
v 1.015560 -0.000002 9.686880
v 0.937440 -0.000002 9.686880
v -9.999359 0.000000 -0.937440
v -9.686880 0.000000 -0.937440
v -9.686880 3.202920 -0.937439
v -9.999359 3.202920 -0.937439
v -9.686880 0.000000 -1.015560
v -9.999359 0.000000 -1.015560
v -9.999359 3.202920 -1.015559
v -9.686880 3.202920 -1.015559
v -9.999359 0.000000 -1.015560
v -9.999359 0.000000 -0.937440
v -9.999359 3.202920 -0.937439
v -9.999359 3.202920 -1.015559
v -9.686880 0.000000 -0.937440
v -9.686880 0.000000 -1.015560
v -9.686880 3.202920 -1.015559
v -9.686880 3.202920 -0.937439
v -9.999359 3.202920 -0.937439
v -9.686880 3.202920 -0.937439
v -9.686880 3.202920 -1.015559
v -9.999359 3.202920 -1.015559
v -9.999359 0.000000 -1.015560
v -9.686880 0.000000 -1.015560
v -9.686880 0.000000 -0.937440
v -9.999359 0.000000 -0.937440
v 0.937440 3.124797 9.999360
v 0.937440 3.202918 9.999360
v -0.937440 3.202918 9.999360
v -0.937440 3.124797 9.999360
v -0.937440 3.202918 9.686881
v -0.937440 3.202918 9.999360
v 0.937440 3.202918 9.999360
v 0.937440 3.202918 9.686881
v -0.937440 3.202918 9.999360
v -0.937440 3.202918 9.686881
v -0.937440 3.124797 9.686881
v -0.937440 3.124797 9.999360
v 0.937440 3.202918 9.686881
v 0.937440 3.202918 9.999360
v 0.937440 3.124797 9.999360
v 0.937440 3.124797 9.686881
v -0.937440 3.124797 9.999360
v -0.937440 3.124797 9.686881
v 0.937440 3.124797 9.686881
v 0.937440 3.124797 9.999360
v -0.937440 3.202918 9.686881
v 0.937440 3.202918 9.686881
v 0.937440 3.124797 9.686881
v -0.937440 3.124797 9.686881
v -0.937440 -0.000002 9.999359
v -0.937440 3.202918 9.999360
v -1.015560 3.202918 9.999360
v -1.015560 -0.000002 9.999359
v -1.015560 -0.000002 9.999359
v -1.015560 -0.000002 9.686880
v -0.937440 -0.000002 9.686880
v -0.937440 -0.000002 9.999359
v -1.015560 -0.000002 9.999359
v -1.015560 3.202918 9.999360
v -1.015560 3.202918 9.686881
v -1.015560 -0.000002 9.686880
v -0.937440 3.202918 9.999360
v -0.937440 3.202918 9.686881
v -1.015560 3.202918 9.686881
v -1.015560 3.202918 9.999360
v -0.937440 3.202918 9.686881
v -0.937440 3.202918 9.999360
v -0.937440 -0.000002 9.999359
v -0.937440 -0.000002 9.686880
v -1.015560 3.202918 9.686881
v -0.937440 3.202918 9.686881
v -0.937440 -0.000002 9.686880
v -1.015560 -0.000002 9.686880
v 9.686880 0.000000 -0.937440
v 9.999359 0.000000 -0.937440
v 9.999359 3.202920 -0.937439
v 9.686880 3.202920 -0.937439
v 9.999359 0.000000 -1.015560
v 9.686880 0.000000 -1.015560
v 9.686880 3.202920 -1.015559
v 9.999359 3.202920 -1.015559
v 9.686880 0.000000 -1.015560
v 9.686880 0.000000 -0.937440
v 9.686880 3.202920 -0.937439
v 9.686880 3.202920 -1.015559
v 9.999359 0.000000 -0.937440
v 9.999359 0.000000 -1.015560
v 9.999359 3.202920 -1.015559
v 9.999359 3.202920 -0.937439
v 9.686880 3.202920 -0.937439
v 9.999359 3.202920 -0.937439
v 9.999359 3.202920 -1.015559
v 9.686880 3.202920 -1.015559
v 9.686880 0.000000 -1.015560
v 9.999359 0.000000 -1.015560
v 9.999359 0.000000 -0.937440
v 9.686880 0.000000 -0.937440
v -9.999359 -0.000000 1.015560
v -9.686880 -0.000000 1.015560
v -9.686880 3.202920 1.015560
v -9.999359 3.202920 1.015560
v -9.686880 -0.000000 0.937440
v -9.999359 -0.000000 0.937440
v -9.999359 3.202920 0.937441
v -9.686880 3.202920 0.937441
v -9.999359 -0.000000 0.937440
v -9.999359 -0.000000 1.015560
v -9.999359 3.202920 1.015560
v -9.999359 3.202920 0.937441
v -9.686880 -0.000000 1.015560
v -9.686880 -0.000000 0.937440
v -9.686880 3.202920 0.937441
v -9.686880 3.202920 1.015560
v -9.999359 3.202920 1.015560
v -9.686880 3.202920 1.015560
v -9.686880 3.202920 0.937441
v -9.999359 3.202920 0.937441
v -9.999359 -0.000000 0.937440
v -9.686880 -0.000000 0.937440
v -9.686880 -0.000000 1.015560
v -9.999359 -0.000000 1.015560
v -9.999359 3.124800 0.937441
v -9.686880 3.124800 0.937441
v -9.686880 3.202920 0.937441
v -9.999359 3.202920 0.937441
v -9.686880 3.124800 -0.937439
v -9.999359 3.124800 -0.937439
v -9.999359 3.202920 -0.937439
v -9.686880 3.202920 -0.937439
v -9.999359 3.124800 -0.937439
v -9.999359 3.124800 0.937441
v -9.999359 3.202920 0.937441
v -9.999359 3.202920 -0.937439
v -9.686880 3.124800 0.937441
v -9.686880 3.124800 -0.937439
v -9.686880 3.202920 -0.937439
v -9.686880 3.202920 0.937441
v -9.999359 3.202920 0.937441
v -9.686880 3.202920 0.937441
v -9.686880 3.202920 -0.937439
v -9.999359 3.202920 -0.937439
v -9.999359 3.124800 -0.937439
v -9.686880 3.124800 -0.937439
v -9.686880 3.124800 0.937441
v -9.999359 3.124800 0.937441
v 9.686880 3.124800 0.937441
v 9.999359 3.124800 0.937441
v 9.999359 3.202920 0.937441
v 9.686880 3.202920 0.937441
v 9.999359 3.124800 -0.937439
v 9.686880 3.124800 -0.937439
v 9.686880 3.202920 -0.937439
v 9.999359 3.202920 -0.937439
v 9.686880 3.124800 -0.937439
v 9.686880 3.124800 0.937441
v 9.686880 3.202920 0.937441
v 9.686880 3.202920 -0.937439
v 9.999359 3.124800 0.937441
v 9.999359 3.124800 -0.937439
v 9.999359 3.202920 -0.937439
v 9.999359 3.202920 0.937441
v 9.686880 3.202920 0.937441
v 9.999359 3.202920 0.937441
v 9.999359 3.202920 -0.937439
v 9.686880 3.202920 -0.937439
v 9.686880 3.124800 -0.937439
v 9.999359 3.124800 -0.937439
v 9.999359 3.124800 0.937441
v 9.686880 3.124800 0.937441
v 9.686880 -0.000000 1.015560
v 9.999359 -0.000000 1.015560
v 9.999359 3.202920 1.015560
v 9.686880 3.202920 1.015560
v 9.999359 -0.000000 0.937440
v 9.686880 -0.000000 0.937440
v 9.686880 3.202920 0.937441
v 9.999359 3.202920 0.937441
v 9.686880 -0.000000 0.937440
v 9.686880 -0.000000 1.015560
v 9.686880 3.202920 1.015560
v 9.686880 3.202920 0.937441
v 9.999359 -0.000000 1.015560
v 9.999359 -0.000000 0.937440
v 9.999359 3.202920 0.937441
v 9.999359 3.202920 1.015560
v 9.686880 3.202920 1.015560
v 9.999359 3.202920 1.015560
v 9.999359 3.202920 0.937441
v 9.686880 3.202920 0.937441
v 9.686880 -0.000000 0.937440
v 9.999359 -0.000000 0.937440
v 9.999359 -0.000000 1.015560
v 9.686880 -0.000000 1.015560
vn 0.0000 -0.0000 1.0000
vn 0.0000 -1.0000 -0.0000
vn 1.0000 0.0000 0.0000
vn 0.0000 1.0000 0.0000
vn -1.0000 -0.0000 0.0000
vn 0.0000 0.0000 -1.0000
usemtl Default_OBJ.001
s 1
f 1//1 2//1 3//1 4//1
f 5//2 6//2 7//2 8//2
f 9//3 10//3 11//3 12//3
f 13//4 14//4 15//4 16//4
f 17//5 18//5 19//5 20//5
f 21//6 22//6 23//6 24//6
f 25//1 26//1 27//1 28//1
f 29//2 30//2 31//2 32//2
f 33//5 34//5 35//5 36//5
f 37//4 38//4 39//4 40//4
f 41//3 42//3 43//3 44//3
f 45//6 46//6 47//6 48//6
f 49//1 50//1 51//1 52//1
f 53//4 54//4 55//4 56//4
f 57//5 58//5 59//5 60//5
f 61//3 62//3 63//3 64//3
f 65//2 66//2 67//2 68//2
f 69//6 70//6 71//6 72//6
f 73//1 74//1 75//1 76//1
f 77//2 78//2 79//2 80//2
f 81//3 82//3 83//3 84//3
f 85//4 86//4 87//4 88//4
f 89//5 90//5 91//5 92//5
f 93//6 94//6 95//6 96//6
f 97//1 98//1 99//1 100//1
f 101//6 102//6 103//6 104//6
f 105//5 106//5 107//5 108//5
f 109//3 110//3 111//3 112//3
f 113//4 114//4 115//4 116//4
f 117//2 118//2 119//2 120//2
f 121//1 122//1 123//1 124//1
f 125//4 126//4 127//4 128//4
f 129//5 130//5 131//5 132//5
f 133//3 134//3 135//3 136//3
f 137//2 138//2 139//2 140//2
f 141//6 142//6 143//6 144//6
f 145//1 146//1 147//1 148//1
f 149//2 150//2 151//2 152//2
f 153//5 154//5 155//5 156//5
f 157//4 158//4 159//4 160//4
f 161//3 162//3 163//3 164//3
f 165//6 166//6 167//6 168//6
f 169//1 170//1 171//1 172//1
f 173//6 174//6 175//6 176//6
f 177//5 178//5 179//5 180//5
f 181//3 182//3 183//3 184//3
f 185//4 186//4 187//4 188//4
f 189//2 190//2 191//2 192//2
f 193//1 194//1 195//1 196//1
f 197//6 198//6 199//6 200//6
f 201//5 202//5 203//5 204//5
f 205//3 206//3 207//3 208//3
f 209//4 210//4 211//4 212//4
f 213//2 214//2 215//2 216//2
f 217//1 218//1 219//1 220//1
f 221//6 222//6 223//6 224//6
f 225//5 226//5 227//5 228//5
f 229//3 230//3 231//3 232//3
f 233//4 234//4 235//4 236//4
f 237//2 238//2 239//2 240//2
f 241//1 242//1 243//1 244//1
f 245//6 246//6 247//6 248//6
f 249//5 250//5 251//5 252//5
f 253//3 254//3 255//3 256//3
f 257//4 258//4 259//4 260//4
f 261//2 262//2 263//2 264//2
f 265//1 266//1 267//1 268//1
f 269//6 270//6 271//6 272//6
f 273//5 274//5 275//5 276//5
f 277//3 278//3 279//3 280//3
f 281//4 282//4 283//4 284//4
f 285//2 286//2 287//2 288//2
