# Blender v3.0.0 OBJ File: ''
# www.blender.org
mtllib room2_nofloor.mtl
o room2_templatewofloor
v 0.937440 3.124797 9.999360
v 0.937440 3.202918 9.999360
v -0.937440 3.202918 9.999360
v -0.937440 3.124797 9.999360
v -0.937440 3.202918 9.686881
v -0.937440 3.202918 9.999360
v 0.937440 3.202918 9.999360
v 0.937440 3.202918 9.686881
v -0.937440 3.202918 9.999360
v -0.937440 3.202918 9.686881
v -0.937440 3.124797 9.686881
v -0.937440 3.124797 9.999360
v 0.937440 3.202918 9.686881
v 0.937440 3.202918 9.999360
v 0.937440 3.124797 9.999360
v 0.937440 3.124797 9.686881
v -0.937440 3.124797 9.999360
v -0.937440 3.124797 9.686881
v 0.937440 3.124797 9.686881
v 0.937440 3.124797 9.999360
v -0.937440 3.202918 9.686881
v 0.937440 3.202918 9.686881
v 0.937440 3.124797 9.686881
v -0.937440 3.124797 9.686881
v -0.937441 0.000002 -9.686880
v -0.937441 3.202922 -9.686879
v -1.015560 3.202922 -9.686879
v -1.015560 0.000002 -9.686880
v -1.015560 0.000002 -9.686880
v -1.015560 0.000002 -9.999359
v -0.937441 0.000002 -9.999359
v -0.937441 0.000002 -9.686880
v -1.015560 0.000002 -9.686880
v -1.015560 3.202922 -9.686879
v -1.015560 3.202922 -9.999358
v -1.015560 0.000002 -9.999359
v -0.937441 3.202922 -9.686879
v -0.937441 3.202922 -9.999358
v -1.015560 3.202922 -9.999358
v -1.015560 3.202922 -9.686879
v -0.937441 3.202922 -9.999358
v -0.937441 3.202922 -9.686879
v -0.937441 0.000002 -9.686880
v -0.937441 0.000002 -9.999359
v -1.015560 3.202922 -9.999358
v -0.937441 3.202922 -9.999358
v -0.937441 0.000002 -9.999359
v -1.015560 0.000002 -9.999359
v 0.937440 3.124801 -9.686879
v 0.937440 3.202922 -9.686879
v -0.937440 3.202922 -9.686879
v -0.937440 3.124801 -9.686879
v -0.937440 3.202922 -9.999358
v -0.937440 3.202922 -9.686879
v 0.937440 3.202922 -9.686879
v 0.937440 3.202922 -9.999358
v -0.937440 3.202922 -9.686879
v -0.937440 3.202922 -9.999358
v -0.937440 3.124801 -9.999358
v -0.937440 3.124801 -9.686879
v 0.937440 3.202922 -9.999358
v 0.937440 3.202922 -9.686879
v 0.937440 3.124801 -9.686879
v 0.937440 3.124801 -9.999358
v -0.937440 3.124801 -9.686879
v -0.937440 3.124801 -9.999358
v 0.937440 3.124801 -9.999358
v 0.937440 3.124801 -9.686879
v -0.937440 3.202922 -9.999358
v 0.937440 3.202922 -9.999358
v 0.937440 3.124801 -9.999358
v -0.937440 3.124801 -9.999358
v -0.937440 -0.000002 9.999359
v -0.937440 3.202918 9.999360
v -1.015560 3.202918 9.999360
v -1.015560 -0.000002 9.999359
v -1.015560 -0.000002 9.999359
v -1.015560 -0.000002 9.686880
v -0.937440 -0.000002 9.686880
v -0.937440 -0.000002 9.999359
v -1.015560 -0.000002 9.999359
v -1.015560 3.202918 9.999360
v -1.015560 3.202918 9.686881
v -1.015560 -0.000002 9.686880
v -0.937440 3.202918 9.999360
v -0.937440 3.202918 9.686881
v -1.015560 3.202918 9.686881
v -1.015560 3.202918 9.999360
v -0.937440 3.202918 9.686881
v -0.937440 3.202918 9.999360
v -0.937440 -0.000002 9.999359
v -0.937440 -0.000002 9.686880
v -1.015560 3.202918 9.686881
v -0.937440 3.202918 9.686881
v -0.937440 -0.000002 9.686880
v -1.015560 -0.000002 9.686880
v 0.937440 -0.000002 9.999359
v 1.015560 -0.000002 9.999359
v 1.015560 3.202918 9.999360
v 0.937440 3.202918 9.999360
v 0.937440 -0.000002 9.999359
v 0.937440 -0.000002 9.686880
v 1.015560 -0.000002 9.686880
v 1.015560 -0.000002 9.999359
v 1.015560 -0.000002 9.999359
v 1.015560 -0.000002 9.686880
v 1.015560 3.202918 9.686881
v 1.015560 3.202918 9.999360
v 0.937440 3.202918 9.686881
v 0.937440 3.202918 9.999360
v 1.015560 3.202918 9.999360
v 1.015560 3.202918 9.686881
v 0.937440 -0.000002 9.999359
v 0.937440 3.202918 9.999360
v 0.937440 3.202918 9.686881
v 0.937440 -0.000002 9.686880
v 0.937440 3.202918 9.686881
v 1.015560 3.202918 9.686881
v 1.015560 -0.000002 9.686880
v 0.937440 -0.000002 9.686880
v 0.937440 0.000002 -9.686880
v 1.015560 0.000002 -9.686880
v 1.015560 3.202922 -9.686879
v 0.937440 3.202922 -9.686879
v 0.937440 0.000002 -9.686880
v 0.937440 0.000002 -9.999359
v 1.015560 0.000002 -9.999359
v 1.015560 0.000002 -9.686880
v 1.015560 0.000002 -9.686880
v 1.015560 0.000002 -9.999359
v 1.015560 3.202922 -9.999358
v 1.015560 3.202922 -9.686879
v 0.937440 3.202922 -9.999358
v 0.937440 3.202922 -9.686879
v 1.015560 3.202922 -9.686879
v 1.015560 3.202922 -9.999358
v 0.937440 0.000002 -9.686880
v 0.937440 3.202922 -9.686879
v 0.937440 3.202922 -9.999358
v 0.937440 0.000002 -9.999359
v 0.937440 3.202922 -9.999358
v 1.015560 3.202922 -9.999358
v 1.015560 0.000002 -9.999359
v 0.937440 0.000002 -9.999359
vn 0.0000 0.0000 1.0000
vn 0.0000 1.0000 0.0000
vn -1.0000 0.0000 0.0000
vn 1.0000 0.0000 0.0000
vn 0.0000 -1.0000 0.0000
vn 0.0000 0.0000 -1.0000
usemtl Default_OBJ.004
s 1
f 1//1 2//1 3//1 4//1
f 5//2 6//2 7//2 8//2
f 9//3 10//3 11//3 12//3
f 13//4 14//4 15//4 16//4
f 17//5 18//5 19//5 20//5
f 21//6 22//6 23//6 24//6
f 25//1 26//1 27//1 28//1
f 29//5 30//5 31//5 32//5
f 33//3 34//3 35//3 36//3
f 37//2 38//2 39//2 40//2
f 41//4 42//4 43//4 44//4
f 45//6 46//6 47//6 48//6
f 49//1 50//1 51//1 52//1
f 53//2 54//2 55//2 56//2
f 57//3 58//3 59//3 60//3
f 61//4 62//4 63//4 64//4
f 65//5 66//5 67//5 68//5
f 69//6 70//6 71//6 72//6
f 73//1 74//1 75//1 76//1
f 77//5 78//5 79//5 80//5
f 81//3 82//3 83//3 84//3
f 85//2 86//2 87//2 88//2
f 89//4 90//4 91//4 92//4
f 93//6 94//6 95//6 96//6
f 97//1 98//1 99//1 100//1
f 101//5 102//5 103//5 104//5
f 105//4 106//4 107//4 108//4
f 109//2 110//2 111//2 112//2
f 113//3 114//3 115//3 116//3
f 117//6 118//6 119//6 120//6
f 121//1 122//1 123//1 124//1
f 125//5 126//5 127//5 128//5
f 129//4 130//4 131//4 132//4
f 133//2 134//2 135//2 136//2
f 137//3 138//3 139//3 140//3
f 141//6 142//6 143//6 144//6
