# Blender v3.0.0 OBJ File: ''
# www.blender.org
mtllib room3_nofloor.mtl
o room3_templatewofloor
v -9.999359 3.124800 0.937441
v -9.686880 3.124800 0.937441
v -9.686880 3.202920 0.937441
v -9.999359 3.202920 0.937441
v -9.686880 3.124800 -0.937439
v -9.999359 3.124800 -0.937439
v -9.999359 3.202920 -0.937439
v -9.686880 3.202920 -0.937439
v -9.999359 3.124800 -0.937439
v -9.999359 3.124800 0.937441
v -9.999359 3.202920 0.937441
v -9.999359 3.202920 -0.937439
v -9.686880 3.124800 0.937441
v -9.686880 3.124800 -0.937439
v -9.686880 3.202920 -0.937439
v -9.686880 3.202920 0.937441
v -9.999359 3.202920 0.937441
v -9.686880 3.202920 0.937441
v -9.686880 3.202920 -0.937439
v -9.999359 3.202920 -0.937439
v -9.999359 3.124800 -0.937439
v -9.686880 3.124800 -0.937439
v -9.686880 3.124800 0.937441
v -9.999359 3.124800 0.937441
v -9.999359 0.000000 -0.937440
v -9.686880 0.000000 -0.937440
v -9.686880 3.202920 -0.937439
v -9.999359 3.202920 -0.937439
v -9.686880 0.000000 -1.015560
v -9.999359 0.000000 -1.015560
v -9.999359 3.202920 -1.015559
v -9.686880 3.202920 -1.015559
v -9.999359 0.000000 -1.015560
v -9.999359 0.000000 -0.937440
v -9.999359 3.202920 -0.937439
v -9.999359 3.202920 -1.015559
v -9.686880 0.000000 -0.937440
v -9.686880 0.000000 -1.015560
v -9.686880 3.202920 -1.015559
v -9.686880 3.202920 -0.937439
v -9.999359 3.202920 -0.937439
v -9.686880 3.202920 -0.937439
v -9.686880 3.202920 -1.015559
v -9.999359 3.202920 -1.015559
v -9.999359 0.000000 -1.015560
v -9.686880 0.000000 -1.015560
v -9.686880 0.000000 -0.937440
v -9.999359 0.000000 -0.937440
v 0.937440 3.124797 9.999360
v 0.937440 3.202918 9.999360
v -0.937440 3.202918 9.999360
v -0.937440 3.124797 9.999360
v -0.937440 3.202918 9.686881
v -0.937440 3.202918 9.999360
v 0.937440 3.202918 9.999360
v 0.937440 3.202918 9.686881
v -0.937440 3.202918 9.999360
v -0.937440 3.202918 9.686881
v -0.937440 3.124797 9.686881
v -0.937440 3.124797 9.999360
v 0.937440 3.202918 9.686881
v 0.937440 3.202918 9.999360
v 0.937440 3.124797 9.999360
v 0.937440 3.124797 9.686881
v -0.937440 3.124797 9.999360
v -0.937440 3.124797 9.686881
v 0.937440 3.124797 9.686881
v 0.937440 3.124797 9.999360
v -0.937440 3.202918 9.686881
v 0.937440 3.202918 9.686881
v 0.937440 3.124797 9.686881
v -0.937440 3.124797 9.686881
v -0.937440 -0.000002 9.999359
v -0.937440 3.202918 9.999360
v -1.015560 3.202918 9.999360
v -1.015560 -0.000002 9.999359
v -1.015560 -0.000002 9.999359
v -1.015560 -0.000002 9.686880
v -0.937440 -0.000002 9.686880
v -0.937440 -0.000002 9.999359
v -1.015560 -0.000002 9.999359
v -1.015560 3.202918 9.999360
v -1.015560 3.202918 9.686881
v -1.015560 -0.000002 9.686880
v -0.937440 3.202918 9.999360
v -0.937440 3.202918 9.686881
v -1.015560 3.202918 9.686881
v -1.015560 3.202918 9.999360
v -0.937440 3.202918 9.686881
v -0.937440 3.202918 9.999360
v -0.937440 -0.000002 9.999359
v -0.937440 -0.000002 9.686880
v -1.015560 3.202918 9.686881
v -0.937440 3.202918 9.686881
v -0.937440 -0.000002 9.686880
v -1.015560 -0.000002 9.686880
v -9.999359 -0.000000 1.015560
v -9.686880 -0.000000 1.015560
v -9.686880 3.202920 1.015560
v -9.999359 3.202920 1.015560
v -9.686880 -0.000000 0.937440
v -9.999359 -0.000000 0.937440
v -9.999359 3.202920 0.937441
v -9.686880 3.202920 0.937441
v -9.999359 -0.000000 0.937440
v -9.999359 -0.000000 1.015560
v -9.999359 3.202920 1.015560
v -9.999359 3.202920 0.937441
v -9.686880 -0.000000 1.015560
v -9.686880 -0.000000 0.937440
v -9.686880 3.202920 0.937441
v -9.686880 3.202920 1.015560
v -9.999359 3.202920 1.015560
v -9.686880 3.202920 1.015560
v -9.686880 3.202920 0.937441
v -9.999359 3.202920 0.937441
v -9.999359 -0.000000 0.937440
v -9.686880 -0.000000 0.937440
v -9.686880 -0.000000 1.015560
v -9.999359 -0.000000 1.015560
v 0.937440 -0.000002 9.999359
v 1.015560 -0.000002 9.999359
v 1.015560 3.202918 9.999360
v 0.937440 3.202918 9.999360
v 0.937440 -0.000002 9.999359
v 0.937440 -0.000002 9.686880
v 1.015560 -0.000002 9.686880
v 1.015560 -0.000002 9.999359
v 1.015560 -0.000002 9.999359
v 1.015560 -0.000002 9.686880
v 1.015560 3.202918 9.686881
v 1.015560 3.202918 9.999360
v 0.937440 3.202918 9.686881
v 0.937440 3.202918 9.999360
v 1.015560 3.202918 9.999360
v 1.015560 3.202918 9.686881
v 0.937440 -0.000002 9.999359
v 0.937440 3.202918 9.999360
v 0.937440 3.202918 9.686881
v 0.937440 -0.000002 9.686880
v 0.937440 3.202918 9.686881
v 1.015560 3.202918 9.686881
v 1.015560 -0.000002 9.686880
v 0.937440 -0.000002 9.686880
v 9.686880 0.000000 -0.937440
v 9.999359 0.000000 -0.937440
v 9.999359 3.202920 -0.937439
v 9.686880 3.202920 -0.937439
v 9.999359 0.000000 -1.015560
v 9.686880 0.000000 -1.015560
v 9.686880 3.202920 -1.015559
v 9.999359 3.202920 -1.015559
v 9.686880 0.000000 -1.015560
v 9.686880 0.000000 -0.937440
v 9.686880 3.202920 -0.937439
v 9.686880 3.202920 -1.015559
v 9.999359 0.000000 -0.937440
v 9.999359 0.000000 -1.015560
v 9.999359 3.202920 -1.015559
v 9.999359 3.202920 -0.937439
v 9.686880 3.202920 -0.937439
v 9.999359 3.202920 -0.937439
v 9.999359 3.202920 -1.015559
v 9.686880 3.202920 -1.015559
v 9.686880 0.000000 -1.015560
v 9.999359 0.000000 -1.015560
v 9.999359 0.000000 -0.937440
v 9.686880 0.000000 -0.937440
v 9.686880 3.124800 0.937441
v 9.999359 3.124800 0.937441
v 9.999359 3.202920 0.937441
v 9.686880 3.202920 0.937441
v 9.999359 3.124800 -0.937439
v 9.686880 3.124800 -0.937439
v 9.686880 3.202920 -0.937439
v 9.999359 3.202920 -0.937439
v 9.686880 3.124800 -0.937439
v 9.686880 3.124800 0.937441
v 9.686880 3.202920 0.937441
v 9.686880 3.202920 -0.937439
v 9.999359 3.124800 0.937441
v 9.999359 3.124800 -0.937439
v 9.999359 3.202920 -0.937439
v 9.999359 3.202920 0.937441
v 9.686880 3.202920 0.937441
v 9.999359 3.202920 0.937441
v 9.999359 3.202920 -0.937439
v 9.686880 3.202920 -0.937439
v 9.686880 3.124800 -0.937439
v 9.999359 3.124800 -0.937439
v 9.999359 3.124800 0.937441
v 9.686880 3.124800 0.937441
v 9.686880 -0.000000 1.015560
v 9.999359 -0.000000 1.015560
v 9.999359 3.202920 1.015560
v 9.686880 3.202920 1.015560
v 9.999359 -0.000000 0.937440
v 9.686880 -0.000000 0.937440
v 9.686880 3.202920 0.937441
v 9.999359 3.202920 0.937441
v 9.686880 -0.000000 0.937440
v 9.686880 -0.000000 1.015560
v 9.686880 3.202920 1.015560
v 9.686880 3.202920 0.937441
v 9.999359 -0.000000 1.015560
v 9.999359 -0.000000 0.937440
v 9.999359 3.202920 0.937441
v 9.999359 3.202920 1.015560
v 9.686880 3.202920 1.015560
v 9.999359 3.202920 1.015560
v 9.999359 3.202920 0.937441
v 9.686880 3.202920 0.937441
v 9.686880 -0.000000 0.937440
v 9.999359 -0.000000 0.937440
v 9.999359 -0.000000 1.015560
v 9.686880 -0.000000 1.015560
vn 0.0000 0.0000 1.0000
vn 0.0000 0.0000 -1.0000
vn -1.0000 0.0000 0.0000
vn 1.0000 0.0000 0.0000
vn 0.0000 1.0000 0.0000
vn 0.0000 -1.0000 -0.0000
usemtl Default_OBJ.002
s 1
f 1//1 2//1 3//1 4//1
f 5//2 6//2 7//2 8//2
f 9//3 10//3 11//3 12//3
f 13//4 14//4 15//4 16//4
f 17//5 18//5 19//5 20//5
f 21//6 22//6 23//6 24//6
f 25//1 26//1 27//1 28//1
f 29//2 30//2 31//2 32//2
f 33//3 34//3 35//3 36//3
f 37//4 38//4 39//4 40//4
f 41//5 42//5 43//5 44//5
f 45//6 46//6 47//6 48//6
f 49//1 50//1 51//1 52//1
f 53//5 54//5 55//5 56//5
f 57//3 58//3 59//3 60//3
f 61//4 62//4 63//4 64//4
f 65//6 66//6 67//6 68//6
f 69//2 70//2 71//2 72//2
f 73//1 74//1 75//1 76//1
f 77//6 78//6 79//6 80//6
f 81//3 82//3 83//3 84//3
f 85//5 86//5 87//5 88//5
f 89//4 90//4 91//4 92//4
f 93//2 94//2 95//2 96//2
f 97//1 98//1 99//1 100//1
f 101//2 102//2 103//2 104//2
f 105//3 106//3 107//3 108//3
f 109//4 110//4 111//4 112//4
f 113//5 114//5 115//5 116//5
f 117//6 118//6 119//6 120//6
f 121//1 122//1 123//1 124//1
f 125//6 126//6 127//6 128//6
f 129//4 130//4 131//4 132//4
f 133//5 134//5 135//5 136//5
f 137//3 138//3 139//3 140//3
f 141//2 142//2 143//2 144//2
f 145//1 146//1 147//1 148//1
f 149//2 150//2 151//2 152//2
f 153//3 154//3 155//3 156//3
f 157//4 158//4 159//4 160//4
f 161//5 162//5 163//5 164//5
f 165//6 166//6 167//6 168//6
f 169//1 170//1 171//1 172//1
f 173//2 174//2 175//2 176//2
f 177//3 178//3 179//3 180//3
f 181//4 182//4 183//4 184//4
f 185//5 186//5 187//5 188//5
f 189//6 190//6 191//6 192//6
f 193//1 194//1 195//1 196//1
f 197//2 198//2 199//2 200//2
f 201//3 202//3 203//3 204//3
f 205//4 206//4 207//4 208//4
f 209//5 210//5 211//5 212//5
f 213//6 214//6 215//6 216//6
