{
	"asset":{
		"generator":"Khronos glTF Blender I/O v4.4.55",
		"version":"2.0"
	},
	"extensionsUsed":[
		"KHR_materials_specular"
	],
	"scene":0,
	"scenes":[
		{
			"name":"Scene",
			"nodes":[
				0,
				1
			]
		}
	],
	"nodes":[
		{
			"mesh":0,
			"name":"Cube",
			"translation":[
				0,
				0.860662043094635,
				0
			]
		},
		{
			"mesh":1,
			"name":"site19_wall_cb_modern.002",
			"rotation":[
				0,
				0.9238795638084412,
				0,
				0.3826834261417389
			],
			"translation":[
				5.363348960876465,
				-1.2498133182525635,
				-2.379948854446411
			]
		}
	],
	"materials":[
		{
			"doubleSided":true,
			"name":"Walls",
			"pbrMetallicRoughness":{
				"baseColorFactor":[
					0.800000011920929,
					0.800000011920929,
					0.800000011920929,
					1
				],
				"metallicFactor":0,
				"roughnessFactor":0.5
			}
		},
		{
			"doubleSided":true,
			"name":"Ceiling",
			"pbrMetallicRoughness":{
				"baseColorFactor":[
					0.800000011920929,
					0.800000011920929,
					0.800000011920929,
					1
				],
				"metallicFactor":0,
				"roughnessFactor":0.5
			}
		},
		{
			"doubleSided":true,
			"name":"Floor",
			"pbrMetallicRoughness":{
				"baseColorFactor":[
					0.800000011920929,
					0.800000011920929,
					0.800000011920929,
					1
				],
				"metallicFactor":0,
				"roughnessFactor":0.5
			}
		},
		{
			"doubleSided":true,
			"extensions":{
				"KHR_materials_specular":{
					"specularFactor":0
				}
			},
			"name":"sheetmetal001_2k-png_color.002",
			"normalTexture":{
				"index":0
			},
			"pbrMetallicRoughness":{
				"baseColorTexture":{
					"index":1
				},
				"metallicRoughnessTexture":{
					"index":2
				}
			}
		},
		{
			"doubleSided":true,
			"extensions":{
				"KHR_materials_specular":{
					"specularFactor":0
				}
			},
			"name":"lczwall.002",
			"normalTexture":{
				"index":3
			},
			"pbrMetallicRoughness":{
				"baseColorFactor":[
					0.5575153231620789,
					0.5575153231620789,
					0.5575153231620789,
					1
				],
				"metallicFactor":0,
				"metallicRoughnessTexture":{
					"index":4
				}
			}
		},
		{
			"doubleSided":true,
			"name":"wall_t.002",
			"pbrMetallicRoughness":{
				"baseColorFactor":[
					0,
					0,
					0,
					1
				],
				"metallicFactor":0,
				"roughnessFactor":0.5
			}
		},
		{
			"doubleSided":true,
			"extensions":{
				"KHR_materials_specular":{
					"specularFactor":0
				}
			},
			"name":"sheetmetal001_2k-png_color.001",
			"normalTexture":{
				"index":5
			},
			"pbrMetallicRoughness":{
				"baseColorTexture":{
					"index":6
				},
				"metallicRoughnessTexture":{
					"index":7
				}
			}
		},
		{
			"doubleSided":true,
			"extensions":{
				"KHR_materials_specular":{
					"specularFactor":0
				}
			},
			"name":"lczwall.001",
			"normalTexture":{
				"index":8
			},
			"pbrMetallicRoughness":{
				"baseColorFactor":[
					0.5575153231620789,
					0.5575153231620789,
					0.5575153231620789,
					1
				],
				"metallicFactor":0,
				"metallicRoughnessTexture":{
					"index":9
				}
			}
		},
		{
			"doubleSided":true,
			"name":"wall_t.001",
			"pbrMetallicRoughness":{
				"baseColorFactor":[
					0,
					0,
					0,
					1
				],
				"metallicFactor":0,
				"roughnessFactor":0.5
			}
		},
		{
			"doubleSided":true,
			"extensions":{
				"KHR_materials_specular":{
					"specularFactor":0
				}
			},
			"name":"sheetmetal001_2k-png_color",
			"normalTexture":{
				"index":10
			},
			"pbrMetallicRoughness":{
				"baseColorTexture":{
					"index":11
				},
				"metallicRoughnessTexture":{
					"index":12
				}
			}
		},
		{
			"doubleSided":true,
			"extensions":{
				"KHR_materials_specular":{
					"specularFactor":0
				}
			},
			"name":"lczwall",
			"normalTexture":{
				"index":13
			},
			"pbrMetallicRoughness":{
				"baseColorFactor":[
					0.5575153231620789,
					0.5575153231620789,
					0.5575153231620789,
					1
				],
				"metallicFactor":0,
				"metallicRoughnessTexture":{
					"index":14
				}
			}
		},
		{
			"doubleSided":true,
			"name":"wall_t",
			"pbrMetallicRoughness":{
				"baseColorFactor":[
					0,
					0,
					0,
					1
				],
				"metallicFactor":0,
				"roughnessFactor":0.5
			}
		}
	],
	"meshes":[
		{
			"name":"Cube.001",
			"primitives":[
				{
					"attributes":{
						"POSITION":0,
						"NORMAL":1,
						"TEXCOORD_0":2
					},
					"indices":3,
					"material":0
				},
				{
					"attributes":{
						"POSITION":4,
						"NORMAL":5,
						"TEXCOORD_0":6
					},
					"indices":7,
					"material":1
				},
				{
					"attributes":{
						"POSITION":8,
						"NORMAL":9,
						"TEXCOORD_0":10
					},
					"indices":11,
					"material":2
				}
			]
		},
		{
			"name":"site19_wall_cb_modern.003",
			"primitives":[
				{
					"attributes":{
						"POSITION":12,
						"NORMAL":13,
						"TEXCOORD_0":14
					},
					"indices":15,
					"material":3
				},
				{
					"attributes":{
						"POSITION":16,
						"NORMAL":17,
						"TEXCOORD_0":18
					},
					"indices":19,
					"material":4
				},
				{
					"attributes":{
						"POSITION":20,
						"NORMAL":21,
						"TEXCOORD_0":22
					},
					"indices":23,
					"material":5
				},
				{
					"attributes":{
						"POSITION":24,
						"NORMAL":25,
						"TEXCOORD_0":26
					},
					"indices":15,
					"material":6
				},
				{
					"attributes":{
						"POSITION":27,
						"NORMAL":28,
						"TEXCOORD_0":29
					},
					"indices":19,
					"material":7
				},
				{
					"attributes":{
						"POSITION":30,
						"NORMAL":31,
						"TEXCOORD_0":32
					},
					"indices":23,
					"material":8
				},
				{
					"attributes":{
						"POSITION":33,
						"NORMAL":34,
						"TEXCOORD_0":35
					},
					"indices":15,
					"material":9
				},
				{
					"attributes":{
						"POSITION":36,
						"NORMAL":37,
						"TEXCOORD_0":38
					},
					"indices":39,
					"material":10
				},
				{
					"attributes":{
						"POSITION":40,
						"NORMAL":41,
						"TEXCOORD_0":42
					},
					"indices":23,
					"material":11
				}
			]
		}
	],
	"textures":[
		{
			"sampler":0,
			"source":0
		},
		{
			"sampler":0,
			"source":1
		},
		{
			"sampler":0,
			"source":2
		},
		{
			"sampler":0,
			"source":3
		},
		{
			"sampler":0,
			"source":4
		},
		{
			"sampler":0,
			"source":0
		},
		{
			"sampler":0,
			"source":1
		},
		{
			"sampler":0,
			"source":2
		},
		{
			"sampler":0,
			"source":3
		},
		{
			"sampler":0,
			"source":4
		},
		{
			"sampler":0,
			"source":0
		},
		{
			"sampler":0,
			"source":1
		},
		{
			"sampler":0,
			"source":2
		},
		{
			"sampler":0,
			"source":3
		},
		{
			"sampler":0,
			"source":4
		}
	],
	"images":[
		{
			"mimeType":"image/png",
			"name":"SheetMetal001_2K-PNG_NormalGL",
			"uri":"SheetMetal001_2K-PNG_NormalGL.png"
		},
		{
			"mimeType":"image/png",
			"name":"SheetMetal001_2K-PNG_Color",
			"uri":"SheetMetal001_2K-PNG_Color.png"
		},
		{
			"mimeType":"image/png",
			"name":"SheetMetal001_2K-PNG_Metalness-SheetMetal001_2K-PNG_Roughness",
			"uri":"SheetMetal001_2K-PNG_Metalness-SheetMetal001_2K-PNG_Roughness.png"
		},
		{
			"mimeType":"image/png",
			"name":"beige_wall_001_nor_gl_2k",
			"uri":"beige_wall_001_nor_gl_2k.png"
		},
		{
			"mimeType":"image/png",
			"name":"beige_wall_001_rough_2k",
			"uri":"beige_wall_001_rough_2k.png"
		}
	],
	"accessors":[
		{
			"bufferView":0,
			"componentType":5126,
			"count":30,
			"max":[
				10.240440368652344,
				5.130503177642822,
				10.235640525817871
			],
			"min":[
				-4.253635883331299,
				-2.1302287578582764,
				-4.245645523071289
			],
			"type":"VEC3"
		},
		{
			"bufferView":1,
			"componentType":5126,
			"count":30,
			"type":"VEC3"
		},
		{
			"bufferView":2,
			"componentType":5126,
			"count":30,
			"type":"VEC2"
		},
		{
			"bufferView":3,
			"componentType":5123,
			"count":48,
			"type":"SCALAR"
		},
		{
			"bufferView":4,
			"componentType":5126,
			"count":13,
			"max":[
				10.240440368652344,
				5.130503177642822,
				10.235640525817871
			],
			"min":[
				-4.253635883331299,
				5.1302289962768555,
				-4.245645523071289
			],
			"type":"VEC3"
		},
		{
			"bufferView":5,
			"componentType":5126,
			"count":13,
			"type":"VEC3"
		},
		{
			"bufferView":6,
			"componentType":5126,
			"count":13,
			"type":"VEC2"
		},
		{
			"bufferView":7,
			"componentType":5123,
			"count":36,
			"type":"SCALAR"
		},
		{
			"bufferView":8,
			"componentType":5126,
			"count":22,
			"max":[
				10.240440368652344,
				-2.1250720024108887,
				10.235640525817871
			],
			"min":[
				-4.253635883331299,
				-2.1302287578582764,
				-4.245645523071289
			],
			"type":"VEC3"
		},
		{
			"bufferView":9,
			"componentType":5126,
			"count":22,
			"type":"VEC3"
		},
		{
			"bufferView":10,
			"componentType":5126,
			"count":22,
			"type":"VEC2"
		},
		{
			"bufferView":11,
			"componentType":5123,
			"count":36,
			"type":"SCALAR"
		},
		{
			"bufferView":12,
			"componentType":5126,
			"count":4,
			"max":[
				-0.15999768674373627,
				7.246344566345215,
				0.6399992108345032
			],
			"min":[
				-0.15999893844127655,
				-0.013369321823120117,
				-0.639999270439148
			],
			"type":"VEC3"
		},
		{
			"bufferView":13,
			"componentType":5126,
			"count":4,
			"type":"VEC3"
		},
		{
			"bufferView":14,
			"componentType":5126,
			"count":4,
			"type":"VEC2"
		},
		{
			"bufferView":15,
			"componentType":5123,
			"count":6,
			"type":"SCALAR"
		},
		{
			"bufferView":16,
			"componentType":5126,
			"count":12,
			"max":[
				-0.31999245285987854,
				7.246344566345215,
				2.5599992275238037
			],
			"min":[
				-0.32670846581459045,
				-0.013369560241699219,
				-2.931942939758301
			],
			"type":"VEC3"
		},
		{
			"bufferView":17,
			"componentType":5126,
			"count":12,
			"type":"VEC3"
		},
		{
			"bufferView":18,
			"componentType":5126,
			"count":12,
			"type":"VEC2"
		},
		{
			"bufferView":19,
			"componentType":5123,
			"count":18,
			"type":"SCALAR"
		},
		{
			"bufferView":20,
			"componentType":5126,
			"count":8,
			"max":[
				-0.15999768674373627,
				7.246344566345215,
				0.6399993896484375
			],
			"min":[
				-0.3200005888938904,
				-0.013369321823120117,
				-0.6400002837181091
			],
			"type":"VEC3"
		},
		{
			"bufferView":21,
			"componentType":5126,
			"count":8,
			"type":"VEC3"
		},
		{
			"bufferView":22,
			"componentType":5126,
			"count":8,
			"type":"VEC2"
		},
		{
			"bufferView":23,
			"componentType":5123,
			"count":12,
			"type":"SCALAR"
		},
		{
			"bufferView":24,
			"componentType":5126,
			"count":4,
			"max":[
				-0.16670915484428406,
				7.246344566345215,
				-4.85194206237793
			],
			"min":[
				-0.16671040654182434,
				-0.013369321823120117,
				-6.131940841674805
			],
			"type":"VEC3"
		},
		{
			"bufferView":25,
			"componentType":5126,
			"count":4,
			"type":"VEC3"
		},
		{
			"bufferView":26,
			"componentType":5126,
			"count":4,
			"type":"VEC2"
		},
		{
			"bufferView":27,
			"componentType":5126,
			"count":12,
			"max":[
				-0.32670390605926514,
				7.246344566345215,
				-2.9319424629211426
			],
			"min":[
				-0.32933250069618225,
				-0.013369560241699219,
				-8.431099891662598
			],
			"type":"VEC3"
		},
		{
			"bufferView":28,
			"componentType":5126,
			"count":12,
			"type":"VEC3"
		},
		{
			"bufferView":29,
			"componentType":5126,
			"count":12,
			"type":"VEC2"
		},
		{
			"bufferView":30,
			"componentType":5126,
			"count":8,
			"max":[
				-0.16670915484428406,
				7.246344566345215,
				-4.85194206237793
			],
			"min":[
				-0.326712042093277,
				-0.013369321823120117,
				-6.131941795349121
			],
			"type":"VEC3"
		},
		{
			"bufferView":31,
			"componentType":5126,
			"count":8,
			"type":"VEC3"
		},
		{
			"bufferView":32,
			"componentType":5126,
			"count":8,
			"type":"VEC2"
		},
		{
			"bufferView":33,
			"componentType":5126,
			"count":4,
			"max":[
				-0.16933318972587585,
				7.246344566345215,
				-10.351099014282227
			],
			"min":[
				-0.16933444142341614,
				-0.013369321823120117,
				-11.631097793579102
			],
			"type":"VEC3"
		},
		{
			"bufferView":34,
			"componentType":5126,
			"count":4,
			"type":"VEC3"
		},
		{
			"bufferView":35,
			"componentType":5126,
			"count":4,
			"type":"VEC2"
		},
		{
			"bufferView":36,
			"componentType":5126,
			"count":8,
			"max":[
				-0.32932794094085693,
				7.246344566345215,
				-8.431098937988281
			],
			"min":[
				-0.3293360769748688,
				-0.013369560241699219,
				-13.551097869873047
			],
			"type":"VEC3"
		},
		{
			"bufferView":37,
			"componentType":5126,
			"count":8,
			"type":"VEC3"
		},
		{
			"bufferView":38,
			"componentType":5126,
			"count":8,
			"type":"VEC2"
		},
		{
			"bufferView":39,
			"componentType":5123,
			"count":12,
			"type":"SCALAR"
		},
		{
			"bufferView":40,
			"componentType":5126,
			"count":8,
			"max":[
				-0.16933318972587585,
				7.246344566345215,
				-10.351099014282227
			],
			"min":[
				-0.3293360769748688,
				-0.013369321823120117,
				-11.631098747253418
			],
			"type":"VEC3"
		},
		{
			"bufferView":41,
			"componentType":5126,
			"count":8,
			"type":"VEC3"
		},
		{
			"bufferView":42,
			"componentType":5126,
			"count":8,
			"type":"VEC2"
		}
	],
	"bufferViews":[
		{
			"buffer":0,
			"byteLength":360,
			"byteOffset":0,
			"target":34962
		},
		{
			"buffer":0,
			"byteLength":360,
			"byteOffset":360,
			"target":34962
		},
		{
			"buffer":0,
			"byteLength":240,
			"byteOffset":720,
			"target":34962
		},
		{
			"buffer":0,
			"byteLength":96,
			"byteOffset":960,
			"target":34963
		},
		{
			"buffer":0,
			"byteLength":156,
			"byteOffset":1056,
			"target":34962
		},
		{
			"buffer":0,
			"byteLength":156,
			"byteOffset":1212,
			"target":34962
		},
		{
			"buffer":0,
			"byteLength":104,
			"byteOffset":1368,
			"target":34962
		},
		{
			"buffer":0,
			"byteLength":72,
			"byteOffset":1472,
			"target":34963
		},
		{
			"buffer":0,
			"byteLength":264,
			"byteOffset":1544,
			"target":34962
		},
		{
			"buffer":0,
			"byteLength":264,
			"byteOffset":1808,
			"target":34962
		},
		{
			"buffer":0,
			"byteLength":176,
			"byteOffset":2072,
			"target":34962
		},
		{
			"buffer":0,
			"byteLength":72,
			"byteOffset":2248,
			"target":34963
		},
		{
			"buffer":0,
			"byteLength":48,
			"byteOffset":2320,
			"target":34962
		},
		{
			"buffer":0,
			"byteLength":48,
			"byteOffset":2368,
			"target":34962
		},
		{
			"buffer":0,
			"byteLength":32,
			"byteOffset":2416,
			"target":34962
		},
		{
			"buffer":0,
			"byteLength":12,
			"byteOffset":2448,
			"target":34963
		},
		{
			"buffer":0,
			"byteLength":144,
			"byteOffset":2460,
			"target":34962
		},
		{
			"buffer":0,
			"byteLength":144,
			"byteOffset":2604,
			"target":34962
		},
		{
			"buffer":0,
			"byteLength":96,
			"byteOffset":2748,
			"target":34962
		},
		{
			"buffer":0,
			"byteLength":36,
			"byteOffset":2844,
			"target":34963
		},
		{
			"buffer":0,
			"byteLength":96,
			"byteOffset":2880,
			"target":34962
		},
		{
			"buffer":0,
			"byteLength":96,
			"byteOffset":2976,
			"target":34962
		},
		{
			"buffer":0,
			"byteLength":64,
			"byteOffset":3072,
			"target":34962
		},
		{
			"buffer":0,
			"byteLength":24,
			"byteOffset":3136,
			"target":34963
		},
		{
			"buffer":0,
			"byteLength":48,
			"byteOffset":3160,
			"target":34962
		},
		{
			"buffer":0,
			"byteLength":48,
			"byteOffset":3208,
			"target":34962
		},
		{
			"buffer":0,
			"byteLength":32,
			"byteOffset":3256,
			"target":34962
		},
		{
			"buffer":0,
			"byteLength":144,
			"byteOffset":3288,
			"target":34962
		},
		{
			"buffer":0,
			"byteLength":144,
			"byteOffset":3432,
			"target":34962
		},
		{
			"buffer":0,
			"byteLength":96,
			"byteOffset":3576,
			"target":34962
		},
		{
			"buffer":0,
			"byteLength":96,
			"byteOffset":3672,
			"target":34962
		},
		{
			"buffer":0,
			"byteLength":96,
			"byteOffset":3768,
			"target":34962
		},
		{
			"buffer":0,
			"byteLength":64,
			"byteOffset":3864,
			"target":34962
		},
		{
			"buffer":0,
			"byteLength":48,
			"byteOffset":3928,
			"target":34962
		},
		{
			"buffer":0,
			"byteLength":48,
			"byteOffset":3976,
			"target":34962
		},
		{
			"buffer":0,
			"byteLength":32,
			"byteOffset":4024,
			"target":34962
		},
		{
			"buffer":0,
			"byteLength":96,
			"byteOffset":4056,
			"target":34962
		},
		{
			"buffer":0,
			"byteLength":96,
			"byteOffset":4152,
			"target":34962
		},
		{
			"buffer":0,
			"byteLength":64,
			"byteOffset":4248,
			"target":34962
		},
		{
			"buffer":0,
			"byteLength":24,
			"byteOffset":4312,
			"target":34963
		},
		{
			"buffer":0,
			"byteLength":96,
			"byteOffset":4336,
			"target":34962
		},
		{
			"buffer":0,
			"byteLength":96,
			"byteOffset":4432,
			"target":34962
		},
		{
			"buffer":0,
			"byteLength":64,
			"byteOffset":4528,
			"target":34962
		}
	],
	"samplers":[
		{
			"magFilter":9729,
			"minFilter":9987
		}
	],
	"buffers":[
		{
			"byteLength":4592,
			"uri":"room2c.bin"
		}
	]
}
