{
	"asset":{
		"generator":"Khronos glTF Blender I/O v4.2.57",
		"version":"2.0"
	},
	"scene":0,
	"scenes":[
		{
			"name":"Scene",
			"nodes":[
				0
			]
		}
	],
	"nodes":[
		{
			"mesh":0,
			"name":"Cube"
		}
	],
	"materials":[
		{
			"doubleSided":true,
			"name":"Material",
			"normalTexture":{
				"index":0
			},
			"pbrMetallicRoughness":{
				"baseColorTexture":{
					"index":1
				},
				"metallicRoughnessTexture":{
					"index":2
				}
			}
		}
	],
	"meshes":[
		{
			"name":"Cube",
			"primitives":[
				{
					"attributes":{
						"POSITION":0,
						"NORMAL":1,
						"TEXCOORD_0":2
					},
					"indices":3,
					"material":0
				}
			]
		}
	],
	"textures":[
		{
			"sampler":0,
			"source":0
		},
		{
			"sampler":0,
			"source":1
		},
		{
			"sampler":0,
			"source":2
		}
	],
	"images":[
		{
			"mimeType":"image/png",
			"name":"ConcreteStatue_nor",
			"uri":"ConcreteStatue_nor.png"
		},
		{
			"mimeType":"image/png",
			"name":"ConcreteStatue_base",
			"uri":"ConcreteStatue_base.png"
		},
		{
			"mimeType":"image/png",
			"name":"ConcreteStatue_metal-ConcreteStatue_rough",
			"uri":"ConcreteStatue_metal-ConcreteStatue_rough.png"
		}
	],
	"accessors":[
		{
			"bufferView":0,
			"componentType":5126,
			"count":6556,
			"max":[
				1.5238314867019653,
				2.0559744834899902,
				1.0594077110290527
			],
			"min":[
				-1.5935134887695312,
				-3.2118029594421387,
				-1.0942654609680176
			],
			"type":"VEC3"
		},
		{
			"bufferView":1,
			"componentType":5126,
			"count":6556,
			"type":"VEC3"
		},
		{
			"bufferView":2,
			"componentType":5126,
			"count":6556,
			"type":"VEC2"
		},
		{
			"bufferView":3,
			"componentType":5123,
			"count":33216,
			"type":"SCALAR"
		}
	],
	"bufferViews":[
		{
			"buffer":0,
			"byteLength":78672,
			"byteOffset":0,
			"target":34962
		},
		{
			"buffer":0,
			"byteLength":78672,
			"byteOffset":78672,
			"target":34962
		},
		{
			"buffer":0,
			"byteLength":52448,
			"byteOffset":157344,
			"target":34962
		},
		{
			"buffer":0,
			"byteLength":66432,
			"byteOffset":209792,
			"target":34963
		}
	],
	"samplers":[
		{
			"magFilter":9729,
			"minFilter":9987
		}
	],
	"buffers":[
		{
			"byteLength":276224,
			"uri":"Scp173.bin"
		}
	]
}
