{
	"asset":{
		"generator":"Khronos glTF Blender I/O v3.6.27",
		"version":"2.0"
	},
	"scene":0,
	"scenes":[
		{
			"name":"Scene",
			"nodes":[
				0
			]
		}
	],
	"nodes":[
		{
			"mesh":0,
			"name":"Shotgun",
			"rotation":[
				0.70710688829422,
				0,
				0,
				0.7071066498756409
			]
		}
	],
	"materials":[
		{
			"doubleSided":true,
			"name":"phong1.001",
			"normalTexture":{
				"index":0
			},
			"pbrMetallicRoughness":{
				"baseColorTexture":{
					"index":1
				},
				"metallicRoughnessTexture":{
					"index":2
				}
			}
		},
		{
			"doubleSided":true,
			"name":"phong5.001",
			"normalTexture":{
				"index":3
			},
			"pbrMetallicRoughness":{
				"baseColorTexture":{
					"index":4
				},
				"metallicRoughnessTexture":{
					"index":5
				}
			}
		},
		{
			"doubleSided":true,
			"name":"phong4.001",
			"normalTexture":{
				"index":6
			},
			"pbrMetallicRoughness":{
				"baseColorTexture":{
					"index":7
				},
				"metallicFactor":0,
				"metallicRoughnessTexture":{
					"index":8
				}
			}
		},
		{
			"doubleSided":true,
			"emissiveFactor":[
				1,
				1,
				1
			],
			"emissiveTexture":{
				"index":9
			},
			"name":"phong2.001",
			"normalTexture":{
				"index":10
			},
			"pbrMetallicRoughness":{
				"baseColorTexture":{
					"index":11
				},
				"metallicRoughnessTexture":{
					"index":12
				}
			}
		}
	],
	"meshes":[
		{
			"name":"Untitled.007",
			"primitives":[
				{
					"attributes":{
						"POSITION":0,
						"NORMAL":1,
						"TEXCOORD_0":2
					},
					"indices":3,
					"material":0
				},
				{
					"attributes":{
						"POSITION":4,
						"NORMAL":5,
						"TEXCOORD_0":6
					},
					"indices":7,
					"material":1
				},
				{
					"attributes":{
						"POSITION":8,
						"NORMAL":9,
						"TEXCOORD_0":10
					},
					"indices":11,
					"material":2
				},
				{
					"attributes":{
						"POSITION":12,
						"NORMAL":13,
						"TEXCOORD_0":14
					},
					"indices":15,
					"material":3
				}
			]
		}
	],
	"textures":[
		{
			"sampler":0,
			"source":0
		},
		{
			"sampler":0,
			"source":1
		},
		{
			"sampler":0,
			"source":2
		},
		{
			"sampler":0,
			"source":3
		},
		{
			"sampler":0,
			"source":4
		},
		{
			"sampler":0,
			"source":5
		},
		{
			"sampler":0,
			"source":6
		},
		{
			"sampler":0,
			"source":7
		},
		{
			"sampler":0,
			"source":8
		},
		{
			"sampler":0,
			"source":9
		},
		{
			"sampler":0,
			"source":10
		},
		{
			"sampler":0,
			"source":11
		},
		{
			"sampler":0,
			"source":12
		}
	],
	"images":[
		{
			"mimeType":"image/png",
			"name":"SCPShotgun_Export_phong1_Normal",
			"uri":"SCPShotgun_Export_phong1_Normal.png"
		},
		{
			"mimeType":"image/png",
			"name":"SCPShotgun_Export_phong1_AlbedoTransparency",
			"uri":"SCPShotgun_Export_phong1_AlbedoTransparency.png"
		},
		{
			"mimeType":"image/png",
			"name":"SCPShotgun_Export_phong1_MetallicSmoothness",
			"uri":"SCPShotgun_Export_phong1_MetallicSmoothness.png"
		},
		{
			"mimeType":"image/png",
			"name":"SCPShotgun_Export_phong5_Normal",
			"uri":"SCPShotgun_Export_phong5_Normal.png"
		},
		{
			"mimeType":"image/png",
			"name":"SCPShotgun_Export_phong5_AlbedoTransparency",
			"uri":"SCPShotgun_Export_phong5_AlbedoTransparency.png"
		},
		{
			"mimeType":"image/png",
			"name":"SCPShotgun_Export_phong5_MetallicSmoothness",
			"uri":"SCPShotgun_Export_phong5_MetallicSmoothness.png"
		},
		{
			"mimeType":"image/png",
			"name":"SCPShotgun_Export_phong4_Normal",
			"uri":"SCPShotgun_Export_phong4_Normal.png"
		},
		{
			"mimeType":"image/png",
			"name":"SCPShotgun_Export_phong4_AlbedoTransparency",
			"uri":"SCPShotgun_Export_phong4_AlbedoTransparency.png"
		},
		{
			"mimeType":"image/png",
			"name":"SCPShotgun_Export_phong4_MetallicSmoothness",
			"uri":"SCPShotgun_Export_phong4_MetallicSmoothness.png"
		},
		{
			"mimeType":"image/png",
			"name":"SCPShotgun_Export_phong2_Emission",
			"uri":"SCPShotgun_Export_phong2_Emission.png"
		},
		{
			"mimeType":"image/png",
			"name":"SCPShotgun_Export_phong2_Normal",
			"uri":"SCPShotgun_Export_phong2_Normal.png"
		},
		{
			"mimeType":"image/png",
			"name":"SCPShotgun_Export_phong2_AlbedoTransparency",
			"uri":"SCPShotgun_Export_phong2_AlbedoTransparency.png"
		},
		{
			"mimeType":"image/png",
			"name":"SCPShotgun_Export_phong2_MetallicSmoothness",
			"uri":"SCPShotgun_Export_phong2_MetallicSmoothness.png"
		}
	],
	"accessors":[
		{
			"bufferView":0,
			"componentType":5126,
			"count":23925,
			"max":[
				0.05962032824754715,
				0.466768741607666,
				0.2067892849445343
			],
			"min":[
				-0.05962032824754715,
				-0.4931189715862274,
				-0.09703832864761353
			],
			"type":"VEC3"
		},
		{
			"bufferView":1,
			"componentType":5126,
			"count":23925,
			"type":"VEC3"
		},
		{
			"bufferView":2,
			"componentType":5126,
			"count":23925,
			"type":"VEC2"
		},
		{
			"bufferView":3,
			"componentType":5123,
			"count":84756,
			"type":"SCALAR"
		},
		{
			"bufferView":4,
			"componentType":5126,
			"count":2382,
			"max":[
				0.05449289083480835,
				0.18979158997535706,
				-0.002104847226291895
			],
			"min":[
				0.023862862959504128,
				0.0017408090643584728,
				-0.0793905183672905
			],
			"type":"VEC3"
		},
		{
			"bufferView":5,
			"componentType":5126,
			"count":2382,
			"type":"VEC3"
		},
		{
			"bufferView":6,
			"componentType":5126,
			"count":2382,
			"type":"VEC2"
		},
		{
			"bufferView":7,
			"componentType":5123,
			"count":7200,
			"type":"SCALAR"
		},
		{
			"bufferView":8,
			"componentType":5126,
			"count":1575,
			"max":[
				0.021978117525577545,
				0.18556709587574005,
				-0.09028506278991699
			],
			"min":[
				-0.022439314052462578,
				0.1027563214302063,
				-0.14854101836681366
			],
			"type":"VEC3"
		},
		{
			"bufferView":9,
			"componentType":5126,
			"count":1575,
			"type":"VEC3"
		},
		{
			"bufferView":10,
			"componentType":5126,
			"count":1575,
			"type":"VEC2"
		},
		{
			"bufferView":11,
			"componentType":5123,
			"count":4932,
			"type":"SCALAR"
		},
		{
			"bufferView":12,
			"componentType":5126,
			"count":310,
			"max":[
				0.016315314918756485,
				0.1687570959329605,
				-0.11482281237840652
			],
			"min":[
				-0.016315314918756485,
				0.16385500133037567,
				-0.1449475735425949
			],
			"type":"VEC3"
		},
		{
			"bufferView":13,
			"componentType":5126,
			"count":310,
			"type":"VEC3"
		},
		{
			"bufferView":14,
			"componentType":5126,
			"count":310,
			"type":"VEC2"
		},
		{
			"bufferView":15,
			"componentType":5123,
			"count":1602,
			"type":"SCALAR"
		}
	],
	"bufferViews":[
		{
			"buffer":0,
			"byteLength":287100,
			"byteOffset":0,
			"target":34962
		},
		{
			"buffer":0,
			"byteLength":287100,
			"byteOffset":287100,
			"target":34962
		},
		{
			"buffer":0,
			"byteLength":191400,
			"byteOffset":574200,
			"target":34962
		},
		{
			"buffer":0,
			"byteLength":169512,
			"byteOffset":765600,
			"target":34963
		},
		{
			"buffer":0,
			"byteLength":28584,
			"byteOffset":935112,
			"target":34962
		},
		{
			"buffer":0,
			"byteLength":28584,
			"byteOffset":963696,
			"target":34962
		},
		{
			"buffer":0,
			"byteLength":19056,
			"byteOffset":992280,
			"target":34962
		},
		{
			"buffer":0,
			"byteLength":14400,
			"byteOffset":1011336,
			"target":34963
		},
		{
			"buffer":0,
			"byteLength":18900,
			"byteOffset":1025736,
			"target":34962
		},
		{
			"buffer":0,
			"byteLength":18900,
			"byteOffset":1044636,
			"target":34962
		},
		{
			"buffer":0,
			"byteLength":12600,
			"byteOffset":1063536,
			"target":34962
		},
		{
			"buffer":0,
			"byteLength":9864,
			"byteOffset":1076136,
			"target":34963
		},
		{
			"buffer":0,
			"byteLength":3720,
			"byteOffset":1086000,
			"target":34962
		},
		{
			"buffer":0,
			"byteLength":3720,
			"byteOffset":1089720,
			"target":34962
		},
		{
			"buffer":0,
			"byteLength":2480,
			"byteOffset":1093440,
			"target":34962
		},
		{
			"buffer":0,
			"byteLength":3204,
			"byteOffset":1095920,
			"target":34963
		}
	],
	"samplers":[
		{
			"magFilter":9729,
			"minFilter":9987
		}
	],
	"buffers":[
		{
			"byteLength":1099124,
			"uri":"scp-shotgun.bin"
		}
	]
}
