{
	"asset":{
		"generator":"Khronos glTF Blender I/O v4.4.55",
		"version":"2.0"
	},
	"scene":0,
	"scenes":[
		{
			"name":"Scene",
			"nodes":[
				0
			]
		}
	],
	"nodes":[
		{
			"mesh":0,
			"name":"Cube",
			"translation":[
				0,
				0.860662043094635,
				0
			]
		}
	],
	"materials":[
		{
			"doubleSided":true,
			"name":"Walls",
			"pbrMetallicRoughness":{
				"baseColorFactor":[
					0.800000011920929,
					0.800000011920929,
					0.800000011920929,
					1
				],
				"metallicFactor":0,
				"roughnessFactor":0.5
			}
		},
		{
			"doubleSided":true,
			"name":"Floor",
			"pbrMetallicRoughness":{
				"baseColorFactor":[
					0.800000011920929,
					0.800000011920929,
					0.800000011920929,
					1
				],
				"metallicFactor":0,
				"roughnessFactor":0.5
			}
		},
		{
			"doubleSided":true,
			"name":"Ceiling",
			"pbrMetallicRoughness":{
				"baseColorFactor":[
					0.800000011920929,
					0.800000011920929,
					0.800000011920929,
					1
				],
				"metallicFactor":0,
				"roughnessFactor":0.5
			}
		}
	],
	"meshes":[
		{
			"name":"Cube.001",
			"primitives":[
				{
					"attributes":{
						"POSITION":0,
						"NORMAL":1,
						"TEXCOORD_0":2
					},
					"indices":3,
					"material":0
				},
				{
					"attributes":{
						"POSITION":4,
						"NORMAL":5,
						"TEXCOORD_0":6
					},
					"indices":7,
					"material":1
				},
				{
					"attributes":{
						"POSITION":8,
						"NORMAL":9,
						"TEXCOORD_0":10
					},
					"indices":11,
					"material":2
				}
			]
		}
	],
	"accessors":[
		{
			"bufferView":0,
			"componentType":5126,
			"count":112,
			"max":[
				9.307816505432129,
				5.130503177642822,
				10.24095630645752
			],
			"min":[
				-7.663460731506348,
				-2.1310524940490723,
				-7.021469593048096
			],
			"type":"VEC3"
		},
		{
			"bufferView":1,
			"componentType":5126,
			"count":112,
			"type":"VEC3"
		},
		{
			"bufferView":2,
			"componentType":5126,
			"count":112,
			"type":"VEC2"
		},
		{
			"bufferView":3,
			"componentType":5123,
			"count":204,
			"type":"SCALAR"
		},
		{
			"bufferView":4,
			"componentType":5126,
			"count":28,
			"max":[
				9.307816505432129,
				-2.115445613861084,
				10.24095630645752
			],
			"min":[
				-7.663460731506348,
				-2.1310524940490723,
				-7.021469593048096
			],
			"type":"VEC3"
		},
		{
			"bufferView":5,
			"componentType":5126,
			"count":28,
			"type":"VEC3"
		},
		{
			"bufferView":6,
			"componentType":5126,
			"count":28,
			"type":"VEC2"
		},
		{
			"bufferView":7,
			"componentType":5123,
			"count":48,
			"type":"SCALAR"
		},
		{
			"bufferView":8,
			"componentType":5126,
			"count":30,
			"max":[
				9.307816505432129,
				5.130503177642822,
				10.240955352783203
			],
			"min":[
				-7.663439750671387,
				5.115445137023926,
				-7.021469593048096
			],
			"type":"VEC3"
		},
		{
			"bufferView":9,
			"componentType":5126,
			"count":30,
			"type":"VEC3"
		},
		{
			"bufferView":10,
			"componentType":5126,
			"count":30,
			"type":"VEC2"
		},
		{
			"bufferView":11,
			"componentType":5123,
			"count":54,
			"type":"SCALAR"
		}
	],
	"bufferViews":[
		{
			"buffer":0,
			"byteLength":1344,
			"byteOffset":0,
			"target":34962
		},
		{
			"buffer":0,
			"byteLength":1344,
			"byteOffset":1344,
			"target":34962
		},
		{
			"buffer":0,
			"byteLength":896,
			"byteOffset":2688,
			"target":34962
		},
		{
			"buffer":0,
			"byteLength":408,
			"byteOffset":3584,
			"target":34963
		},
		{
			"buffer":0,
			"byteLength":336,
			"byteOffset":3992,
			"target":34962
		},
		{
			"buffer":0,
			"byteLength":336,
			"byteOffset":4328,
			"target":34962
		},
		{
			"buffer":0,
			"byteLength":224,
			"byteOffset":4664,
			"target":34962
		},
		{
			"buffer":0,
			"byteLength":96,
			"byteOffset":4888,
			"target":34963
		},
		{
			"buffer":0,
			"byteLength":360,
			"byteOffset":4984,
			"target":34962
		},
		{
			"buffer":0,
			"byteLength":360,
			"byteOffset":5344,
			"target":34962
		},
		{
			"buffer":0,
			"byteLength":240,
			"byteOffset":5704,
			"target":34962
		},
		{
			"buffer":0,
			"byteLength":108,
			"byteOffset":5944,
			"target":34963
		}
	],
	"buffers":[
		{
			"byteLength":6052,
			"uri":"cont1_testroom.bin"
		}
	]
}
