# Blender v3.0.0 OBJ File: ''
# www.blender.org
mtllib room1_templatewofloor.mtl
o room1_templatewofloor.001
v 0.960000 0.000000 10.240000
v 1.040000 0.000000 10.240000
v 1.040000 3.280000 10.240000
v 0.960000 3.280000 10.240000
v 0.960000 0.000000 10.240000
v 0.960000 0.000000 9.920000
v 1.040000 0.000000 9.920000
v 1.040000 0.000000 10.240000
v 1.040000 0.000000 10.240000
v 1.040000 0.000000 9.920000
v 1.040000 3.280000 9.920000
v 1.040000 3.280000 10.240000
v 0.960000 3.280000 9.920000
v 0.960000 3.280000 10.240000
v 1.040000 3.280000 10.240000
v 1.040000 3.280000 9.920000
v 0.960000 0.000000 10.240000
v 0.960000 3.280000 10.240000
v 0.960000 3.280000 9.920000
v 0.960000 0.000000 9.920000
v 0.960000 3.280000 9.920000
v 1.040000 3.280000 9.920000
v 1.040000 0.000000 9.920000
v 0.960000 0.000000 9.920000
v -0.960000 0.000000 10.240000
v -0.960000 3.280000 10.240000
v -1.040000 3.280000 10.240000
v -1.040000 0.000000 10.240000
v -1.040000 0.000000 10.240000
v -1.040000 0.000000 9.920000
v -0.960000 0.000000 9.920000
v -0.960000 0.000000 10.240000
v -1.040000 0.000000 10.240000
v -1.040000 3.280000 10.240000
v -1.040000 3.280000 9.920000
v -1.040000 0.000000 9.920000
v -0.960000 3.280000 10.240000
v -0.960000 3.280000 9.920000
v -1.040000 3.280000 9.920000
v -1.040000 3.280000 10.240000
v -0.960000 3.280000 9.920000
v -0.960000 3.280000 10.240000
v -0.960000 0.000000 10.240000
v -0.960000 0.000000 9.920000
v -1.040000 3.280000 9.920000
v -0.960000 3.280000 9.920000
v -0.960000 0.000000 9.920000
v -1.040000 0.000000 9.920000
v 0.960000 3.199999 10.240000
v 0.960000 3.280000 10.240000
v -0.960000 3.280000 10.240000
v -0.960000 3.199999 10.240000
v -0.960000 3.280000 9.920000
v -0.960000 3.280000 10.240000
v 0.960000 3.280000 10.240000
v 0.960000 3.280000 9.920000
v -0.960000 3.280000 10.240000
v -0.960000 3.280000 9.920000
v -0.960000 3.199999 9.920000
v -0.960000 3.199999 10.240000
v 0.960000 3.280000 9.920000
v 0.960000 3.280000 10.240000
v 0.960000 3.199999 10.240000
v 0.960000 3.199999 9.920000
v -0.960000 3.199999 10.240000
v -0.960000 3.199999 9.920000
v 0.960000 3.199999 9.920000
v 0.960000 3.199999 10.240000
v -0.960000 3.280000 9.920000
v 0.960000 3.280000 9.920000
v 0.960000 3.199999 9.920000
v -0.960000 3.199999 9.920000
vn 0.0000 0.0000 1.0000
vn 0.0000 -1.0000 0.0000
vn 1.0000 0.0000 0.0000
vn 0.0000 1.0000 0.0000
vn -1.0000 0.0000 0.0000
vn 0.0000 0.0000 -1.0000
usemtl Default_OBJ.005
s off
f 1//1 2//1 3//1 4//1
f 5//2 6//2 7//2 8//2
f 9//3 10//3 11//3 12//3
f 13//4 14//4 15//4 16//4
f 17//5 18//5 19//5 20//5
f 21//6 22//6 23//6 24//6
f 25//1 26//1 27//1 28//1
f 29//2 30//2 31//2 32//2
f 33//5 34//5 35//5 36//5
f 37//4 38//4 39//4 40//4
f 41//3 42//3 43//3 44//3
f 45//6 46//6 47//6 48//6
f 49//1 50//1 51//1 52//1
f 53//4 54//4 55//4 56//4
f 57//5 58//5 59//5 60//5
f 61//3 62//3 63//3 64//3
f 65//2 66//2 67//2 68//2
f 69//6 70//6 71//6 72//6
