# Blender v3.0.0 OBJ File: ''
# www.blender.org
mtllib room2C_templatewofloor.mtl
o room2C_templatewofloor
v 9.920000 3.200000 0.960000
v 10.240000 3.200000 0.960000
v 10.240000 3.280000 0.960000
v 9.920000 3.280000 0.960000
v 10.240000 3.200000 -0.960000
v 9.920000 3.200000 -0.960000
v 9.920000 3.280000 -0.960000
v 10.240000 3.280000 -0.960000
v 9.920000 3.200000 -0.960000
v 9.920000 3.200000 0.960000
v 9.920000 3.280000 0.960000
v 9.920000 3.280000 -0.960000
v 10.240000 3.200000 0.960000
v 10.240000 3.200000 -0.960000
v 10.240000 3.280000 -0.960000
v 10.240000 3.280000 0.960000
v 9.920000 3.280000 0.960000
v 10.240000 3.280000 0.960000
v 10.240000 3.280000 -0.960000
v 9.920000 3.280000 -0.960000
v 9.920000 3.200000 -0.960000
v 10.240000 3.200000 -0.960000
v 10.240000 3.200000 0.960000
v 9.920000 3.200000 0.960000
v 0.960000 0.000000 10.240000
v 1.040000 0.000000 10.240000
v 1.040000 3.280000 10.240000
v 0.960000 3.280000 10.240000
v 0.960000 0.000000 10.240000
v 0.960000 0.000000 9.920000
v 1.040000 0.000000 9.920000
v 1.040000 0.000000 10.240000
v 1.040000 0.000000 10.240000
v 1.040000 0.000000 9.920000
v 1.040000 3.280000 9.920000
v 1.040000 3.280000 10.240000
v 0.960000 3.280000 9.920000
v 0.960000 3.280000 10.240000
v 1.040000 3.280000 10.240000
v 1.040000 3.280000 9.920000
v 0.960000 0.000000 10.240000
v 0.960000 3.280000 10.240000
v 0.960000 3.280000 9.920000
v 0.960000 0.000000 9.920000
v 0.960000 3.280000 9.920000
v 1.040000 3.280000 9.920000
v 1.040000 0.000000 9.920000
v 0.960000 0.000000 9.920000
v -0.960000 0.000000 10.240000
v -0.960000 3.280000 10.240000
v -1.040000 3.280000 10.240000
v -1.040000 0.000000 10.240000
v -1.040000 0.000000 10.240000
v -1.040000 0.000000 9.920000
v -0.960000 0.000000 9.920000
v -0.960000 0.000000 10.240000
v -1.040000 0.000000 10.240000
v -1.040000 3.280000 10.240000
v -1.040000 3.280000 9.920000
v -1.040000 0.000000 9.920000
v -0.960000 3.280000 10.240000
v -0.960000 3.280000 9.920000
v -1.040000 3.280000 9.920000
v -1.040000 3.280000 10.240000
v -0.960000 3.280000 9.920000
v -0.960000 3.280000 10.240000
v -0.960000 0.000000 10.240000
v -0.960000 0.000000 9.920000
v -1.040000 3.280000 9.920000
v -0.960000 3.280000 9.920000
v -0.960000 0.000000 9.920000
v -1.040000 0.000000 9.920000
v 9.920000 0.000000 -0.960000
v 10.240000 0.000000 -0.960000
v 10.240000 3.280000 -0.960000
v 9.920000 3.280000 -0.960000
v 10.240000 0.000000 -1.040000
v 9.920000 0.000000 -1.040000
v 9.920000 3.280000 -1.040000
v 10.240000 3.280000 -1.040000
v 9.920000 0.000000 -1.040000
v 9.920000 0.000000 -0.960000
v 9.920000 3.280000 -0.960000
v 9.920000 3.280000 -1.040000
v 10.240000 0.000000 -0.960000
v 10.240000 0.000000 -1.040000
v 10.240000 3.280000 -1.040000
v 10.240000 3.280000 -0.960000
v 9.920000 3.280000 -0.960000
v 10.240000 3.280000 -0.960000
v 10.240000 3.280000 -1.040000
v 9.920000 3.280000 -1.040000
v 9.920000 0.000000 -1.040000
v 10.240000 0.000000 -1.040000
v 10.240000 0.000000 -0.960000
v 9.920000 0.000000 -0.960000
v 0.960000 3.199999 10.240000
v 0.960000 3.280000 10.240000
v -0.960000 3.280000 10.240000
v -0.960000 3.199999 10.240000
v -0.960000 3.280000 9.920000
v -0.960000 3.280000 10.240000
v 0.960000 3.280000 10.240000
v 0.960000 3.280000 9.920000
v -0.960000 3.280000 10.240000
v -0.960000 3.280000 9.920000
v -0.960000 3.199999 9.920000
v -0.960000 3.199999 10.240000
v 0.960000 3.280000 9.920000
v 0.960000 3.280000 10.240000
v 0.960000 3.199999 10.240000
v 0.960000 3.199999 9.920000
v -0.960000 3.199999 10.240000
v -0.960000 3.199999 9.920000
v 0.960000 3.199999 9.920000
v 0.960000 3.199999 10.240000
v -0.960000 3.280000 9.920000
v 0.960000 3.280000 9.920000
v 0.960000 3.199999 9.920000
v -0.960000 3.199999 9.920000
v 9.920000 0.000000 1.040000
v 10.240000 0.000000 1.040000
v 10.240000 3.280000 1.040000
v 9.920000 3.280000 1.040000
v 10.240000 0.000000 0.960000
v 9.920000 0.000000 0.960000
v 9.920000 3.280000 0.960000
v 10.240000 3.280000 0.960000
v 9.920000 0.000000 0.960000
v 9.920000 0.000000 1.040000
v 9.920000 3.280000 1.040000
v 9.920000 3.280000 0.960000
v 10.240000 0.000000 1.040000
v 10.240000 0.000000 0.960000
v 10.240000 3.280000 0.960000
v 10.240000 3.280000 1.040000
v 9.920000 3.280000 1.040000
v 10.240000 3.280000 1.040000
v 10.240000 3.280000 0.960000
v 9.920000 3.280000 0.960000
v 9.920000 0.000000 0.960000
v 10.240000 0.000000 0.960000
v 10.240000 0.000000 1.040000
v 9.920000 0.000000 1.040000
vn 0.0000 0.0000 1.0000
vn 0.0000 0.0000 -1.0000
vn -1.0000 0.0000 0.0000
vn 1.0000 0.0000 0.0000
vn 0.0000 1.0000 0.0000
vn 0.0000 -1.0000 0.0000
usemtl Default_OBJ.003
s off
f 1//1 2//1 3//1 4//1
f 5//2 6//2 7//2 8//2
f 9//3 10//3 11//3 12//3
f 13//4 14//4 15//4 16//4
f 17//5 18//5 19//5 20//5
f 21//6 22//6 23//6 24//6
f 25//1 26//1 27//1 28//1
f 29//6 30//6 31//6 32//6
f 33//4 34//4 35//4 36//4
f 37//5 38//5 39//5 40//5
f 41//3 42//3 43//3 44//3
f 45//2 46//2 47//2 48//2
f 49//1 50//1 51//1 52//1
f 53//6 54//6 55//6 56//6
f 57//3 58//3 59//3 60//3
f 61//5 62//5 63//5 64//5
f 65//4 66//4 67//4 68//4
f 69//2 70//2 71//2 72//2
f 73//1 74//1 75//1 76//1
f 77//2 78//2 79//2 80//2
f 81//3 82//3 83//3 84//3
f 85//4 86//4 87//4 88//4
f 89//5 90//5 91//5 92//5
f 93//6 94//6 95//6 96//6
f 97//1 98//1 99//1 100//1
f 101//5 102//5 103//5 104//5
f 105//3 106//3 107//3 108//3
f 109//4 110//4 111//4 112//4
f 113//6 114//6 115//6 116//6
f 117//2 118//2 119//2 120//2
f 121//1 122//1 123//1 124//1
f 125//2 126//2 127//2 128//2
f 129//3 130//3 131//3 132//3
f 133//4 134//4 135//4 136//4
f 137//5 138//5 139//5 140//5
f 141//6 142//6 143//6 144//6
