{
	"asset":{
		"generator":"Khronos glTF Blender I/O v3.5.30",
		"version":"2.0"
	},
	"extensionsUsed":[
		"KHR_materials_specular",
		"KHR_materials_ior"
	],
	"scene":0,
	"scenes":[
		{
			"name":"Scene",
			"nodes":[
				0
			]
		}
	],
	"nodes":[
		{
			"mesh":0,
			"name":"RZ_room2_conf",
			"rotation":[
				0.7071068286895752,
				0,
				0,
				0.7071068286895752
			]
		}
	],
	"materials":[
		{
			"doubleSided":true,
			"extensions":{
				"KHR_materials_specular":{
					"specularColorFactor":[
						2.371357614441398,
						2.371357614441398,
						2.371357614441398
					]
				},
				"KHR_materials_ior":{
					"ior":1.4500000476837158
				}
			},
			"name":"mat0.014",
			"pbrMetallicRoughness":{
				"baseColorTexture":{
					"index":0
				},
				"metallicFactor":0,
				"roughnessFactor":0.9505894184112549
			}
		},
		{
			"doubleSided":true,
			"extensions":{
				"KHR_materials_specular":{
					"specularColorFactor":[
						2.371357614441398,
						2.371357614441398,
						2.371357614441398
					]
				},
				"KHR_materials_ior":{
					"ior":1.4500000476837158
				}
			},
			"name":"mat1.014",
			"pbrMetallicRoughness":{
				"baseColorTexture":{
					"index":1
				},
				"metallicFactor":0,
				"roughnessFactor":0.9505894184112549
			}
		},
		{
			"doubleSided":true,
			"extensions":{
				"KHR_materials_specular":{
					"specularColorFactor":[
						2.371357614441398,
						2.371357614441398,
						2.371357614441398
					]
				},
				"KHR_materials_ior":{
					"ior":1.4500000476837158
				}
			},
			"name":"mat2.014",
			"pbrMetallicRoughness":{
				"baseColorTexture":{
					"index":2
				},
				"metallicFactor":0,
				"roughnessFactor":0.9505894184112549
			}
		},
		{
			"doubleSided":true,
			"extensions":{
				"KHR_materials_specular":{
					"specularColorFactor":[
						2.371357614441398,
						2.371357614441398,
						2.371357614441398
					]
				},
				"KHR_materials_ior":{
					"ior":1.4500000476837158
				}
			},
			"name":"mat3.014",
			"pbrMetallicRoughness":{
				"baseColorTexture":{
					"index":3
				},
				"metallicFactor":0,
				"roughnessFactor":0.9505894184112549
			}
		},
		{
			"doubleSided":true,
			"extensions":{
				"KHR_materials_specular":{
					"specularColorFactor":[
						2.371357614441398,
						2.371357614441398,
						2.371357614441398
					]
				},
				"KHR_materials_ior":{
					"ior":1.4500000476837158
				}
			},
			"name":"mat4.011",
			"pbrMetallicRoughness":{
				"baseColorTexture":{
					"index":4
				},
				"metallicFactor":0,
				"roughnessFactor":0.9505894184112549
			}
		},
		{
			"doubleSided":true,
			"extensions":{
				"KHR_materials_specular":{
					"specularColorFactor":[
						2.371357614441398,
						2.371357614441398,
						2.371357614441398
					]
				},
				"KHR_materials_ior":{
					"ior":1.4500000476837158
				}
			},
			"name":"mat5.011",
			"pbrMetallicRoughness":{
				"baseColorTexture":{
					"index":5
				},
				"metallicFactor":0,
				"roughnessFactor":0.9505894184112549
			}
		},
		{
			"doubleSided":true,
			"extensions":{
				"KHR_materials_specular":{
					"specularColorFactor":[
						2.371357614441398,
						2.371357614441398,
						2.371357614441398
					]
				},
				"KHR_materials_ior":{
					"ior":1.4500000476837158
				}
			},
			"name":"mat6.009",
			"pbrMetallicRoughness":{
				"baseColorTexture":{
					"index":6
				},
				"metallicFactor":0,
				"roughnessFactor":0.9505894184112549
			}
		},
		{
			"doubleSided":true,
			"extensions":{
				"KHR_materials_specular":{
					"specularColorFactor":[
						2.371357614441398,
						2.371357614441398,
						2.371357614441398
					]
				},
				"KHR_materials_ior":{
					"ior":1.4500000476837158
				}
			},
			"name":"mat7.006",
			"pbrMetallicRoughness":{
				"baseColorTexture":{
					"index":7
				},
				"metallicFactor":0,
				"roughnessFactor":0.9505894184112549
			}
		},
		{
			"doubleSided":true,
			"extensions":{
				"KHR_materials_specular":{
					"specularColorFactor":[
						2.371357614441398,
						2.371357614441398,
						2.371357614441398
					]
				},
				"KHR_materials_ior":{
					"ior":1.4500000476837158
				}
			},
			"name":"mat8.005",
			"pbrMetallicRoughness":{
				"baseColorTexture":{
					"index":8
				},
				"metallicFactor":0,
				"roughnessFactor":0.9505894184112549
			}
		},
		{
			"doubleSided":true,
			"extensions":{
				"KHR_materials_specular":{
					"specularColorFactor":[
						2.371357614441398,
						2.371357614441398,
						2.371357614441398
					]
				},
				"KHR_materials_ior":{
					"ior":1.4500000476837158
				}
			},
			"name":"mat9.003",
			"pbrMetallicRoughness":{
				"baseColorTexture":{
					"index":9
				},
				"metallicFactor":0,
				"roughnessFactor":0.9505894184112549
			}
		},
		{
			"doubleSided":true,
			"extensions":{
				"KHR_materials_specular":{
					"specularColorFactor":[
						2.371357614441398,
						2.371357614441398,
						2.371357614441398
					]
				},
				"KHR_materials_ior":{
					"ior":1.4500000476837158
				}
			},
			"name":"mat10.003",
			"pbrMetallicRoughness":{
				"baseColorTexture":{
					"index":10
				},
				"metallicFactor":0,
				"roughnessFactor":0.9505894184112549
			}
		},
		{
			"doubleSided":true,
			"extensions":{
				"KHR_materials_specular":{
					"specularColorFactor":[
						2.371357614441398,
						2.371357614441398,
						2.371357614441398
					]
				},
				"KHR_materials_ior":{
					"ior":1.4500000476837158
				}
			},
			"name":"mat11.003",
			"pbrMetallicRoughness":{
				"baseColorFactor":[
					0.7529410123825073,
					0.7529410123825073,
					0.7529410123825073,
					1
				],
				"metallicFactor":0,
				"roughnessFactor":0.9505894184112549
			}
		}
	],
	"meshes":[
		{
			"name":"RZ_room2_conf",
			"primitives":[
				{
					"attributes":{
						"POSITION":0,
						"TEXCOORD_0":1,
						"NORMAL":2
					},
					"indices":3,
					"material":0
				},
				{
					"attributes":{
						"POSITION":4,
						"TEXCOORD_0":5,
						"NORMAL":6
					},
					"indices":7,
					"material":1
				},
				{
					"attributes":{
						"POSITION":8,
						"TEXCOORD_0":9,
						"NORMAL":10
					},
					"indices":11,
					"material":2
				},
				{
					"attributes":{
						"POSITION":12,
						"TEXCOORD_0":13,
						"NORMAL":14
					},
					"indices":15,
					"material":3
				},
				{
					"attributes":{
						"POSITION":16,
						"TEXCOORD_0":17,
						"NORMAL":18
					},
					"indices":11,
					"material":4
				},
				{
					"attributes":{
						"POSITION":19,
						"TEXCOORD_0":20,
						"NORMAL":21
					},
					"indices":22,
					"material":5
				},
				{
					"attributes":{
						"POSITION":23,
						"TEXCOORD_0":24,
						"NORMAL":25
					},
					"indices":26,
					"material":6
				},
				{
					"attributes":{
						"POSITION":27,
						"TEXCOORD_0":28,
						"NORMAL":29
					},
					"indices":30,
					"material":7
				},
				{
					"attributes":{
						"POSITION":31,
						"TEXCOORD_0":32,
						"NORMAL":33
					},
					"indices":34,
					"material":8
				},
				{
					"attributes":{
						"POSITION":35,
						"TEXCOORD_0":36,
						"NORMAL":37
					},
					"indices":38,
					"material":9
				},
				{
					"attributes":{
						"POSITION":39,
						"TEXCOORD_0":40,
						"NORMAL":41
					},
					"indices":11,
					"material":10
				},
				{
					"attributes":{
						"POSITION":42,
						"TEXCOORD_0":43,
						"NORMAL":44
					},
					"indices":45,
					"material":11
				}
			]
		}
	],
	"textures":[
		{
			"sampler":0,
			"source":0
		},
		{
			"sampler":0,
			"source":1
		},
		{
			"sampler":0,
			"source":2
		},
		{
			"sampler":0,
			"source":3
		},
		{
			"sampler":0,
			"source":4
		},
		{
			"sampler":0,
			"source":5
		},
		{
			"sampler":0,
			"source":6
		},
		{
			"sampler":0,
			"source":7
		},
		{
			"sampler":0,
			"source":8
		},
		{
			"sampler":0,
			"source":9
		},
		{
			"sampler":0,
			"source":10
		}
	],
	"images":[
		{
			"mimeType":"image/jpeg",
			"name":"tilefloor",
			"uri":"tilefloor.jpg"
		},
		{
			"mimeType":"image/jpeg",
			"name":"misc",
			"uri":"misc.jpg"
		},
		{
			"mimeType":"image/jpeg",
			"name":"ceiling",
			"uri":"ceiling.jpg"
		},
		{
			"mimeType":"image/jpeg",
			"name":"officewall",
			"uri":"officewall.jpg"
		},
		{
			"mimeType":"image/jpeg",
			"name":"miscsigns3",
			"uri":"miscsigns3.jpg"
		},
		{
			"mimeType":"image/jpeg",
			"name":"controlpanel",
			"uri":"controlpanel.jpg"
		},
		{
			"mimeType":"image/jpeg",
			"name":"chatscreen",
			"uri":"chatscreen.jpg"
		},
		{
			"mimeType":"image/jpeg",
			"name":"dirtymetal",
			"uri":"dirtymetal.jpg"
		},
		{
			"mimeType":"image/jpeg",
			"name":"metal",
			"uri":"metal.jpg"
		},
		{
			"mimeType":"image/jpeg",
			"name":"papertexture",
			"uri":"papertexture.jpg"
		},
		{
			"mimeType":"image/jpeg",
			"name":"red",
			"uri":"red.jpg"
		}
	],
	"accessors":[
		{
			"bufferView":0,
			"componentType":5126,
			"count":4,
			"max":[
				12.15999984741211,
				10.239999771118164,
				0
			],
			"min":[
				-4.319999694824219,
				-10.239999771118164,
				0
			],
			"type":"VEC3"
		},
		{
			"bufferView":1,
			"componentType":5126,
			"count":4,
			"type":"VEC2"
		},
		{
			"bufferView":2,
			"componentType":5126,
			"count":4,
			"type":"VEC3"
		},
		{
			"bufferView":3,
			"componentType":5123,
			"count":6,
			"type":"SCALAR"
		},
		{
			"bufferView":4,
			"componentType":5126,
			"count":96,
			"max":[
				7.480000019073486,
				7.87999963760376,
				-3.819999933242798
			],
			"min":[
				-0.11999999731779099,
				-7.87999963760376,
				-3.858240842819214
			],
			"type":"VEC3"
		},
		{
			"bufferView":5,
			"componentType":5126,
			"count":96,
			"type":"VEC2"
		},
		{
			"bufferView":6,
			"componentType":5126,
			"count":96,
			"type":"VEC3"
		},
		{
			"bufferView":7,
			"componentType":5123,
			"count":144,
			"type":"SCALAR"
		},
		{
			"bufferView":8,
			"componentType":5126,
			"count":8,
			"max":[
				12.15999984741211,
				10.239999771118164,
				-3.8399999141693115
			],
			"min":[
				-4.319999694824219,
				-10.239999771118164,
				-3.8399999141693115
			],
			"type":"VEC3"
		},
		{
			"bufferView":9,
			"componentType":5126,
			"count":8,
			"type":"VEC2"
		},
		{
			"bufferView":10,
			"componentType":5126,
			"count":8,
			"type":"VEC3"
		},
		{
			"bufferView":11,
			"componentType":5123,
			"count":12,
			"type":"SCALAR"
		},
		{
			"bufferView":12,
			"componentType":5126,
			"count":240,
			"max":[
				12.15999984741211,
				10.239999771118164,
				0
			],
			"min":[
				-4.319999694824219,
				-10.239999771118164,
				-3.8399999141693115
			],
			"type":"VEC3"
		},
		{
			"bufferView":13,
			"componentType":5126,
			"count":240,
			"type":"VEC2"
		},
		{
			"bufferView":14,
			"componentType":5126,
			"count":240,
			"type":"VEC3"
		},
		{
			"bufferView":15,
			"componentType":5123,
			"count":360,
			"type":"SCALAR"
		},
		{
			"bufferView":16,
			"componentType":5126,
			"count":8,
			"max":[
				2.259999990463257,
				-2.0799999237060547,
				-2.609999895095825
			],
			"min":[
				2.2200000286102295,
				-2.93999981880188,
				-3
			],
			"type":"VEC3"
		},
		{
			"bufferView":17,
			"componentType":5126,
			"count":8,
			"type":"VEC2"
		},
		{
			"bufferView":18,
			"componentType":5126,
			"count":8,
			"type":"VEC3"
		},
		{
			"bufferView":19,
			"componentType":5126,
			"count":144,
			"max":[
				11.847888946533203,
				3.3200008869171143,
				-1.7599999904632568
			],
			"min":[
				11.800000190734863,
				-3.319999933242798,
				-3.2799999713897705
			],
			"type":"VEC3"
		},
		{
			"bufferView":20,
			"componentType":5126,
			"count":144,
			"type":"VEC2"
		},
		{
			"bufferView":21,
			"componentType":5126,
			"count":144,
			"type":"VEC3"
		},
		{
			"bufferView":22,
			"componentType":5123,
			"count":216,
			"type":"SCALAR"
		},
		{
			"bufferView":23,
			"componentType":5126,
			"count":24,
			"max":[
				11.84000015258789,
				-1.5700139999389648,
				-1.9880000352859497
			],
			"min":[
				11.829999923706055,
				-3.0700109004974365,
				-3.052000045776367
			],
			"type":"VEC3"
		},
		{
			"bufferView":24,
			"componentType":5126,
			"count":24,
			"type":"VEC2"
		},
		{
			"bufferView":25,
			"componentType":5126,
			"count":24,
			"type":"VEC3"
		},
		{
			"bufferView":26,
			"componentType":5123,
			"count":36,
			"type":"SCALAR"
		},
		{
			"bufferView":27,
			"componentType":5126,
			"count":720,
			"max":[
				10.18906021118164,
				4.720004081726074,
				-2.2999999771400326e-07
			],
			"min":[
				5.440000057220459,
				-4.890942096710205,
				-1.107692003250122
			],
			"type":"VEC3"
		},
		{
			"bufferView":28,
			"componentType":5126,
			"count":720,
			"type":"VEC2"
		},
		{
			"bufferView":29,
			"componentType":5126,
			"count":720,
			"type":"VEC3"
		},
		{
			"bufferView":30,
			"componentType":5123,
			"count":1080,
			"type":"SCALAR"
		},
		{
			"bufferView":31,
			"componentType":5126,
			"count":120,
			"max":[
				10.239999771118164,
				4.760004043579102,
				-1.107692003250122
			],
			"min":[
				5.400000095367432,
				-4.919996738433838,
				-1.1999999284744263
			],
			"type":"VEC3"
		},
		{
			"bufferView":32,
			"componentType":5126,
			"count":120,
			"type":"VEC2"
		},
		{
			"bufferView":33,
			"componentType":5126,
			"count":120,
			"type":"VEC3"
		},
		{
			"bufferView":34,
			"componentType":5123,
			"count":180,
			"type":"SCALAR"
		},
		{
			"bufferView":35,
			"componentType":5126,
			"count":44,
			"max":[
				6.585853099822998,
				1.015960931777954,
				-1.1990619897842407
			],
			"min":[
				5.8622260093688965,
				0.4321174919605255,
				-1.2200000286102295
			],
			"type":"VEC3"
		},
		{
			"bufferView":36,
			"componentType":5126,
			"count":44,
			"type":"VEC2"
		},
		{
			"bufferView":37,
			"componentType":5126,
			"count":44,
			"type":"VEC3"
		},
		{
			"bufferView":38,
			"componentType":5123,
			"count":60,
			"type":"SCALAR"
		},
		{
			"bufferView":39,
			"componentType":5126,
			"count":8,
			"max":[
				6.585853099822998,
				0.5432528853416443,
				-1.1990619897842407
			],
			"min":[
				5.9455766677856445,
				0.4321174919605255,
				-1.2200000286102295
			],
			"type":"VEC3"
		},
		{
			"bufferView":40,
			"componentType":5126,
			"count":8,
			"type":"VEC2"
		},
		{
			"bufferView":41,
			"componentType":5126,
			"count":8,
			"type":"VEC3"
		},
		{
			"bufferView":42,
			"componentType":5126,
			"count":72,
			"max":[
				10.239999771118164,
				4.799999713897705,
				-2.2999999771400326e-07
			],
			"min":[
				5.119999885559082,
				-5.119999885559082,
				-1.1999999284744263
			],
			"type":"VEC3"
		},
		{
			"bufferView":43,
			"componentType":5126,
			"count":72,
			"type":"VEC2"
		},
		{
			"bufferView":44,
			"componentType":5126,
			"count":72,
			"type":"VEC3"
		},
		{
			"bufferView":45,
			"componentType":5123,
			"count":108,
			"type":"SCALAR"
		}
	],
	"bufferViews":[
		{
			"buffer":0,
			"byteLength":48,
			"byteOffset":0,
			"target":34962
		},
		{
			"buffer":0,
			"byteLength":32,
			"byteOffset":48,
			"target":34962
		},
		{
			"buffer":0,
			"byteLength":48,
			"byteOffset":80,
			"target":34962
		},
		{
			"buffer":0,
			"byteLength":12,
			"byteOffset":128,
			"target":34963
		},
		{
			"buffer":0,
			"byteLength":1152,
			"byteOffset":140,
			"target":34962
		},
		{
			"buffer":0,
			"byteLength":768,
			"byteOffset":1292,
			"target":34962
		},
		{
			"buffer":0,
			"byteLength":1152,
			"byteOffset":2060,
			"target":34962
		},
		{
			"buffer":0,
			"byteLength":288,
			"byteOffset":3212,
			"target":34963
		},
		{
			"buffer":0,
			"byteLength":96,
			"byteOffset":3500,
			"target":34962
		},
		{
			"buffer":0,
			"byteLength":64,
			"byteOffset":3596,
			"target":34962
		},
		{
			"buffer":0,
			"byteLength":96,
			"byteOffset":3660,
			"target":34962
		},
		{
			"buffer":0,
			"byteLength":24,
			"byteOffset":3756,
			"target":34963
		},
		{
			"buffer":0,
			"byteLength":2880,
			"byteOffset":3780,
			"target":34962
		},
		{
			"buffer":0,
			"byteLength":1920,
			"byteOffset":6660,
			"target":34962
		},
		{
			"buffer":0,
			"byteLength":2880,
			"byteOffset":8580,
			"target":34962
		},
		{
			"buffer":0,
			"byteLength":720,
			"byteOffset":11460,
			"target":34963
		},
		{
			"buffer":0,
			"byteLength":96,
			"byteOffset":12180,
			"target":34962
		},
		{
			"buffer":0,
			"byteLength":64,
			"byteOffset":12276,
			"target":34962
		},
		{
			"buffer":0,
			"byteLength":96,
			"byteOffset":12340,
			"target":34962
		},
		{
			"buffer":0,
			"byteLength":1728,
			"byteOffset":12436,
			"target":34962
		},
		{
			"buffer":0,
			"byteLength":1152,
			"byteOffset":14164,
			"target":34962
		},
		{
			"buffer":0,
			"byteLength":1728,
			"byteOffset":15316,
			"target":34962
		},
		{
			"buffer":0,
			"byteLength":432,
			"byteOffset":17044,
			"target":34963
		},
		{
			"buffer":0,
			"byteLength":288,
			"byteOffset":17476,
			"target":34962
		},
		{
			"buffer":0,
			"byteLength":192,
			"byteOffset":17764,
			"target":34962
		},
		{
			"buffer":0,
			"byteLength":288,
			"byteOffset":17956,
			"target":34962
		},
		{
			"buffer":0,
			"byteLength":72,
			"byteOffset":18244,
			"target":34963
		},
		{
			"buffer":0,
			"byteLength":8640,
			"byteOffset":18316,
			"target":34962
		},
		{
			"buffer":0,
			"byteLength":5760,
			"byteOffset":26956,
			"target":34962
		},
		{
			"buffer":0,
			"byteLength":8640,
			"byteOffset":32716,
			"target":34962
		},
		{
			"buffer":0,
			"byteLength":2160,
			"byteOffset":41356,
			"target":34963
		},
		{
			"buffer":0,
			"byteLength":1440,
			"byteOffset":43516,
			"target":34962
		},
		{
			"buffer":0,
			"byteLength":960,
			"byteOffset":44956,
			"target":34962
		},
		{
			"buffer":0,
			"byteLength":1440,
			"byteOffset":45916,
			"target":34962
		},
		{
			"buffer":0,
			"byteLength":360,
			"byteOffset":47356,
			"target":34963
		},
		{
			"buffer":0,
			"byteLength":528,
			"byteOffset":47716,
			"target":34962
		},
		{
			"buffer":0,
			"byteLength":352,
			"byteOffset":48244,
			"target":34962
		},
		{
			"buffer":0,
			"byteLength":528,
			"byteOffset":48596,
			"target":34962
		},
		{
			"buffer":0,
			"byteLength":120,
			"byteOffset":49124,
			"target":34963
		},
		{
			"buffer":0,
			"byteLength":96,
			"byteOffset":49244,
			"target":34962
		},
		{
			"buffer":0,
			"byteLength":64,
			"byteOffset":49340,
			"target":34962
		},
		{
			"buffer":0,
			"byteLength":96,
			"byteOffset":49404,
			"target":34962
		},
		{
			"buffer":0,
			"byteLength":864,
			"byteOffset":49500,
			"target":34962
		},
		{
			"buffer":0,
			"byteLength":576,
			"byteOffset":50364,
			"target":34962
		},
		{
			"buffer":0,
			"byteLength":864,
			"byteOffset":50940,
			"target":34962
		},
		{
			"buffer":0,
			"byteLength":216,
			"byteOffset":51804,
			"target":34963
		}
	],
	"samplers":[
		{
			"magFilter":9729,
			"minFilter":9987
		}
	],
	"buffers":[
		{
			"byteLength":52020,
			"uri":"RZ_room2_conf.bin"
		}
	]
}
